<svg width="91" height="36" viewBox="0 0 91 36" fill="none" xmlns="http://www.w3.org/2000/svg">
    <path d="M8.896 35.432C7.264 35.432 5.808 35.112 4.528 34.472C3.248 33.832 2.224 32.968 1.456 31.88C0.72 30.792 0.352 29.56 0.352 28.184C0.352 26.456 0.784 25.096 1.648 24.104C2.544 23.112 4 22.392 6.016 21.944C8.064 21.496 10.816 21.272 14.272 21.272H15.904V20.024C15.904 18.2 15.52 16.888 14.752 16.088C13.984 15.288 12.72 14.888 10.96 14.888C9.936 14.888 8.864 15.016 7.744 15.272C6.656 15.528 5.52 15.96 4.336 16.568C3.664 16.888 3.104 16.936 2.656 16.712C2.24 16.488 1.952 16.136 1.792 15.656C1.632 15.176 1.648 14.68 1.84 14.168C2.032 13.656 2.432 13.272 3.04 13.016C4.448 12.376 5.84 11.912 7.216 11.624C8.592 11.304 9.888 11.144 11.104 11.144C14.304 11.144 16.672 11.912 18.208 13.448C19.744 14.952 20.512 17.32 20.512 20.552V32.888C20.512 34.52 19.76 35.336 18.256 35.336C16.72 35.336 15.952 34.52 15.952 32.888V31.112C15.376 32.456 14.48 33.512 13.264 34.28C12.048 35.048 10.592 35.432 8.896 35.432ZM9.856 31.976C11.584 31.976 13.024 31.368 14.176 30.152C15.328 28.936 15.904 27.4 15.904 25.544V24.248H14.32C11.984 24.248 10.144 24.36 8.8 24.584C7.488 24.808 6.544 25.192 5.968 25.736C5.424 26.248 5.152 26.968 5.152 27.896C5.152 29.112 5.568 30.104 6.4 30.872C7.232 31.608 8.384 31.976 9.856 31.976ZM29.5893 35.336C27.9893 35.336 27.1893 34.52 27.1893 32.888V3.272C27.1893 1.64 27.9893 0.823999 29.5893 0.823999C31.2213 0.823999 32.0373 1.64 32.0373 3.272V21.8H32.1333L41.1093 12.872C41.6213 12.36 42.0853 11.96 42.5013 11.672C42.9173 11.384 43.4613 11.24 44.1333 11.24C45.1253 11.24 45.7653 11.608 46.0533 12.344C46.3733 13.08 46.1813 13.816 45.4773 14.552L37.0773 22.856L46.3413 32.024C46.8533 32.536 47.0933 33.048 47.0613 33.56C47.0293 34.072 46.8213 34.504 46.4373 34.856C46.0533 35.176 45.5733 35.336 44.9973 35.336C44.2613 35.336 43.6693 35.192 43.2213 34.904C42.8053 34.616 42.3093 34.184 41.7333 33.608L32.1333 24.296H32.0373V32.888C32.0373 34.52 31.2213 35.336 29.5893 35.336ZM61.267 35.432C58.323 35.432 56.131 34.68 54.691 33.176C53.251 31.672 52.531 29.496 52.531 26.648V15.32H49.651C48.307 15.32 47.635 14.696 47.635 13.448C47.635 12.2 48.307 11.576 49.651 11.576H52.531V6.632C52.531 5 53.347 4.184 54.979 4.184C56.579 4.184 57.379 5 57.379 6.632V11.576H62.995C64.339 11.576 65.011 12.2 65.011 13.448C65.011 14.696 64.339 15.32 62.995 15.32H57.379V26.264C57.379 27.96 57.731 29.24 58.435 30.104C59.171 30.968 60.355 31.4 61.987 31.4C62.563 31.4 63.059 31.352 63.475 31.256C63.891 31.128 64.259 31.048 64.579 31.016C64.931 31.016 65.219 31.144 65.443 31.4C65.667 31.624 65.779 32.072 65.779 32.744C65.779 33.256 65.683 33.72 65.491 34.136C65.331 34.52 65.027 34.776 64.579 34.904C64.195 35.064 63.667 35.192 62.995 35.288C62.355 35.384 61.779 35.432 61.267 35.432ZM78.7559 35.432C76.3879 35.432 74.3399 34.936 72.6119 33.944C70.8839 32.952 69.5399 31.56 68.5799 29.768C67.6519 27.944 67.1879 25.784 67.1879 23.288C67.1879 20.792 67.6519 18.648 68.5799 16.856C69.5399 15.032 70.8839 13.624 72.6119 12.632C74.3399 11.64 76.3879 11.144 78.7559 11.144C81.0599 11.144 83.0759 11.64 84.8039 12.632C86.5319 13.624 87.8759 15.032 88.8359 16.856C89.7959 18.648 90.2759 20.792 90.2759 23.288C90.2759 25.784 89.7959 27.944 88.8359 29.768C87.8759 31.56 86.5319 32.952 84.8039 33.944C83.0759 34.936 81.0599 35.432 78.7559 35.432ZM78.7559 31.688C80.7399 31.688 82.3399 30.968 83.5559 29.528C84.7719 28.088 85.3799 26.008 85.3799 23.288C85.3799 20.568 84.7719 18.504 83.5559 17.096C82.3399 15.656 80.7399 14.936 78.7559 14.936C76.7399 14.936 75.1239 15.656 73.9079 17.096C72.6919 18.504 72.0839 20.568 72.0839 23.288C72.0839 26.008 72.6919 28.088 73.9079 29.528C75.1239 30.968 76.7399 31.688 78.7559 31.688Z" fill="white"/>
</svg>
