<svg xmlns="http://www.w3.org/2000/svg" width="64" height="64"><style><![CDATA[.C{fill:#ff6c37}.D{fill:#fff}]]></style><path d="M57.327 12.44a32 32 0 1 0-5.761 44.88c13.98-10.804 16.56-30.895 5.76-44.88z" class="C"/><path d="M42.793 20.388L29.3 33.988l-3.813-3.92c13.28-13.28 14.613-12.08 17.307-9.68z" class="D"/><path d="M29.3 34.36a.48.48 0 0 1-.32-.133l-3.84-3.84a.48.48 0 0 1 0-.667c13.093-13.093 14.88-12.48 17.973-9.68.105.084.164.212.16.347.02.13-.03.263-.133.347L29.647 34.228c-.095.087-.218.134-.347.133zm-3.147-4.293l3.147 3.147 12.8-12.8a2.88 2.88 0 0 0-3.787-.64c-2.32 1.04-6.053 4.213-12.16 10.293z" class="C"/><path d="M33.167 37.748l-3.68-3.76L42.98 20.654c3.627 3.547-1.76 9.467-9.813 17.093z" class="D"/><path d="M33.167 38.228a.56.56 0 0 1-.32-.133l-3.76-3.68a.56.56 0 0 1 0-.427c-.04-.112-.04-.235 0-.347L42.58 20.148c.195-.183.498-.183.693 0 .885.814 1.37 1.972 1.333 3.173 0 3.6-4.107 8.133-11.093 14.747a.56.56 0 0 1-.347.16zm-2.987-4.24L33.193 37c5.333-5.04 10.427-10.24 10.453-13.76a3.04 3.04 0 0 0-.693-2.053z" class="C"/><path d="M25.593 30.148l2.667 2.667a.16.16 0 0 1 0 .24l-5.627 1.2c-.233.05-.47-.062-.582-.272s-.07-.47.102-.635l3.28-3.253s.107 0 .16.053z" class="D"/><path d="M22.5 34.788a1.04 1.04 0 0 1-.88-.507c-.21-.397-.135-.886.187-1.2l3.253-3.28a.64.64 0 0 1 .853 0l2.667 2.667c.158.15.22.377.16.587s-.236.377-.453.427l-5.627 1.2zm2.987-4.053l-3.013 3.013 4.987-1.067zm.24-.24z" class="C"/><path d="M49.967 12.894c-1.93-1.862-4.962-1.94-6.986-.183s-2.37 4.773-.794 6.943 4.547 2.778 6.847 1.4l-3.627-3.627z" class="D"/><path d="M46.367 22.28a5.65 5.65 0 0 1-5.156-3.508c-.86-2.098-.384-4.506 1.2-6.118a5.71 5.71 0 0 1 8 0c.102.086.16.213.16.347a.46.46 0 0 1-.16.347l-4.32 4.08 3.28 3.227a.45.45 0 0 1 .133.4.48.48 0 0 1-.213.347 5.8 5.8 0 0 1-2.933.88zm0-10.347c-1.9.01-3.6 1.153-4.313 2.9s-.325 3.758 1.007 5.1c1.356 1.363 3.4 1.755 5.173.987l-3.147-3.147c-.105-.084-.164-.212-.16-.347.004-.125.062-.242.16-.32l4.16-4.187c-.827-.634-1.838-.98-2.88-.987z" class="C"/><path d="M50.047 12.974l-4.56 4.533 3.627 3.627a5.52 5.52 0 0 0 1.013-.747c1.976-2.1 1.94-5.368-.08-7.413z" class="D"/><path d="M49.033 21.534a.4.4 0 0 1-.32-.133l-3.627-3.627c-.105-.084-.164-.212-.16-.347.004-.125.062-.242.16-.32l4.533-4.453a.48.48 0 0 1 .8 0 5.6 5.6 0 0 1 0 8 4.88 4.88 0 0 1-1.067.853.43.43 0 0 1-.32.027zM46.1 17.428l3.013 3.013a5.12 5.12 0 0 0 .587-.48 4.72 4.72 0 0 0 1.387-3.333 4.58 4.58 0 0 0-1.147-3.04z" class="C"/><path d="M43.353 20.948c-.75-.704-1.917-.704-2.667 0L28.607 33l2 2.027 12.773-11.2c.395-.377.616-.9.61-1.446s-.236-1.065-.637-1.434z" class="D"/><path d="M30.5 35.508a.48.48 0 0 1-.32-.133l-2.027-2.027a.48.48 0 0 1 0-.667l12.08-12.027c.958-.956 2.51-.956 3.467 0 .48.48.74 1.135.72 1.813-.028.674-.326 1.308-.827 1.76l-12.773 11.2c-.093.066-.207.094-.32.08zM29.087 33l1.333 1.36 12.533-10.907c.31-.27.495-.656.507-1.067s-.15-.813-.453-1.093c-.583-.58-1.524-.58-2.107 0z" class="C"/><path d="M19.247 46.734a.27.27 0 0 0 0 .32l.533 2.32c.046.277-.087.553-.332.7a.65.65 0 0 1-.762-.077l-3.653-3.52L26.42 35h3.947l2.667 2.667a60.54 60.54 0 0 1-13.787 9.067z" class="D"/><path d="M19.007 50.654c-.302-.006-.6-.13-.8-.347l-3.493-3.493c-.105-.084-.164-.212-.16-.347.004-.125.062-.242.16-.32L26.18 34.654a.45.45 0 0 1 .24-.133h3.973a.48.48 0 0 1 .32 0l2.667 2.667c.103.095.153.235.133.373a.43.43 0 0 1-.16.347l-.213.187a65.33 65.33 0 0 1-13.68 8.773l.507 2.16a1.15 1.15 0 0 1-1.093 1.413zm-3.253-4.187L18.9 49.64a.16.16 0 0 0 .213 0 .16.16 0 0 0 0-.187l-.533-2.32c-.086-.343.08-.7.4-.853a65.56 65.56 0 0 0 13.333-8.587l-2.187-2.187h-3.573zm3.84.48z" class="C"/><path d="M12.287 49.214l2.667-2.667 4.107 4.107-6.533-.453c-.23-.017-.425-.18-.48-.406s.042-.46.24-.58z" class="D"/><path d="M19.14 51.054l-6.507-.453c-.386-.036-.718-.3-.854-.653s-.053-.772.214-1.054l2.667-2.667a.48.48 0 0 1 .667 0l4.08 4.08c.116.16.116.374 0 .533-.062.1-.156.175-.267.213zm-6.507-1.493l5.333.347-2.933-2.747z" class="C"/><path d="M30.74 35.322l-5.387.827 3.12-3.093z" class="D"/><path d="M25.353 36.654c-.183.005-.35-.1-.427-.267a.45.45 0 0 1 0-.533l3.093-3.12c.195-.183.498-.183.693 0L30.98 35a.45.45 0 0 1 0 .48.47.47 0 0 1-.373.347l-5.333.827zm3.12-2.907L26.74 35.48l2.987-.453z" class="C"/><path d="M30.74 35.32l-3.76.48a.48.48 0 0 1-.453-.8l1.947-1.947z" class="D"/><path d="M26.873 36.308c-.355-.003-.68-.197-.853-.507a.96.96 0 0 1 .16-1.147l1.947-1.947c.195-.183.498-.183.693 0l2.267 2.267a.48.48 0 0 1-.293.827l-3.733.48zm0-.987l2.827-.347-1.253-1.253-1.6 1.6zm23.2-19.28a.4.4 0 0 0-.507-.16.37.37 0 0 0-.186.22c-.03.095-.02.198.026.287.187.393.135.858-.133 1.2-.07.066-.1.157-.1.253a.38.38 0 0 0 .1.253.29.29 0 0 0 .213 0 .35.35 0 0 0 .347-.107 1.84 1.84 0 0 0 .24-1.947z" class="C"/></svg>