<svg width="75" height="64" viewBox="0 0 75 64" fill="none" xmlns="http://www.w3.org/2000/svg">
    <g clip-path="url(#clip0)">
        <path fill-rule="evenodd" clip-rule="evenodd" d="M3.48248 57.553C1.93635 60.2196 3.86044 63.5593 6.94291 63.5593H36.8517H67.934C71.0435 63.5593 72.9639 60.1669 71.3637 57.5008L40.3409 5.81344C38.7734 3.20186 34.9786 3.23058 33.4508 5.86558L3.48248 57.553Z" fill="black"/>
        <path d="M67.9576 26.0593C67.7429 25.9331 67.4939 25.8775 67.2458 25.9004L7.28392 31.7542C6.97719 31.7848 6.69513 31.9358 6.49968 32.1741C6.30424 32.4125 6.21139 32.7187 6.24154 33.0254C6.25688 33.1933 6.30931 33.3556 6.39505 33.5007C6.48079 33.6458 6.59769 33.77 6.7373 33.8644L17.3136 41.8475L21.0826 59.2627C21.1114 59.4745 21.1986 59.6741 21.3344 59.8392C21.4702 60.0042 21.6494 60.1281 21.8517 60.197C22.0423 60.2632 22.2468 60.2786 22.4451 60.2419C22.6435 60.2051 22.8289 60.1174 22.9831 59.9873L32.25 53.1165L45.5085 63.1271C45.6299 63.2186 45.7682 63.2852 45.9153 63.3232C46.0625 63.3613 46.2158 63.3699 46.3663 63.3486C46.5168 63.3274 46.6617 63.2767 46.7926 63.1994C46.9235 63.1221 47.0379 63.0198 47.1293 62.8983C47.1561 62.867 47.1796 62.8329 47.1992 62.7966L68.3517 27.6483C68.4303 27.5181 68.4824 27.3737 68.5051 27.2234C68.5279 27.073 68.5207 26.9197 68.4841 26.7721C68.4475 26.6245 68.3822 26.4856 68.2918 26.3633C68.2015 26.241 68.0879 26.1377 67.9576 26.0593Z" fill="white"/>
        <path d="M22.4873 54.8008L25.2648 46.8241C25.3606 46.5531 25.553 46.3268 25.8051 46.1886L43.7224 36.3559L19.7034 42.0254L22.4873 54.8008Z" fill="black"/>
        <path d="M18.6165 39.9089L51.4831 32.1419C51.7567 32.0738 52.0459 32.1079 52.2961 32.2379C52.5464 32.368 52.7405 32.585 52.842 32.8481C52.9435 33.1112 52.9454 33.4023 52.8473 33.6667C52.7492 33.9312 52.5579 34.1506 52.3094 34.2839L28.4746 47.358L32.9238 50.6949L33.0127 50.7585L45.8962 60.4831L65.1992 28.411L10.481 33.7564L18.6165 39.9089Z" fill="black"/>
        <path d="M18.6165 39.9089L51.4831 32.142C51.7591 32.0766 52.0495 32.115 52.2991 32.2497C52.5487 32.3845 52.7401 32.6063 52.8369 32.8729L65.1674 28.4237L10.4492 33.7691L18.6165 39.9089Z" fill="black"/>
    </g>
    <defs>
        <clipPath id="clip0">
            <rect width="75" height="63.5593" fill="white"/>
        </clipPath>
    </defs>
</svg>
