<svg width="20" height="20" viewBox="0 0 20 20" fill="none" xmlns="http://www.w3.org/2000/svg">
<path fill-rule="evenodd" clip-rule="evenodd" d="M7.99989 4.5C7.46945 4.5 6.96074 4.71071 6.58567 5.08579C6.2106 5.46086 5.99989 5.96957 5.99989 6.5C5.99989 7.03043 6.2106 7.53914 6.58567 7.91421C6.96074 8.28929 7.46945 8.5 7.99989 8.5C8.53032 8.5 9.03903 8.28929 9.4141 7.91421C9.78917 7.53914 9.99989 7.03043 9.99989 6.5C9.99989 5.96957 9.78917 5.46086 9.4141 5.08579C9.03903 4.71071 8.53032 4.5 7.99989 4.5ZM4.49989 6.5C4.49989 5.57174 4.86863 4.6815 5.52501 4.02513C6.18139 3.36875 7.07163 3 7.99989 3C8.92814 3 9.81838 3.36875 10.4748 4.02513C11.1311 4.6815 11.4999 5.57174 11.4999 6.5C11.4999 7.42826 11.1311 8.3185 10.4748 8.97487C9.81838 9.63125 8.92814 10 7.99989 10C7.07163 10 6.18139 9.63125 5.52501 8.97487C4.86863 8.3185 4.49989 7.42826 4.49989 6.5ZM14.7499 9.5C14.9488 9.5 15.1396 9.57902 15.2802 9.71967C15.4209 9.86032 15.4999 10.0511 15.4999 10.25V12H11.9999C11.7347 12 11.4803 12.1054 11.2928 12.2929C11.1052 12.4804 10.9999 12.7348 10.9999 13V16C10.9999 16.2652 11.1052 16.5196 11.2928 16.7071C11.4803 16.8946 11.7347 17 11.9999 17H16.9999C17.2651 17 17.5195 16.8946 17.707 16.7071C17.8945 16.5196 17.9999 16.2652 17.9999 16V13C17.9999 12.7348 17.8945 12.4804 17.707 12.2929C17.5195 12.1054 17.2651 12 16.9999 12V10.25C16.9999 9.65326 16.7628 9.08097 16.3409 8.65901C15.9189 8.23705 15.3466 8 14.7499 8C14.1531 8 13.5809 8.23705 13.1589 8.65901C12.7369 9.08097 12.4999 9.65326 12.4999 10.25C12.4999 10.4489 12.5789 10.6397 12.7196 10.7803C12.8602 10.921 13.051 11 13.2499 11C13.4488 11 13.6396 10.921 13.7802 10.7803C13.9209 10.6397 13.9999 10.4489 13.9999 10.25C13.9999 10.0511 14.0789 9.86032 14.2196 9.71967C14.3602 9.57902 14.551 9.5 14.7499 9.5ZM12.4999 13.5V15.5H16.4999V13.5H12.4999ZM5.30689 13.347C4.55149 13.9005 3.95824 14.6464 3.58889 15.507H9.31288C9.41138 15.507 9.5089 15.5264 9.5999 15.5641C9.69089 15.6018 9.77357 15.657 9.84322 15.7267C9.91286 15.7963 9.9681 15.879 10.0058 15.97C10.0435 16.061 10.0629 16.1585 10.0629 16.257C10.0629 16.3555 10.0435 16.453 10.0058 16.544C9.9681 16.635 9.91286 16.7177 9.84322 16.7873C9.77357 16.857 9.69089 16.9122 9.5999 16.9499C9.5089 16.9876 9.41138 17.007 9.31288 17.007H3.38289C2.97589 17.007 2.57889 16.84 2.30989 16.529C2.16404 16.3613 2.06504 16.158 2.0229 15.9397C1.98076 15.7215 1.99697 15.496 2.06989 15.286C2.39189 14.326 3.16389 13.04 4.43089 12.129C5.72889 11.197 7.51488 10.684 9.76088 11.275C9.85838 11.2979 9.9503 11.3402 10.0312 11.3992C10.1121 11.4583 10.1804 11.5329 10.232 11.6188C10.2835 11.7046 10.3174 11.8 10.3316 11.8991C10.3457 11.9983 10.3399 12.0993 10.3143 12.1961C10.2888 12.293 10.2442 12.3837 10.183 12.4631C10.1218 12.5424 10.0454 12.6086 9.9582 12.6579C9.87101 12.7072 9.77483 12.7386 9.67533 12.7501C9.57583 12.7616 9.47503 12.7531 9.37888 12.725C7.58088 12.252 6.25289 12.667 5.30689 13.347Z" fill="#D72C0D"/>
</svg>
