<svg width="20" height="20" viewBox="0 0 20 20" fill="none" xmlns="http://www.w3.org/2000/svg">
<path d="M7.5 8.125C7.5 7.95924 7.56585 7.80027 7.68306 7.68306C7.80027 7.56585 7.95924 7.5 8.125 7.5H13.125C13.2908 7.5 13.4497 7.56585 13.5669 7.68306C13.6842 7.80027 13.75 7.95924 13.75 8.125C13.75 8.29076 13.6842 8.44973 13.5669 8.56694C13.4497 8.68415 13.2908 8.75 13.125 8.75H8.125C7.95924 8.75 7.80027 8.68415 7.68306 8.56694C7.56585 8.44973 7.5 8.29076 7.5 8.125ZM8.125 11.25H13.125C13.2908 11.25 13.4497 11.1842 13.5669 11.0669C13.6842 10.9497 13.75 10.7908 13.75 10.625C13.75 10.4592 13.6842 10.3003 13.5669 10.1831C13.4497 10.0658 13.2908 10 13.125 10H8.125C7.95924 10 7.80027 10.0658 7.68306 10.1831C7.56585 10.3003 7.5 10.4592 7.5 10.625C7.5 10.7908 7.56585 10.9497 7.68306 11.0669C7.80027 11.1842 7.95924 11.25 8.125 11.25ZM18.125 15C18.125 15.663 17.8616 16.2989 17.3928 16.7678C16.9239 17.2366 16.288 17.5 15.625 17.5H6.875C6.21196 17.5 5.57607 17.2366 5.10723 16.7678C4.63839 16.2989 4.375 15.663 4.375 15V5C4.375 4.66848 4.2433 4.35054 4.00888 4.11612C3.77446 3.8817 3.45652 3.75 3.125 3.75C2.79348 3.75 2.47554 3.8817 2.24112 4.11612C2.0067 4.35054 1.875 4.66848 1.875 5C1.875 5.44844 2.25234 5.75156 2.25625 5.75469C2.35969 5.83429 2.43561 5.94428 2.47336 6.06922C2.51112 6.19416 2.50881 6.32779 2.46676 6.45135C2.42471 6.57491 2.34503 6.68221 2.2389 6.75819C2.13277 6.83417 2.00552 6.87502 1.875 6.875C1.73984 6.87523 1.60836 6.83104 1.50078 6.74922C1.41016 6.68281 0.625 6.06328 0.625 5C0.625 4.33696 0.888392 3.70107 1.35723 3.23223C1.82607 2.76339 2.46196 2.5 3.125 2.5H13.75C14.413 2.5 15.0489 2.76339 15.5178 3.23223C15.9866 3.70107 16.25 4.33696 16.25 5V13.125H16.875C17.0102 13.125 17.1418 13.1689 17.25 13.25C17.3438 13.3172 18.125 13.9367 18.125 15ZM7.52031 13.5531C7.56302 13.4271 7.64451 13.3178 7.75313 13.2409C7.86175 13.164 7.99192 13.1234 8.125 13.125H15V5C15 4.66848 14.8683 4.35054 14.6339 4.11612C14.3995 3.8817 14.0815 3.75 13.75 3.75H5.28828C5.50933 4.12946 5.62553 4.56085 5.625 5V15C5.625 15.3315 5.7567 15.6495 5.99112 15.8839C6.22554 16.1183 6.54348 16.25 6.875 16.25C7.20652 16.25 7.52446 16.1183 7.75888 15.8839C7.9933 15.6495 8.125 15.3315 8.125 15C8.125 14.5516 7.74766 14.2484 7.74375 14.2453C7.63724 14.1691 7.55803 14.0607 7.5178 13.9361C7.47757 13.8115 7.47845 13.6772 7.52031 13.5531ZM16.875 15C16.8672 14.7684 16.7778 14.5471 16.6227 14.375H9.27891C9.34172 14.5774 9.37359 14.7881 9.37344 15C9.37404 15.4389 9.2584 15.8702 9.03828 16.25H15.625C15.9565 16.25 16.2745 16.1183 16.5089 15.8839C16.7433 15.6495 16.875 15.3315 16.875 15Z" fill="#5C5F62"/>
</svg>
