<?xml version="1.0" standalone="no"?>
<!DOCTYPE svg PUBLIC "-//W3C//DTD SVG 20010904//EN"
 "http://www.w3.org/TR/2001/REC-SVG-20010904/DTD/svg10.dtd">
<svg version="1.0" xmlns="http://www.w3.org/2000/svg"
 width="1024.000000pt" height="1024.000000pt" viewBox="0 0 1024.000000 1024.000000"
 preserveAspectRatio="xMidYMid meet">

<g transform="translate(0.000000,1024.000000) scale(0.100000,-0.100000)"
fill="#0d3662" stroke="none">
<path d="M2806 8461 c-29 -31 -64 -111 -313 -721 -107 -265 -166 -422 -170
-455 l-5 -50 312 -500 c172 -275 324 -513 339 -528 14 -16 154 -102 311 -191
412 -236 385 -218 388 -249 l3 -27 -268 5 c-147 3 -282 8 -300 10 -28 3 -812
335 -915 386 -35 18 -51 47 -302 548 -241 479 -268 530 -297 541 -41 17 -80 4
-98 -35 -13 -26 -10 -46 23 -204 133 -627 220 -1009 237 -1043 23 -45 67 -68
649 -333 190 -86 397 -182 460 -213 l115 -56 153 -7 c84 -4 283 -11 442 -15
160 -4 290 -10 290 -13 -1 -3 -38 -29 -83 -57 l-82 -52 -220 -37 c-316 -53
-660 -122 -693 -139 -16 -8 -50 -34 -78 -59 -27 -24 -242 -209 -479 -412 -236
-202 -438 -377 -448 -389 -31 -38 -46 -116 -123 -656 -82 -584 -90 -666 -61
-698 48 -53 115 -34 150 42 13 28 104 276 202 552 l178 501 115 99 c139 120
342 292 576 488 l174 147 218 44 c120 25 226 45 235 45 13 0 12 -9 -11 -58
-15 -31 -33 -74 -39 -94 -12 -37 -103 -124 -613 -586 -112 -102 -160 -152
-168 -176 -8 -25 -8 -149 -1 -463 18 -722 20 -772 36 -802 30 -60 685 -768
723 -782 51 -19 103 35 89 93 -6 23 -144 240 -412 648 l-108 165 12 177 c11
172 55 666 67 759 5 43 12 51 136 164 72 65 143 129 158 141 l27 23 22 -92
c124 -505 491 -891 980 -1026 216 -60 500 -49 732 29 87 30 245 110 337 172
269 182 496 518 570 845 9 40 21 72 25 70 5 -1 80 -65 168 -142 106 -93 159
-146 159 -160 0 -11 18 -231 39 -489 l38 -469 -269 -408 c-290 -440 -291 -441
-236 -482 22 -17 33 -19 55 -11 29 10 676 672 721 738 26 39 27 42 33 260 4
122 13 398 20 613 9 299 10 402 1 431 -9 30 -33 57 -104 119 -51 44 -167 147
-258 229 -91 82 -222 200 -292 261 -94 84 -130 123 -142 154 -9 23 -15 43 -13
45 2 2 135 -28 296 -66 l294 -70 71 -57 c39 -32 195 -159 346 -283 152 -124
293 -238 313 -255 42 -33 15 55 268 -870 43 -159 87 -301 98 -315 24 -33 87
-39 121 -12 18 14 24 32 28 73 6 79 -59 1099 -78 1223 -5 32 -16 69 -25 82 -8
13 -97 92 -197 175 -101 84 -228 192 -283 239 -258 223 -443 374 -470 386 -16
6 -178 44 -360 84 -181 39 -406 89 -499 111 -165 38 -170 40 -248 96 -43 31
-83 62 -89 69 -7 8 5 33 40 83 87 128 89 114 -25 234 -246 258 -382 527 -450
892 -12 64 -18 148 -18 290 -1 110 -5 205 -9 212 -12 20 -142 43 -240 43 -161
0 -340 -39 -490 -108 -42 -19 -81 -32 -85 -28 -4 4 -7 78 -7 164 0 127 4 167
19 212 31 91 83 182 151 264 76 91 82 120 36 167 -60 60 -129 30 -268 -114
-164 -171 -237 -302 -279 -500 -18 -85 -18 -289 0 -381 l13 -68 -61 -92 c-34
-51 -70 -115 -81 -142 -10 -27 -24 -63 -31 -81 l-14 -32 -204 117 -205 117
-256 385 -257 385 76 535 c98 684 93 639 66 673 -30 38 -86 38 -124 -2z"/>
<path d="M6625 8229 c-484 -36 -923 -315 -1181 -752 -140 -237 -201 -492 -192
-802 12 -369 131 -669 383 -958 99 -114 293 -260 447 -338 221 -111 534 -171
778 -148 244 24 488 108 693 241 l68 45 419 -426 c656 -668 615 -632 727 -632
92 0 174 54 210 138 17 43 17 125 -2 171 -11 26 -164 184 -527 543 l-512 505
63 94 c170 254 251 521 251 825 0 569 -318 1088 -820 1340 -105 53 -317 120
-435 139 -124 19 -252 24 -370 15z m315 -351 c227 -31 453 -148 625 -322 318
-321 423 -775 280 -1202 -95 -284 -323 -534 -610 -670 -142 -67 -260 -95 -435
-101 -222 -8 -381 27 -578 125 -295 147 -502 403 -590 730 -23 87 -26 116 -26
277 -1 201 15 291 79 450 152 378 496 658 875 714 143 21 224 21 380 -1z"/>
</g>
</svg>
