<svg xmlns="http://www.w3.org/2000/svg" width="92" height="92" viewBox="0 0 92 92" fill="none"><path d="M46 30.6669V46.0002M46 61.3336H46.0383M11.5 30.4424V61.558C11.5 62.8715 11.5 63.5282 11.6935 64.114C11.8647 64.6321 12.1446 65.1078 12.5144 65.5091C12.9325 65.9627 13.5065 66.2817 14.6547 66.9195L43.0214 82.6788C44.1085 83.2828 44.6521 83.5847 45.2278 83.7031C45.7373 83.8079 46.2627 83.8079 46.7722 83.7031C47.3479 83.5847 47.8915 83.2828 48.9786 82.6788L77.3453 66.9195C78.4935 66.2817 79.0675 65.9627 79.4856 65.5091C79.8554 65.1078 80.1353 64.6321 80.3065 64.114C80.5 63.5282 80.5 62.8715 80.5 61.558V30.4424C80.5 29.129 80.5 28.4723 80.3065 27.8865C80.1353 27.3683 79.8554 26.8927 79.4856 26.4914C79.0675 26.0378 78.4935 25.7188 77.3453 25.0809L48.9786 9.32169C47.8915 8.71772 47.3479 8.41573 46.7722 8.29734C46.2627 8.19255 45.7373 8.19255 45.2278 8.29734C44.6521 8.41573 44.1085 8.71772 43.0214 9.32169L14.6547 25.0809C13.5065 25.7188 12.9325 26.0378 12.5144 26.4914C12.1446 26.8927 11.8647 27.3683 11.6935 27.8865C11.5 28.4723 11.5 29.129 11.5 30.4424Z" stroke="#5C5F62" stroke-width="6" stroke-linecap="round" stroke-linejoin="round"/></svg>
