<svg xmlns="http://www.w3.org/2000/svg" width="64" height="64" viewBox="0 0 64 64">
<g>
<path d="M 0.00 0.00 L 64.00 0.00 L 64.00 64.00 L 0.00 64.00 ZM 39.70 46.27 C40.58,47.81 41.84,45.89 42.50,41.99 C42.87,39.80 43.29,38.00 43.43,38.00 C43.58,38.00 45.13,38.72 46.89,39.60 C55.14,43.71 63.89,34.48 59.60,26.19 C57.69,22.49 56.22,21.97 48.42,22.18 L 42.38 22.35 L 40.82 33.92 C39.96,40.29 39.46,45.84 39.70,46.27 ZM 8.78 39.48 C10.38,40.38 12.73,40.79 14.50,40.47 C16.15,40.18 18.46,39.94 19.63,39.95 C21.98,39.96 22.36,38.81 23.55,28.25 C24.06,23.77 23.93,22.00 23.10,22.00 C22.46,22.00 21.68,22.66 21.37,23.47 C20.87,24.77 20.63,24.77 19.33,23.47 C18.47,22.61 15.99,22.00 13.38,22.00 C9.82,22.00 8.40,22.54 6.45,24.65 C2.24,29.19 3.38,36.47 8.78,39.48 ZM 56.01 35.27 C52.09,40.24 44.00,37.67 44.00,31.45 C44.00,28.26 48.15,24.00 51.26,24.00 C56.98,24.00 59.73,30.53 56.01,35.27 ZM 18.00 36.00 C13.68,40.32 7.00,37.39 7.00,31.17 C7.00,25.08 14.48,21.56 18.35,25.83 C20.62,28.34 20.45,33.55 18.00,36.00 ZM 35.62 32.25 C34.61,38.46 34.60,40.00 35.61,40.00 C37.03,40.00 37.58,38.46 38.48,32.00 C38.83,29.52 39.34,26.26 39.63,24.75 C40.03,22.69 39.76,22.00 38.58,22.00 C37.71,22.00 36.98,22.56 36.95,23.25 C36.92,23.94 36.32,27.99 35.62,32.25 ZM 30.43 33.88 C29.84,39.11 29.96,40.18 31.11,39.80 C31.90,39.53 32.79,37.23 33.18,34.42 C33.56,31.71 34.13,27.81 34.44,25.75 C34.88,22.94 34.68,22.00 33.64,22.00 C32.12,22.00 31.52,24.21 30.43,33.88 ZM 25.00 38.03 C25.00,42.16 27.50,39.33 28.18,34.42 C28.56,31.71 29.13,27.81 29.44,25.75 C29.87,22.96 29.67,22.00 28.66,22.00 C27.37,22.00 25.00,32.39 25.00,38.03 Z" fill="rgb(21,20,20)"/>
<path d="M 39.70 46.27 C39.46,45.84 39.96,40.29 40.82,33.92 L 42.38 22.35 L 48.42 22.18 C56.22,21.97 57.69,22.49 59.60,26.19 C63.89,34.48 55.14,43.71 46.89,39.60 C45.13,38.72 43.58,38.00 43.43,38.00 C43.29,38.00 42.87,39.80 42.50,41.99 C41.84,45.89 40.58,47.81 39.70,46.27 ZM 56.01 35.27 C59.73,30.53 56.98,24.00 51.26,24.00 C48.15,24.00 44.00,28.26 44.00,31.45 C44.00,37.67 52.09,40.24 56.01,35.27 ZM 8.78 39.48 C3.38,36.47 2.24,29.19 6.45,24.65 C8.40,22.54 9.82,22.00 13.38,22.00 C15.99,22.00 18.47,22.61 19.33,23.47 C20.63,24.77 20.87,24.77 21.37,23.47 C21.68,22.66 22.46,22.00 23.10,22.00 C23.93,22.00 24.06,23.77 23.55,28.25 C22.36,38.81 21.98,39.96 19.63,39.95 C18.46,39.94 16.15,40.18 14.50,40.47 C12.73,40.79 10.38,40.38 8.78,39.48 ZM 18.00 36.00 C20.45,33.55 20.62,28.34 18.35,25.83 C14.48,21.56 7.00,25.08 7.00,31.17 C7.00,37.39 13.68,40.32 18.00,36.00 ZM 25.00 38.03 C25.00,32.39 27.37,22.00 28.66,22.00 C29.67,22.00 29.87,22.96 29.44,25.75 C29.13,27.81 28.56,31.71 28.18,34.42 C27.50,39.33 25.00,42.16 25.00,38.03 ZM 30.43 33.88 C31.52,24.21 32.12,22.00 33.64,22.00 C34.68,22.00 34.88,22.94 34.44,25.75 C34.13,27.81 33.56,31.71 33.18,34.42 C32.79,37.23 31.90,39.53 31.11,39.80 C29.96,40.18 29.84,39.11 30.43,33.88 ZM 35.62 32.25 C36.32,27.99 36.92,23.94 36.95,23.25 C36.98,22.56 37.71,22.00 38.58,22.00 C39.76,22.00 40.03,22.69 39.63,24.75 C39.34,26.26 38.83,29.52 38.48,32.00 C37.58,38.46 37.03,40.00 35.61,40.00 C34.60,40.00 34.61,38.46 35.62,32.25 Z" fill="rgb(240,238,229)"/>
</g>
</svg>