<svg xmlns="http://www.w3.org/2000/svg" width="32" height="32" viewBox="0 0 32 32" fill="none">
<path d="M11.1998 17.6C11.1998 16.7164 11.9161 16 12.7998 16C13.6835 16 14.3998 16.7164 14.3998 17.6V25.6C14.3998 26.4837 13.6835 27.2 12.7998 27.2C11.9161 27.2 11.1998 26.4837 11.1998 25.6V17.6Z" fill="#5C5F62"/>
<path d="M17.5998 9.60005C17.5998 8.71639 18.3161 8.00005 19.1998 8.00005C20.0835 8.00005 20.7998 8.71639 20.7998 9.60005V25.6C20.7998 26.4837 20.0835 27.2 19.1998 27.2C18.3161 27.2 17.5998 26.4837 17.5998 25.6V9.60005Z" fill="#5C5F62"/>
<path d="M23.9998 6.40005C23.9998 5.51639 24.7162 4.80005 25.5998 4.80005C26.4835 4.80005 27.1998 5.51639 27.1998 6.40005V25.6C27.1998 26.4837 26.4835 27.2 25.5998 27.2C24.7162 27.2 23.9998 26.4837 23.9998 25.6V6.40005Z" fill="#5C5F62"/>
<path d="M4.7998 12.8C4.7998 11.9164 5.51615 11.2 6.3998 11.2C7.28346 11.2 7.9998 11.9164 7.9998 12.8V25.6C7.9998 26.4837 7.28346 27.2 6.3998 27.2C5.51615 27.2 4.7998 26.4837 4.7998 25.6V12.8Z" fill="#5C5F62"/>
</svg>