<svg fill="none" height="76" viewBox="0 0 452 76" width="452" xmlns="http://www.w3.org/2000/svg" xmlns:xlink="http://www.w3.org/1999/xlink"><clipPath id="a"><path d="m0 .5h452v75h-452z"/></clipPath><mask id="b" height="76" maskUnits="userSpaceOnUse" width="452" x="0" y="0"><path d="m451.771.5h-451.771v75h451.771z" fill="#fff"/></mask><g clip-path="url(#a)"><g fill="#000" mask="url(#b)"><path d="m451.771 24.7637-2.316 3.5894-8.163 1.1163c-.058.0075-.111.0401-.144.0903l-27.436 40.2993-.676.9231-2.987 4.0033h-6.043l-.065-3.9181-.01-.8954v-40.4022l-6.452 3.0903v-4.4398l10.122-3.4565 3.586.005 11.334.015-2.613 3.9206-7.116 1.0059s-.188 30.3888-.183 30.8904l22.022-30.6446c.078-.1254.002-.2935-.146-.3161l-6.291-1.2843 2.545-3.5919h21.035z"/><path d="m342.945 1.52075-12.239 5.59114.739 2.52341 6.965-.36371v17.63371c-2.372-1.1287-6.704-2.7742-8.764-2.7742-15.055 2.0568-25.263 11.1923-25.263 27.9406 0 4.3294.628 8.1798 1.869 11.4507l1.849 3.7324c3.257 5.1522 8.636 8.1045 16.083 8.1045l15.454-7.0334 1.87 7.0284 18.195-8.3077c4.101 5.4457 10.55 8.3102 18.203 8.3102l19.002-8.7918-1.062-4.1463v.0075c-5.224 2.2224-11.462 4.7358-14.54 4.7358-10.09 0-15.962-7.7032-15.962-18.6823 0-.2408.005-.4791.01-.7199h32.027l-4.819-18.5719c-3.191-2.7692-8.372-5.1295-13.214-5.1295-12.562 3.0802-24.406 10.7733-24.406 26.8845 0 4.7409.877 8.827 2.455 12.2333l-7.44 3.2208s-1.754-1.174-1.754-5.2827v-60.00492zm34.755 27.97315c2.679 0 4.224.5118 5.973 1.643l2.788 11.0167-20.688 1.0485c1.4-8.2826 6.088-13.7082 11.927-13.7082zm-39.29 31.3771c-3.794 3.9482-10.209 5.8044-12.995 5.8044-6.186 0-10.723-5.8696-10.723-17.2726 0-12.1254 5.258-20.1321 13.509-20.1321 4.329 0 7.94 1.5401 10.209 4.1112v27.4942z"/><path d="m294.928 75.4995 6.281-8.5284-6.281-4.515-6.279 4.515z"/><path d="m96.6105 70.2801-10.1907-.9231v-18.2935c.0377-1.7884.3467-3.7173 2.3567-5.719l-.0075-.0151 20.206-20.4055h-11.8922l-11.4846 17.1346-.206-16.5376-4.1206.306-11.8414 5.388v4.4373l7.2084-3.3412v37.1589l-13.751.0878c-.1181 0-.211-.0953-.211-.2082l-.0277-68.8495-.2964.132943-7.9923 3.574417c-.0352.01505-.0653.04264-.088.07274l-43.6497 65.2049c-.0327.0501-.0855.0827-.1458.0903l-8.1631 1.1162-2.31652969 3.5894h23.04472969l2.5452-3.5919-8.3014-1.2843c-.1482-.0226-.2236-.1907-.1457-.3186l8.5275-13.6781c.0226-.0351.0527-.0627.0929-.0802l14.4896-6.4666c1.4297-.6371 2.9774-.9682 4.5427-.9682h7.148l-.0075 2.4908v.01l-.0502 18.9607-6.8642 1.0059-2.613 3.9205h55.2299zm-56.4083-25.7458-10.1756 4.663c-.191.0853-.3769-.1279-.2613-.301l22.301-34.3369.005 6.1605-.1181 17.0268-.01 5.7817-7.0853-.0075c-1.608 0-3.2009.3437-4.6607 1.0134z"/><path d="m282.37 62.3081c-5.223 2.2224-12.03 4.954-15.107 4.954-10.091 0-15.962-7.7032-15.962-18.6823 0-.2408.005-.479.01-.7199h32.027l-4.819-18.5719c-3.191-2.7692-8.372-5.1296-13.214-5.1296-12.562 3.0803-24.406 10.7735-24.406 26.8847 0 4.7408.877 8.8269 2.455 12.2332l-7.44 3.2208s-1.754-1.1739-1.754-5.2826v-60.00259l-5.258.41138-12.239 5.59112.739 2.52341 6.965-.36371v17.63379c-2.372-1.1287-6.704-2.7742-8.764-2.7742-15.055 2.0569-25.263 11.1923-25.263 27.9406 0 4.3295.628 8.1798 1.869 11.4507l-7.45 3.4716c-1.03-1.643-1.879-2.3228-1.879-6.735v-19.816c0-13.031-3.294-16.317-16.268-16.317l-18.638 8.4633v6.8604h8.856l1.749-7.4223c2.264-.9231 5.663-1.8486 8.445-1.8486 5.562 0 6.075 3.6948 6.075 9.8503v3.0928l-23.168 10.495c-1.781 2.4205-2.985 4.5903-3.422 7.2015-4.422 2.3002-14.243 6.6697-17.861 6.6697-10.091 0-16.294-8.0318-16.294-19.0109s5.354-18.9832 12.356-18.9832c2.679 0 4.221.5117 5.973 1.6429l2.115 8.3128h7.874v-10.2618c-3.193-2.7692-9.474-5.1296-14.313-5.1296-12.563 3.0803-24.407 10.7735-24.407 26.8847s9.681 24.4214 22.964 24.4214l21.631-9.8403c1.203 6.5869 7.218 9.9657 13.439 9.8353l14.555-6.6246 1.819 6.4916 17.703-7.9691c3.256 5.1522 8.636 8.1046 16.083 8.1046l15.454-7.0335 1.869 7.0284 18.196-8.3076c4.1 5.4456 10.55 8.3102 18.203 8.3102l19.57-9.0101-1.063-4.1463v.0075zm-18.713-32.7115c2.678 0 4.224.5117 5.972 1.6429l2.789 11.0168-20.688 1.0485c1.4-8.2826 6.088-13.7082 11.927-13.7082zm-90.558 33.8729c-3.92 3.143-8.211 4.5828-11.136 4.5828-1.796 0-5.856-.7852-5.856-6.0176 0-2.1547.515-4.2065 1.957-5.7467l15.035-6.9255zm51.265-2.4933c-3.794 3.9481-10.208 5.8043-12.995 5.8043-6.185 0-10.723-5.8695-10.723-17.2726 0-12.1254 5.259-20.1321 13.51-20.1321 4.329 0 7.939 1.5402 10.208 4.1112v27.4942z"/></g></g></svg>