<svg xmlns="http://www.w3.org/2000/svg" viewBox="0 0 512 512" fill="none">
  <path fill-rule="evenodd" clip-rule="evenodd" d="M377.007 398.956L274.538 211.203L295.538 177.046L440.628 437.775H62.3528L37.7771 398.956H377.007ZM97.7905 336.243L96.8768 337.731L314.592 337.401L334.425 373.731H36.8949L229.869 45.2254H274.42L97.7905 336.243ZM212.366 312.348L259.265 236.026L300.847 312.199L212.366 312.348ZM182.639 312.38L141.83 312.451L296.546 57.5191L483.132 383.63L461.841 423.874L297.444 128.454L296.617 126.989L182.639 312.38ZM311.268 32.2937L304.226 20H215.344L0 386.591L48.3951 463H469.757L511.748 383.646L512 383.173L311.268 32.2937Z" fill="#009CC9"/>
</svg>
