<svg width="24" height="24" viewBox="0 0 24 24" fill="none" xmlns="http://www.w3.org/2000/svg">
<path d="M2.18153 2.25006C1.98276 2.24741 1.79303 2.33566 1.66323 2.49114C1.53343 2.64662 1.47686 2.85341 1.50868 3.05604L4.3649 20.9613C4.43836 21.4136 4.8157 21.7461 5.25979 21.7499H18.9622C19.2956 21.7544 19.5818 21.5061 19.6351 21.1663L22.4913 3.05951C22.5231 2.85688 22.4666 2.65009 22.3368 2.49462C22.207 2.33914 22.0172 2.25088 21.8185 2.25353L2.18153 2.25006ZM14.2086 15.1909H9.83512L8.65092 8.80213H15.2683L14.2086 15.1909Z" fill="#2684FF"/>
<path fill-rule="evenodd" clip-rule="evenodd" d="M21.5828 8.80273H15.2682L14.2085 15.1915H9.83498L4.6709 21.5213C4.83458 21.6674 5.04326 21.7487 5.25964 21.7505H18.9655C19.2988 21.755 19.585 21.5067 19.6383 21.1669L21.5828 8.80273Z" fill="url(#paint0_linear_14806_5202)"/>
<defs>
<linearGradient id="paint0_linear_14806_5202" x1="23.0429" y1="10.5919" x2="15.4318" y2="21.0569" gradientUnits="userSpaceOnUse">
<stop offset="0.18" stop-color="#0052CC"/>
<stop offset="1" stop-color="#2684FF"/>
</linearGradient>
</defs>
</svg>
