<svg width="120" height="120" viewBox="0 0 120 120" fill="none" xmlns="http://www.w3.org/2000/svg">
<g clip-path="url(#clip0_13885_33104)">
<path fill-rule="evenodd" clip-rule="evenodd" d="M60 0C26.916 0 0 26.916 0 60C0 70.368 2.7 80.52 7.824 89.544L0.606 107.79C-2.142 115.044 4.962 122.148 12.216 119.394L30.456 112.17C39.456 117.3 49.638 120 60 120C93.084 120 120 93.084 120 60C120 26.916 93.084 0 60 0ZM31.758 55.758C32.88 54.63 34.41 54 36 54C37.59 54 39.12 54.63 40.242 55.758C41.37 56.88 42 58.41 42 60C42 61.59 41.37 63.12 40.242 64.242C39.12 65.37 37.59 66 36 66C34.41 66 32.88 65.37 31.758 64.242C30.63 63.12 30 61.59 30 60C30 58.41 30.63 56.88 31.758 55.758ZM55.758 55.758C56.88 54.63 58.41 54 60 54C61.59 54 63.12 54.63 64.242 55.758C65.37 56.88 66 58.41 66 60C66 61.59 65.37 63.12 64.242 64.242C63.114 65.364 61.59 66 60 66C58.41 66 56.88 65.37 55.758 64.242C54.636 63.114 54 61.59 54 60C54 58.41 54.63 56.88 55.758 55.758ZM84 54C82.41 54 80.88 54.63 79.758 55.758C78.63 56.88 78 58.41 78 60C78 61.59 78.63 63.12 79.758 64.242C80.886 65.364 82.41 66 84 66C85.59 66 87.12 65.37 88.242 64.242C89.364 63.114 90 61.59 90 60C90 58.41 89.37 56.88 88.242 55.758C87.12 54.63 85.59 54 84 54Z" fill="#8C9196"/>
</g>
<defs>
<clipPath id="clip0_13885_33104">
<rect width="120" height="120" fill="white"/>
</clipPath>
</defs>
</svg>
