<svg width="24" height="24" viewBox="0 0 24 24" fill="none" xmlns="http://www.w3.org/2000/svg">
<g id="circle-tick-minor">
<path id="Vector" fill-rule="evenodd" clip-rule="evenodd" d="M2 10C2 12.1217 2.84285 14.1566 4.34315 15.6569C5.84344 17.1571 7.87827 18 10 18C12.1217 18 14.1566 17.1571 15.6569 15.6569C17.1571 14.1566 18 12.1217 18 10C18 7.87827 17.1571 5.84344 15.6569 4.34315C14.1566 2.84285 12.1217 2 10 2C7.87827 2 5.84344 2.84285 4.34315 4.34315C2.84285 5.84344 2 7.87827 2 10ZM14.16 8.56C14.2755 8.40594 14.3316 8.21538 14.318 8.02329C14.3043 7.8312 14.2219 7.65048 14.0857 7.51431C13.9495 7.37815 13.7688 7.29566 13.5767 7.28201C13.3846 7.26836 13.1941 7.32446 13.04 7.44L9.2 11.28L7.36 9.44C7.20594 9.32446 7.01538 9.26836 6.82329 9.28201C6.6312 9.29566 6.45048 9.37815 6.31431 9.51431C6.17815 9.65048 6.09566 9.8312 6.08201 10.0233C6.06836 10.2154 6.12446 10.4059 6.24 10.56L8.64 12.96C8.96 13.28 9.44 13.28 9.76 12.96L14.16 8.56Z" fill="#007F5F"/>
</g>
</svg>