<svg width="24" height="24" viewBox="0 0 24 24" fill="none" xmlns="http://www.w3.org/2000/svg">
    <g id="circle-cancel_minor">
        <path id="Primary fill" fill-rule="evenodd" clip-rule="evenodd" d="M10 2C5.582 2 2 5.582 2 10C2 14.419 5.582 18 10 18C14.418 18 18 14.419 18 10C18 5.582 14.418 2 10 2ZM7.70711 6.29329C7.31658 5.90277 6.68342 5.90277 6.29289 6.29329C5.90237 6.68381 5.90237 7.31698 6.29289 7.7075L8.58579 10.0004L6.29289 12.2933C5.90237 12.6838 5.90237 13.317 6.29289 13.7075C6.68342 14.098 7.31658 14.098 7.70711 13.7075L10 11.4146L12.2929 13.7075C12.6834 14.098 13.3166 14.098 13.7071 13.7075C14.0976 13.317 14.0976 12.6838 13.7071 12.2933L11.4142 10.0004L13.7071 7.7075C14.0976 7.31698 14.0976 6.68381 13.7071 6.29329C13.3166 5.90277 12.6834 5.90277 12.2929 6.29329L10 8.58618L7.70711 6.29329Z" fill="#D72C0D"/>
    </g>
</svg>