<svg width="20" height="20" viewBox="0 0 20 20" fill="none" xmlns="http://www.w3.org/2000/svg">
    <path d="M12.8 12.8V14.76C12.8 15.5441 12.8 15.9361 12.6474 16.2356C12.5132 16.499 12.299 16.7132 12.0356 16.8474C11.7361 17 11.3441 17 10.56 17H5.24C4.45593 17 4.06389 17 3.76441 16.8474C3.50099 16.7132 3.28681 16.499 3.15259 16.2356C3 15.9361 3 15.5441 3 14.76V9.44C3 8.65593 3 8.26389 3.15259 7.96441C3.28681 7.70099 3.50099 7.48681 3.76441 7.35259C4.06389 7.2 4.45593 7.2 5.24 7.2H7.2M9.44 12.8H14.76C15.5441 12.8 15.9361 12.8 16.2356 12.6474C16.499 12.5132 16.7132 12.299 16.8474 12.0356C17 11.7361 17 11.3441 17 10.56V5.24C17 4.45593 17 4.06389 16.8474 3.76441C16.7132 3.50099 16.499 3.28681 16.2356 3.15259C15.9361 3 15.5441 3 14.76 3H9.44C8.65593 3 8.26389 3 7.96441 3.15259C7.70099 3.28681 7.48681 3.50099 7.35259 3.76441C7.2 4.06389 7.2 4.45593 7.2 5.24V10.56C7.2 11.3441 7.2 11.7361 7.35259 12.0356C7.48681 12.299 7.70099 12.5132 7.96441 12.6474C8.26389 12.8 8.65593 12.8 9.44 12.8Z" stroke="#8C9196" stroke-width="1.68" stroke-linecap="round" stroke-linejoin="round"/>
</svg> 