<?xml version="1.0" encoding="UTF-8"?>
<svg version="1.1" xmlns="http://www.w3.org/2000/svg" width="640" height="480">
<path d="M0 0 C0.66 0 1.32 0 2 0 C3.35097374 1.51151546 4.62927345 3.08813313 5.875 4.6875 C10.80592437 10.85115546 16.08981883 16.60367525 21.48144531 22.36376953 C22.9795475 23.97796259 24.45770268 25.60807697 25.9296875 27.24609375 C30.39926252 32.2134814 34.87367401 37.01733848 40.0078125 41.31640625 C42.21904177 43.18511177 44.31858701 45.15234194 46.4375 47.125 C58.95406174 58.38035094 72.84244232 67.94632643 87 77 C87.59893066 77.38575195 88.19786133 77.77150391 88.81494141 78.16894531 C101.67016359 86.38067418 115.40057808 93.12670847 129 100 C130.16305664 100.59361328 130.16305664 100.59361328 131.34960938 101.19921875 C167.34750843 119.46054363 206.96022274 130.71900764 245.52459717 142.03414917 C363.08463213 176.55233784 363.08463213 176.55233784 380 207 C384.34098714 215.87929188 382.24104969 225.2813134 379.1875 234.1875 C378.4079542 236.39010279 377.61257621 238.5860816 376.80834961 240.77978516 C375.96060366 243.10820607 375.13367261 245.44178871 374.328125 247.78515625 C374.08352539 248.49164307 373.83892578 249.19812988 373.58691406 249.92602539 C372.56996056 253.5196277 372.5645723 256.26776259 373 260 C375.65406265 264.08905455 377.83523046 265.72909483 382.453125 267.17578125 C383.53553467 267.52455322 384.61794434 267.8733252 385.7331543 268.23266602 C386.89371338 268.58901123 388.05427246 268.94535645 389.25 269.3125 C390.44987549 269.69784912 391.64975098 270.08319824 392.88598633 270.48022461 C396.58616423 271.66818543 400.29223476 272.83596299 404 274 C444.04311243 286.64335517 444.04311243 286.64335517 454 299 C455.11207503 301.28956625 455.82293771 303.42029247 456.44921875 305.8828125 C457.86388717 311.32075776 460.99484622 315.07218982 464.75 319.0625 C472.91161399 328.00213701 479.2623361 339.44309875 480.3125 351.625 C479.94402968 355.60447945 479.07964358 359.15376975 478 363 C474.26213733 361.75404578 473.48806989 360.30407708 471.125 357.1875 C446.10295258 326.05074002 405.62131688 306.57003238 366.38409424 302.27047729 C354.84640971 301.34831571 343.17266698 301.77016729 331.60687256 301.9105835 C324.99587852 301.99031244 318.38481093 302.05266784 311.7734375 302.08984375 C310.72130664 302.09583714 310.72130664 302.09583714 309.64792061 302.1019516 C274.1487633 302.25143547 248.82233586 293.34072643 223 269 C222.21367187 268.28972656 221.42734375 267.57945312 220.6171875 266.84765625 C207.31052466 254.33254731 197.92468144 238.12004264 188.56884766 222.59521484 C187.07455975 220.12333803 185.56172979 217.66392516 184.04296875 215.20703125 C178.47243133 206.13312254 173.30753284 196.89809499 168.35089111 187.47808838 C162.88497005 177.09902594 157.39567326 167.15654784 150 158 C149.36747314 157.20480957 149.36747314 157.20480957 148.72216797 156.39355469 C138.73792273 143.90124341 127.54473834 132.90805052 115 123 C113.77139927 121.99597857 112.54497429 120.98929097 111.3203125 119.98046875 C100.60109706 111.1604417 89.59465213 102.78988998 78.3671875 94.62890625 C45.51113957 70.70583754 12.50094072 43.38132825 0 3 C0 2.01 0 1.02 0 0 Z M433 300 C435.85592338 302.95531747 438.84374405 305.57135652 442.0625 308.125 C442.91972656 308.80820312 443.77695312 309.49140625 444.66015625 310.1953125 C446.39075409 311.53009748 448.18151419 312.78767613 450 314 C449.02647032 308.24666163 449.02647032 308.24666163 445.75 303.625 C441.40872004 301.05969821 438.05342311 300 433 300 Z " fill="#FB0001" transform="translate(125,34)"/>
<path d="M0 0 C3.51339546 1.29310591 6.44127238 2.81720639 9.51953125 4.94140625 C10.36878174 5.52075928 11.21803223 6.1001123 12.09301758 6.69702148 C12.99044678 7.31262939 13.88787598 7.9282373 14.8125 8.5625 C50.0697495 32.35620223 82.6452501 41.59012601 125.17477417 35.85525513 C174.21217917 29.25078193 216.73030267 34.13512941 257.359375 64.4453125 C259.63794451 66.24113423 261.88583199 68.01331951 264 70 C264 70.33 264 70.66 264 71 C263.18547363 70.97905273 262.37094727 70.95810547 261.53173828 70.93652344 C238.88649417 70.43180506 220.84570645 72.09463989 200.19042969 81.9609375 C184.42964303 89.43729818 170.617504 94.29146606 153 94 C159.89037832 103.56996989 169.61113116 107.24056655 180.94140625 109.42578125 C186.75994787 110.33358629 192.66450392 110.75285017 198.54077148 111.09082031 C205.34701817 111.58356858 210.92915863 113.08118048 215.97265625 117.875 C219.17841464 124.50592229 217.26357035 133.05395201 215.125 139.75 C213.32750397 144.83624801 213.32750397 144.83624801 211 146 C210.82984375 145.05898438 210.6596875 144.11796875 210.484375 143.1484375 C208.76047261 132.75473923 208.76047261 132.75473923 202.421875 124.765625 C195.59386485 120.57701373 187.47399658 120.94762596 179.89453125 122.73046875 C173.74861036 124.76252087 169.28448962 127.15537113 165.87890625 132.88671875 C164.30614476 136.66833638 164.90444426 140.12947372 166 144 C169.158888 149.75826816 174.4165839 152.74307136 180.0234375 155.8359375 C180.67570313 156.22007812 181.32796875 156.60421875 182 157 C182 157.33 182 157.66 182 158 C170.56362088 158.68618275 162.24066887 157.89450344 153.375 150.0625 C149.30554306 145.70374518 146.61180918 140.42005898 143.796875 135.20703125 C142.34045772 132.60764302 140.86110196 130.31488917 139 128 C137.824375 128.495 136.64875 128.99 135.4375 129.5 C126.13460459 132.56189786 115.8060641 132.186885 106.78515625 128.41796875 C101.31439852 125.63271622 96.04328946 122.50384339 91 119 C91 118.67 91 118.34 91 118 C97.93 118.495 97.93 118.495 105 119 C104.01902344 118.42894531 103.03804688 117.85789062 102.02734375 117.26953125 C91.72206936 111.13271139 82.76018678 104.17600573 74 96 C73.22849609 95.28626221 73.22849609 95.28626221 72.44140625 94.55810547 C65.0649196 87.67322154 58.94313404 80.10896162 53 72 C53.66 71.67 54.32 71.34 55 71 C55.93199219 71.65226562 56.86398437 72.30453125 57.82421875 72.9765625 C70.90155325 82.70894269 70.90155325 82.70894269 86 87 C85.37339478 86.33581055 85.37339478 86.33581055 84.73413086 85.65820312 C82.80044849 83.60685083 80.86896851 81.55343683 78.9375 79.5 C78.28072266 78.80390625 77.62394531 78.1078125 76.94726562 77.390625 C76.29306641 76.69453125 75.63886719 75.9984375 74.96484375 75.28125 C74.3730835 74.65283203 73.78132324 74.02441406 73.17163086 73.37695312 C71.3502552 71.38337095 69.58554269 69.35884721 67.82421875 67.31274414 C63.69464908 62.58116752 59.29250604 58.1486365 54.84765625 53.71484375 C53.98869247 52.85492325 53.1297287 51.99500275 52.24473572 51.10902405 C50.43822985 49.30184139 48.63047538 47.49590608 46.8215332 45.69116211 C44.0706319 42.94561607 41.32510779 40.19477454 38.58007812 37.44335938 C36.81542468 35.6793668 35.05046103 33.9156845 33.28515625 32.15234375 C32.47345474 31.33861801 31.66175323 30.52489227 30.82545471 29.68650818 C26.04105102 24.92149825 21.11703372 20.40333681 16 16 C13.1385018 13.40478337 10.31887607 10.76639128 7.5 8.125 C6.77296875 7.44953125 6.0459375 6.7740625 5.296875 6.078125 C4.61109375 5.43617188 3.9253125 4.79421875 3.21875 4.1328125 C2.59935547 3.55418457 1.97996094 2.97555664 1.34179688 2.37939453 C0 1 0 1 0 0 Z " fill="#FB0001" transform="translate(313,305)"/>
<path d="M0 0 C6.69744609 2.87249381 11.5490655 9.23675083 16.1875 14.6875 C23.51862157 23.21763678 31.70536066 31.24216693 40.2890625 38.50390625 C42.0585251 40.05117606 43.67974448 41.68475308 45.3125 43.375 C49.01164378 47.14140094 53.0778721 50.38192973 57.1875 53.6875 C59.80965894 55.84349735 62.31608568 58.07567103 64.8125 60.375 C70.38515517 65.4450581 76.28372716 70.04719891 82.24609375 74.64453125 C83.89928351 75.92216343 85.54447136 77.20934159 87.1875 78.5 C100.11536794 88.58373699 113.58650933 97.79060689 127.3125 106.75 C127.915177 107.14341583 128.517854 107.53683167 129.13879395 107.94216919 C129.75073608 108.34160736 130.36267822 108.74104553 130.99316406 109.15258789 C140.487975 115.35027694 149.97056111 121.56582085 159.42025757 127.83215332 C160.94141746 128.83952498 162.46400125 129.84475073 163.9881897 130.84753418 C197.33344309 152.79348375 238.96870178 182.76543478 249.375 223.8125 C249.58125 224.864375 249.7875 225.91625 250 227 C246.03600844 223.15302664 242.44917051 219.08294206 238.875 214.875 C229.19041609 203.63085988 218.92051573 193.84039394 207 185 C206.04222656 184.28585938 205.08445313 183.57171875 204.09765625 182.8359375 C189.53030543 172.39437329 173.70831962 163.62714445 158.125 154.8125 C127.09379082 137.23029171 97.39476608 116.84151512 70 94 C68.9790625 93.16597656 67.958125 92.33195312 66.90625 91.47265625 C52.40109149 79.4726209 38.31463355 66.08617806 27 51 C26.27167969 50.07703125 25.54335938 49.1540625 24.79296875 48.203125 C16.9020236 38.04034044 10.26635439 27.33134453 5.0625 15.5625 C4.78003418 14.92473633 4.49756836 14.28697266 4.20654297 13.62988281 C2.31179216 9.16658875 1.0833126 4.72575495 0 0 Z " fill="#FA0102" transform="translate(35,17)"/>
<path d="M0 0 C4.19519242 3.46559374 8.11235081 7.06505375 11.9375 10.9375 C15.40371272 14.43484637 18.90677602 17.79375132 22.65234375 20.98828125 C24.49847312 22.57023903 26.31747088 24.17198426 28.12890625 25.79296875 C60.50104338 54.58817346 98.11559083 76.065819 135.92578125 96.80078125 C220.54415728 143.29700133 220.54415728 143.29700133 233 183 C229.6992076 181.89973587 229.07519718 181.17290663 226.9375 178.5625 C204.08638286 151.87125737 172.46078742 136.59904174 141.20996094 121.84082031 C91.30432108 98.2374984 22.80568365 62.04134179 1 7.375 C0 4 0 4 0 0 Z " fill="#F90102" transform="translate(57,96)"/>
<path d="M0 0 C3.71616454 1.32392458 6.46127449 2.95328518 9.5625 5.375 C34.87444247 24.07940729 65.72258004 40.33869484 98 39 C93.64860261 34.11794439 88.97552091 30.42118061 83.5625 26.8125 C82.94238037 26.39693848 82.32226074 25.98137695 81.68334961 25.55322266 C77.27486242 22.66957509 72.74552371 20.28604963 68 18 C68 17.34 68 16.68 68 16 C106.74312565 24.22479762 139.52264877 46.41661855 169 72 C169.84046875 72.72703125 170.6809375 73.4540625 171.546875 74.203125 C179.02466152 80.80117193 185.99730432 87.90649127 193 95 C192.01 95.495 192.01 95.495 191 96 C188.49169922 95.13891602 188.49169922 95.13891602 185.3046875 93.75390625 C184.12745117 93.25044678 182.95021484 92.7469873 181.73730469 92.22827148 C180.79485901 91.82087234 180.79485901 91.82087234 179.83337402 91.40524292 C158.58211685 82.26023471 137.00744905 75.66804653 114.65689087 69.78448486 C95.19190369 64.64712923 76.73777895 58.63438606 59 49 C58.33806641 48.64824707 57.67613281 48.29649414 56.99414062 47.93408203 C35.84315263 36.67548196 14.50777085 21.34369447 0 2 C0 1.34 0 0.68 0 0 Z " fill="#F90102" transform="translate(163,268)"/>
<path d="M0 0 C10.79976742 2.41256302 20.83709671 5.61943824 31 10 C29.02696226 11.97303774 27.45708131 12.77145934 25 14 C24.34 14.66 23.68 15.32 23 16 C22.01 15.32453125 21.02 14.6490625 20 13.953125 C18.66683683 13.05183159 17.3334938 12.15080416 16 11.25 C15.35160156 10.8065625 14.70320312 10.363125 14.03515625 9.90625 C9.51107981 6.86033715 4.92213568 4.35119874 0 2 C0 1.34 0 0.68 0 0 Z " fill="#F00407" transform="translate(231,284)"/>
<path d="M0 0 C4.88049925 3.9419417 9.0580583 8.11950075 13 13 C6.79522136 11.06375702 0.89174281 8.74390859 -5 6 C-4.360625 5.566875 -3.72125 5.13375 -3.0625 4.6875 C-0.73253997 3.08760823 -0.73253997 3.08760823 0 0 Z " fill="#EC0608" transform="translate(343,351)"/>
<path d="M0 0 C1.32 0.33 2.64 0.66 4 1 C4.99 4.63 5.98 8.26 7 12 C1.33064516 6.62903226 1.33064516 6.62903226 0 3 C0 2.01 0 1.02 0 0 Z " fill="#EB040C" transform="translate(278,232)"/>
<path d="M0 0 C4.67105792 1.55701931 8.08705685 4.08447373 12 7 C10.02 7.99 10.02 7.99 8 9 C6.66368764 7.6905332 5.33102075 6.37734515 4 5.0625 C3.2575 4.33160156 2.515 3.60070312 1.75 2.84765625 C0 1 0 1 0 0 Z " fill="#E60707" transform="translate(313,305)"/>
<path d="M0 0 C0.93423645 3.01031744 1.04449911 3.86650268 0 7 C-0.99 6.67 -1.98 6.34 -3 6 C-3.33 5.01 -3.66 4.02 -4 3 C-2.68 2.01 -1.36 1.02 0 0 Z " fill="#E9060B" transform="translate(603,390)"/>
<path d="M0 0 C3.37503669 1.1858237 5.64722731 2.27573689 8 5 C6.68 5.33 5.36 5.66 4 6 C2.68 4.02 1.36 2.04 0 0 Z " fill="#DD0C0B" transform="translate(366,376)"/>
</svg>
