<?xml version="1.0" encoding="UTF-8"?>
<svg version="1.1" xmlns="http://www.w3.org/2000/svg" width="512" height="512" viewBox="20 210 480 60">
<path d="M0 0 C3.63 0 7.26 0 11 0 C11.94401042 2.37630208 12.88802083 4.75260417 13.83203125 7.12890625 C15.17788952 10.43728694 16.59305629 13.71713134 18 17 C19.98 11.39 21.96 5.78 24 0 C26.64 0 29.28 0 32 0 C33.98 5.61 35.96 11.22 38 17 C40.31297816 11.37175314 42.46426837 5.88697124 44 0 C47.96 0 51.92 0 56 0 C57.37794831 4.13384492 55.82411099 6.79041653 54.2890625 10.66015625 C54.00147064 11.40583359 53.71387878 12.15151093 53.41757202 12.91978455 C52.49542777 15.3041772 51.56028548 17.68323553 50.625 20.0625 C50.00176997 21.66959862 49.37936394 23.27701705 48.7578125 24.88476562 C44.26666151 36.46667698 44.26666151 36.46667698 43 39 C40.36 39 37.72 39 35 39 C33.9936345 36.56495491 32.99473587 34.12729136 32 31.6875 C31.71382812 30.99720703 31.42765625 30.30691406 31.1328125 29.59570312 C29.91089256 26.58454326 29 24.28113016 29 21 C28.34 21 27.68 21 27 21 C26.81824219 21.6290625 26.63648438 22.258125 26.44921875 22.90625 C24.84447416 28.37061108 23.06414546 33.69219738 21 39 C18.36 39 15.72 39 13 39 C9.46877398 30.90834641 6.27972004 22.68160603 3.125 14.4375 C2.70742432 13.36628906 2.28984863 12.29507813 1.85961914 11.19140625 C1.28328735 9.67160156 1.28328735 9.67160156 0.6953125 8.12109375 C0.34484863 7.2077124 -0.00561523 6.29433105 -0.36669922 5.35327148 C-1 3 -1 3 0 0 Z " fill="#F80102" transform="translate(186,223)"/>
<path d="M0 0 C3.135 -0.04125 6.27 -0.0825 9.5 -0.125 C10.47130859 -0.14320801 11.44261719 -0.16141602 12.44335938 -0.18017578 C20.53991598 -0.23123218 27.41010794 0.49398827 33.5234375 6.23046875 C36.85217058 10.21966475 37.83082287 14.42101347 38.375 19.5 C37.77423011 25.10718563 36.2828391 29.30212472 32.875 33.8125 C25.9402879 39.08891138 18.37699465 39.4147249 9.9375 39.1875 C6.658125 39.125625 3.37875 39.06375 0 39 C0 26.13 0 13.26 0 0 Z M12 11 C12 16.94 12 22.88 12 29 C18.31571221 28.88665955 18.31571221 28.88665955 23.5625 25.875 C25.38719803 22.22560394 25.57650862 20.03556032 25 16 C23.74612994 12.91182268 23.74612994 12.91182268 21 11 C18.03 11 15.06 11 12 11 Z " fill="#F60203" transform="translate(246,223)"/>
<path d="M0 0 C3.3 -0.061875 6.6 -0.12375 10 -0.1875 C11.53527344 -0.22846802 11.53527344 -0.22846802 13.1015625 -0.27026367 C20.13010119 -0.3335042 25.89661555 0.43970783 31.5 5.0625 C33.7022589 9.37525702 33.9151928 13.25763732 33 18 C31.57211893 20.50496783 30.1198641 21.9861291 28 24 C29.79819816 27.4260261 29.79819816 27.4260261 34 28 C34.66 31.3 35.32 34.6 36 38 C32.51592327 39.74203836 28.80169497 39.57521298 25 39 C21.71130738 36.53348053 19.66826134 33.56172247 17.3125 30.25 C15.37854636 26.99364953 15.37854636 26.99364953 13 26 C13 30.29 13 34.58 13 39 C8.71 39 4.42 39 0 39 C0 26.13 0 13.26 0 0 Z M13 11 C13 12.98 13 14.96 13 17 C14.98 17 16.96 17 19 17 C20.10836423 15.11683841 20.10836423 15.11683841 21 13 C20.67 12.34 20.34 11.68 20 11 C17.69 11 15.38 11 13 11 Z " fill="#F80102" transform="translate(107,223)"/>
<path d="M0 0 C4.91610421 2.87371436 8.81995604 7.02236812 10.625 12.4375 C11.1366518 18.7052346 11.31319272 24.09597951 7.625 29.4375 C3.53790534 34.18736677 -0.48966973 37.10306399 -6.8125 37.8359375 C-7.988125 37.82820313 -9.16375 37.82046875 -10.375 37.8125 C-11.550625 37.82023437 -12.72625 37.82796875 -13.9375 37.8359375 C-20.26033027 37.10306399 -24.28790534 34.18736677 -28.375 29.4375 C-32.06921415 24.08725882 -32.04131696 18.71589498 -31.375 12.4375 C-29.63433122 7.01070909 -26.01650977 3.58235968 -21.375 0.4375 C-14.83906043 -2.73864253 -6.67764111 -2.997862 0 0 Z M-18.375 14.4375 C-19.52974612 16.87560155 -19.52974612 16.87560155 -19.375 19.4375 C-17.75344371 22.92384601 -16.61046708 24.28052194 -13.375 26.4375 C-9.59399925 26.93067401 -7.85884015 26.72780409 -4.5625 24.75 C-2.07644996 22.12188995 -1.375 21.03991706 -1.375 17.4375 C-2.91858438 13.50135984 -3.82339864 11.80523424 -7.375 9.4375 C-12.88933029 8.59836278 -15.00782017 10.10826879 -18.375 14.4375 Z " fill="#F80103" transform="translate(175.375,224.5625)"/>
<path d="M0 0 C3.114375 -0.061875 6.22875 -0.12375 9.4375 -0.1875 C10.39970459 -0.21481201 11.36190918 -0.24212402 12.35327148 -0.27026367 C18.28690434 -0.32656689 23.62222057 0.34521882 29 3 C32.05416824 6.20315206 33.22424684 8.71541644 33.4375 13.0625 C33.00046779 16.99578985 32.4838543 18.96417807 30 22 C29.01 22.33 28.02 22.66 27 23 C27.51691406 23.90363281 28.03382813 24.80726563 28.56640625 25.73828125 C29.23230207 26.92939067 29.89763766 28.1208134 30.5625 29.3125 C31.07586914 30.20485352 31.07586914 30.20485352 31.59960938 31.11523438 C32.47766262 32.70282559 33.24586268 34.34993931 34 36 C33.67 36.99 33.34 37.98 33 39 C29.04 39 25.08 39 21 39 C19.99491199 37.21118264 18.99607264 35.41885304 18 33.625 C17.443125 32.62726563 16.88625 31.62953125 16.3125 30.6015625 C15 28 15 28 15 26 C14.01 26 13.02 26 12 26 C12 30.29 12 34.58 12 39 C8.04 39 4.08 39 0 39 C0 26.13 0 13.26 0 0 Z M12 11 C12 12.98 12 14.96 12 17 C14.31 17 16.62 17 19 17 C19.38218767 15.34385343 19.71395102 13.67542976 20 12 C18.81575674 10.58422523 18.81575674 10.58422523 15.4375 10.9375 C13.7359375 10.9684375 13.7359375 10.9684375 12 11 Z " fill="#F80103" transform="translate(357,223)"/>
<path d="M0 0 C3.96 0 7.92 0 12 0 C12.33 3.63 12.66 7.26 13 11 C13.49886719 10.2059375 13.99773437 9.411875 14.51171875 8.59375 C20.30641724 0.35425053 20.30641724 0.35425053 25.4921875 -0.73046875 C28.72460602 -0.69156656 31.80609723 -0.48871155 35 0 C34.12429445 4.40785758 31.68803513 7.30710183 28.9375 10.75 C28.46505859 11.35199219 27.99261719 11.95398438 27.50585938 12.57421875 C26.34309599 14.05409943 25.1723234 15.52768096 24 17 C27.12712208 22.96603014 30.6209417 28.43111571 34.64453125 33.8359375 C36 36 36 36 36 39 C31.4939766 39.68002487 27.47898798 39.94482643 23 39 C19.4577785 35.81357032 17.1146907 32.25493658 15 28 C15 27.34 15 26.68 15 26 C14.34 26.33 13.68 26.66 13 27 C12.53101037 29.8159849 12.53101037 29.8159849 12.375 33.0625 C12.25125 35.021875 12.1275 36.98125 12 39 C8.04 39 4.08 39 0 39 C0 26.13 0 13.26 0 0 Z " fill="#F70203" transform="translate(414,223)"/>
<path d="M0 0 C9.57 0 19.14 0 29 0 C29 3.63 29 7.26 29 11 C23.72 11 18.44 11 13 11 C13 12.32 13 13.64 13 15 C16.96 15 20.92 15 25 15 C25 17.97 25 20.94 25 24 C21.04 24 17.08 24 13 24 C13 25.65 13 27.3 13 29 C18.28 29 23.56 29 29 29 C29 32.3 29 35.6 29 39 C19.43 39 9.86 39 0 39 C0 26.13 0 13.26 0 0 Z " fill="#F70202" transform="translate(452,223)"/>
<path d="M0 0 C-1.41791563 2.93446886 -2.98332607 5.43332409 -5 8 C-8.80978966 7.32768418 -12.33444202 6.22185266 -16 5 C-16.66 5 -17.32 5 -18 5 C-15.63191989 7.74076157 -13.45542761 8.7486998 -10.0625 9.9375 C-5.42072381 11.70354021 -2.28534876 13.42930247 0 18 C0.46145874 22.61458744 0.74619403 25.6412076 -2.1875 29.375 C-7.32869951 34.17345287 -12.10982933 34.43791653 -18.9140625 34.3203125 C-23.36609035 33.85820328 -27.35368634 32.64889154 -31 30 C-31.66 28.68 -32.32 27.36 -33 26 C-31.02 23.69 -29.04 21.38 -27 19 C-25.68 19.66 -24.36 20.32 -23 21 C-19.47813575 22.62547581 -16.88238178 23.22185039 -13 23 C-13.83801403 20.76187324 -13.83801403 20.76187324 -16.328125 20.10546875 C-17.29234375 19.80253906 -18.2565625 19.49960938 -19.25 19.1875 C-24.75222046 17.27958719 -28.31599606 15.36800788 -31 10 C-31.40710593 5.76609838 -31.25575965 3.48411648 -29.25 -0.3125 C-21.39853825 -9.69063487 -8.60890772 -6.35698635 0 0 Z " fill="#F80103" transform="translate(318,228)"/>
<path d="M0 0 C2.13558466 1.45363325 3.07375732 2.35869466 4.13671875 4.71875 C4.25 6.75 4.25 6.75 3.03515625 8.453125 C2.46667969 8.96359375 1.89820313 9.4740625 1.3125 10 C0.74660156 10.52078125 0.18070313 11.0415625 -0.40234375 11.578125 C-0.84707031 11.96484375 -1.29179688 12.3515625 -1.75 12.75 C-2.430625 12.440625 -3.11125 12.13125 -3.8125 11.8125 C-8.61292738 10.0761752 -12.82376399 9.31632519 -17.75 10.75 C-17.94551338 12.35320974 -18.13111983 13.95762986 -18.3125 15.5625 C-18.46912109 16.90248047 -18.46912109 16.90248047 -18.62890625 18.26953125 C-18.90658709 20.88375572 -18.90658709 20.88375572 -17.75 23.75 C-16.33566794 23.9736337 -14.91832382 24.17826476 -13.5 24.375 C-12.71109375 24.49101562 -11.9221875 24.60703125 -11.109375 24.7265625 C-8.40475706 24.75342957 -7.08999067 24.02814616 -4.75 22.75 C-1.468429 22.91407855 0.00123142 23.56015029 2.625 25.5625 C4.25 27.75 4.25 27.75 4.0859375 29.70703125 C3.02104966 32.30953752 1.85864755 33.12646077 -0.5 34.625 C-1.51320313 35.30175781 -1.51320313 35.30175781 -2.546875 35.9921875 C-4.75 36.75 -4.75 36.75 -7.1953125 36.11328125 C-9.96898523 34.63314091 -12.37139687 32.96449103 -14.875 31.0625 C-19.61512437 27.50740672 -24.48896745 24.42449875 -29.6328125 21.48828125 C-31.75 19.75 -31.75 19.75 -32.625 17.2890625 C-32.88095365 12.09000399 -30.58151247 7.53938084 -27.5 3.4375 C-20.36174924 -3.53851779 -8.80010837 -5.13736056 0 0 Z " fill="#F80103" transform="translate(98.75,225.25)"/>
<path d="M0 0 C11.22 0 22.44 0 34 0 C34 3.63 34 7.26 34 11 C30.37 11 26.74 11 23 11 C23 20.24 23 29.48 23 39 C19.04 39 15.08 39 11 39 C11 29.76 11 20.52 11 11 C7.37 11 3.74 11 0 11 C0 7.37 0 3.74 0 0 Z " fill="#F80102" transform="translate(320,223)"/>
<path d="M0 0 C3.56896152 2.98627393 7.01831343 5.96343983 10.25 9.3125 C21.35152947 20.53710629 34.79775991 29.39842534 48.08544922 37.80981445 C52.97487069 40.92801835 57.51933548 44.32747136 62 48 C62.61230469 48.45503906 63.22460938 48.91007812 63.85546875 49.37890625 C70.33468729 54.3992279 75.83861325 61.76606575 77 70 C76.360625 69.34 75.72125 68.68 75.0625 68 C74.04500786 66.99660055 73.02369312 65.99707226 72 65 C71.40316406 64.40703125 70.80632812 63.8140625 70.19140625 63.203125 C64.09051149 57.43668383 57.23502837 53.36072656 50.0234375 49.1796875 C31.13397268 38.16691071 9.06903894 24.83093244 0 4 C0 2.68 0 1.36 0 0 Z " fill="#F70203" transform="translate(31,216)"/>
<path d="M0 0 C2.91892309 1.30286696 4.75966512 2.62167754 6.875 5 C15.85435339 14.14913108 27.14757221 20.36967963 38.22753906 26.5949707 C65.22078548 41.77192596 65.22078548 41.77192596 72 53 C71.67 53.99 71.34 54.98 71 56 C70.51273437 55.5153125 70.02546875 55.030625 69.5234375 54.53125 C61.41031132 46.86065798 51.96251079 41.90987558 42.02270508 37.05151367 C26.7130259 29.56575503 9.8297751 20.22375018 1 5 C0.1875 2.0625 0.1875 2.0625 0 0 Z " fill="#F30204" transform="translate(37,240)"/>
<path d="M0 0 C3.96 0 7.92 0 12 0 C12 12.87 12 25.74 12 39 C8.04 39 4.08 39 0 39 C0 26.13 0 13.26 0 0 Z " fill="#F40305" transform="translate(396,223)"/>
</svg>
