<svg version="1.1" id="Layer_1" xmlns:x="ns_extend;" xmlns:i="ns_ai;" xmlns:graph="ns_graphs;" xmlns="http://www.w3.org/2000/svg" xmlns:xlink="http://www.w3.org/1999/xlink" x="0px" y="0px" viewBox="0 0 47.9 50" style="enable-background:new 0 0 47.9 50;" xml:space="preserve">
 <style type="text/css">
  .st0{fill-rule:evenodd;clip-rule:evenodd;}
 </style>
 <metadata>
  <sfw xmlns="ns_sfw;">
   <slices>
   </slices>
   <sliceSourceBounds bottomLeftOrigin="true" height="50" width="47.9" x="113.1" y="-225.2">
   </sliceSourceBounds>
  </sfw>
 </metadata>
 <g>
  <path class="st0" d="M12.7,24.2V12.1H25C25,5.5,19.4,0,12.7,0C5.9,0,0.4,5.5,0.4,12.1C0.4,18.7,5.9,24.2,12.7,24.2z M35.2,50V37.9
		h12.3c0-6.6-5.6-12.1-12.3-12.1s-12.3,5.5-12.3,12.1S28.5,50,35.2,50z M35.2,23.8L47.9,0.4H22.5L35.2,23.8z M25.4,26.2L12.7,49.6
		L0,26.2H25.4z">
  </path>
 </g>
</svg>