<svg xmlns="http://www.w3.org/2000/svg" width="48" height="48" viewBox="0 0 48 48" fill="none">
  <g transform="translate(4, 15.176) scale(0.588235)">
    <path d="M 49.688 0 L 49.688 3.75 L 43.125 3.75 L 43.125 7.5 L 49.688 7.5 L 49.688 11.25 L 43.125 11.25 L 43.125 20.625 L 49.688 20.625 L 49.688 24.375 L 21.563 24.375 L 21.563 20.625 L 27.75 20.625 L 27.75 11.25 L 22.5 11.25 L 22.5 7.5 L 31.875 7.5 L 31.875 20.625 L 39 20.625 L 39 11.25 L 34.688 11.25 L 34.688 7.5 L 39 7.5 L 39 5.813 C 39 2.608 41.609 0 44.813 0 Z M 29.815 0 C 31.732 0 32.44 1.177 32.44 2.626 C 32.439 3.984 31.817 5.102 30.16 5.236 L 29.815 5.249 C 27.9 5.249 27.191 4.074 27.19 2.625 C 27.19 1.176 27.899 0 29.815 0 Z" fill="#0034FF"/>
    <path d="M 55.548 7.5 L 59.298 19.688 L 63.048 7.5 L 67.5 7.5 L 60.771 26.155 C 59.944 28.454 57.746 30 55.303 30 L 52.5 30 L 52.5 26.25 L 54.406 26.25 C 56.143 26.25 57.099 24.908 56.533 23.267 L 51.095 7.5 Z M 7.969 0 C 17.813 0 20.624 5.625 20.624 12.188 C 20.624 18.75 17.812 24.375 7.969 24.375 L 0 24.375 L 0 0 Z M 4.501 3.75 L 4.501 20.625 L 8.062 20.625 C 13.723 20.625 16.125 17.848 16.125 12.188 C 16.125 6.527 13.723 3.75 8.062 3.75 Z" fill="#000000"/>
  </g>
</svg>
