<svg width="20" height="20" viewBox="0 0 20 20" fill="none" xmlns="http://www.w3.org/2000/svg">
<path d="M1.25 7.25C1.25 5.1498 1.25 4.0997 1.65873 3.29754C2.01825 2.59193 2.59193 2.01825 3.29754 1.65873C4.0997 1.25 5.1498 1.25 7.25 1.25H12.75C14.8502 1.25 15.9003 1.25 16.7025 1.65873C17.4081 2.01825 17.9817 2.59193 18.3413 3.29754C18.75 4.0997 18.75 5.1498 18.75 7.25V12.75C18.75 14.8502 18.75 15.9003 18.3413 16.7025C17.9817 17.4081 17.4081 17.9817 16.7025 18.3413C15.9003 18.75 14.8502 18.75 12.75 18.75H7.25C5.1498 18.75 4.0997 18.75 3.29754 18.3413C2.59193 17.9817 2.01825 17.4081 1.65873 16.7025C1.25 15.9003 1.25 14.8502 1.25 12.75V7.25Z" fill="url(#paint0_linear_18029_11812)"/>
<path d="M15.172 6.26667C14.2259 5.46667 13.0906 5.06667 11.8922 5L11.703 5.2C12.7752 5.46667 13.7213 6 14.6044 6.73333C13.5321 6.13333 12.3337 5.73333 11.0722 5.6C10.6938 5.53333 10.3784 5.53333 10 5.53333C9.62156 5.53333 9.30619 5.53333 8.92775 5.6C7.66628 5.73333 6.46789 6.13333 5.39564 6.73333C6.27867 6 7.22477 5.46667 8.29702 5.2L8.1078 5C6.9094 5.06667 5.77408 5.46667 4.82798 6.26667C3.75573 8.4 3.18807 10.8 3.125 13.2667C4.0711 14.3333 5.39564 15 6.78326 15C6.78326 15 7.22477 14.4667 7.54014 14C6.72018 13.8 5.9633 13.3333 5.45872 12.6C5.90023 12.8667 6.34174 13.1333 6.78326 13.3333C7.35092 13.6 7.91858 13.7333 8.48624 13.8667C8.99083 13.9333 9.49541 14 10 14C10.5046 14 11.0092 13.9333 11.5138 13.8667C12.0814 13.7333 12.6491 13.6 13.2167 13.3333C13.6583 13.1333 14.0998 12.8667 14.5413 12.6C14.0367 13.3333 13.2798 13.8 12.4599 14C12.7752 14.4667 13.2167 15 13.2167 15C14.6044 15 15.9289 14.3333 16.875 13.2667C16.8119 10.8 16.2443 8.4 15.172 6.26667ZM7.91858 12.0667C7.28784 12.0667 6.72018 11.4667 6.72018 10.7333C6.72018 10 7.28784 9.4 7.91858 9.4C8.54931 9.4 9.11697 10 9.11697 10.7333C9.11697 11.4667 8.54931 12.0667 7.91858 12.0667ZM12.0814 12.0667C11.4507 12.0667 10.883 11.4667 10.883 10.7333C10.883 10 11.4507 9.4 12.0814 9.4C12.7122 9.4 13.2798 10 13.2798 10.7333C13.2798 11.4667 12.7122 12.0667 12.0814 12.0667Z" fill="white"/>
<defs>
<linearGradient id="paint0_linear_18029_11812" x1="10" y1="1.25" x2="10" y2="18.75" gradientUnits="userSpaceOnUse">
<stop stop-color="#687EC9"/>
<stop offset="1" stop-color="#5971C3"/>
</linearGradient>
</defs>
</svg>