<svg xmlns="http://www.w3.org/2000/svg" width="92" height="92" viewBox="0 0 92 92" fill="none"><path d="M76.6668 38.3346V26.068C76.6668 19.6274 76.6668 16.4071 75.4134 13.9471C74.3109 11.7832 72.5516 10.0239 70.3877 8.92139C67.9277 7.66797 64.7074 7.66797 58.2668 7.66797H33.7335C27.2929 7.66797 24.0726 7.66797 21.6126 8.92139C19.4487 10.0239 17.6895 11.7832 16.5869 13.9471C15.3335 16.4071 15.3335 19.6274 15.3335 26.068V65.9346C15.3335 72.3752 15.3335 75.5955 16.5869 78.0555C17.6895 80.2194 19.4487 81.9787 21.6126 83.0812C24.0726 84.3346 27.2929 84.3346 33.7335 84.3346H40.2502M49.8335 42.168H30.6668M42.1668 57.5013H30.6668M61.3335 26.8346H30.6668M73.7918 65.168V58.4596C73.7918 54.7547 70.7884 51.7513 67.0835 51.7513C63.3786 51.7513 60.3752 54.7547 60.3752 58.4596V65.168M59.8002 80.5013H74.3668C76.5137 80.5013 77.5871 80.5013 78.4071 80.0835C79.1284 79.716 79.7148 79.1296 80.0824 78.4083C80.5002 77.5883 80.5002 76.5148 80.5002 74.368V71.3013C80.5002 69.1544 80.5002 68.081 80.0824 67.261C79.7148 66.5397 79.1284 65.9533 78.4071 65.5858C77.5871 65.168 76.5137 65.168 74.3668 65.168H59.8002C57.6533 65.168 56.5799 65.168 55.7599 65.5858C55.0386 65.9533 54.4522 66.5397 54.0846 67.261C53.6668 68.081 53.6668 69.1544 53.6668 71.3013V74.368C53.6668 76.5148 53.6668 77.5883 54.0846 78.4083C54.4522 79.1296 55.0386 79.716 55.7599 80.0835C56.5799 80.5013 57.6533 80.5013 59.8002 80.5013Z" stroke="#5C5F62" stroke-width="6" stroke-linecap="round" stroke-linejoin="round"/></svg>
