<svg xmlns="http://www.w3.org/2000/svg" width="92" height="92" viewBox="0 0 92 92" fill="none">
  <path d="M76.6668 40.2513V26.068C76.6668 19.6274 76.6668 16.4071 75.4134 13.9471C74.3109 11.7832 72.5516 10.0239 70.3877 8.92139C67.9277 7.66797 64.7074 7.66797 58.2668 7.66797H33.7335C27.2929 7.66797 24.0726 7.66797 21.6126 8.92139C19.4487 10.0239 17.6895 11.7832 16.5869 13.9471C15.3335 16.4071 15.3335 19.6274 15.3335 26.068V65.9346C15.3335 72.3752 15.3335 75.5955 16.5869 78.0555C17.6895 80.2194 19.4487 81.9787 21.6126 83.0812C24.0726 84.3346 27.2929 84.3346 33.7335 84.3346H46.0002M53.6668 42.168H30.6668M38.3335 57.5013H30.6668M61.3335 26.8346H30.6668M69.0002 80.5013V57.5013M57.5002 69.0013H80.5002" stroke="#5C5F62" stroke-width="6" stroke-linecap="round" stroke-linejoin="round"/>
</svg>