<svg xmlns="http://www.w3.org/2000/svg" width="92" height="92" viewBox="0 0 92 92" fill="none"><path d="M76.6666 47.918V26.068C76.6666 19.6274 76.6666 16.4071 75.4132 13.9471C74.3106 11.7832 72.5513 10.0239 70.3875 8.92139C67.9275 7.66797 64.7072 7.66797 58.2666 7.66797H33.7333C27.2926 7.66797 24.0723 7.66797 21.6124 8.92139C19.4485 10.0239 17.6892 11.7832 16.5867 13.9471C15.3333 16.4071 15.3333 19.6274 15.3333 26.068V65.9346C15.3333 72.3752 15.3333 75.5955 16.5867 78.0555C17.6892 80.2194 19.4485 81.9787 21.6124 83.0812C24.0723 84.3346 27.2926 84.3346 33.7333 84.3346H45.9999M53.6666 42.168H30.6666M38.3333 57.5013H30.6666M61.3333 26.8346H30.6666M55.5833 72.8346L63.2499 80.5013L80.4999 63.2513" stroke="#5C5F62" stroke-width="6" stroke-linecap="round" stroke-linejoin="round"/></svg>
