<?xml version="1.0" encoding="iso-8859-1"?>
<!-- Uploaded to: SVG Repo, www.svgrepo.com, Generator: SVG Repo Mixer Tools -->
<svg fill="#000000" height="800px" width="800px" version="1.1" id="Layer_1" xmlns="http://www.w3.org/2000/svg" xmlns:xlink="http://www.w3.org/1999/xlink" 
	 viewBox="0 0 512 512" xml:space="preserve">
<g>
	<g>
		<path d="M455.576,89.903c-23.871-26.416-50.311-39.43-72.616-35.73c-52.037,8.673-96.363-17.296-96.803-17.556
			c-3.435-2.038-7.78-1.704-10.821,0.861c-3.054,2.551-4.171,6.754-2.775,10.482c28.803,76.801,58.938,88.822,104.56,107.019
			l3.897,1.557c16.398,6.557,25.735,13.179,27.754,19.681c2.367,7.62-4.629,19.026-13.316,32.054
			c-13.458,20.183-18.01,48.391-19.548,65.444l-5.967-2.986c-4.025-2.015-8.778-0.769-11.517,2.793
			c-2.738,3.553-2.459,8.673,0.508,12.034c0.288,0.33,2.77,3.334,1.639,8.499c-1.287,5.907-9.222,21.833-54.904,42.137
			c-45.407,20.185-75.547,8.068-92.613-5.248c40.154,3.251,58.604-16.174,64.809-24.874l33.89-8.481
			c3.095-0.769,5.586-3.068,6.608-6.099c1.021-3.022,0.435-6.356-1.561-8.856c-21.279-26.605-28.752-32.31-47.751-22.566
			c-7.528,3.846-18.912,9.671-43.974,9.671c-15.042,0-25.158-3.764-30.07-11.173c-6.627-10.01-3.784-26.156-0.816-35.817
			c40.264-1.273,40.264-14.246,40.264-18.655c0-6.861-4.346-12.808-9.456-17.433c17.602-9.434,36.3-23.01,34.302-37.393
			c-1.959-14.09-19.713-18.22-32.896-20.102c-13.435-1.923-22.241-5.811-23.551-10.413c-2.038-7.154,9.639-21.661,18.857-29.375
			c2.605-2.184,3.828-5.605,3.196-8.943c-0.632-3.338-3.018-6.077-6.241-7.153c-25.72-8.563-50.26,7.894-60.672,16.412
			c-13.519-4.451-35.823-1.795-51.714,1.098L81.658,66.171c-2.442-2.445-6.05-3.343-9.347-2.344
			c-3.311,1.003-5.802,3.746-6.478,7.134l-8.885,44.413c-5.353,6.112-21.525,25.043-27.823,37.636
			C17.136,176.99,1.119,227.26,0.441,229.388c-1.309,4.121,0.371,8.599,4.066,10.853c3.7,2.253,8.448,1.676,11.504-1.383
			l8.118-8.119c-2.317,29.045-0.678,75.487,23.999,118.677c39.463,69.063,89.311,117.025,204.303,126.604
			c5.532,0.467,11.022,0.687,16.48,0.687c114.094,0,210.792-98.378,237.177-195.126C525.632,209.919,493.605,131.986,455.576,89.903
			z M487.991,276.654c-25.675,94.129-122.538,189.741-234.003,180.684c-107.189-8.938-152.005-51.479-189.576-117.226
			c-35.113-61.443-17.973-133.036-17.799-133.756c1.012-4.084-0.824-8.352-4.488-10.422c-1.447-0.815-3.036-1.213-4.616-1.213
			c-2.239,0-4.451,0.797-6.196,2.34c4.739-13.018,10.042-26.574,14.59-35.662c5.233-10.469,21.067-29.138,26.723-35.443
			c1.122-1.25,1.887-2.781,2.216-4.423l5.944-29.71l15.743,15.742c2.225,2.222,5.408,3.188,8.467,2.566
			c20.743-4.14,43.635-5.257,47.802-2.566c3.663,3.663,9.599,3.663,13.262,0c0.173-0.173,12.972-12.541,28.371-16.617
			c-7.001,9.278-12.927,21.27-9.624,32.92c3.589,12.657,16.694,20.684,38.94,23.862c10.472,1.497,14.85,3.508,16.499,4.533
			c-3.26,5.587-20.3,16.741-37.737,24.508c-3.311,1.474-5.472,4.724-5.559,8.348c-0.087,3.616,1.928,6.969,5.161,8.598
			c4.263,2.149,8.81,5.372,11.43,7.79c-5.774,1.461-16.329,2.583-25.982,2.587c-3.746,0.005-7.138,2.239-8.612,5.682
			c-0.624,1.447-15.021,35.722,0.379,59.076c8.59,13.032,23.985,19.644,45.75,19.644c29.581,0,43.937-7.345,52.518-11.732
			c2.001-1.026,4.744-2.427,5.49-2.482c1.557,0.33,4.781,3.26,9.625,8.737l-23.019,5.76c-2.569,0.641-4.808,2.454-6.058,4.79
			c-0.659,1.245-16.856,30.241-73.491,14.04c-3.654-1.026-7.606,0.238-9.96,3.233c-2.354,3.004-2.651,7.125-0.76,10.44
			c0.417,0.724,42.752,72.524,133.866,32.054c40.04-17.795,62.18-36.734,65.812-56.287c0.046-0.238,0.087-0.476,0.124-0.705
			l1.085,0.54c2.903,1.447,6.351,1.301,9.122-0.412c2.761-1.703,4.446-4.726,4.451-7.968c0-0.449,0.257-44.445,17.181-69.831
			c11.397-17.094,20.441-32.509,15.624-48.023c-3.888-12.504-16.183-22.528-38.698-31.535l-3.915-1.562
			c-38.785-15.468-62.171-24.793-84.952-74.397c20.084,7.528,51.63,15.4,86.926,9.515c15.596-2.543,36.395,8.545,55.614,29.806
			C476.378,140.893,505.685,211.787,487.991,276.654z"/>
	</g>
</g>
</svg>