<svg width="18" height="17" viewBox="0 0 18 17" fill="none" xmlns="http://www.w3.org/2000/svg"> <path d="M0 2.0625V14.4375C0 15.3867 0.738281 16.125 1.6875 16.125H16.3125C17.2266 16.125 18 15.3867 18 14.4375V2.0625C18 1.14844 17.2266 0.375 16.3125 0.375H1.6875C0.738281 0.375 0 1.14844 0 2.0625ZM8.15625 2.0625V7.40625H1.6875V2.27344C1.6875 2.16797 1.75781 2.0625 1.89844 2.0625H8.15625ZM1.6875 9.09375H8.15625V14.4375H1.89844C1.75781 14.4375 1.6875 14.3672 1.6875 14.2266V9.09375ZM9.84375 14.4375V9.09375H16.3125V14.2266C16.3125 14.3672 16.207 14.4375 16.1016 14.4375H9.84375ZM16.3125 7.40625H9.84375V2.0625H16.1016C16.207 2.0625 16.3125 2.16797 16.3125 2.27344V7.40625Z" fill="white"/> </svg>

