<svg width="24" height="24" viewBox="0 0 24 24" fill="none" xmlns="http://www.w3.org/2000/svg">
<path opacity="0.2" d="M18.75 5.25H5.25C4.65326 5.25 4.08097 5.48705 3.65901 5.90901C3.23705 6.33097 3 6.90326 3 7.5V18C3 18.5967 3.23705 19.169 3.65901 19.591C4.08097 20.0129 4.65326 20.25 5.25 20.25H18.75C19.3467 20.25 19.919 20.0129 20.341 19.591C20.7629 19.169 21 18.5967 21 18V7.5C21 6.90326 20.7629 6.33097 20.341 5.90901C19.919 5.48705 19.3467 5.25 18.75 5.25ZM15.375 17.25H8.625C8.12772 17.25 7.65081 17.0525 7.29917 16.7008C6.94754 16.3492 6.75 15.8723 6.75 15.375C6.75 14.8777 6.94754 14.4008 7.29917 14.0492C7.65081 13.6975 8.12772 13.5 8.625 13.5H15.375C15.8723 13.5 16.3492 13.6975 16.7008 14.0492C17.0525 14.4008 17.25 14.8777 17.25 15.375C17.25 15.8723 17.0525 16.3492 16.7008 16.7008C16.3492 17.0525 15.8723 17.25 15.375 17.25Z" fill="#5C5F62"/>
<path d="M18.75 4.5H12.75V1.5C12.75 1.30109 12.671 1.11032 12.5303 0.96967C12.3897 0.829018 12.1989 0.75 12 0.75C11.8011 0.75 11.6103 0.829018 11.4697 0.96967C11.329 1.11032 11.25 1.30109 11.25 1.5V4.5H5.25C4.45435 4.5 3.69129 4.81607 3.12868 5.37868C2.56607 5.94129 2.25 6.70435 2.25 7.5V18C2.25 18.7956 2.56607 19.5587 3.12868 20.1213C3.69129 20.6839 4.45435 21 5.25 21H18.75C19.5456 21 20.3087 20.6839 20.8713 20.1213C21.4339 19.5587 21.75 18.7956 21.75 18V7.5C21.75 6.70435 21.4339 5.94129 20.8713 5.37868C20.3087 4.81607 19.5456 4.5 18.75 4.5ZM20.25 18C20.25 18.3978 20.092 18.7794 19.8107 19.0607C19.5294 19.342 19.1478 19.5 18.75 19.5H5.25C4.85218 19.5 4.47064 19.342 4.18934 19.0607C3.90804 18.7794 3.75 18.3978 3.75 18V7.5C3.75 7.10218 3.90804 6.72064 4.18934 6.43934C4.47064 6.15804 4.85218 6 5.25 6H18.75C19.1478 6 19.5294 6.15804 19.8107 6.43934C20.092 6.72064 20.25 7.10218 20.25 7.5V18ZM6.75 10.125C6.75 9.9025 6.81598 9.68499 6.9396 9.49998C7.06321 9.31498 7.23891 9.17078 7.44448 9.08564C7.65005 9.00049 7.87625 8.97821 8.09448 9.02162C8.31271 9.06502 8.51316 9.17217 8.6705 9.3295C8.82783 9.48684 8.93498 9.68729 8.97838 9.90552C9.02179 10.1238 8.99951 10.35 8.91436 10.5555C8.82922 10.7611 8.68502 10.9368 8.50002 11.0604C8.31501 11.184 8.0975 11.25 7.875 11.25C7.57663 11.25 7.29048 11.1315 7.0795 10.9205C6.86853 10.7095 6.75 10.4234 6.75 10.125ZM15 10.125C15 9.9025 15.066 9.68499 15.1896 9.49998C15.3132 9.31498 15.4889 9.17078 15.6945 9.08564C15.9 9.00049 16.1262 8.97821 16.3445 9.02162C16.5627 9.06502 16.7632 9.17217 16.9205 9.3295C17.0778 9.48684 17.185 9.68729 17.2284 9.90552C17.2718 10.1238 17.2495 10.35 17.1644 10.5555C17.0792 10.7611 16.935 10.9368 16.75 11.0604C16.565 11.184 16.3475 11.25 16.125 11.25C15.8266 11.25 15.5405 11.1315 15.3295 10.9205C15.1185 10.7095 15 10.4234 15 10.125ZM15.375 12.75H8.625C7.92881 12.75 7.26113 13.0266 6.76884 13.5188C6.27656 14.0111 6 14.6788 6 15.375C6 16.0712 6.27656 16.7389 6.76884 17.2312C7.26113 17.7234 7.92881 18 8.625 18H15.375C16.0712 18 16.7389 17.7234 17.2312 17.2312C17.7234 16.7389 18 16.0712 18 15.375C18 14.6788 17.7234 14.0111 17.2312 13.5188C16.7389 13.0266 16.0712 12.75 15.375 12.75ZM13.125 14.25V16.5H10.875V14.25H13.125ZM7.5 15.375C7.5 15.0766 7.61853 14.7905 7.8295 14.5795C8.04048 14.3685 8.32663 14.25 8.625 14.25H9.375V16.5H8.625C8.32663 16.5 8.04048 16.3815 7.8295 16.1705C7.61853 15.9595 7.5 15.6734 7.5 15.375ZM15.375 16.5H14.625V14.25H15.375C15.6734 14.25 15.9595 14.3685 16.1705 14.5795C16.3815 14.7905 16.5 15.0766 16.5 15.375C16.5 15.6734 16.3815 15.9595 16.1705 16.1705C15.9595 16.3815 15.6734 16.5 15.375 16.5Z" fill="#5C5F62"/>
</svg>
