<svg width="24" height="24" viewBox="0 0 24 24" fill="none" xmlns="http://www.w3.org/2000/svg">
<path d="M12.0062 22.2493L16.1462 9.50781H7.86621L12.0062 22.2493Z" fill="#E24329"/>
<path d="M12.0066 22.2493L7.86656 9.50781H2.06445L12.0066 22.2493Z" fill="#FC6D26"/>
<path d="M2.06425 9.50781L0.806175 13.3798C0.691425 13.733 0.817103 14.1199 1.11753 14.3381L12.0063 22.2493L2.06425 9.50781Z" fill="#FCA326"/>
<path d="M2.06445 9.50737H7.86656L5.37302 1.83327C5.24477 1.43834 4.68613 1.43844 4.55788 1.83327L2.06445 9.50737Z" fill="#E24329"/>
<path d="M12.0073 22.2493L16.1473 9.50781H21.9494L12.0073 22.2493Z" fill="#FC6D26"/>
<path d="M21.9494 9.50781L23.2075 13.3798C23.3223 13.733 23.1966 14.1199 22.8961 14.3381L12.0073 22.2493L21.9494 9.50781Z" fill="#FCA326"/>
<path d="M21.9488 9.50737H16.1467L18.6403 1.83327C18.7685 1.43834 19.3272 1.43844 19.4554 1.83327L21.9488 9.50737Z" fill="#E24329"/>
</svg>
