<svg version="1.1" id="Layer_1" xmlns:x="ns_extend;" xmlns:i="ns_ai;" xmlns:graph="ns_graphs;" xmlns="http://www.w3.org/2000/svg" xmlns:xlink="http://www.w3.org/1999/xlink" x="0px" y="0px" viewBox="-4 -58 185.9 185.9" style="enable-background:new 0 0 177.9 69.9;" xml:space="preserve">
 <style type="text/css">
  .st0{fill:#343CED;}
 </style>
 <metadata>
  <sfw xmlns="ns_sfw;">
   <slices>
   </slices>
   <sliceSourceBounds bottomLeftOrigin="true" height="69.9" width="177.9" x="-77.4" y="30.7">
   </sliceSourceBounds>
  </sfw>
 </metadata>
 <g>
  <g>
   <path class="st0" d="M141.3,36.6c-0.4-9.9-9-17.8-19.5-17.8c-10.8,0-19.6,8.3-19.6,18.5c0,10.2,8.8,18.5,19.6,18.5
			c4.1,0,8-1.2,11.2-3.3v3h8.4L141.3,36.6L141.3,36.6z M121.7,47.9c-6.1,0-11.1-4.7-11.1-10.5s5-10.5,11.1-10.5
			c6.1,0,11.1,4.7,11.1,10.5S127.9,47.9,121.7,47.9z">
   </path>
   <path class="st0" d="M87.4,44.9c-1,0.9-2.2,1.7-3.5,2.2c-1.3,0.5-2.7,0.8-4.2,0.8c-0.8,0-1.6-0.1-2.3-0.2
			c-0.7-0.2-1.4-0.4-2.1-0.7c-0.7-0.3-1.3-0.7-1.9-1c-0.6-0.4-1.2-0.9-1.6-1.4l18.9-7l8.1-3c-0.4-2.7-1.4-5.2-3-7.4
			c-3.4-5-9.4-8.3-16.1-8.3c-10.6,0-19.3,8.3-19.3,18.5c0,1,0.1,1.9,0.2,2.8c0.4,2.7,1.4,5.2,3,7.4c0.9,1.2,1.9,2.4,3,3.4
			c1.2,1,2.4,1.9,3.8,2.6c1.4,0.7,2.8,1.3,4.4,1.7s3.2,0.6,4.8,0.6c2.6,0,5.2-0.5,7.5-1.5c2.3-0.9,4.4-2.3,6.1-4
			c1.8-1.7,3.2-3.7,4.1-5.9c0.4-0.9,0.7-1.9,1-2.9h-8.7C89.2,42.9,88.4,43.9,87.4,44.9z M79.7,26.8c3.1,0,6,1.3,8,3.3l-18.9,7
			C68.8,31.4,73.7,26.8,79.7,26.8z">
   </path>
   <path class="st0" d="M169.5,55.6h8.4l0-21.7c0-9.3-6.2-15.4-15.8-15.4c-9.4,0-16,6.3-16,15.4l0,21.6h8.4l0-21.9
			c0-4.2,3.2-7.2,7.6-7.2c6.9,0,7.4,5.5,7.4,7.2L169.5,55.6z">
   </path>
   <path class="st0" d="M39.4,18.7l-6.5-4.9l-5.3,6.8c-8-3.7-17.9-1.6-23.5,5.4c-6.5,8.1-5,19.8,3.4,26.2c3.2,2.4,6.9,3.7,10.7,3.9
			c6.1,0.3,12.4-2.1,16.4-7.2c5.7-7,5.3-16.8-0.4-23.4L39.4,18.7z M28,43.9c-3.7,4.6-10.6,5.5-15.4,1.9c-4.8-3.6-5.7-10.3-1.9-14.9
			c1.8-2.2,4.4-3.7,7.3-4c0.7-0.1,1.4-0.1,2-0.1c2.2,0.1,4.3,0.9,6.1,2.2C30.8,32.6,31.7,39.3,28,43.9z">
   </path>
   <path class="st0" d="M39.8,52.2c-1.1,1.4-2.3,2.6-3.6,3.7c-1.3,1-2.7,2-4.2,2.8c-1.4,0.8-3,1.4-4.6,1.9c-1.6,0.5-3.2,0.9-4.9,1
			c-1.6,0.2-3.3,0.3-5,0.2c-1.7-0.1-3.3-0.4-4.9-0.8l-0.4,1.3l-1.6,6.5c2.1,0.5,4.2,0.9,6.4,1c0.1,0,0.2,0,0.3,0
			c2.1,0.1,4.2,0,6.3-0.2c2.2-0.3,4.3-0.7,6.4-1.4c2.1-0.7,4.1-1.5,6.1-2.6c2-1,3.8-2.3,5.5-3.7c1.8-1.4,3.4-3.1,4.8-4.8
			c0.2-0.2,0.4-0.5,0.6-0.8l-6.7-4.8C40.1,51.8,39.9,52,39.8,52.2z">
   </path>
   <path class="st0" d="M53.3,40.8l0-40.8h-8.4l0,40.6c0,8.6,5.9,14.7,14.6,15.3v-8C55.8,47.3,53.3,44.5,53.3,40.8z">
   </path>
  </g>
 </g>
</svg>