<svg width="20" height="20" viewBox="0 0 20 20" fill="none" xmlns="http://www.w3.org/2000/svg">
<rect width="20" height="20" rx="4" fill="#FFF4F4"/>
<path fill-rule="evenodd" clip-rule="evenodd" d="M12 10C12 9.64 11.99 9.289 11.973 8.949C11.338 8.983 10.676 9 10 9C9.324 9 8.662 8.983 8.027 8.949C7.98319 9.78172 7.99187 10.6164 8.053 11.448C8.669 11.482 9.322 11.5 10 11.5C10.1989 11.5 10.3897 11.579 10.5303 11.7197C10.671 11.8603 10.75 12.0511 10.75 12.25C10.75 12.4489 10.671 12.6397 10.5303 12.7803C10.3897 12.921 10.1989 13 10 13C9.396 13 8.807 12.987 8.241 12.96C8.347 13.542 8.485 14.063 8.653 14.507C9.093 15.668 9.603 16 10 16C10.1989 16 10.3897 16.079 10.5303 16.2197C10.671 16.3603 10.75 16.5511 10.75 16.75C10.75 16.9489 10.671 17.1397 10.5303 17.2803C10.3897 17.421 10.1989 17.5 10 17.5C8.51664 17.5 7.0666 17.0601 5.83323 16.236C4.59986 15.4119 3.63856 14.2406 3.07091 12.8701C2.50325 11.4997 2.35472 9.99168 2.64411 8.53683C2.9335 7.08197 3.64781 5.7456 4.6967 4.6967C5.7456 3.64781 7.08197 2.9335 8.53683 2.64411C9.99168 2.35472 11.4997 2.50325 12.8701 3.07091C14.2406 3.63856 15.4119 4.59986 16.236 5.83323C17.0601 7.0666 17.5 8.51664 17.5 10C17.5 10.1989 17.421 10.3897 17.2803 10.5303C17.1397 10.671 16.9489 10.75 16.75 10.75C16.5511 10.75 16.3603 10.671 16.2197 10.5303C16.079 10.3897 16 10.1989 16 10C16 9.45 15.926 8.917 15.787 8.41C15.132 8.593 14.344 8.731 13.468 8.828C13.489 9.211 13.5 9.603 13.5 10C13.5 10.1989 13.421 10.3897 13.2803 10.5303C13.1397 10.671 12.9489 10.75 12.75 10.75C12.5511 10.75 12.3603 10.671 12.2197 10.5303C12.079 10.3897 12 10.1989 12 10ZM8.653 5.493C9.093 4.332 9.603 4 10 4C10.396 4 10.907 4.332 11.347 5.493C11.554 6.039 11.716 6.703 11.827 7.454C11.25 7.484 10.637 7.5 10 7.5C9.39071 7.50044 8.7815 7.4851 8.173 7.454C8.284 6.704 8.446 6.039 8.653 5.493ZM7.251 4.961C6.991 5.648 6.799 6.454 6.675 7.334C5.951 7.254 5.315 7.146 4.795 7.014C5.40071 5.96109 6.31048 5.1158 7.405 4.589C7.35 4.71145 7.29865 4.83551 7.251 4.961ZM6.531 8.828C5.656 8.731 4.868 8.593 4.213 8.411C4.00184 9.18132 3.94643 9.98601 4.05 10.778C4.543 10.978 5.279 11.152 6.226 11.279L6.54 11.319C6.48835 10.4895 6.48468 9.65777 6.531 8.828ZM13.325 7.334C14.049 7.254 14.685 7.146 15.205 7.014C14.5993 5.96113 13.6895 5.11586 12.595 4.589C12.651 4.711 12.702 4.836 12.749 4.961C13.009 5.648 13.201 6.454 13.325 7.334ZM4.542 12.496C5.12736 13.7714 6.1396 14.8023 7.404 15.411C7.34935 15.2885 7.29833 15.1645 7.251 15.039C7.008 14.399 6.826 13.656 6.701 12.846C6.47 12.822 6.244 12.796 6.026 12.766C5.52707 12.7013 5.03176 12.6112 4.542 12.496Z" fill="#D72C0D"/>
<path d="M14.81 13.75L17.28 16.22C17.3537 16.2887 17.4128 16.3715 17.4538 16.4635C17.4948 16.5555 17.5168 16.6548 17.5186 16.7555C17.5204 16.8562 17.5018 16.9562 17.4641 17.0496C17.4264 17.143 17.3703 17.2278 17.299 17.299C17.2278 17.3703 17.143 17.4264 17.0496 17.4641C16.9562 17.5018 16.8562 17.5204 16.7555 17.5186C16.6548 17.5168 16.5555 17.4948 16.4635 17.4538C16.3715 17.4128 16.2887 17.3537 16.22 17.28L13.75 14.81V16C13.75 16.1989 13.671 16.3897 13.5303 16.5303C13.3897 16.671 13.1989 16.75 13 16.75C12.8011 16.75 12.6103 16.671 12.4697 16.5303C12.329 16.3897 12.25 16.1989 12.25 16V13C12.25 12.8011 12.329 12.6103 12.4697 12.4697C12.6103 12.329 12.8011 12.25 13 12.25H16C16.1989 12.25 16.3897 12.329 16.5303 12.4697C16.671 12.6103 16.75 12.8011 16.75 13C16.75 13.1989 16.671 13.3897 16.5303 13.5303C16.3897 13.671 16.1989 13.75 16 13.75H14.81Z" fill="#D72C0D"/>
</svg>
