<?xml version="1.0" encoding="UTF-8"?>
<svg version="1.1" xmlns="http://www.w3.org/2000/svg" width="259" height="194">
<path d="M0 0 C85.47 0 170.94 0 259 0 C259 64.02 259 128.04 259 194 C173.53 194 88.06 194 0 194 C0 129.98 0 65.96 0 0 Z " fill="#FEFEFE" transform="translate(0,0)"/>
<path d="M0 0 C6.34215858 3.04763095 11.71092443 7.45202247 17.25 11.75 C19.13344915 13.19878215 21.01755591 14.64670983 22.90234375 16.09375 C23.7929248 16.77824219 24.68350586 17.46273437 25.60107422 18.16796875 C29.10260821 20.84204885 32.66170186 23.42482963 36.2421875 25.9921875 C38.53689198 27.66283637 40.80706724 29.35761433 43.0703125 31.0703125 C43.79114014 31.61526367 44.51196777 32.16021484 45.25463867 32.72167969 C46.67875591 33.80031987 48.10089221 34.88158193 49.52075195 35.96582031 C50.17261475 36.45920898 50.82447754 36.95259766 51.49609375 37.4609375 C52.07544678 37.90228027 52.6547998 38.34362305 53.25170898 38.79833984 C55.0962419 40.06615034 56.97831956 41.04500195 59 42 C69.0736608 34.63693663 79.08886059 27.20578857 89 19.625 C102.05938986 9.63952392 102.05938986 9.63952392 107.93359375 5.484375 C109.67853485 4.23092015 111.34949156 2.8754237 113 1.5 C117.60646574 -0.80323287 121.95126816 -0.61698362 127 0 C131.75852474 1.643854 134.19569483 3.84547383 137 8 C137.91180079 10.73540236 138.12905688 12.34627916 138.14044189 15.16146851 C138.14615204 16.00819626 138.15186218 16.85492401 138.15774536 17.72731018 C138.15942215 19.11598549 138.15942215 19.11598549 138.16113281 20.53271484 C138.16609772 21.51023209 138.17106262 22.48774933 138.17617798 23.49488831 C138.19080147 26.73357849 138.19760162 29.97221971 138.203125 33.2109375 C138.2088759 35.45911664 138.21463364 37.70729575 138.22039795 39.95547485 C138.23090819 44.67149077 138.23675084 49.38748964 138.24023438 54.10351562 C138.24572187 60.14860403 138.26975542 66.19346752 138.29820633 72.23848534 C138.31682203 76.8830125 138.32203772 81.52748534 138.32357025 86.17204666 C138.32659926 88.40079606 138.3346361 90.62954445 138.34775543 92.85825729 C138.36479476 95.9751782 138.36294079 99.09154762 138.35644531 102.20849609 C138.3656601 103.13023117 138.37487488 104.05196625 138.3843689 105.00163269 C138.35316531 109.77738979 138.25126957 113.21182933 135 117 C125.14324822 121.92837589 113.0201835 119 102 119 C101.67 99.2 101.34 79.4 101 59 C89.8477454 67.21745076 78.73622511 75.41780424 67.80078125 83.90820312 C66.94871094 84.56369141 66.09664063 85.21917969 65.21875 85.89453125 C64.47560547 86.47050049 63.73246094 87.04646973 62.96679688 87.63989258 C61 89 61 89 58 90 C56.24853516 89.08227539 56.24853516 89.08227539 54.2890625 87.59765625 C53.54841553 87.04424561 52.80776855 86.49083496 52.04467773 85.9206543 C51.24618408 85.30746338 50.44769043 84.69427246 49.625 84.0625 C48.7987915 83.44093018 47.97258301 82.81936035 47.12133789 82.17895508 C44.40535563 80.13072484 41.70188496 78.06678428 39 76 C37.04834191 74.5128045 35.09651763 73.02582708 33.14453125 71.5390625 C30.31943069 69.38691207 27.49620517 67.23261264 24.68017578 65.06860352 C23.83567871 64.42076904 22.99118164 63.77293457 22.12109375 63.10546875 C21.3727124 62.52949951 20.62433105 61.95353027 19.85327148 61.36010742 C18.04223687 59.95084483 18.04223687 59.95084483 16 59 C15.67 78.8 15.34 98.6 15 119 C-14 119 -14 119 -20 114 C-21.1365779 111.7268442 -21.13491659 110.45954298 -21.15390015 107.9342804 C-21.16250061 107.08340347 -21.17110107 106.23252655 -21.17996216 105.35586548 C-21.18422211 104.42027802 -21.18848206 103.48469055 -21.19287109 102.52075195 C-21.20104858 101.53683975 -21.20922607 100.55292755 -21.21765137 99.53919983 C-21.24253062 96.27223321 -21.25902915 93.00531015 -21.2734375 89.73828125 C-21.27876118 88.62353109 -21.28408485 87.50878094 -21.28956985 86.36025047 C-21.31631423 80.45835431 -21.3356838 74.55647938 -21.35009766 68.65454102 C-21.36673572 62.55902557 -21.41150336 56.46405182 -21.4624691 50.36874104 C-21.49613472 45.68209719 -21.50767449 40.99558191 -21.51332474 36.30882835 C-21.52004057 34.06216486 -21.53527113 31.81550993 -21.55921555 29.568964 C-21.59084986 26.4209352 -21.59090579 23.27436687 -21.58349609 20.1262207 C-21.6081041 18.73802124 -21.6081041 18.73802124 -21.63320923 17.32177734 C-21.57179549 10.9358271 -20.19951218 7.83333608 -16 3 C-11.60417284 -1.00796006 -5.64284041 -0.96064441 0 0 Z " fill="#FE4131" transform="translate(71,38)"/>
<path d="M0 0 C3.93700277 2.22672474 7.68653067 4.35161248 11.234375 7.171875 C11.97429688 7.75453125 12.71421875 8.3371875 13.4765625 8.9375 C14.22679688 9.535625 14.97703125 10.13375 15.75 10.75 C17.24330704 11.93416629 18.73811868 13.11643749 20.234375 14.296875 C20.94907455 14.87584534 21.66377411 15.45481567 22.40013123 16.05133057 C24.96347262 18.0585042 24.96347262 18.0585042 27.83387756 19.60736084 C32.16919162 22.19283365 35.42323963 24.14208312 36.96463013 29.10736084 C37.27308678 32.89835306 37.23829607 36.54373386 37.07421875 40.34375 C37.05366758 41.72230788 37.03802588 43.10094686 37.02705383 44.47961426 C36.98531334 48.08543976 36.8775347 51.68628608 36.75531006 55.29016113 C36.64218946 58.97660957 36.59242085 62.66387389 36.53710938 66.3515625 C36.41960361 73.56996372 36.23222927 80.78428091 36 88 C31.98006153 88.12426099 27.96087721 88.21464411 23.93945312 88.2746582 C22.57369497 88.2996928 21.20806933 88.33373218 19.84277344 88.37719727 C7.02721189 88.77476031 7.02721189 88.77476031 3.1328125 85.60546875 C-0.26356712 81.4564116 -0.13833523 78.51442436 -0.11352539 73.33740234 C-0.11367142 72.54707108 -0.11381744 71.75673981 -0.1139679 70.94245911 C-0.11326983 68.32359089 -0.10548239 65.70479333 -0.09765625 63.0859375 C-0.09579169 61.27275634 -0.09436797 59.45957467 -0.09336853 57.64639282 C-0.08954632 52.86896377 -0.07971855 48.09156501 -0.06866455 43.31414795 C-0.05844407 38.44120697 -0.05386954 33.5682611 -0.04882812 28.6953125 C-0.03809603 19.13019501 -0.02102314 9.56510002 0 0 Z " fill="#317CBF" transform="translate(50,69)"/>
<path d="M0 0 C0.06952543 10.47469199 0.12282425 20.94932904 0.15543652 31.42420483 C0.17108917 36.28817587 0.1923202 41.15198899 0.22631836 46.01586914 C0.25892598 50.71021895 0.27685603 55.4044169 0.28463173 60.09887123 C0.29017271 61.88943179 0.30099291 63.67998409 0.31719017 65.47047997 C0.33898321 67.97944443 0.34196616 70.48778221 0.34057617 72.99682617 C0.351362 73.73625961 0.36214783 74.47569305 0.3732605 75.23753357 C0.34674355 79.6640186 -0.18165817 82.53591203 -3 86 C-6.36787775 88.47889952 -9.65328883 88.2311115 -13.734375 88.1953125 C-15.02988281 88.18886719 -16.32539063 88.18242187 -17.66015625 88.17578125 C-19.02344019 88.15907193 -20.38672144 88.14214206 -21.75 88.125 C-23.12889985 88.1149634 -24.50780665 88.10583873 -25.88671875 88.09765625 C-29.25798882 88.07408093 -32.62890636 88.0411727 -36 88 C-36.44360685 80.16013977 -36.77939946 72.32329526 -36.98443127 64.47398186 C-37.08295563 60.82656885 -37.21595505 57.18782557 -37.43334961 53.54541016 C-38.79343147 30.14587394 -38.79343147 30.14587394 -34.2208252 23.35943604 C-29.89499647 18.99461117 -24.95723849 16.09592251 -19.49969482 13.35452271 C-15.28631498 11.07139654 -11.62435362 8.08936661 -7.875 5.125 C-1.17144654 0 -1.17144654 0 0 0 Z " fill="#02AA4B" transform="translate(209,69)"/>
<path d="M0 0 C4.4430481 3.14264378 6.86824356 6.4134035 7.96166992 11.7668457 C10.11991634 26.23838894 10.11991634 26.23838894 6.04931641 31.92724609 C1.87618503 36.0161781 -2.98381711 39.10799006 -7.921875 42.19238281 C-11.94460576 44.78310887 -15.66512371 47.74993661 -19.4375 50.6875 C-26.10954969 55.8125 -26.10954969 55.8125 -28.4375 55.8125 C-28.79461665 49.30376852 -29.03844776 42.79758086 -29.20654297 36.28125 C-29.27664407 34.06902735 -29.37196866 31.85744653 -29.49365234 29.64746094 C-30.44756057 11.8678941 -30.44756057 11.8678941 -27.11486816 6.80203247 C-19.58921059 -0.97560648 -10.22730982 -3.53307066 0 0 Z " fill="#FCBC02" transform="translate(201.4375,39.1875)"/>
<path d="M0 0 C1.69921875 0.93359375 1.69921875 0.93359375 3.20178223 2.02511597 C5.01010002 3.35278557 5.01010002 3.35278557 7.05773926 4.47097778 C10.26067184 6.45270324 12.60535583 7.94768065 13.71386719 11.66009521 C13.9375481 14.53037984 13.91208815 17.29922211 13.79296875 20.17578125 C13.78164917 21.21050568 13.77032959 22.2452301 13.75866699 23.31130981 C13.71401633 26.60398488 13.61367173 29.89224388 13.51171875 33.18359375 C13.47157727 35.42050986 13.43507768 37.65749448 13.40234375 39.89453125 C13.31431999 45.36738248 13.18059975 50.83767268 13.01171875 56.30859375 C9.06200619 54.10901039 5.32312896 51.95534442 1.77734375 49.13671875 C1.04306152 48.55978271 0.3087793 47.98284668 -0.44775391 47.38842773 C-2.00798019 46.14200948 -3.5648204 44.89134353 -5.11865234 43.63696289 C-10.11324124 39.61844206 -10.11324124 39.61844206 -15.60546875 36.3515625 C-18.94527477 34.56888682 -20.82648803 33.43629459 -22.98828125 30.30859375 C-24.60736311 23.28752849 -25.27066568 13.71808811 -21.87939453 7.16625977 C-16.48395996 -0.54990979 -9.13765793 -3.17753527 0 0 Z " fill="#E6191B" transform="translate(72.98828125,38.69140625)"/>
<path d="M0 0 C0.66 0.66 1.32 1.32 2 2 C0.25 4 0.25 4 -2 6 C-3.32 6 -4.64 6 -6 6 C-6 5.34 -6 4.68 -6 4 C-4.03852126 2.61061923 -2.03833424 1.2739589 0 0 Z " fill="#08A842" transform="translate(195,79)"/>
</svg>
