<svg width="24" height="24" viewBox="0 0 24 24" fill="none" xmlns="http://www.w3.org/2000/svg">
<path fill-rule="evenodd" clip-rule="evenodd" d="M13.5883 10.5332C13.3056 10.6122 13.019 10.6924 12.6872 10.7826C12.525 10.8285 12.4882 10.8389 12.3374 10.6556C12.1564 10.4396 12.0237 10.2998 11.7704 10.1727C11.0105 9.77882 10.2747 9.89318 9.58719 10.3633C8.76696 10.9224 8.34478 11.7483 8.35685 12.7776C8.36891 13.7941 9.03233 14.6327 9.98524 14.7725C10.8055 14.8868 11.493 14.5819 12.0358 13.9338C12.1443 13.7941 12.2409 13.6415 12.3615 13.4637H10.0335C9.78018 13.4637 9.71987 13.2985 9.80431 13.0825C9.96111 12.6886 10.2506 12.0279 10.4195 11.6975C10.4557 11.6213 10.5401 11.4942 10.721 11.4942H14.6027C14.777 10.9122 15.0599 10.3623 15.4373 9.84193C16.3179 8.62211 17.3793 7.98678 18.8147 7.71995C20.0451 7.49123 21.203 7.61829 22.2525 8.36798C23.2054 9.05413 23.7964 9.9817 23.9532 11.2015C24.1583 12.9169 23.6879 14.3146 22.5661 15.509C21.77 16.3604 20.7929 16.894 19.6712 17.1355C19.4572 17.1772 19.2432 17.197 19.0326 17.2165C18.9227 17.2267 18.8137 17.2367 18.7062 17.2498C17.6085 17.2244 16.6074 16.894 15.763 16.1316C15.1692 15.591 14.7602 14.9264 14.5569 14.1528C14.4158 14.453 14.2471 14.7404 14.0502 15.0139C13.1817 16.221 12.0479 16.9707 10.6125 17.174C9.43038 17.3392 8.33272 17.0978 7.36775 16.3354C6.47515 15.6238 5.96854 14.6835 5.83585 13.5145C5.67905 12.1295 6.06504 10.8843 6.86114 9.79153C7.71755 8.60983 8.85139 7.86014 10.2385 7.59331C11.3724 7.3773 12.458 7.51707 13.435 8.21593C14.0743 8.66065 14.5327 9.27056 14.8342 10.0075C14.9066 10.1219 14.8584 10.1854 14.7136 10.2236C14.2909 10.3367 13.9427 10.434 13.5883 10.5332ZM21.5686 11.9805C21.571 12.0232 21.5735 12.0682 21.577 12.1164C21.5167 13.2091 20.998 14.0224 20.0451 14.5433C19.4058 14.8864 18.7424 14.9245 18.0789 14.6196C17.2105 14.213 16.7521 13.2091 16.9692 12.218C17.2346 11.0236 17.9583 10.2739 19.0801 10.0071C20.226 9.72757 21.3237 10.4391 21.5408 11.6971C21.5579 11.787 21.5629 11.877 21.5686 11.9805Z" fill="#00ACD7"/>
<path d="M1.83345 10.3888C1.80933 10.4269 1.82139 10.4523 1.86964 10.4523L5.46195 10.465C5.49814 10.465 5.55845 10.4269 5.58257 10.3888L5.78763 10.0584C5.81175 10.0203 5.79969 9.98218 5.75144 9.98218H2.21944C2.1712 9.98218 2.11088 10.0076 2.08676 10.0457L1.83345 10.3888Z" fill="#00ACD7"/>
<path d="M0.0120622 11.5577C-0.0120622 11.5958 5.58794e-09 11.6213 0.0482487 11.6213L4.97946 11.6086C5.02771 11.6086 5.07596 11.5831 5.08802 11.5323L5.18451 11.2274C5.19658 11.1892 5.17245 11.1511 5.1242 11.1511H0.398051C0.349803 11.1511 0.289492 11.1765 0.265368 11.2147L0.0120622 11.5577Z" fill="#00ACD7"/>
<path d="M2.9311 12.7141C2.90697 12.7522 2.91903 12.7903 2.96728 12.7903L4.82264 12.803C4.85883 12.803 4.90707 12.7649 4.90707 12.7141L4.9312 12.4091C4.9312 12.3583 4.90707 12.3202 4.85883 12.3202H3.22059C3.17234 12.3202 3.12409 12.3583 3.09997 12.3964L2.9311 12.7141Z" fill="#00ACD7"/>
</svg>
