<svg width="18" height="6" viewBox="0 0 18 6" fill="none" xmlns="http://www.w3.org/2000/svg">
<path d="M5.65891 0.00858409V6H4.47195V3.45064H1.93696V6H0.75V0.00858409H1.93696V2.4721H4.47195V0.00858409H5.65891Z" fill="#2D2C33"/>
<path d="M10.795 4.85837H8.43805L8.04805 6H6.80175L8.92979 0H10.3117L12.4398 6H11.185L10.795 4.85837ZM10.4728 3.89699L9.61653 1.39056L8.76023 3.89699H10.4728Z" fill="#2D2C33"/>
<path d="M16.6265 6L15.3209 3.66523H14.7613V6H13.5744V0.00858409H15.7957C16.2535 0.00858409 16.6435 0.0915597 16.9657 0.257511C17.2878 0.41774 17.528 0.638054 17.6863 0.918455C17.8502 1.19313 17.9322 1.50215 17.9322 1.84549C17.9322 2.24034 17.8191 2.598 17.593 2.91845C17.367 3.23319 17.0307 3.45064 16.5841 3.57081L18 6H16.6265ZM14.7613 2.76395H15.7533C16.0754 2.76395 16.3157 2.68669 16.4739 2.53219C16.6322 2.37196 16.7113 2.15164 16.7113 1.87124C16.7113 1.59657 16.6322 1.38483 16.4739 1.23605C16.3157 1.08154 16.0754 1.00429 15.7533 1.00429H14.7613V2.76395Z" fill="#2D2C33"/>
</svg>
