<svg width="20" height="20" viewBox="0 0 20 20" fill="none" xmlns="http://www.w3.org/2000/svg">
<path d="M10.625 6.25002V9.64612L13.4469 11.3391C13.589 11.4245 13.6914 11.5628 13.7316 11.7237C13.7717 11.8845 13.7463 12.0548 13.6609 12.1969C13.5756 12.339 13.4372 12.4414 13.2764 12.4816C13.1155 12.5217 12.9453 12.4963 12.8031 12.411L9.67812 10.536C9.58563 10.4804 9.50911 10.4018 9.45599 10.3079C9.40287 10.214 9.37497 10.1079 9.375 10V6.25002C9.375 6.08426 9.44085 5.92529 9.55806 5.80808C9.67527 5.69087 9.83424 5.62502 10 5.62502C10.1658 5.62502 10.3247 5.69087 10.4419 5.80808C10.5592 5.92529 10.625 6.08426 10.625 6.25002ZM10 2.50002C9.01406 2.49757 8.03742 2.69067 7.12661 3.06817C6.21579 3.44566 5.38889 4.00005 4.69375 4.69924C4.12578 5.27424 3.62109 5.82737 3.125 6.40627V5.00002C3.125 4.83426 3.05915 4.67529 2.94194 4.55808C2.82473 4.44087 2.66576 4.37502 2.5 4.37502C2.33424 4.37502 2.17527 4.44087 2.05806 4.55808C1.94085 4.67529 1.875 4.83426 1.875 5.00002V8.12502C1.875 8.29078 1.94085 8.44975 2.05806 8.56697C2.17527 8.68418 2.33424 8.75002 2.5 8.75002H5.625C5.79076 8.75002 5.94973 8.68418 6.06694 8.56697C6.18415 8.44975 6.25 8.29078 6.25 8.12502C6.25 7.95926 6.18415 7.80029 6.06694 7.68308C5.94973 7.56587 5.79076 7.50002 5.625 7.50002H3.82812C4.38672 6.84221 4.94297 6.22268 5.57734 5.58049C6.44598 4.71186 7.55133 4.11847 8.75529 3.87446C9.95924 3.63045 11.2084 3.74665 12.3467 4.20853C13.485 4.67041 14.4619 5.45749 15.1555 6.47144C15.849 7.48538 16.2283 8.68121 16.2461 9.90952C16.2639 11.1378 15.9193 12.3441 15.2554 13.3777C14.5915 14.4113 13.6377 15.2263 12.5132 15.7209C11.3888 16.2155 10.1435 16.3678 8.93299 16.1587C7.72249 15.9496 6.60043 15.3885 5.70703 14.5453C5.64732 14.4889 5.57708 14.4448 5.50032 14.4155C5.42356 14.3862 5.34179 14.3724 5.25967 14.3747C5.17754 14.377 5.09668 14.3955 5.0217 14.429C4.94672 14.4626 4.87908 14.5106 4.82266 14.5703C4.76623 14.63 4.72212 14.7003 4.69283 14.777C4.66355 14.8538 4.64967 14.9356 4.652 15.0177C4.65432 15.0998 4.67279 15.1807 4.70636 15.2557C4.73993 15.3306 4.78795 15.3983 4.84766 15.4547C5.73785 16.2948 6.82012 16.9042 8 17.2298C9.17989 17.5554 10.4215 17.5873 11.6166 17.3226C12.8116 17.058 13.9237 16.505 14.8559 15.7117C15.788 14.9184 16.5118 13.9091 16.9642 12.7718C17.4165 11.6344 17.5836 10.4037 17.4509 9.18689C17.3182 7.97011 16.8897 6.80431 16.2029 5.79122C15.516 4.77813 14.5916 3.94854 13.5104 3.37485C12.4292 2.80117 11.224 2.50082 10 2.50002Z" fill="#5C5F62"/>
</svg>
