<?xml version="1.0" encoding="UTF-8"?>
<svg version="1.1" xmlns="http://www.w3.org/2000/svg" width="64" height="64">
<path d="M0 0 C0.86625 0.53625 1.7325 1.0725 2.625 1.625 C6.93543277 5.93543277 11.03256211 11.86502801 12 18 C11.99179949 20.78817345 11.8722543 23.55879024 11.7421875 26.34375 C12.04847731 29.49946319 13.07421403 30.55254543 15 33 C16.30923325 38.324801 16.86676907 44.18382796 14 49 C8.72430435 52.53608049 3.45092811 54.14806155 -2.875 54.1875 C-3.90367188 54.20167969 -4.93234375 54.21585938 -5.9921875 54.23046875 C-9 54 -9 54 -11.62890625 52.93359375 C-14.36183096 51.85753278 -15.31278693 52.01670806 -18.0625 52.875 C-27.38534798 55.22894168 -36.59003262 55.01647177 -45 50 C-47.67142544 47.09286056 -47.94960897 45.54422318 -48.3125 41.625 C-47.52830189 32.52830189 -47.52830189 32.52830189 -45 30 C-44.86618958 28.00176441 -44.76856185 26.00106963 -44.6875 24 C-44.0743665 15.50903004 -41.6233046 8.89827221 -35.83984375 2.5703125 C-25.39375294 -6.34545927 -11.50945886 -7.31220207 0 0 Z " fill="#FDD01E" transform="translate(48,7)"/>
<path d="M0 0 C0.86625 0.53625 1.7325 1.0725 2.625 1.625 C6.93543277 5.93543277 11.03256211 11.86502801 12 18 C11.99179949 20.78817345 11.8722543 23.55879024 11.7421875 26.34375 C12.04847731 29.49946319 13.07421403 30.55254543 15 33 C16.30923325 38.324801 16.86676907 44.18382796 14 49 C8.72430435 52.53608049 3.45092811 54.14806155 -2.875 54.1875 C-3.90367188 54.20167969 -4.93234375 54.21585938 -5.9921875 54.23046875 C-9 54 -9 54 -11.62890625 52.93359375 C-14.36183096 51.85753278 -15.31278693 52.01670806 -18.0625 52.875 C-27.38534798 55.22894168 -36.59003262 55.01647177 -45 50 C-47.67142544 47.09286056 -47.94960897 45.54422318 -48.3125 41.625 C-47.52830189 32.52830189 -47.52830189 32.52830189 -45 30 C-44.86618958 28.00176441 -44.76856185 26.00106963 -44.6875 24 C-44.0743665 15.50903004 -41.6233046 8.89827221 -35.83984375 2.5703125 C-25.39375294 -6.34545927 -11.50945886 -7.31220207 0 0 Z M-27 0 C-28.05021103 1.84971696 -28.05021103 1.84971696 -29 4 C-29.969375 4.804375 -30.93875 5.60875 -31.9375 6.4375 C-35.93766243 9.78457469 -38.00930032 12.9114062 -39 18 C-39.06688591 19.91561254 -39.08531719 21.83335592 -39.0625 23.75 C-39.05347656 24.73484375 -39.04445313 25.7196875 -39.03515625 26.734375 C-39.02355469 27.48203125 -39.01195312 28.2296875 -39 29 C-38.05125 28.979375 -37.1025 28.95875 -36.125 28.9375 C-33 29 -33 29 -31 30 C-29.8553125 29.7834375 -29.8553125 29.7834375 -28.6875 29.5625 C-26 30 -26 30 -24.6328125 31.671875 C-23.3516838 33.74897124 -22.16754679 35.85744922 -21 38 C-20.34 38.99 -19.68 39.98 -19 41 C-20.35608685 45.06826056 -22.51402637 47.17445909 -26.25 49.25 C-26.8275 49.4975 -27.405 49.745 -28 50 C-28 50.33 -28 50.66 -28 51 C-26.576875 50.7525 -26.576875 50.7525 -25.125 50.5 C-20.44933156 49.82930985 -15.71358636 49.6929848 -11 50 C-10.505 50.495 -10.505 50.495 -10 51 C-2.05712873 51.72100468 5.19448891 51.52599524 12 47 C13.97921015 43.04157971 13.19196694 38.79740114 12.1875 34.625 C11.5996875 33.325625 11.5996875 33.325625 11 32 C10.01 31.67 9.02 31.34 8 31 C8.495 30.01 8.495 30.01 9 29 C9.77028566 20.20096766 8.7919989 13.24418042 3.25 6.25 C-1.25631565 1.3401337 -6.65577843 -1.69174665 -13.3671875 -2.16796875 C-18.24378695 -2.2059485 -22.54061445 -2.22969278 -27 0 Z " fill="#FFAD07" transform="translate(48,7)"/>
<path d="M0 0 C5.59893776 3.77842425 9.50936235 8.33195052 11.59375 14.859375 C12.09123952 17.48076207 12.13218962 19.95764968 12.125 22.625 C12.12886719 24.06746094 12.12886719 24.06746094 12.1328125 25.5390625 C12 28 12 28 11 30 C11.639375 30.226875 12.27875 30.45375 12.9375 30.6875 C15 32 15 32 15.75 34.1875 C16.55235205 43.21396055 16.55235205 43.21396055 14.375 46.3125 C9.60445382 49.7020986 4.93622441 50.25976968 -0.8125 50.1875 C-1.95332031 50.18105469 -3.09414063 50.17460938 -4.26953125 50.16796875 C-7 50 -7 50 -8 49 C-13.74116691 48.62605426 -19.34445544 49.01642703 -25 50 C-23.61423347 47.22846695 -21.65868859 46.51925062 -19 45 C-18.01 44.34 -17.02 43.68 -16 43 C-16 43.99 -16 44.98 -16 46 C-14.35 46 -12.7 46 -11 46 C-11.103125 45.154375 -11.20625 44.30875 -11.3125 43.4375 C-10.94359069 39.37949759 -9.7607331 37.78653602 -7.2890625 34.6796875 C-5.82326848 32.88456594 -5.82326848 32.88456594 -4.5625 30.0625 C-3.7890625 29.0415625 -3.7890625 29.0415625 -3 28 C0.125 27.75 0.125 27.75 3 28 C3.33 27.67 3.66 27.34 4 27 C5.99958364 26.95919217 8.00045254 26.95745644 10 27 C8.88277765 18.04752089 7.81471967 11.72994812 1.1875 5.25 C-7.28561602 -0.73102307 -14.20189481 -0.37517266 -24 1 C-24 0.34 -24 -0.32 -24 -1 C-16.10949304 -4.32231872 -7.52287223 -4.16025782 0 0 Z " fill="#FFAB04" transform="translate(45,8)"/>
<path d="M0 0 C0.86625 0.53625 1.7325 1.0725 2.625 1.625 C6.93543277 5.93543277 11.03256211 11.86502801 12 18 C11.99179949 20.78817345 11.8722543 23.55879024 11.7421875 26.34375 C12.04847731 29.49946319 13.07421403 30.55254543 15 33 C16.30923325 38.324801 16.86676907 44.18382796 14 49 C8.72430435 52.53608049 3.45092811 54.14806155 -2.875 54.1875 C-3.90367188 54.20167969 -4.93234375 54.21585938 -5.9921875 54.23046875 C-9 54 -9 54 -11.62890625 52.93359375 C-14.36183096 51.85753278 -15.31278693 52.01670806 -18.0625 52.875 C-27.38534798 55.22894168 -36.59003262 55.01647177 -45 50 C-47.67142544 47.09286056 -47.94960897 45.54422318 -48.3125 41.625 C-47.52830189 32.52830189 -47.52830189 32.52830189 -45 30 C-44.86618958 28.00176441 -44.76856185 26.00106963 -44.6875 24 C-44.0743665 15.50903004 -41.6233046 8.89827221 -35.83984375 2.5703125 C-25.39375294 -6.34545927 -11.50945886 -7.31220207 0 0 Z M-36 6 C-40.17269176 11.93018209 -42.14968048 17.41909743 -42.125 24.6875 C-42.12757812 25.45449219 -42.13015625 26.22148438 -42.1328125 27.01171875 C-42.12368933 29.07479336 -42.12368933 29.07479336 -41 31 C-42.485 31.495 -42.485 31.495 -44 32 C-44.96449057 36.82245286 -45.55129365 41.11711336 -45 46 C-40.38225775 50.17795727 -35.05093157 52.06700944 -28.875 52.25 C-25.21332608 52.27689034 -25.21332608 52.27689034 -23.08203125 50.99609375 C-20.51867494 49.76972253 -18.64020404 49.76655503 -15.8125 49.8125 C-14.93207031 49.81894531 -14.05164063 49.82539062 -13.14453125 49.83203125 C-11 50 -11 50 -10 51 C-2.05712873 51.72100468 5.19448891 51.52599524 12 47 C13.97921015 43.04157971 13.19196694 38.79740114 12.1875 34.625 C11.5996875 33.325625 11.5996875 33.325625 11 32 C10.01 31.67 9.02 31.34 8 31 C8.495 30.01 8.495 30.01 9 29 C9.77028566 20.20096766 8.7919989 13.24418042 3.25 6.25 C-1.25412689 1.34251847 -6.61347102 -1.61207567 -13.296875 -2.203125 C-21.9683519 -2.36882201 -29.68144834 -0.24168364 -36 6 Z " fill="#FFFAF3" transform="translate(48,7)"/>
<path d="M0 0 C0.66 0.33 1.32 0.66 2 1 C0.79618552 3.49361571 -0.45428722 5.68143083 -2 8 C-1.071875 7.34 -0.14375 6.68 0.8125 6 C4 4 4 4 7 4 C5.86695008 7.39914975 4.87481525 8.05254451 2 10 C3.65 9.67 5.3 9.34 7 9 C7 13 7 13 6 16 C0.68427636 18.82652263 -5.08842384 19.70137344 -11 19 C-13.5625 17.25 -13.5625 17.25 -15 15 C-14.55977868 11.47822946 -12.86285672 8.76086552 -11.0625 5.75 C-10.53785156 4.85796875 -10.01320313 3.9659375 -9.47265625 3.046875 C-8.98667969 2.37140625 -8.50070313 1.6959375 -8 1 C-7.34 1 -6.68 1 -6 1 C-5.79913557 4.71599191 -5.8480563 5.77208445 -8 9 C-5.0702992 6.17493137 -2.49825283 3.21203935 0 0 Z " fill="#FECF1C" transform="translate(51,37)"/>
<path d="M0 0 C4.22488728 1.50888831 5.65504658 4.32623964 8 8 C8.66 8.33 9.32 8.66 10 9 C9.2265625 8.13375 9.2265625 8.13375 8.4375 7.25 C7 5 7 5 7.3125 2.75 C7.539375 2.1725 7.76625 1.595 8 1 C11.75543848 4.6342953 15.54323961 8.48781787 16.5 13.75 C16 16 16 16 15 17.8125 C11.06625787 20.14815939 6.77919399 19.41058323 2.51171875 18.42578125 C-1.98987316 17.06884206 -1.98987316 17.06884206 -4 16 C-4.33 15.01 -4.66 14.02 -5 13 C-4.01 13 -3.02 13 -2 13 C-3.32 12.34 -4.64 11.68 -6 11 C-6 10.34 -6 9.68 -6 9 C-5.21625 9.165 -4.4325 9.33 -3.625 9.5 C-1.11791961 10.0623707 -1.11791961 10.0623707 1 10 C0.01 9.38125 -0.98 8.7625 -2 8.125 C-2.99 7.42375 -3.98 6.7225 -5 6 C-5 5.34 -5 4.68 -5 4 C-1.17902761 4.53069061 1.06171403 5.49701566 4 8 C3.01 6.8553125 3.01 6.8553125 2 5.6875 C0 3 0 3 0 0 Z " fill="#FED01D" transform="translate(11,37)"/>
<path d="M0 0 C-0.98571685 3.45000896 -2.01726648 6.02511489 -4.0625 9 C-6.08998464 12.13933105 -6.64941698 14.31887825 -7 18 C-8.65 18 -10.3 18 -12 18 C-11.896875 17.154375 -11.79375 16.30875 -11.6875 15.4375 C-12.06032199 11.33645813 -13.34674681 9.70601427 -15.90625 6.61328125 C-17 5 -17 5 -17 2 C-16.484375 2.165 -15.96875 2.33 -15.4375 2.5 C-11.18936309 3.3714127 -7.42864436 3.92668823 -3.6875 1.5 C-2 0 -2 0 0 0 Z " fill="#FED01D" transform="translate(41,36)"/>
<path d="M0 0 C-0.48165869 6.38197767 -0.48165869 6.38197767 -2.625 8.9375 C-5.97682053 10.43699866 -8.36980218 10.45377473 -12 10 C-14.85757999 7.96961422 -15.82275658 6.77918049 -16.6015625 3.35546875 C-16.73304687 2.57816406 -16.86453125 1.80085938 -17 1 C-16.26394531 1.09539063 -15.52789063 1.19078125 -14.76953125 1.2890625 C-13.30580078 1.45535156 -13.30580078 1.45535156 -11.8125 1.625 C-10.84957031 1.74101562 -9.88664062 1.85703125 -8.89453125 1.9765625 C-5.57230179 2.00346314 -3.04955394 0 0 0 Z " fill="#403F43" transform="translate(40,30)"/>
<path d="M0 0 C0.33 0.66 0.66 1.32 1 2 C1.99 2.33 2.98 2.66 4 3 C7 4 7 4 8 6 C6.02 5.34 4.04 4.68 2 4 C5.20338893 8.01818821 9.48161994 8.17807533 14.28515625 9.15625 C17 10 17 10 19 13 C12.20024147 13.50368582 7.08066988 12.09684674 1 9 C-1 7 -1 7 -1.1875 3.9375 C-1 1 -1 1 0 0 Z " fill="#FFB115" transform="translate(4,46)"/>
<path d="M0 0 C3.63 0.66 7.26 1.32 11 2 C10.67 3.32 10.34 4.64 10 6 C8.8553125 5.9690625 8.8553125 5.9690625 7.6875 5.9375 C4.89814214 5.87057159 4.89814214 5.87057159 2 7 C0.5393715 4.35261084 0 3.10551666 0 0 Z " fill="#333645" transform="translate(23,31)"/>
<path d="M0 0 C3.375 -0.1875 3.375 -0.1875 7 0 C7.66 0.99 8.32 1.98 9 3 C6.04335481 4.4783226 3.25770263 4.06032783 0 4 C0 2.68 0 1.36 0 0 Z " fill="#EB4E4C" transform="translate(28,36)"/>
<path d="M0 0 C1.65 0 3.3 0 5 0 C5.33 1.65 5.66 3.3 6 5 C5.01 5.33 4.02 5.66 3 6 C3 5.34 3 4.68 3 4 C1.68 4 0.36 4 -1 4 C-0.67 2.68 -0.34 1.36 0 0 Z " fill="#444442" transform="translate(37,20)"/>
<path d="M0 0 C1.67542976 0.28604898 3.34385343 0.61781233 5 1 C5 1.99 5 2.98 5 4 C3.35 4.66 1.7 5.32 0 6 C-0.38218767 4.34385343 -0.71395102 2.67542976 -1 1 C-0.67 0.67 -0.34 0.34 0 0 Z " fill="#303445" transform="translate(21,20)"/>
<path d="M0 0 C0.66 0 1.32 0 2 0 C1.75 2.875 1.75 2.875 1 6 C-1.0625 7.375 -1.0625 7.375 -3 8 C-3.33 7.01 -3.66 6.02 -4 5 C-3.34 4.67 -2.68 4.34 -2 4 C-0.86649466 1.98330173 -0.86649466 1.98330173 0 0 Z " fill="#FFAF14" transform="translate(59,48)"/>
<path d="M0 0 C0.66 0 1.32 0 2 0 C1.67 2.64 1.34 5.28 1 8 C-1 5 -1 5 -0.625 2.3125 C-0.41875 1.549375 -0.2125 0.78625 0 0 Z " fill="#FFF2DE" transform="translate(2,40)"/>
</svg>
