<?xml version="1.0" encoding="UTF-8"?>
<svg version="1.1" xmlns="http://www.w3.org/2000/svg" width="300" height="300">
<path d="M0 0 C0.60585937 0.40089844 1.21171875 0.80179687 1.8359375 1.21484375 C2.52429688 1.64667969 3.21265625 2.07851562 3.921875 2.5234375 C5.8984375 3.83984375 5.8984375 3.83984375 8.8359375 6.21484375 C8.8359375 6.87484375 8.8359375 7.53484375 8.8359375 8.21484375 C9.35800781 7.7559375 9.88007813 7.29703125 10.41796875 6.82421875 C19.07687451 -0.39406346 26.8430868 -3.10484795 38.0234375 -3.22265625 C38.77165771 -3.23288818 39.51987793 -3.24312012 40.29077148 -3.25366211 C47.99238656 -3.13216945 54.83755482 -0.74034195 60.8359375 4.21484375 C69.62913653 14.89997803 70.27491275 25.60263728 70.1640625 38.80859375 C70.16100023 40.40759096 70.15912767 42.00659085 70.15838623 43.60559082 C70.15380787 46.93736157 70.13946873 50.26888726 70.1171875 53.60058594 C70.08872256 57.87913201 70.07795495 62.15748727 70.0735054 66.43611908 C70.06936103 69.72853512 70.05955481 73.02091239 70.04763031 76.31330872 C70.04192301 77.89223419 70.03716582 79.47116339 70.03336334 81.0500946 C70.02652612 83.24505271 70.01291096 85.43985641 69.99707031 87.63476562 C69.98682831 89.50932434 69.98682831 89.50932434 69.97637939 91.42175293 C69.8359375 94.21484375 69.8359375 94.21484375 68.8359375 95.21484375 C66.92135468 95.31456161 65.00311433 95.34564964 63.0859375 95.34765625 C61.920625 95.34894531 60.7553125 95.35023438 59.5546875 95.3515625 C58.3275 95.34769531 57.1003125 95.34382813 55.8359375 95.33984375 C53.99515625 95.34564453 53.99515625 95.34564453 52.1171875 95.3515625 C50.951875 95.35027344 49.7865625 95.34898437 48.5859375 95.34765625 C47.50828125 95.34652832 46.430625 95.34540039 45.3203125 95.34423828 C42.8359375 95.21484375 42.8359375 95.21484375 41.8359375 94.21484375 C41.72812182 92.31393397 41.68966215 90.40905745 41.67822266 88.50512695 C41.66796051 87.28328201 41.65769836 86.06143707 41.64712524 84.80256653 C41.64368732 84.14513773 41.6402494 83.48770893 41.63670731 82.81035805 C41.6249359 80.75442934 41.60548504 78.69871238 41.58358765 76.64286804 C41.52193327 70.79591987 41.46803452 64.94898928 41.43457031 59.10180664 C41.41356317 55.52782329 41.3782044 51.95421909 41.33381271 48.38045311 C41.31969128 47.02061634 41.310939 45.66071241 41.30775833 44.30080605 C41.30282147 42.3909658 41.27800413 40.48120875 41.25244141 38.5715332 C41.24435455 37.48644974 41.2362677 36.40136627 41.22793579 35.28340149 C40.64239696 30.69981084 39.15310822 27.31248602 35.5859375 24.33984375 C30.92016348 22.43111802 27.3057728 22.70605461 22.5859375 24.33984375 C19.20467226 26.64525187 18.38808475 28.45515504 16.8359375 32.21484375 C16.37833599 35.31145276 16.37833599 35.31145276 16.41943359 38.5715332 C16.39458389 40.42794182 16.39458389 40.42794182 16.36923218 42.32185364 C16.36578016 43.65727701 16.36249841 44.99270082 16.359375 46.328125 C16.34505353 47.70722469 16.32929445 49.08631014 16.31216431 50.46537781 C16.27045666 54.08001899 16.24535848 57.69457172 16.22467041 61.30938721 C16.18873924 67.11251108 16.12798951 72.91541758 16.06618118 78.71831322 C16.04705632 80.74639704 16.03535561 82.7744223 16.02474976 84.80256653 C16.00935654 86.63533394 16.00935654 86.63533394 15.99365234 88.50512695 C15.98390884 90.1267852 15.98390884 90.1267852 15.97396851 91.78120422 C15.8359375 94.21484375 15.8359375 94.21484375 14.8359375 95.21484375 C12.83628768 95.30242378 10.8335764 95.32180951 8.83203125 95.3125 C7.00961914 95.30766602 7.00961914 95.30766602 5.15039062 95.30273438 C3.87099609 95.29435547 2.59160156 95.28597656 1.2734375 95.27734375 C-0.00982422 95.27283203 -1.29308594 95.26832031 -2.61523438 95.26367188 C-5.79822272 95.2518392 -8.98112012 95.23535443 -12.1640625 95.21484375 C-13.23699707 91.99604004 -13.30141134 89.64735237 -13.32177734 86.26220703 C-13.33203949 85.03728546 -13.34230164 83.81236389 -13.35287476 82.55032349 C-13.35631268 81.89626652 -13.3597506 81.24220955 -13.36329269 80.56833267 C-13.37510616 78.51672043 -13.394565 76.46531639 -13.41641235 74.41378784 C-13.47794627 68.5814306 -13.53204991 62.7490957 -13.56542969 56.91650391 C-13.58640792 53.34670211 -13.62173455 49.77728207 -13.66618729 46.20769882 C-13.68032127 44.84982682 -13.68906386 43.4918873 -13.69224167 42.13394547 C-13.69716555 40.23130384 -13.72196028 38.32874532 -13.74755859 36.42626953 C-13.75564545 35.34499786 -13.7637323 34.2637262 -13.77206421 33.14968872 C-14.21842136 29.80786538 -15.18535746 27.9212775 -17.1640625 25.21484375 C-21.00171757 22.73165517 -24.64535004 23.04761749 -29.01171875 23.6796875 C-32.23824789 24.48192796 -33.96230845 25.74621042 -36.1640625 28.21484375 C-38.68604293 33.76452138 -38.40401657 39.16654447 -38.32421875 45.1328125 C-38.31901718 46.18584061 -38.31381561 47.23886871 -38.30845642 48.32380676 C-38.29069625 51.68346154 -38.25957236 55.04280692 -38.2265625 58.40234375 C-38.19878181 61.74399853 -38.17403717 65.08560381 -38.15538025 68.42732239 C-38.14330121 70.50214158 -38.12588131 72.57693944 -38.10206604 74.6516571 C-38.05760691 81.19242763 -38.1891782 87.73490246 -39.1640625 94.21484375 C-39.4940625 94.54484375 -39.8240625 94.87484375 -40.1640625 95.21484375 C-49.0740625 95.21484375 -57.9840625 95.21484375 -67.1640625 95.21484375 C-67.1640625 63.53484375 -67.1640625 31.85484375 -67.1640625 -0.78515625 C-57.9240625 -1.11515625 -48.6840625 -1.44515625 -39.1640625 -1.78515625 C-38.5040625 -0.13515625 -37.8440625 1.51484375 -37.1640625 3.21484375 C-36.8340625 2.55484375 -36.5040625 1.89484375 -36.1640625 1.21484375 C-26.23374415 -4.46554713 -10.20210077 -5.66559351 0 0 Z " fill="#2859E5" transform="translate(170.1640625,102.78515625)"/>
<path d="M0 0 C1.12591553 0.00523682 2.25183105 0.01047363 3.41186523 0.01586914 C4.62680664 0.0190918 5.84174805 0.02231445 7.09350586 0.02563477 C8.37290039 0.03401367 9.65229492 0.04239258 10.97045898 0.05102539 C12.2537207 0.05553711 13.53698242 0.06004883 14.85913086 0.06469727 C18.04211921 0.07652994 21.22501661 0.09301471 24.40795898 0.11352539 C24.43108053 12.48271254 24.44887311 24.85189458 24.45977116 37.2210989 C24.4650004 42.96397601 24.47209879 48.7068384 24.48339844 54.44970703 C24.49422586 59.98692534 24.50023551 65.52412943 24.50283623 71.0613575 C24.50469074 73.17896816 24.50831185 75.29657801 24.51368904 77.41418266 C24.52089754 80.36923813 24.52195001 83.3242341 24.52148438 86.27929688 C24.52507965 87.16402176 24.52867493 88.04874664 24.53237915 88.96028137 C24.52201115 94.99947323 24.52201115 94.99947323 23.40795898 96.11352539 C21.49337617 96.21324325 19.57513581 96.24433128 17.65795898 96.24633789 C16.49264648 96.24762695 15.32733398 96.24891602 14.12670898 96.25024414 C12.89952148 96.24637695 11.67233398 96.24250977 10.40795898 96.23852539 C8.56717773 96.24432617 8.56717773 96.24432617 6.68920898 96.25024414 C5.52389648 96.24895508 4.35858398 96.24766602 3.15795898 96.24633789 C2.08030273 96.24520996 1.00264648 96.24408203 -0.10766602 96.24291992 C-2.59204102 96.11352539 -2.59204102 96.11352539 -3.59204102 95.11352539 C-3.69262345 92.1969491 -3.72819312 89.30401594 -3.72143555 86.38696289 C-3.72318787 85.47158752 -3.72494019 84.55621216 -3.72674561 83.61309814 C-3.73116562 80.5715549 -3.72822561 77.53006928 -3.72485352 74.48852539 C-3.72552651 72.38484689 -3.7264965 70.28116847 -3.72775269 68.17749023 C-3.72922986 63.7622809 -3.72707447 59.34709176 -3.72241211 54.93188477 C-3.71671481 49.25859978 -3.71999371 43.5853621 -3.72598457 37.91207886 C-3.72958965 33.56623983 -3.72845185 29.22041211 -3.72585678 24.87457275 C-3.72518736 22.78208409 -3.72601644 20.68959442 -3.72833633 18.59710693 C-3.73086199 15.67807273 -3.72702349 12.75911627 -3.72143555 9.84008789 C-3.72345978 8.96628479 -3.72548401 8.09248169 -3.72756958 7.19219971 C-3.70250386 0.16216109 -3.70250386 0.16216109 0 0 Z " fill="#295AE5" transform="translate(63.592041015625,101.886474609375)"/>
<path d="M0 0 C1.12591553 0.00523682 2.25183105 0.01047363 3.41186523 0.01586914 C4.50571533 0.0183667 5.59956543 0.02086426 6.7265625 0.0234375 C8.82729126 0.03709351 8.82729126 0.03709351 10.97045898 0.05102539 C17.62202148 0.08196289 17.62202148 0.08196289 24.40795898 0.11352539 C24.40795898 9.35352539 24.40795898 18.59352539 24.40795898 28.11352539 C15.16795898 28.11352539 5.92795898 28.11352539 -3.59204102 28.11352539 C-3.61266602 23.67915039 -3.63329102 19.24477539 -3.65454102 14.67602539 C-3.66364502 13.27553955 -3.67274902 11.87505371 -3.68212891 10.43212891 C-3.68462646 9.33827881 -3.68712402 8.24442871 -3.68969727 7.11743164 C-3.69493408 5.99151611 -3.7001709 4.86560059 -3.70556641 3.70556641 C-3.55270048 0.21529211 -3.4902743 0.15286593 0 0 Z " fill="#040405" transform="translate(215.592041015625,208.886474609375)"/>
<path d="M0 0 C9.24 0 18.48 0 28 0 C28.0309375 6.6515625 28.0309375 6.6515625 28.0625 13.4375 C28.071604 14.83798584 28.08070801 16.23847168 28.09008789 17.68139648 C28.09258545 18.77524658 28.09508301 19.86909668 28.09765625 20.99609375 C28.10551147 22.68496704 28.10551147 22.68496704 28.11352539 24.40795898 C28 27 28 27 27 28 C25.00035018 28.08758003 22.9976389 28.10696576 20.99609375 28.09765625 C19.90224365 28.09515869 18.80839355 28.09266113 17.68139648 28.09008789 C16.28091064 28.08098389 14.8804248 28.07187988 13.4375 28.0625 C6.7859375 28.0315625 6.7859375 28.0315625 0 28 C0 18.76 0 9.52 0 0 Z " fill="#060607" transform="translate(60,63)"/>
<path d="M0 0 C0.98291016 0.04833984 1.96582031 0.09667969 2.97851562 0.14648438 C4.51475586 0.2305957 4.51475586 0.2305957 6.08203125 0.31640625 C7.11779297 0.36861328 8.15355469 0.42082031 9.22070312 0.47460938 C11.77895174 0.60429018 14.33681063 0.73925603 16.89453125 0.87890625 C16.89453125 2.85890625 16.89453125 4.83890625 16.89453125 6.87890625 C16.56453125 6.87890625 16.23453125 6.87890625 15.89453125 6.87890625 C15.89453125 5.22890625 15.89453125 3.57890625 15.89453125 1.87890625 C8.96453125 1.87890625 2.03453125 1.87890625 -5.10546875 1.87890625 C-5.10546875 31.57890625 -5.10546875 61.27890625 -5.10546875 91.87890625 C1.82453125 91.87890625 8.75453125 91.87890625 15.89453125 91.87890625 C15.89453125 72.07890625 15.89453125 52.27890625 15.89453125 31.87890625 C16.88453125 31.54890625 17.87453125 31.21890625 18.89453125 30.87890625 C19.86369599 33.78640047 20.02634929 35.66006224 20.03979492 38.68579102 C20.04617477 39.66012589 20.05255463 40.63446075 20.05912781 41.63832092 C20.06024063 42.68837814 20.06135345 43.73843536 20.0625 44.8203125 C20.0658284 45.89893051 20.0691568 46.97754852 20.07258606 48.08885193 C20.07764996 50.36937025 20.07999455 52.64989598 20.07983398 54.93041992 C20.08202471 58.43094967 20.10019787 61.93116648 20.11914062 65.43164062 C20.12207373 67.64453017 20.12405908 69.85742121 20.125 72.0703125 C20.13218552 73.12239395 20.13937103 74.1744754 20.14677429 75.25843811 C20.14369766 76.22962082 20.14062103 77.20080353 20.13745117 78.20141602 C20.13887619 79.05840591 20.14030121 79.91539581 20.14176941 80.7983551 C19.89453125 82.87890625 19.89453125 82.87890625 17.89453125 84.87890625 C17.56453125 87.51890625 17.23453125 90.15890625 16.89453125 92.87890625 C9.30453125 92.87890625 1.71453125 92.87890625 -6.10546875 92.87890625 C-6.43546875 64.49890625 -6.76546875 36.11890625 -7.10546875 6.87890625 C-7.43546875 6.87890625 -7.76546875 6.87890625 -8.10546875 6.87890625 C-8.10546875 4.89890625 -8.10546875 2.91890625 -8.10546875 0.87890625 C-5.02085369 -0.14929877 -3.20861636 -0.16692224 0 0 Z " fill="#385FE2" transform="translate(112.10546875,103.12109375)"/>
<path d="M0 0 C1.12591553 0.00523682 2.25183105 0.01047363 3.41186523 0.01586914 C4.62680664 0.0190918 5.84174805 0.02231445 7.09350586 0.02563477 C8.37290039 0.03401367 9.65229492 0.04239258 10.97045898 0.05102539 C12.2537207 0.05553711 13.53698242 0.06004883 14.85913086 0.06469727 C18.04211921 0.07652994 21.22501661 0.09301471 24.40795898 0.11352539 C24.40795898 0.77352539 24.40795898 1.43352539 24.40795898 2.11352539 C15.82795898 2.11352539 7.24795898 2.11352539 -1.59204102 2.11352539 C-1.59204102 32.47352539 -1.59204102 62.83352539 -1.59204102 94.11352539 C6.32795898 94.11352539 14.24795898 94.11352539 22.40795898 94.11352539 C22.40795898 94.44352539 22.40795898 94.77352539 22.40795898 95.11352539 C13.82795898 95.11352539 5.24795898 95.11352539 -3.59204102 95.11352539 C-3.61459048 82.87471881 -3.63295519 70.63592592 -3.64385319 58.39710331 C-3.6490824 52.71476027 -3.65618075 47.03243212 -3.66748047 41.35009766 C-3.67830798 35.87123403 -3.68431756 30.39238477 -3.68691826 24.91351128 C-3.68877276 22.81822928 -3.69239383 20.72294811 -3.69777107 18.6276722 C-3.7049797 15.70374956 -3.70603203 12.77988706 -3.70556641 9.85595703 C-3.70916168 8.98058289 -3.71275696 8.10520874 -3.71646118 7.20330811 C-3.70424479 0.16223734 -3.70424479 0.16223734 0 0 Z " fill="#113BE3" transform="translate(63.592041015625,101.886474609375)"/>
<path d="M0 0 C2.32441815 3.48662723 2.24401741 4.82577923 2.22705078 8.94018555 C2.22689972 10.16122482 2.22674866 11.3822641 2.22659302 12.64030457 C2.21627045 13.95912125 2.20594788 15.27793793 2.1953125 16.63671875 C2.19158161 18.00006401 2.188735 19.36341196 2.18673706 20.72676086 C2.17910653 24.31234154 2.15946315 27.89775979 2.1373291 31.48327637 C2.11685811 35.14312544 2.10773267 38.80300079 2.09765625 42.46289062 C2.07621658 49.64200965 2.04103931 56.82096136 2 64 C10.25 64 18.5 64 27 64 C27 64.66 27 65.32 27 66 C18.09 66 9.18 66 0 66 C-1.0815958 62.7552126 -1.12690702 60.39734709 -1.12939453 56.98388672 C-1.13254669 55.74605438 -1.13569885 54.50822205 -1.13894653 53.23287964 C-1.13715703 51.88181523 -1.13510615 50.53075115 -1.1328125 49.1796875 C-1.13348602 47.79631534 -1.13445644 46.41294329 -1.13571167 45.02957153 C-1.13718541 42.13282136 -1.1350438 39.23610205 -1.13037109 36.33935547 C-1.12466332 32.61890659 -1.12796145 28.89852968 -1.13394356 25.17808342 C-1.13754881 22.32316541 -1.13641094 19.46826461 -1.13381577 16.6133461 C-1.13314695 15.24095781 -1.13397336 13.86856798 -1.13629532 12.49618149 C-1.13882236 10.58322935 -1.13429082 8.67027176 -1.12939453 6.75732422 C-1.12859894 5.6671701 -1.12780334 4.57701599 -1.12698364 3.4538269 C-1 1 -1 1 0 0 Z " fill="#204ED9" transform="translate(158,132)"/>
<path d="M0 0 C0.33 0 0.66 0 1 0 C1 20.13 1 40.26 1 61 C9.25 61 17.5 61 26 61 C26 61.66 26 62.32 26 63 C17.09 63 8.18 63 -1 63 C-1.495 61.515 -1.495 61.515 -2 60 C-1.34 60 -0.68 60 0 60 C0 40.2 0 20.4 0 0 Z " fill="#003FE2" transform="translate(159,135)"/>
<path d="M0 0 C0.33 0 0.66 0 1 0 C1 7.26 1 14.52 1 22 C8.59 22 16.18 22 24 22 C24 19.36 24 16.72 24 14 C24.66 13.67 25.32 13.34 26 13 C26.02688151 14.64574566 26.04634123 16.29161413 26.0625 17.9375 C26.07410156 18.85402344 26.08570313 19.77054688 26.09765625 20.71484375 C26 23 26 23 25 24 C23.00035018 24.08758003 20.9976389 24.10696576 18.99609375 24.09765625 C17.78115234 24.09443359 16.56621094 24.09121094 15.31445312 24.08789062 C14.03505859 24.07951172 12.75566406 24.07113281 11.4375 24.0625 C10.15423828 24.05798828 8.87097656 24.05347656 7.54882812 24.04882812 C4.36583978 24.03699545 1.18294238 24.02051068 -2 24 C-2 22.02 -2 20.04 -2 18 C-1.67 18 -1.34 18 -1 18 C-0.505 9.09 -0.505 9.09 0 0 Z " fill="#1341E1" transform="translate(105,174)"/>
<path d="M0 0 C13.86 0.495 13.86 0.495 28 1 C28 1.66 28 2.32 28 3 C19.09 3 10.18 3 1 3 C0.67 2.01 0.34 1.02 0 0 Z " fill="#1740E0" transform="translate(157,195)"/>
<path d="M0 0 C8.25 0 16.5 0 25 0 C25.33 0.66 25.66 1.32 26 2 C25.01604248 1.97643433 25.01604248 1.97643433 24.01220703 1.95239258 C21.04989184 1.89016348 18.0877139 1.85104832 15.125 1.8125 C14.09246094 1.78736328 13.05992188 1.76222656 11.99609375 1.73632812 C11.00996094 1.72666016 10.02382812 1.71699219 9.0078125 1.70703125 C8.09660645 1.6913208 7.18540039 1.67561035 6.24658203 1.65942383 C5.13452393 1.82800903 5.13452393 1.82800903 4 2 C3.01 3.485 3.01 3.485 2 5 C1.01 5.495 1.01 5.495 0 6 C0 4.02 0 2.04 0 0 Z " fill="#1543E2" transform="translate(103,102)"/>
<path d="M0 0 C0.66 0 1.32 0 2 0 C2 7.26 2 14.52 2 22 C2.66 22.33 3.32 22.66 4 23 C3.34 23 2.68 23 2 23 C2 23.66 2 24.32 2 25 C1.34 25 0.68 25 0 25 C0 16.75 0 8.5 0 0 Z " fill="#212225" transform="translate(212,212)"/>
</svg>
