<svg xmlns="http://www.w3.org/2000/svg" width="20" height="20" viewBox="0 0 20 20" fill="none">
    <path fill-rule="evenodd" clip-rule="evenodd" d="M18 10C18 5.582 14.418 2 10 2C5.582 2 2 5.582 2 10C2 14.418 5.582 18 10 18C14.418 18 18 14.418 18 10ZM9 13C9 13.5523 9.44772 14 10 14C10.5523 14 11 13.5523 11 13V11C11 10.4477 10.5523 10 10 10C9.44772 10 9 10.4477 9 11V13ZM9 7C9 7.55228 9.44772 8 10 8C10.5523 8 11 7.55228 11 7C11 6.44772 10.5523 6 10 6C9.44772 6 9 6.44772 9 7Z" fill="#8C9196"/>
</svg>