<svg xmlns="http://www.w3.org/2000/svg" viewBox="0 0 24 24" fill="none">
  <path fill="#111827" d="M7.2 3.2c.7 0 1.2.5 1.2 1.2 0 .7-.5 1.2-1.2 1.2-.7 0-1.2-.5-1.2-1.2 0-.7.5-1.2 1.2-1.2zM4.8 3.2c.7 0 1.2.5 1.2 1.2 0 .7-.5 1.2-1.2 1.2-.7 0-1.2-.5-1.2-1.2 0-.7.5-1.2 1.2-1.2z"/>
  <path fill="#111827" d="M3.8 5.2v8.2c0 1.4.3 1.6 1.6 1.6v1.4c-2.5 0-3.4-.8-3.4-3.1V5.2h1.8zm4.2 0v2.1c.6-.5 1.3-.8 2.1-.8 1.8 0 3.2 1.6 3.2 3.6s-1.4 3.6-3.2 3.6c-.8 0-1.5-.3-2.1-.8v2.2H8V5.2zm-.9 6.9c1 0 1.8-.8 1.8-1.8s-.8-1.8-1.8-1.8-1.8.8-1.8 1.8.8 1.8 1.8 1.8z"/>
  <path fill="#111827" d="M12.8 5.2h1.8v8.2c0 1.3-.2 1.5-1.5 1.5v1.4c2.4 0 3.2-.7 3.2-2.9V5.2h-1.8z"/>
  <path fill="#F5B800" d="M19.2 6.8c.4.5.6 1.1.6 1.8 0 1.5-1.2 2.7-2.7 2.7-.5 0-1-.1-1.4-.4l.8-.3c.3-.1.6-.4.8-.7.5-.7.4-1.7-.2-2.4-.4-.5-1-.8-1.6-.8-.3 0-.6.1-.8.2l-.7-.9c.5-.4 1.1-.6 1.7-.6.9 0 1.7.3 2.3.9z"/>
  <path fill="#111827" d="M2.2 12.8h2.1l1.4 2.2 1.5-2.2h2.1l-2.3 3.3 2.4 3.5H6.9l-1.7-2.5-1.7 2.5H1.5l2.4-3.5-2.2-3.3z"/>
</svg>
