<svg xmlns="http://www.w3.org/2000/svg" xmlns:xlink="http://www.w3.org/1999/xlink" viewBox="0,0,256,256" width="92px" height="92px" fill-rule="nonzero"><g fill="#5c5f62" fill-rule="nonzero" stroke="none" stroke-width="1" stroke-linecap="butt" stroke-linejoin="miter" stroke-miterlimit="10" stroke-dasharray="" stroke-dashoffset="0" font-family="none" font-weight="none" font-size="none" text-anchor="none" style="mix-blend-mode: normal"><g transform="scale(4,4)"><path d="M32,6c-8.342,0 -15,6.716 -15,15c0,5.755 3.244,10.74572 8,13.26172v17.41797c0,1.094 0.50137,2.12959 1.35938,2.80859l3.62109,2.86328c0.548,0.434 1.20628,0.64844 1.86328,0.64844c0.736,0 1.46992,-0.26878 2.04492,-0.80078l6.5293,-6.05469c0.483,-0.448 0.62356,-1.15391 0.35156,-1.75391l-1.76953,-3.90039v-0.0957l2.4043,-2.98242c0.723,-0.897 0.75984,-2.16551 0.08984,-3.10352l-2.49414,-3.49219v-1.55469c4.756,-2.516 8,-7.50672 8,-13.26172c0,-8.284 -6.658,-15 -15,-15zM32,10c6.065,0 11,4.935 11,11c0,4.084 -2.24814,7.81061 -5.86914,9.72461l-2.13086,1.12695v5.24609l2.60742,3.65039l-2.60742,3.23438v2.37305l1.39258,3.06836l-4.59766,4.26172l-2.51953,-1.99219c-0.174,-0.138 -0.27539,-0.34541 -0.27539,-0.56641v-19.27539l-2.13086,-1.125c-3.621,-1.915 -5.86914,-5.64256 -5.86914,-9.72656c0,-6.065 4.935,-11 11,-11zM32,14c-2.209,0 -4,1.791 -4,4c0,2.209 1.791,4 4,4c2.209,0 4,-1.791 4,-4c0,-2.209 -1.791,-4 -4,-4z"></path></g></g></svg>