<svg width="24" height="22" viewBox="0 0 24 22" fill="none" xmlns="http://www.w3.org/2000/svg">
<g clip-path="url(#clip0_13909_33220)">
<path fill-rule="evenodd" clip-rule="evenodd" d="M7.88079 17.7783H12.286L14.5732 20.6541L14.1799 21.6339H8.48873L8.62834 20.6541L7.2867 18.5377L7.88079 17.7783ZM11.0329 5.1443L13.3939 5.14075L24.0029 17.7886L23.1786 21.6339H18.6316L18.9147 20.5505L9.00118 8.72893L11.0329 5.1443ZM15.2042 0L20.136 3.87618L19.5046 4.52773L20.3598 5.71861V6.99197L17.901 8.99631L13.766 4.11111H11.3586L12.3279 2.33443L15.2042 0ZM4.85239 12.4146L8.29268 9.42477L12.8588 14.9194L11.5624 16.9324H7.35211L4.43932 20.7547L3.77408 21.6339H0V16.9441L3.51769 12.4146H4.85239Z" fill="#003459"/>
</g>
<defs>
<clipPath id="clip0_13909_33220">
<rect width="24" height="21.6339" fill="white"/>
</clipPath>
</defs>
</svg>
