<svg width="32" height="32" viewBox="0 0 32 32" fill="none" xmlns="http://www.w3.org/2000/svg">
<path d="M16.0083 29.6645L21.5283 12.6758H10.4883L16.0083 29.6645Z" fill="#E24329"/>
<path d="M16.0086 29.6645L10.4886 12.6758H2.75244L16.0086 29.6645Z" fill="#FC6D26"/>
<path d="M2.75249 12.6758L1.07506 17.8385C0.922062 18.3094 1.08963 18.8252 1.49021 19.1162L16.0086 29.6645L2.75249 12.6758Z" fill="#FCA326"/>
<path d="M2.75244 12.6758H10.4886L7.16387 2.4437C6.99287 1.91713 6.24801 1.91727 6.07701 2.4437L2.75244 12.6758Z" fill="#E24329"/>
<path d="M16.0093 29.6645L21.5293 12.6758H29.2654L16.0093 29.6645Z" fill="#FC6D26"/>
<path d="M29.2654 12.6758L30.9428 17.8385C31.0958 18.3094 30.9283 18.8252 30.5277 19.1162L16.0093 29.6645L29.2654 12.6758Z" fill="#FCA326"/>
<path d="M29.265 12.6758H21.5288L24.8535 2.4437C25.0245 1.91713 25.7694 1.91727 25.9404 2.4437L29.265 12.6758Z" fill="#E24329"/>
</svg>
