<svg width="92" height="44" viewBox="0 0 92 44" fill="none" xmlns="http://www.w3.org/2000/svg">
<path d="M29.6259 10C29.3917 10 29.1107 10.0938 28.8297 10.1875L9.34719 19.1875C7.0992 20.2188 7.84853 23.5469 10.237 23.5469H18.4796V31.7969C18.4796 33.2031 19.6504 34 20.7744 34C21.5706 34 22.4136 33.625 22.8351 32.6875L31.827 13.1875C32.4827 11.6406 31.1714 10 29.6259 10ZM30.4689 12.5781L25.6092 22.75L21.4769 32.0313C21.3364 32.3594 21.1023 32.5469 20.7744 32.5469C20.4934 32.5469 19.9783 32.3594 19.9783 31.7969V22H10.248C9.87332 22 9.49866 21.625 9.49866 21.25C9.49866 20.875 9.87332 20.5 10.248 20.5L25.6092 22.75L29.3917 11.5938C29.4854 11.5469 29.579 11.5 29.6259 11.5C29.9069 11.5 30.1879 11.6875 30.3752 11.9688C30.4689 12.1094 30.5625 12.3438 30.4689 12.5781Z" fill="white"/>
<path d="M41.448 30.216C40.632 30.216 39.896 30.056 39.24 29.736C38.6 29.416 38.096 28.984 37.728 28.44C37.36 27.896 37.176 27.28 37.176 26.592C37.176 25.728 37.392 25.048 37.824 24.552C38.272 24.04 39 23.68 40.008 23.472C41.032 23.248 42.408 23.136 44.136 23.136H45.264V24.624H44.16C43.008 24.624 42.096 24.68 41.424 24.792C40.752 24.904 40.272 25.096 39.984 25.368C39.712 25.624 39.576 25.984 39.576 26.448C39.576 27.056 39.784 27.552 40.2 27.936C40.616 28.304 41.192 28.488 41.928 28.488C42.52 28.488 43.04 28.352 43.488 28.08C43.936 27.792 44.288 27.408 44.544 26.928C44.816 26.448 44.952 25.896 44.952 25.272V22.512C44.952 21.6 44.76 20.944 44.376 20.544C43.992 20.144 43.36 19.944 42.48 19.944C41.968 19.944 41.432 20.008 40.872 20.136C40.328 20.264 39.76 20.48 39.168 20.784C38.896 20.912 38.664 20.952 38.472 20.904C38.28 20.856 38.128 20.752 38.016 20.592C37.904 20.416 37.84 20.232 37.824 20.04C37.824 19.832 37.872 19.632 37.968 19.44C38.08 19.248 38.264 19.104 38.52 19.008C39.224 18.672 39.92 18.432 40.608 18.288C41.296 18.144 41.944 18.072 42.552 18.072C43.624 18.072 44.504 18.24 45.192 18.576C45.896 18.912 46.416 19.424 46.752 20.112C47.088 20.8 47.256 21.688 47.256 22.776V28.944C47.256 29.328 47.16 29.632 46.968 29.856C46.776 30.064 46.496 30.168 46.128 30.168C45.776 30.168 45.496 30.064 45.288 29.856C45.08 29.632 44.976 29.328 44.976 28.944V27.384H45.192C45.064 27.976 44.824 28.488 44.472 28.92C44.136 29.336 43.712 29.656 43.2 29.88C42.688 30.104 42.104 30.216 41.448 30.216ZM51.7946 30.168C51.4106 30.168 51.1146 30.064 50.9066 29.856C50.6986 29.632 50.5946 29.328 50.5946 28.944V14.136C50.5946 13.736 50.6986 13.432 50.9066 13.224C51.1146 13.016 51.4106 12.912 51.7946 12.912C52.1786 12.912 52.4746 13.016 52.6826 13.224C52.9066 13.432 53.0186 13.736 53.0186 14.136V23.4H53.0666L57.5546 18.936C57.8106 18.68 58.0426 18.48 58.2506 18.336C58.4586 18.192 58.7306 18.12 59.0666 18.12C59.4026 18.12 59.6586 18.208 59.8346 18.384C60.0106 18.56 60.0986 18.776 60.0986 19.032C60.0986 19.272 59.9786 19.52 59.7386 19.776L54.9866 24.48V23.352L60.1706 28.512C60.4266 28.768 60.5466 29.024 60.5306 29.28C60.5146 29.536 60.4106 29.752 60.2186 29.928C60.0266 30.088 59.7866 30.168 59.4986 30.168C59.1306 30.168 58.8346 30.096 58.6106 29.952C58.4026 29.808 58.1546 29.592 57.8666 29.304L53.0666 24.648H53.0186V28.944C53.0186 29.76 52.6106 30.168 51.7946 30.168ZM67.6335 30.216C66.6735 30.216 65.8655 30.048 65.2095 29.712C64.5535 29.376 64.0655 28.88 63.7455 28.224C63.4255 27.568 63.2655 26.768 63.2655 25.824V20.16H61.8255C61.5055 20.16 61.2575 20.08 61.0815 19.92C60.9055 19.744 60.8175 19.512 60.8175 19.224C60.8175 18.92 60.9055 18.688 61.0815 18.528C61.2575 18.368 61.5055 18.288 61.8255 18.288H63.2655V15.816C63.2655 15.416 63.3695 15.112 63.5775 14.904C63.8015 14.696 64.1055 14.592 64.4895 14.592C64.8735 14.592 65.1695 14.696 65.3775 14.904C65.5855 15.112 65.6895 15.416 65.6895 15.816V18.288H68.4975C68.8175 18.288 69.0655 18.368 69.2415 18.528C69.4175 18.688 69.5055 18.92 69.5055 19.224C69.5055 19.512 69.4175 19.744 69.2415 19.92C69.0655 20.08 68.8175 20.16 68.4975 20.16H65.6895V25.632C65.6895 26.48 65.8655 27.12 66.2175 27.552C66.5855 27.984 67.1775 28.2 67.9935 28.2C68.2815 28.2 68.5295 28.176 68.7375 28.128C68.9615 28.064 69.1455 28.024 69.2895 28.008C69.4655 28.008 69.6095 28.072 69.7215 28.2C69.8335 28.312 69.8895 28.536 69.8895 28.872C69.8895 29.112 69.8415 29.336 69.7455 29.544C69.6655 29.752 69.5135 29.888 69.2895 29.952C69.0975 30.016 68.8335 30.072 68.4975 30.12C68.1775 30.184 67.8895 30.216 67.6335 30.216ZM76.3779 30.216C75.1939 30.216 74.1699 29.968 73.3059 29.472C72.4579 28.976 71.7939 28.272 71.3139 27.36C70.8339 26.448 70.5939 25.376 70.5939 24.144C70.5939 23.2 70.7299 22.36 71.0019 21.624C71.2739 20.888 71.6579 20.256 72.1539 19.728C72.6659 19.184 73.2739 18.776 73.9779 18.504C74.6979 18.216 75.4979 18.072 76.3779 18.072C77.5459 18.072 78.5539 18.32 79.4019 18.816C80.2659 19.312 80.9379 20.016 81.4179 20.928C81.8979 21.824 82.1379 22.896 82.1379 24.144C82.1379 25.072 82.0019 25.912 81.7299 26.664C81.4579 27.416 81.0659 28.056 80.5539 28.584C80.0579 29.112 79.4499 29.52 78.7299 29.808C78.0259 30.08 77.2419 30.216 76.3779 30.216ZM76.3779 28.344C77.0339 28.344 77.6099 28.184 78.1059 27.864C78.6019 27.544 78.9859 27.072 79.2579 26.448C79.5459 25.824 79.6899 25.056 79.6899 24.144C79.6899 22.768 79.3859 21.728 78.7779 21.024C78.1699 20.32 77.3699 19.968 76.3779 19.968C75.7059 19.968 75.1219 20.128 74.6259 20.448C74.1299 20.752 73.7379 21.216 73.4499 21.84C73.1779 22.464 73.0419 23.232 73.0419 24.144C73.0419 25.504 73.3459 26.544 73.9539 27.264C74.5619 27.984 75.3699 28.344 76.3779 28.344Z" fill="white"/>
</svg>
