<svg width="20" height="20" viewBox="0 0 20 20" fill="none" xmlns="http://www.w3.org/2000/svg">
<path d="M5.70211 4.25318C5.75599 4.15494 5.83528 4.07299 5.93169 4.01591C6.02809 3.95883 6.13807 3.92871 6.25011 3.92871C6.36215 3.92871 6.47213 3.95883 6.56854 4.01591C6.66495 4.07299 6.74424 4.15494 6.79811 4.25318L6.99411 4.61118C7.20111 4.98918 7.51111 5.29918 7.88911 5.50618L8.24711 5.70218C8.34559 5.75597 8.42777 5.83529 8.48503 5.9318C8.54228 6.02831 8.57249 6.13846 8.57249 6.25068C8.57249 6.36289 8.54228 6.47304 8.48503 6.56955C8.42777 6.66606 8.34559 6.74538 8.24711 6.79918L7.88911 6.99518C7.51142 7.20145 7.20081 7.51172 6.99411 7.88918L6.79811 8.24818C6.74424 8.34641 6.66495 8.42836 6.56854 8.48544C6.47213 8.54252 6.36215 8.57264 6.25011 8.57264C6.13807 8.57264 6.02809 8.54252 5.93169 8.48544C5.83528 8.42836 5.75599 8.34641 5.70211 8.24818L5.50611 7.88918C5.29941 7.51172 4.9888 7.20145 4.61111 6.99518L4.25311 6.79918C4.15463 6.74538 4.07245 6.66606 4.0152 6.56955C3.95795 6.47304 3.92773 6.36289 3.92773 6.25068C3.92773 6.13846 3.95795 6.02831 4.0152 5.9318C4.07245 5.83529 4.15463 5.75597 4.25311 5.70218L4.61111 5.50618C4.98894 5.29963 5.29957 4.989 5.50611 4.61118L5.70211 4.25318Z" fill="url(#paint0_linear_23400_8448)"/>
<path fill-rule="evenodd" clip-rule="evenodd" d="M12.9481 7.88956C12.7681 6.72256 11.0961 6.69956 10.8841 7.86056L10.8541 8.02456C10.7148 8.78654 10.3432 9.4868 9.79042 10.0294C9.2376 10.572 8.53054 10.9304 7.7661 11.0556C6.6161 11.2446 6.5931 12.8886 7.7361 13.1096L7.8411 13.1296C8.59067 13.2744 9.27971 13.6403 9.81954 14.1801C10.3594 14.72 10.7253 15.409 10.8701 16.1586L10.9021 16.3236C11.1351 17.5316 12.8651 17.5316 13.0981 16.3236L13.1231 16.1946C13.2698 15.4362 13.642 14.7398 14.191 14.1965C14.74 13.6532 15.4403 13.2883 16.2001 13.1496C17.3841 12.9336 17.3201 11.2216 16.1291 11.0426C15.3327 10.923 14.595 10.5529 14.0232 9.98572C13.4514 9.41858 13.0752 8.684 12.9491 7.88856L12.9481 7.88956ZM12.0041 14.7766C12.5121 13.6216 13.4127 12.6839 14.5461 12.1296C13.3955 11.6189 12.4641 10.7158 11.9181 9.58156C11.4026 10.6793 10.5237 11.5653 9.4301 12.0896C10.5831 12.6469 11.4968 13.6007 12.0041 14.7766Z" fill="url(#paint1_linear_23400_8448)"/>
<defs>
<linearGradient id="paint0_linear_23400_8448" x1="3.92773" y1="6.25068" x2="8.57249" y2="6.25068" gradientUnits="userSpaceOnUse">
<stop stop-color="#6200EA" stop-opacity="0.67"/>
<stop offset="1" stop-color="#18A4EA"/>
</linearGradient>
<linearGradient id="paint1_linear_23400_8448" x1="6.89111" y1="12.1158" x2="17.0559" y2="12.1158" gradientUnits="userSpaceOnUse">
<stop stop-color="#6200EA" stop-opacity="0.67"/>
<stop offset="1" stop-color="#18A4EA"/>
</linearGradient>
</defs>
</svg>
