<svg width="96" height="96" viewBox="0 0 96 96" fill="none" xmlns="http://www.w3.org/2000/svg">
<path opacity="0.2" d="M81 21V42C81 78 48 87 48 87C48 87 15 78 15 42V21C15 20.2044 15.3161 19.4413 15.8787 18.8787C16.4413 18.3161 17.2044 18 18 18H78C78.7956 18 79.5587 18.3161 80.1213 18.8787C80.6839 19.4413 81 20.2044 81 21Z" fill="#6200EA"/>
<path d="M30.2137 43.875C30.361 43.5087 30.579 43.1751 30.8554 42.8932C31.1319 42.6114 31.4612 42.3868 31.8245 42.2325C32.1879 42.0782 32.5781 41.9971 32.9729 41.9938C33.3677 41.9906 33.7592 42.0654 34.125 42.2137L45 46.5675V36C45 35.2044 45.3161 34.4413 45.8787 33.8787C46.4413 33.3161 47.2044 33 48 33C48.7956 33 49.5587 33.3161 50.1213 33.8787C50.6839 34.4413 51 35.2044 51 36V46.5675L61.875 42.2137C62.2409 42.066 62.6323 41.9918 63.0269 41.9953C63.4215 41.9989 63.8115 42.0801 64.1747 42.2343C64.5379 42.3886 64.8671 42.6129 65.1436 42.8944C65.4202 43.1759 65.6385 43.5091 65.7862 43.875C65.934 44.2409 66.0082 44.6323 66.0047 45.0269C66.0011 45.4215 65.9199 45.8115 65.7657 46.1747C65.6114 46.5379 65.3871 46.8671 65.1056 47.1436C64.8241 47.4202 64.4909 47.6385 64.125 47.7863L52.7588 52.3313L59.4 61.2C59.8774 61.8365 60.0824 62.6366 59.9699 63.4243C59.8573 64.2119 59.4365 64.9226 58.8 65.4C58.1635 65.8774 57.3634 66.0824 56.5757 65.9699C55.7881 65.8573 55.0774 65.4365 54.6 64.8L48 55.9988L41.4 64.8C41.1636 65.1152 40.8675 65.3807 40.5285 65.5814C40.1895 65.7821 39.8143 65.9141 39.4243 65.9699C39.0343 66.0256 38.6371 66.0039 38.2555 65.9061C37.8738 65.8084 37.5152 65.6364 37.2 65.4C36.8848 65.1636 36.6193 64.8675 36.4186 64.5285C36.2179 64.1895 36.0859 63.8143 36.0302 63.4243C35.9744 63.0343 35.9961 62.6371 36.0939 62.2555C36.1916 61.8738 36.3636 61.5152 36.6 61.2L43.2525 52.3313L31.875 47.7863C31.5087 47.639 31.1751 47.421 30.8932 47.1446C30.6114 46.8681 30.3868 46.5388 30.2325 46.1755C30.0782 45.8121 29.9971 45.4219 29.9938 45.0271C29.9906 44.6323 30.0654 44.2408 30.2137 43.875ZM84 21V42C84 61.77 74.43 73.7513 66.4013 80.3213C57.7538 87.3938 49.1513 89.7975 48.7763 89.895C48.2606 90.0353 47.7169 90.0353 47.2013 89.895C46.8263 89.7975 38.235 87.3938 29.5763 80.3213C21.57 73.7513 12 61.77 12 42V21C12 19.4087 12.6321 17.8826 13.7574 16.7574C14.8826 15.6321 16.4087 15 18 15H78C79.5913 15 81.1174 15.6321 82.2426 16.7574C83.3679 17.8826 84 19.4087 84 21ZM78 21H18V42C18 55.9875 23.1825 67.3162 33.4012 75.6787C37.7522 79.2371 42.6932 82.0053 48 83.8575C53.3771 81.9724 58.3799 79.1543 62.7788 75.5325C72.8775 67.185 78 55.9012 78 42V21Z" fill="#6200EA"/>
</svg>
