<svg width="20" height="20" viewBox="0 0 20 20" fill="none" xmlns="http://www.w3.org/2000/svg">
<path d="M13 5.63462C13 5.4663 12.8946 5.30489 12.7071 5.18587C12.5196 5.06686 12.2652 5 12 5C11.7348 5 11.4804 5.06686 11.2929 5.18587C11.1054 5.30489 11 5.4663 11 5.63462V15.3654C11 15.5337 11.1054 15.6951 11.2929 15.8141C11.4804 15.9331 11.7348 16 12 16C12.2652 16 12.5196 15.9331 12.7071 15.8141C12.8946 15.6951 13 15.5337 13 15.3654V5.63462Z" fill="#D72C0D"/>
<path d="M17 3.75C17 3.55109 16.8946 3.36032 16.7071 3.21967C16.5196 3.07902 16.2652 3 16 3C15.7348 3 15.4804 3.07902 15.2929 3.21967C15.1054 3.36032 15 3.55109 15 3.75V15.25C15 15.4489 15.1054 15.6397 15.2929 15.7803C15.4804 15.921 15.7348 16 16 16C16.2652 16 16.5196 15.921 16.7071 15.7803C16.8946 15.6397 17 15.4489 17 15.25V3.75Z" fill="#D72C0D"/>
<path d="M4 12C4.26522 12 4.51957 12.0486 4.70711 12.1352C4.89464 12.2217 5 12.3391 5 12.4615V15.5385C5 15.6609 4.89464 15.7783 4.70711 15.8648C4.51957 15.9514 4.26522 16 4 16C3.73478 16 3.48043 15.9514 3.29289 15.8648C3.10536 15.7783 3 15.6609 3 15.5385V12.4615C3 12.3391 3.10536 12.2217 3.29289 12.1352C3.48043 12.0486 3.73478 12 4 12Z" fill="#D72C0D"/>
<path d="M9 9.55263C9 9.40606 8.89464 9.2655 8.70711 9.16186C8.51957 9.05822 8.26522 9 8 9C7.73478 9 7.48043 9.05822 7.29289 9.16186C7.10536 9.2655 7 9.40606 7 9.55263V15.4474C7 15.5939 7.10536 15.7345 7.29289 15.8381C7.48043 15.9418 7.73478 16 8 16C8.26522 16 8.51957 15.9418 8.70711 15.8381C8.89464 15.7345 9 15.5939 9 15.4474V9.55263Z" fill="#D72C0D"/>
</svg>
