<svg xmlns="http://www.w3.org/2000/svg" viewBox="0 0 256 256" width="256" height="256">
  <path fill="#1C2C54" d="M128 0C57.3 0 0 57.3 0 128s57.3 128 128 128 128-57.3 128-128S198.7 0 128 0zm0 33.5c15.1 0 29.5 3.3 42.6 9.2l-30.8 53.3c-3.7-1.1-7.7-1.7-11.8-1.7-4.1 0-8.1.6-11.8 1.7L95.4 42.7c13.1-5.9 27.5-9.2 42.6-9.2zm-58 17.8l30.8 53.3c-6.1 4.9-10.7 11.5-13.1 19.1H36.3c3.4-27.3 16.5-51.5 33.7-72.4zm116 0c17.2 20.9 30.3 45.1 33.7 72.4h-51.4c-2.4-7.6-7-14.2-13.1-19.1l30.8-53.3zM33.5 128c0-4.1.3-8.1.8-12.1h51.4c-.6 3.9-.9 7.9-.9 12.1 0 4.2.3 8.2.9 12.1H34.3c-.5-4-.8-8-.8-12.1zm189 0c0 4.1-.3 8.1-.8 12.1h-51.4c.6-3.9.9-7.9.9-12.1 0-4.2-.3-8.2-.9-12.1h51.4c.5 4 .8 8 .8 12.1zm-152.2 24.2h51.4c2.4 7.6 7 14.2 13.1 19.1l-30.8 53.3c-17.2-20.9-30.3-45.1-33.7-72.4zm115.4 0c-3.4 27.3-16.5 51.5-33.7 72.4l30.8-53.3c6.1-4.9 10.7-11.5 13.1-19.1h51.4zm-57.7 10.3c4.1 0 8.1-.6 11.8-1.7l30.8 53.3c-13.1 5.9-27.5 9.2-42.6 9.2-15.1 0-29.5-3.3-42.6-9.2l30.8-53.3c3.7 1.1 7.7 1.7 11.8 1.7z"/>
  <circle cx="128" cy="128" r="19.5" fill="#00A3E0"/>
</svg>
