<svg version="1.1" xmlns="http://www.w3.org/2000/svg" width="512" height="512">
<path d="M0 0 C168.96 0 337.92 0 512 0 C512 168.96 512 337.92 512 512 C343.04 512 174.08 512 0 512 C0 343.04 0 174.08 0 0 Z " fill="#FDFDFD" transform="translate(0,0)"/>
<path d="M0 0 C3.91212306 2.78612454 7.3554719 5.98163348 10.6171875 9.5078125 C11.82375 10.77625 11.82375 10.77625 13.0546875 12.0703125 C21.6736422 22.65307966 24.69904028 35.14778924 23.6171875 48.5078125 C21.65696957 60.26912008 15.70392144 74.27465569 6.04931641 81.71630859 C-5.69806671 90.01491869 -17.89031306 93.7040188 -32.3828125 92.5078125 C-33.3728125 92.1778125 -34.3628125 91.8478125 -35.3828125 91.5078125 C-35.3828125 98.4378125 -35.3828125 105.3678125 -35.3828125 112.5078125 C-32.36513733 112.49115791 -32.36513733 112.49115791 -29.28649902 112.47416687 C-10.33465134 112.37196652 8.61716 112.29757115 27.5692215 112.24875164 C37.31285999 112.22298471 47.0562961 112.18786306 56.79980469 112.13061523 C65.29358479 112.08073402 73.7872183 112.0485105 82.2811408 112.03737003 C86.77748102 112.03085924 91.2734019 112.01558872 95.76960754 111.97916222 C100.00499136 111.94512803 104.23978463 111.93477439 108.47529221 111.94227409 C110.02646981 111.94090285 111.57766794 111.93101423 113.12872696 111.91178513 C127.60193406 111.74121381 127.60193406 111.74121381 133.12701321 116.05215549 C137.67711858 120.49686561 139.07131559 123.97174149 139.14819336 130.17207336 C139.13852539 131.02311142 139.12885742 131.87414948 139.11889648 132.75097656 C139.12700096 134.11808022 139.12700096 134.11808022 139.13526917 135.51280212 C139.14774447 138.5166808 139.13126792 141.51959843 139.11328125 144.5234375 C139.11343632 146.62082977 139.11492661 148.71822234 139.11769104 150.81561279 C139.11907469 155.21037474 139.10652666 159.60481023 139.08374023 163.99951172 C139.05542612 169.6125049 139.05807449 175.22495293 139.07083035 180.83798599 C139.07781277 185.17049755 139.06996785 189.50288487 139.05757332 193.83538055 C139.05307875 195.90367912 139.05270445 197.97199112 139.05663872 200.04029083 C139.0595743 202.94282458 139.04293005 205.8446291 139.02124023 208.74707031 C139.02799271 210.01148201 139.02799271 210.01148201 139.03488159 211.30143738 C138.85781023 225.68256637 131.88615571 239.03306058 122.05859375 249.29296875 C113.17081417 257.35596238 100.80876908 264.16467196 88.6171875 264.5078125 C86.89242187 264.61802734 86.89242187 264.61802734 85.1328125 264.73046875 C74.78878665 265.20707501 66.27351742 263.10325449 56.6171875 259.5078125 C56.2871875 261.4878125 55.9571875 263.4678125 55.6171875 265.5078125 C54.9571875 265.5078125 54.2971875 265.5078125 53.6171875 265.5078125 C53.3903125 266.1471875 53.1634375 266.7865625 52.9296875 267.4453125 C50.57806347 272.93243523 48.04740413 278.41480396 43.6171875 282.5078125 C42.8334375 283.2915625 42.0496875 284.0753125 41.2421875 284.8828125 C38.70052083 287.42447917 36.15885417 289.96614583 33.6171875 292.5078125 C32.9984375 293.1884375 32.3796875 293.8690625 31.7421875 294.5703125 C28.74694029 297.30127319 24.7926628 300.5078125 20.6171875 300.5078125 C20.6171875 301.1678125 20.6171875 301.8278125 20.6171875 302.5078125 C13.79519864 306.11858318 6.97286562 309.1564072 -0.3828125 311.5078125 C-1.26453125 311.80945313 -2.14625 312.11109375 -3.0546875 312.421875 C-27.01457612 319.35081576 -51.84508186 313.67552468 -73.3828125 302.5078125 C-73.3828125 301.8478125 -73.3828125 301.1878125 -73.3828125 300.5078125 C-75.0328125 300.1778125 -76.6828125 299.8478125 -78.3828125 299.5078125 C-78.7128125 298.5178125 -79.0428125 297.5278125 -79.3828125 296.5078125 C-81.39789608 295.77457454 -81.39789608 295.77457454 -83.3828125 295.5078125 C-83.3828125 294.8478125 -83.3828125 294.1878125 -83.3828125 293.5078125 C-84.465625 293.1675 -84.465625 293.1675 -85.5703125 292.8203125 C-99.11557892 286.49918817 -108.12589751 265.10500967 -113.5703125 252.03125 C-114.3828125 249.5078125 -114.3828125 249.5078125 -114.3828125 245.5078125 C-115.50510254 245.51669495 -116.62739258 245.52557739 -117.78369141 245.534729 C-128.37676678 245.61592855 -138.96977874 245.67583253 -149.56309509 245.71506119 C-155.00882979 245.73590729 -160.4543126 245.7641708 -165.89990234 245.80957031 C-171.15837062 245.85313386 -176.41659708 245.87697199 -181.67523193 245.88732147 C-183.67824101 245.89469396 -185.68123734 245.90909072 -187.68414307 245.93073273 C-190.49674751 245.95990628 -193.30836157 245.96376267 -196.12109375 245.96191406 C-196.94324875 245.97629517 -197.76540375 245.99067627 -198.61247253 246.00549316 C-204.30818599 245.96516953 -208.61843311 244.68691155 -213.3828125 241.5078125 C-217.82373864 236.83914655 -218.50706289 233.38647902 -218.52998352 227.07524109 C-218.53366021 226.41945928 -218.5373369 225.76367747 -218.541125 225.08802348 C-218.55215492 222.88639251 -218.55600447 220.68480875 -218.55981445 218.4831543 C-218.56607957 216.90625865 -218.57272641 215.32936448 -218.57972717 213.75247192 C-218.60076209 208.57066881 -218.61112817 203.38886542 -218.62109375 198.20703125 C-218.62514134 196.42319028 -218.62925827 194.63934946 -218.63344383 192.8555088 C-218.65249326 184.47591839 -218.66672552 176.09633677 -218.6750558 167.71672887 C-218.68483149 158.04287906 -218.71116064 148.36925787 -218.75155669 138.69548863 C-218.7817083 131.21853652 -218.79652372 123.74164998 -218.79983681 116.26463825 C-218.80218817 111.79866921 -218.81115971 107.33294448 -218.83629799 102.86704063 C-218.85956747 98.66531149 -218.8638166 94.46398771 -218.85353661 90.26221085 C-218.85304088 88.72149749 -218.85937232 87.18076426 -218.87309265 85.64011192 C-218.89080223 83.53336793 -218.88371211 81.42808031 -218.87055969 79.32133484 C-218.87294805 78.14349269 -218.8753364 76.96565054 -218.87779713 75.7521162 C-218.10899428 70.71311138 -215.55310969 67.63927783 -211.95565796 64.16119385 C-206.45695789 61.61659788 -201.20369172 61.98484513 -195.21728516 62.05371094 C-193.87651605 62.05484024 -192.53574448 62.05420394 -191.19497681 62.05194092 C-187.56713021 62.05079603 -183.93981558 62.07426808 -180.3120923 62.10223675 C-176.5164693 62.12728839 -172.7208333 62.12959535 -168.92514038 62.13433838 C-161.74286476 62.14675716 -154.56083349 62.17956371 -147.37866533 62.21973634 C-139.19975627 62.26448838 -131.02083538 62.28644969 -122.84183431 62.30651808 C-106.02201747 62.34829747 -89.2024462 62.41862793 -72.3828125 62.5078125 C-72.69569214 61.68941895 -72.69569214 61.68941895 -73.01489258 60.85449219 C-73.28712646 60.13680664 -73.55936035 59.41912109 -73.83984375 58.6796875 C-74.11030518 57.9690918 -74.3807666 57.25849609 -74.65942383 56.52636719 C-78.28077187 46.42130287 -77.0285898 34.4089761 -73.3828125 24.5078125 C-66.00589815 9.53540856 -56.61417193 1.18785156 -41.3828125 -5.4921875 C-27.89798861 -9.50584161 -11.77487312 -7.37377301 0 0 Z " fill="#4A52BB" transform="translate(291.3828125,102.4921875)"/>
<path d="M0 0 C20.98394273 -0.11687096 41.96783168 -0.20500667 62.952034 -0.25906086 C72.69567249 -0.28482779 82.4391086 -0.31994944 92.18261719 -0.37719727 C100.67639729 -0.42707848 109.1700308 -0.459302 117.6639533 -0.47044247 C122.16029352 -0.47695326 126.6562144 -0.49222378 131.15242004 -0.52865028 C135.38780386 -0.56268447 139.62259713 -0.57303811 143.85810471 -0.56553841 C145.40928231 -0.56690965 146.96048044 -0.57679827 148.51153946 -0.59602737 C162.98474656 -0.76659869 162.98474656 -0.76659869 168.50982571 3.54434299 C173.05993108 7.98905311 174.45412809 11.46392899 174.53100586 17.66426086 C174.52133789 18.51529892 174.51166992 19.36633698 174.50170898 20.24316406 C174.50981346 21.61026772 174.50981346 21.61026772 174.51808167 23.00498962 C174.53055697 26.0088683 174.51408042 29.01178593 174.49609375 32.015625 C174.49624882 34.11301727 174.49773911 36.21040984 174.50050354 38.30780029 C174.50188719 42.70256224 174.48933916 47.09699773 174.46655273 51.49169922 C174.43823862 57.1046924 174.44088699 62.71714043 174.45364285 68.33017349 C174.46062527 72.66268505 174.45278035 76.99507237 174.44038582 81.32756805 C174.43589125 83.39586662 174.43551695 85.46417862 174.43945122 87.53247833 C174.4423868 90.43501208 174.42574255 93.3368166 174.40405273 96.23925781 C174.41080521 97.50366951 174.41080521 97.50366951 174.41769409 98.79362488 C174.24062273 113.17475387 167.26896821 126.52524808 157.44140625 136.78515625 C148.55362667 144.84814988 136.19158158 151.65685946 124 152 C122.85015625 152.07347656 121.7003125 152.14695312 120.515625 152.22265625 C110.17159915 152.69926251 101.65632992 150.59544199 92 147 C91.67 148.98 91.34 150.96 91 153 C90.34 153 89.68 153 89 153 C88.6596875 153.9590625 88.6596875 153.9590625 88.3125 154.9375 C85.96087597 160.42462273 83.43021663 165.90699146 79 170 C78.21625 170.78375 77.4325 171.5675 76.625 172.375 C74.08333333 174.91666667 71.54166667 177.45833333 69 180 C68.38125 180.680625 67.7625 181.36125 67.125 182.0625 C64.12975279 184.79346069 60.1754753 188 56 188 C56 188.66 56 189.32 56 190 C49.17801114 193.61077068 42.35567812 196.6485947 35 199 C33.67742187 199.45246094 33.67742187 199.45246094 32.328125 199.9140625 C8.36823638 206.84300326 -16.46226936 201.16771218 -38 190 C-38 189.34 -38 188.68 -38 188 C-39.65 187.67 -41.3 187.34 -43 187 C-43.33 186.01 -43.66 185.02 -44 184 C-46.01508358 183.26676204 -46.01508358 183.26676204 -48 183 C-48 182.34 -48 181.68 -48 181 C-49.0828125 180.6596875 -49.0828125 180.6596875 -50.1875 180.3125 C-63.28207446 174.20169859 -71.55785002 154.29306037 -77.6015625 141.8671875 C-78.14114008 139.33857886 -77.2055666 138.21527888 -76 136 C-75.29335709 135.98969254 -74.58671417 135.97938507 -73.85865784 135.96876526 C-67.16554349 135.87036724 -60.47250719 135.76779695 -53.77952671 135.66066074 C-50.33945689 135.60573863 -46.89937826 135.55237169 -43.45922852 135.50268555 C-39.49487454 135.44535758 -35.53064814 135.38103748 -31.56640625 135.31640625 C-30.34417862 135.29969376 -29.12195099 135.28298126 -27.86268616 135.26576233 C-15.50396258 135.68560956 -15.50396258 135.68560956 -4.5625 131.1875 C-3.92441406 130.68605469 -3.28632813 130.18460938 -2.62890625 129.66796875 C3.26751913 123.63014229 2.13609942 114.60755583 2.09765625 106.77807617 C2.09619598 105.65714569 2.09473572 104.53621521 2.0932312 103.38131714 C2.08943261 100.95375819 2.08332386 98.526202 2.07516479 96.09865379 C2.06239937 92.26272909 2.05588563 88.42683895 2.05102539 84.59089661 C2.03960335 76.45641528 2.02038563 68.32196309 2 60.1875 C1.97637461 50.74572692 1.95605359 41.30397326 1.94406128 31.8621769 C1.93755059 28.07241805 1.92504566 24.28270818 1.91235352 20.4929657 C1.90872356 18.1869613 1.90537151 15.88095644 1.90234375 13.57495117 C1.89717743 12.51263779 1.89201111 11.4503244 1.88668823 10.3558197 C1.88661774 9.39548828 1.88654724 8.43515686 1.88647461 7.44572449 C1.884254 6.60638965 1.88203339 5.76705481 1.87974548 4.90228558 C2 3 2 3 3 2 C2.01 1.34 1.02 0.68 0 0 Z " fill="#777EE2" transform="translate(256,215)"/>
<path d="M0 0 C9.41432711 -0.09278723 18.82849618 -0.16380901 28.24318123 -0.20724869 C32.61508491 -0.22810038 36.98667514 -0.25637342 41.35839844 -0.30175781 C45.57944687 -0.34530247 49.80019429 -0.3691553 54.02145004 -0.37950897 C55.62978731 -0.38688494 57.23810859 -0.40128867 58.84631729 -0.42292023 C61.10379547 -0.45207012 63.36003889 -0.45595137 65.61767578 -0.45410156 C67.54294601 -0.46742523 67.54294601 -0.46742523 69.5071106 -0.48101807 C74.94524648 0.26788672 77.78259776 2.61187627 81.34364319 6.67230225 C83.50915736 11.02292079 83.55615595 14.45038505 83.50170898 19.24316406 C83.50981346 20.61026772 83.50981346 20.61026772 83.51808167 22.00498962 C83.53055697 25.0088683 83.51408042 28.01178593 83.49609375 31.015625 C83.49624882 33.11301727 83.49773911 35.21040984 83.50050354 37.30780029 C83.50188719 41.70256224 83.48933916 46.09699773 83.46655273 50.49169922 C83.43823862 56.1046924 83.44088699 61.71714043 83.45364285 67.33017349 C83.46062527 71.66268505 83.45278035 75.99507237 83.44038582 80.32756805 C83.43589125 82.39586662 83.43551695 84.46417862 83.43945122 86.53247833 C83.4423868 89.43501208 83.42574255 92.3368166 83.40405273 95.23925781 C83.40855438 96.08219894 83.41305603 96.92514008 83.41769409 97.79362488 C83.24062273 112.17475387 76.26896821 125.52524808 66.44140625 135.78515625 C57.56526921 143.83758777 45.18282284 150.67887123 33 151 C31.81535156 151.061875 30.63070313 151.12375 29.41015625 151.1875 C19.6751138 151.55129435 10.87397921 150.43698961 2 146 C2.18175781 145.36835938 2.36351562 144.73671875 2.55078125 144.0859375 C3.39948939 141.06540701 4.19716551 138.03304436 5 135 C5.26632233 134.07945328 5.53264465 133.15890656 5.80703735 132.21046448 C8.90471926 120.12911395 8.43450694 107.91536695 8.3984375 95.52734375 C8.40046153 93.07068292 8.4033757 90.61402268 8.40713501 88.15736389 C8.41153535 83.03624692 8.40519634 77.91528794 8.39111328 72.79418945 C8.3739412 66.23036499 8.38392784 59.66690642 8.40183067 53.10309505 C8.41266101 48.04251841 8.40922698 42.9820289 8.4014473 37.92144966 C8.39944744 35.50012735 8.40189702 33.07879711 8.40888596 30.65748405 C8.41649679 27.28307895 8.40490436 23.90927254 8.38818359 20.53491211 C8.39425629 19.53695114 8.40032898 18.53899017 8.40658569 17.51078796 C8.35997056 12.43784057 8.15040449 9.19822654 5 5 C5 4.34 5 3.68 5 3 C2.525 2.01 2.525 2.01 0 1 C0 0.67 0 0.34 0 0 Z " fill="#4D56C2" transform="translate(347,216)"/>
<path d="M0 0 C3.91212306 2.78612454 7.3554719 5.98163348 10.6171875 9.5078125 C11.4215625 10.3534375 12.2259375 11.1990625 13.0546875 12.0703125 C21.6736422 22.65307966 24.69904028 35.14778924 23.6171875 48.5078125 C21.65696957 60.26912008 15.70392144 74.27465569 6.04931641 81.71630859 C-5.92845278 90.17766848 -17.69485575 93.22236175 -32.3828125 92.5078125 C-33.46262865 85.87465618 -33.90926864 79.20795435 -34.3828125 72.5078125 C-35.0428125 72.5078125 -35.7028125 72.5078125 -36.3828125 72.5078125 C-36.8159375 71.7653125 -37.2490625 71.0228125 -37.6953125 70.2578125 C-40.16027495 66.24083665 -42.91850077 63.99591641 -47.3828125 62.5078125 C-49.30046844 62.35841476 -51.22227772 62.25970967 -53.14453125 62.19140625 C-54.26279297 62.14951172 -55.38105469 62.10761719 -56.53320312 62.06445312 C-57.70044922 62.02513672 -58.86769531 61.98582031 -60.0703125 61.9453125 C-61.83858398 61.88053711 -61.83858398 61.88053711 -63.64257812 61.81445312 C-66.55587133 61.70830074 -69.46925007 61.60625008 -72.3828125 61.5078125 C-77.6616488 49.43583565 -77.9694537 36.96416438 -73.3828125 24.5078125 C-66.00589815 9.53540856 -56.61417193 1.18785156 -41.3828125 -5.4921875 C-27.89798861 -9.50584161 -11.77487312 -7.37377301 0 0 Z " fill="#7A82E9" transform="translate(291.3828125,102.4921875)"/>
<path d="M0 0 C9.18797469 5.40864324 15.71899312 12.20485479 19.44140625 22.35546875 C21.72834856 31.90152569 21.0928277 41.72392076 16.13671875 50.2578125 C11.91927943 56.96638178 7.01910137 61.37772618 0.13671875 65.2578125 C-0.52972656 65.64066406 -1.19617188 66.02351563 -1.8828125 66.41796875 C-3.86328125 67.2578125 -3.86328125 67.2578125 -7.86328125 67.2578125 C-7.86328125 67.9178125 -7.86328125 68.5778125 -7.86328125 69.2578125 C-20.05530231 70.41132829 -28.9214617 68.67951789 -38.86328125 61.2578125 C-46.20221162 54.83207225 -51.31105363 46.82143216 -52.13671875 37.0078125 C-52.43693864 25.92277036 -50.39112895 17.32800322 -43.42578125 8.4453125 C-32.0933171 -3.14086353 -14.93351401 -7.25124789 0 0 Z " fill="#5059C9" transform="translate(388.86328125,125.7421875)"/>
<path d="M0 0 C26.73 0 53.46 0 81 0 C81 5.61 81 11.22 81 17 C70.77 17 60.54 17 50 17 C50 44.39 50 71.78 50 100 C43.73 100 37.46 100 31 100 C31 72.61 31 45.22 31 17 C20.77 17 10.54 17 0 17 C0 11.39 0 5.78 0 0 Z " fill="#FAFAFD" transform="translate(124,206)"/>
<path d="M0 0 C2.31 0 4.62 0 7 0 C5.68 0.66 4.36 1.32 3 2 C3.00092179 2.58622666 3.00184359 3.17245333 3.00279331 3.77644444 C3.02490235 18.05753538 3.04143778 32.33862479 3.05181217 46.61972904 C3.05696282 53.52603331 3.06398204 60.43232613 3.07543945 67.33862305 C3.08649199 74.0040598 3.09228526 80.66948222 3.09487724 87.33492851 C3.09672434 89.87740707 3.10033123 92.41988498 3.10573006 94.96235847 C3.11299296 98.52448048 3.11398871 102.08655342 3.11352539 105.64868164 C3.11712067 106.69884964 3.12071594 107.74901764 3.12442017 108.83100891 C3.10322768 123.89677232 3.10322768 123.89677232 -2 129 C-2.44988281 129.45632813 -2.89976562 129.91265625 -3.36328125 130.3828125 C-7.02957226 133.56693621 -10.12739918 134.32585246 -14.94287109 134.62084961 C-16.09817322 134.69197968 -17.25347534 134.76310974 -18.44378662 134.83639526 C-23.95454534 135.08991948 -29.46079 135.23295889 -34.9765625 135.31640625 C-36.14963959 135.33718735 -37.32271667 135.35796844 -38.53134155 135.37937927 C-42.22917639 135.44401962 -45.92707413 135.50332352 -49.625 135.5625 C-52.14193308 135.60577245 -54.65886026 135.64938927 -57.17578125 135.69335938 C-74.94904932 136 -74.94904932 136 -79 136 C-79 134.35 -79 132.7 -79 131 C-78.14888641 130.99635437 -77.29777283 130.99270874 -76.42086792 130.98895264 C-68.38749006 130.95103628 -60.35451667 130.89414231 -52.32142448 130.81609726 C-48.19180623 130.7766411 -44.06240061 130.74444369 -39.93261719 130.72900391 C-35.94473701 130.71382475 -31.95744146 130.67935774 -27.96982193 130.63169098 C-26.45089941 130.61689 -24.93189341 130.60895972 -23.41289902 130.60811615 C-21.27968266 130.60574068 -19.14807447 130.5786192 -17.01513672 130.54589844 C-15.8026828 130.53701599 -14.59022888 130.52813354 -13.34103394 130.51898193 C-8.1900383 129.71884828 -5.21968834 127.66254027 -2.15202332 123.48104858 C-0.4741044 118.41091051 -0.56070414 113.61207042 -0.56762695 108.30322266 C-0.5574353 107.13191803 -0.54724365 105.9606134 -0.53674316 104.7538147 C-0.50660065 100.89051538 -0.49734495 97.02746399 -0.48828125 93.1640625 C-0.47143551 90.4821903 -0.45343069 87.80035099 -0.43388367 85.11849976 C-0.39027033 78.78635085 -0.36169176 72.45422759 -0.33856028 66.12197435 C-0.31148081 58.91028818 -0.26757107 51.69873491 -0.22227156 44.48714375 C-0.12949942 29.65817446 -0.05778472 14.82914791 0 0 Z " fill="#585DA6" transform="translate(256,216)"/>
<path d="M0 0 C22.11 0 44.22 0 67 0 C60.02772537 4.64818309 52.73559491 4.33140661 44.609375 4.4140625 C43.42780823 4.43342865 42.24624146 4.4527948 41.02886963 4.4727478 C37.26931888 4.53230535 33.50973635 4.57880923 29.75 4.625 C27.20571617 4.66320635 24.6614449 4.70225961 22.1171875 4.7421875 C5.28095877 5 5.28095877 5 0 5 C0 3.35 0 1.7 0 0 Z " fill="#404585" transform="translate(177,347)"/>
<path d="M0 0 C23.76 0 47.52 0 72 0 C72 0.33 72 0.66 72 1 C49.89 1 27.78 1 5 1 C5 1.66 5 2.32 5 3 C2.525 2.01 2.525 2.01 0 1 C0 0.67 0 0.34 0 0 Z " fill="#444DC4" transform="translate(347,216)"/>
<path d="M0 0 C15.18 0 30.36 0 46 0 C46 0.33 46 0.66 46 1 C39.93108133 1.14286067 33.86215221 1.28526566 27.79321289 1.42724609 C25.72810577 1.47562294 23.66300158 1.52412489 21.59790039 1.57275391 C18.63168077 1.64258084 15.66545095 1.71195969 12.69921875 1.78125 C11.31158577 1.81406067 11.31158577 1.81406067 9.8959198 1.84753418 C9.03525406 1.86755493 8.17458832 1.88757568 7.2878418 1.90820312 C6.53061325 1.92596802 5.7733847 1.94373291 4.99320984 1.96203613 C3.32906028 1.99373252 1.66445139 2 0 2 C0 1.34 0 0.68 0 0 Z " fill="#4A4F8C" transform="translate(177,350)"/>
<path d="M0 0 C0.67578125 1.7109375 0.67578125 1.7109375 1 4 C-1.11231444 8.46865076 -4.01188981 12.24221307 -8.6953125 14.02734375 C-11.1428039 14.50498808 -13.51246744 14.84484203 -16 15 C-16.33 14.34 -16.66 13.68 -17 13 C-16.18015625 12.69707031 -15.3603125 12.39414062 -14.515625 12.08203125 C-12.89914063 11.45361328 -12.89914063 11.45361328 -11.25 10.8125 C-10.18265625 10.40644531 -9.1153125 10.00039063 -8.015625 9.58203125 C-3.66194499 7.29804109 -1.54579157 4.63737471 0 0 Z " fill="#4E5397" transform="translate(255,336)"/>
<path d="M0 0 C3.20211336 4.80317005 3.35411839 10.47058293 2.5625 16.125 C2.376875 16.74375 2.19125 17.3625 2 18 C3.32 18.33 4.64 18.66 6 19 C4.02 19 2.04 19 0 19 C0 12.73 0 6.46 0 0 Z " fill="#6269BD" transform="translate(256,175)"/>
<path d="M0 0 C9.24 0 18.48 0 28 0 C28 0.33 28 0.66 28 1 C20.41 1 12.82 1 5 1 C5 1.66 5 2.32 5 3 C2.525 2.01 2.525 2.01 0 1 C0 0.67 0 0.34 0 0 Z " fill="#3E47B2" transform="translate(347,216)"/>
<path d="M0 0 C0 3 0 3 -2.5 5.6875 C-3.325 6.450625 -4.15 7.21375 -5 8 C-5.66 7.67 -6.32 7.34 -7 7 C-2.25 1.125 -2.25 1.125 0 0 Z " fill="#5E66CB" transform="translate(81,166)"/>
</svg>
