<svg width="128" height="128" viewBox="0 0 576 160" fill="none" xmlns="http://www.w3.org/2000/svg">
<g clip-path="url(#clip0_4629_26)">
<path fill-rule="evenodd" clip-rule="evenodd" d="M272 64C257.089 64 244.561 53.8018 241.008 40H204.331C196.51 40 189.835 45.6546 188.549 53.3696L187.234 61.2608C185.985 68.7531 182.195 75.2738 176.835 80C182.195 84.7262 185.985 91.2469 187.234 98.7392L188.549 106.63C189.835 114.345 196.51 120 204.331 120H209.008C212.561 106.198 225.089 96 240 96C257.673 96 272 110.327 272 128C272 145.673 257.673 160 240 160C225.089 160 212.56 149.802 209.008 136H204.331C188.688 136 175.338 124.691 172.766 109.261L171.451 101.37C170.165 93.6546 163.49 88 155.669 88H142.992C139.44 101.802 126.911 112 112 112C97.0893 112 84.5605 101.802 81.0081 88H62.9919C59.4395 101.802 46.9107 112 32 112C14.3269 112 0 97.6731 0 80C0 62.3269 14.3269 48 32 48C46.9107 48 59.4395 58.1982 62.9919 72H81.0081C84.5605 58.1982 97.0893 48 112 48C126.911 48 139.44 58.1982 142.992 72H155.669C163.49 72 170.165 66.3454 171.451 58.6304L172.766 50.7392C175.338 35.3092 188.688 24 204.331 24L241.008 24C244.56 10.1982 257.089 0 272 0C289.673 0 304 14.3269 304 32C304 49.6731 289.673 64 272 64ZM272 48C280.837 48 288 40.8366 288 32C288 23.1634 280.837 16 272 16C263.163 16 256 23.1634 256 32C256 40.8366 263.163 48 272 48ZM32 96C40.8366 96 48 88.8366 48 80C48 71.1634 40.8366 64 32 64C23.1634 64 16 71.1634 16 80C16 88.8366 23.1634 96 32 96ZM128 80C128 88.8366 120.837 96 112 96C103.163 96 96 88.8366 96 80C96 71.1634 103.163 64 112 64C120.837 64 128 71.1634 128 80ZM256 128C256 136.837 248.837 144 240 144C231.163 144 224 136.837 224 128C224 119.163 231.163 112 240 112C248.837 112 256 119.163 256 128Z" fill="#040506"/>
<path fill-rule="evenodd" clip-rule="evenodd" d="M480.023 69.1834V68.421C485.605 65.6252 491.188 60.7962 491.188 51.2651C491.188 37.5405 479.896 29.2803 464.29 29.2803C448.304 29.2803 436.885 38.0488 436.885 51.5193C436.885 60.6691 442.214 65.6252 448.05 68.421V69.1834C441.579 71.4709 433.84 78.3332 433.84 89.7704C433.84 103.622 445.259 113.28 464.163 113.28C483.068 113.28 494.106 103.622 494.106 89.7704C494.106 78.3332 486.494 71.598 480.023 69.1834ZM464.163 40.9717C470.507 40.9717 475.202 45.0382 475.202 51.9005C475.202 58.7629 470.38 62.8294 464.163 62.8294C457.946 62.8294 452.744 58.7629 452.744 51.9005C452.744 44.9111 457.693 40.9717 464.163 40.9717ZM464.163 101.081C456.804 101.081 450.841 96.3786 450.841 88.3726C450.841 81.129 455.789 75.6645 464.036 75.6645C472.156 75.6645 477.105 81.0019 477.105 88.6267C477.105 96.3786 471.395 101.081 464.163 101.081Z" fill="#040506"/>
<path d="M513.68 112.009H529.92V77.5707C529.92 66.2606 536.771 61.3045 544.511 61.3045C552.123 61.3045 558.087 66.3877 558.087 76.8083V112.009H574.327V73.5042C574.327 56.8567 564.684 47.1986 549.586 47.1986C540.07 47.1986 534.741 51.011 530.935 55.9671H529.92L528.524 48.4694H513.68V112.009Z" fill="#040506"/>
<path d="M369.92 112.009H353.68V48.4694H368.524L369.92 55.9671H370.935C374.741 51.011 380.07 47.1986 389.586 47.1986C404.684 47.1986 414.327 56.8567 414.327 73.5042V112.009H398.087V76.8083C398.087 66.3877 392.123 61.3045 384.511 61.3045C376.771 61.3045 369.92 66.2606 369.92 77.5707V112.009Z" fill="#040506"/>
</g>
<defs>
<clipPath id="clip0_4629_26">
<rect width="576" height="160" fill="white"/>
</clipPath>
</defs>
</svg>
