<svg width="24" height="25" viewBox="0 0 24 25" fill="none" xmlns="http://www.w3.org/2000/svg">
<path d="M21.5069 24.0053C20.8603 24.0053 20.2192 23.7532 19.7425 23.2765L4.9863 8.515V21.5121C4.9863 22.893 3.86849 24.0053 2.49315 24.0053C1.11781 24.0053 0 22.8875 0 21.5121V2.49861C0 1.48492 0.608219 0.580821 1.53973 0.191784C2.47123 -0.197254 3.54521 0.0164426 4.25753 0.734245L19.0137 15.4958V2.49861C19.0137 1.1178 20.1315 0.00548382 21.5069 0.00548382C22.8877 0.00548382 24 1.12328 24 2.49861V21.5176C24 22.893 22.8877 24.0053 21.5069 24.0053Z" fill="#009900"/>
</svg>
