<?xml version="1.0" standalone="no"?>
<!DOCTYPE svg PUBLIC "-//W3C//DTD SVG 20010904//EN"
 "http://www.w3.org/TR/2001/REC-SVG-20010904/DTD/svg10.dtd">
<svg version="1.0" xmlns="http://www.w3.org/2000/svg"
 width="1594.000000pt" height="1595.000000pt" viewBox="0 0 1594.000000 1595.000000"
 preserveAspectRatio="xMidYMid meet">

<g transform="translate(0.000000,1595.000000) scale(0.100000,-0.100000)"
fill="#000000" stroke="none">
<path d="M7563 15940 c-18 -4 -39 -13 -47 -19 -40 -33 -40 -28 38 -1022 42
-525 78 -975 81 -1001 l6 -48 -185 0 c-183 0 -185 0 -215 -26 -18 -15 -32 -38
-35 -57 -3 -18 36 -471 87 -1007 l93 -975 30 2 c16 1 90 9 164 17 159 19 567
21 739 5 62 -6 115 -9 116 -7 2 2 79 918 171 2037 l167 2033 -20 26 c-37 50
-49 51 -623 50 -294 0 -550 -4 -567 -8z"/>
<path d="M5665 15624 c-126 -46 -356 -130 -510 -186 -305 -111 -345 -134 -345
-196 0 -16 39 -115 86 -218 48 -104 234 -512 415 -907 181 -395 329 -722 329
-726 0 -4 -30 -18 -67 -31 -173 -60 -274 -103 -288 -123 -36 -51 -30 -65 331
-824 191 -401 380 -800 422 -888 41 -88 76 -162 78 -164 2 -2 79 32 172 76
252 122 470 203 711 264 51 13 95 29 98 35 2 6 -105 406 -237 890 -133 483
-293 1068 -356 1299 -339 1236 -465 1693 -476 1718 -16 40 -55 67 -97 66 -20
0 -139 -38 -266 -85z"/>
<path d="M10231 15583 c-28 -26 -48 -94 -296 -993 -146 -530 -267 -965 -269
-967 -1 -1 -65 20 -142 48 -200 73 -205 74 -248 54 -20 -10 -41 -25 -46 -34
-5 -9 -110 -406 -235 -881 -124 -476 -237 -905 -250 -955 -13 -49 -22 -91 -20
-93 2 -3 89 -26 192 -52 252 -65 459 -138 687 -244 54 -25 102 -46 106 -46 4
0 66 127 138 283 72 155 358 777 637 1382 279 605 602 1305 717 1555 116 250
213 471 215 490 4 29 0 43 -21 67 -15 18 -37 35 -49 39 -12 3 -130 46 -262 94
-607 223 -769 280 -796 280 -17 0 -40 -11 -58 -27z"/>
<path d="M3299 14463 c-834 -697 -802 -667 -783 -734 6 -21 230 -255 709 -741
385 -390 701 -714 703 -718 2 -4 -57 -58 -131 -119 -74 -60 -137 -118 -141
-126 -3 -9 -6 -35 -6 -58 0 -41 1 -42 523 -556 287 -283 608 -600 713 -703
l190 -189 175 174 c185 185 316 297 494 422 61 43 114 81 119 86 5 4 -47 86
-114 181 -300 423 -1036 1462 -1588 2243 -330 468 -616 867 -635 888 -30 32
-39 37 -79 37 -42 0 -52 -6 -149 -87z"/>
<path d="M12677 14342 c-15 -9 -186 -240 -380 -513 -193 -273 -453 -638 -577
-812 -124 -174 -228 -316 -232 -314 -3 1 -59 47 -123 102 -148 127 -174 142
-224 126 -35 -10 -54 -34 -237 -298 -476 -690 -588 -853 -756 -1096 -98 -141
-178 -260 -177 -265 0 -4 45 -36 101 -71 204 -131 388 -279 582 -468 l129
-126 351 354 c194 195 579 584 857 864 277 281 762 771 1078 1089 321 324 579
593 586 610 24 56 10 81 -94 169 -231 199 -768 645 -788 655 -31 17 -63 15
-96 -6z"/>
<path d="M1464 12605 c-25 -13 -80 -100 -307 -493 -152 -262 -281 -490 -287
-506 -14 -38 -5 -78 23 -104 20 -19 310 -161 687 -337 229 -107 834 -393 997
-472 l142 -68 -90 -150 c-98 -166 -108 -203 -66 -249 20 -23 144 -82 692 -331
88 -40 246 -112 350 -160 105 -48 269 -123 365 -167 96 -44 228 -105 293 -135
67 -31 122 -52 127 -47 5 5 25 52 46 104 78 197 255 514 399 714 31 43 57 82
58 86 1 5 -45 41 -103 81 -58 40 -265 183 -460 317 -195 135 -398 275 -450
312 -52 37 -205 143 -340 236 -248 170 -519 357 -755 520 -71 49 -328 226
-570 393 -242 167 -490 339 -551 382 -122 86 -153 98 -200 74z"/>
<path d="M14550 12348 c-22 -8 -66 -38 -805 -548 -861 -594 -853 -589 -863
-577 -5 7 -46 76 -91 155 -84 145 -110 172 -163 172 -28 0 -5 15 -328 -215
-140 -100 -428 -305 -640 -455 -588 -418 -690 -491 -690 -496 0 -2 29 -41 63
-86 143 -186 280 -411 398 -650 l81 -166 51 23 c29 12 194 90 367 172 173 83
389 185 480 228 172 81 837 396 1140 540 96 46 438 208 760 360 882 418 885
420 903 446 38 53 31 67 -242 538 -142 245 -265 460 -274 476 -35 69 -94 103
-147 83z"/>
<path d="M323 10130 c-44 -10 -58 -23 -76 -73 -23 -62 -200 -1083 -193 -1112
3 -13 16 -36 29 -50 25 -30 21 -29 397 -64 118 -11 481 -45 805 -76 325 -30
644 -60 710 -66 66 -6 122 -13 124 -15 3 -2 -8 -75 -22 -162 -34 -194 -34
-221 -3 -255 26 -28 38 -31 241 -47 215 -17 1226 -99 1425 -116 364 -30 356
-30 363 -3 4 13 7 56 7 94 1 175 54 521 120 773 21 81 37 149 35 151 -4 3
-586 156 -1030 270 -126 33 -421 110 -655 171 -234 62 -517 136 -630 165 -113
30 -257 67 -320 84 -63 16 -376 98 -695 181 -319 83 -584 152 -590 154 -5 1
-25 -1 -42 -4z"/>
<path d="M15470 9790 c-80 -21 -287 -74 -460 -119 -173 -45 -539 -141 -813
-212 -274 -72 -501 -129 -503 -126 -3 2 -18 79 -34 171 -16 91 -34 175 -40
185 -15 29 -50 51 -80 51 -22 0 -339 -85 -970 -260 -377 -105 -916 -252 -938
-257 -16 -4 -21 -10 -17 -22 4 -9 24 -77 46 -151 67 -229 117 -501 139 -749 5
-63 11 -115 13 -117 2 -2 43 1 93 6 49 5 168 16 264 25 96 9 216 20 265 25 50
6 167 17 260 25 94 8 292 26 440 40 149 14 392 36 540 50 149 14 320 30 380
36 61 5 202 19 315 29 440 41 879 82 1180 110 338 32 349 34 378 93 11 23 1
94 -78 554 -50 290 -98 548 -107 571 -17 48 -61 82 -103 81 -14 0 -90 -18
-170 -39z"/>
<path d="M11810 7838 c0 -186 -52 -542 -115 -795 -25 -97 -42 -180 -37 -184 4
-5 183 -54 397 -109 611 -160 1386 -362 1780 -464 524 -137 1383 -362 1579
-412 92 -24 177 -44 188 -44 33 0 75 28 86 57 15 41 193 1071 192 1116 0 48
-41 93 -91 101 -19 3 -162 17 -319 31 -157 14 -476 44 -710 66 -234 22 -541
51 -684 64 -142 13 -260 26 -262 28 -2 2 11 82 28 178 28 156 30 178 17 203
-33 68 -25 67 -604 111 -110 8 -362 29 -560 45 -198 17 -418 35 -490 41 -71 5
-179 14 -240 20 -170 14 -155 19 -155 -53z"/>
<path d="M3980 7759 c-47 -4 -211 -19 -365 -34 -154 -14 -325 -30 -380 -35
-460 -42 -1258 -115 -1521 -139 -301 -29 -748 -70 -1368 -126 -293 -27 -307
-31 -332 -90 -13 -32 -7 -72 82 -577 53 -299 102 -558 110 -576 9 -22 25 -38
50 -48 36 -15 44 -13 463 96 908 238 1500 390 1514 390 10 0 20 -33 37 -132
39 -233 45 -248 104 -268 30 -10 58 -4 257 51 297 81 851 234 1104 304 130 36
348 96 503 137 93 25 93 24 62 114 -74 213 -145 581 -166 852 l-7 92 -31 -1
c-17 -1 -69 -5 -116 -10z"/>
<path d="M11539 6553 c-98 -257 -304 -631 -466 -842 -27 -36 -31 -47 -21 -57
7 -6 72 -52 143 -101 72 -49 254 -175 405 -279 151 -105 370 -256 485 -335
116 -80 372 -257 570 -394 198 -137 520 -359 715 -493 195 -135 405 -280 465
-322 381 -266 541 -373 567 -381 19 -5 43 -4 66 4 34 11 46 27 153 212 63 110
191 331 284 490 219 377 219 376 40 460 -49 23 -216 102 -370 175 -154 73
-356 168 -450 212 -93 44 -303 144 -465 221 -162 77 -328 155 -368 174 -72 33
-73 34 -59 56 7 12 48 81 90 153 106 180 104 212 -18 272 -53 26 -196 92 -945
434 -96 44 -316 145 -488 224 -172 79 -315 144 -318 144 -2 0 -9 -12 -15 -27z"/>
<path d="M3920 6234 c-272 -129 -594 -282 -715 -339 -121 -56 -326 -153 -455
-215 -129 -62 -401 -191 -605 -287 -203 -97 -496 -235 -650 -308 -154 -73
-381 -181 -505 -239 -224 -106 -264 -132 -276 -183 -9 -35 -3 -47 300 -572
270 -470 285 -491 346 -491 16 0 100 52 230 141 113 78 284 196 380 263 96 66
240 165 321 221 80 55 243 168 363 250 119 83 256 178 304 212 48 34 90 59 94
57 3 -2 43 -70 89 -149 45 -80 93 -155 107 -165 14 -12 40 -20 62 -20 32 0 62
18 201 117 90 64 295 209 454 323 160 113 448 318 640 455 193 136 354 251
358 255 5 4 -31 61 -79 125 -139 187 -247 365 -356 583 -56 111 -104 202 -107
202 -3 -1 -229 -107 -501 -236z"/>
<path d="M10705 5287 c-167 -169 -350 -327 -526 -451 l-117 -82 102 -145 c56
-79 190 -268 297 -419 108 -151 316 -446 464 -655 147 -209 300 -425 340 -480
40 -55 307 -433 594 -840 288 -407 538 -755 557 -773 26 -25 42 -32 73 -32 36
0 55 13 228 158 103 87 297 249 431 361 133 112 249 213 257 224 8 12 15 39
15 60 0 38 -13 52 -431 478 -238 242 -435 441 -439 444 -4 2 -129 130 -278
283 l-271 279 125 104 c69 57 135 114 145 128 21 27 24 76 6 107 -11 20 -1403
1397 -1416 1401 -3 1 -73 -66 -156 -150z"/>
<path d="M4864 5058 c-420 -425 -2049 -2072 -2324 -2350 -129 -131 -240 -248
-247 -261 -7 -12 -12 -35 -13 -51 0 -41 29 -67 504 -463 419 -350 418 -350
480 -322 14 7 93 108 192 248 93 130 257 360 364 511 108 151 292 410 409 575
117 165 217 304 221 308 4 5 69 -44 144 -107 76 -64 149 -119 162 -122 34 -9
72 3 96 29 19 20 1128 1625 1128 1632 0 2 -46 33 -102 70 -204 134 -414 303
-594 477 -67 65 -123 118 -126 118 -2 0 -134 -132 -294 -292z"/>
<path d="M9715 4553 c-239 -122 -520 -229 -765 -292 -98 -25 -114 -32 -112
-48 2 -10 74 -272 159 -583 85 -311 284 -1040 443 -1620 159 -580 327 -1196
374 -1368 48 -173 91 -322 96 -332 16 -30 61 -60 90 -60 15 0 171 52 346 116
176 63 411 149 524 190 221 80 260 105 260 163 0 16 -87 220 -196 457 -108
236 -283 618 -389 849 -246 538 -249 544 -243 551 3 2 73 29 156 59 175 62
197 75 212 121 14 40 48 -37 -400 904 -168 355 -338 711 -376 792 -38 81 -73
147 -79 147 -5 0 -50 -21 -100 -46z"/>
<path d="M6178 4447 c-26 -56 -114 -248 -196 -427 -83 -179 -226 -491 -320
-695 -178 -388 -526 -1145 -902 -1965 -134 -291 -225 -501 -228 -525 -3 -34 1
-47 23 -73 15 -18 32 -32 38 -32 7 0 203 -70 437 -156 546 -200 587 -214 626
-214 75 0 60 -44 350 1010 146 531 269 968 272 971 4 4 77 -20 162 -52 254
-95 258 -93 324 161 25 96 138 528 251 959 113 432 205 788 205 793 0 4 -12
10 -27 13 -311 67 -646 180 -885 301 -37 19 -71 34 -75 34 -5 0 -29 -46 -55
-103z"/>
<path d="M8440 4159 c-214 -31 -687 -36 -864 -9 -38 6 -70 9 -71 8 -2 -2 -40
-453 -85 -1003 -45 -550 -119 -1456 -165 -2013 -57 -693 -80 -1024 -74 -1050
4 -20 20 -47 34 -59 l26 -23 580 0 581 0 29 29 c28 28 33 42 30 86 -1 11 -35
445 -76 965 -41 520 -75 959 -75 977 l0 32 186 3 186 3 29 33 c20 22 29 43 29
66 0 19 -40 463 -90 987 -49 523 -90 958 -90 965 0 16 -31 16 -120 3z"/>
</g>
</svg>
