<svg xmlns="http://www.w3.org/2000/svg" width="15" height="15" viewBox="0 0 24 24" fill="#F59E0B">
  <path d="M12.504 0c-.155 0-.315.008-.48.021-4.226.333-3.105 4.807-3.17 6.298-.076 1.092-.3 1.953-1.05 3.02-.885 1.051-2.127 2.75-2.716 4.521-.278.832-.41 1.684-.287 2.489a.424.424 0 00-.11.135c-.26.268-.45.6-.663.839-.199.199-.485.267-.797.4-.313.136-.658.269-.864.68-.09.189-.136.394-.132.602 0 .199.027.4.055.536.058.399.116.728.04.97-.249.68-.28 1.145-.106 1.484.174.334.535.47.94.601.81.2 1.91.135 2.774.6.926.466 1.866.67 2.616.47.526-.116.97-.464 1.208-.946.587-.003 1.23-.269 2.31-.269 1.083 0 1.73.267 2.31.269.24.482.68.83 1.21.946.75.2 1.69-.004 2.616-.47.865-.465 1.963-.4 2.775-.6.406-.133.766-.268.94-.602.174-.339.142-.804-.106-1.483-.076-.242-.019-.572.04-.97.028-.136.055-.337.055-.538.003-.207-.043-.411-.131-.6-.207-.411-.553-.545-.865-.682-.312-.133-.598-.2-.797-.4-.213-.239-.404-.572-.664-.839a.424.424 0 00-.11-.135c.122-.805-.009-1.657-.287-2.489-.589-1.771-1.831-3.47-2.716-4.521-.75-1.067-.974-1.928-1.05-3.02-.066-1.491 1.056-5.965-3.17-6.298-.165-.013-.324-.021-.48-.021z"/>
</svg>
