<svg width="32" height="32" viewBox="0 0 32 32" fill="none" xmlns="http://www.w3.org/2000/svg">
<path fill-rule="evenodd" clip-rule="evenodd" d="M15.3936 6.40039H23.8064C24.4384 6.40039 24.984 6.40039 25.4336 6.43719C25.9088 6.47559 26.3808 6.56199 26.8336 6.79239C27.512 7.13799 28.0624 7.68839 28.408 8.36679C28.6384 8.81959 28.7248 9.29159 28.7632 9.76679C28.8 10.2148 28.8 10.762 28.8 11.394V15.0068C28.8 15.6388 28.8 16.1844 28.7632 16.634C28.7389 17.1196 28.6182 17.5955 28.408 18.034C28.0632 18.7117 27.5126 19.2629 26.8352 19.6084C26.3808 19.8388 25.9072 19.9252 25.4336 19.9636C24.9856 20.0004 24.4384 20.0004 23.8064 20.0004H19.6784C19.5504 20.1332 19.408 20.2564 19.2544 20.3684L14.8864 23.5124C13.9824 24.1636 13.3984 24.5844 12.7504 24.8868C12.1776 25.154 11.5728 25.3508 10.9504 25.4676C10.2464 25.6004 9.52805 25.6004 8.41285 25.6004H6.00005C5.68179 25.6004 5.37656 25.474 5.15152 25.2489C4.92648 25.0239 4.80005 24.7187 4.80005 24.4004C4.80005 24.0821 4.92648 23.7769 5.15152 23.5519C5.37656 23.3268 5.68179 23.2004 6.00005 23.2004H8.29765C9.56805 23.2004 10.0496 23.1956 10.504 23.1092C10.9296 23.0292 11.3424 22.8948 11.736 22.7124C12.1536 22.5172 12.5488 22.2388 13.5792 21.4964L17.8512 18.4196C17.9783 18.3274 18.0694 18.1938 18.1089 18.0419C18.1483 17.8899 18.1337 17.7289 18.0675 17.5865C18.0014 17.4441 17.8877 17.3292 17.7461 17.2613C17.6045 17.1935 17.4437 17.1771 17.2912 17.2148L9.49125 19.1652C9.18232 19.2424 8.85537 19.1938 8.58232 19.0299C8.30927 18.8661 8.11248 18.6005 8.03525 18.2916C7.95802 17.9827 8.00667 17.6557 8.1705 17.3827C8.33433 17.1096 8.59992 16.9128 8.90885 16.8356L10.4 16.4628V12.8004C9.45605 12.8036 9.08645 12.818 8.74725 12.8996C8.38006 12.9881 8.0291 13.1339 7.70725 13.3316C7.37125 13.5364 7.07045 13.8276 6.19845 14.698L5.24805 15.6484C5.02057 15.8604 4.71969 15.9758 4.40881 15.9703C4.09793 15.9648 3.80131 15.8388 3.58145 15.619C3.36159 15.3991 3.23565 15.1025 3.23017 14.7916C3.22468 14.4807 3.34008 14.1799 3.55205 13.9524L4.59845 12.9044C5.33445 12.1684 5.84645 11.6564 6.45445 11.2852C6.99071 10.9558 7.57546 10.7128 8.18725 10.5652C8.82245 10.4132 9.48805 10.4004 10.4064 10.4004C10.4104 10.1889 10.4205 9.97765 10.4368 9.76679C10.4612 9.28118 10.5819 8.80527 10.792 8.36679C11.1373 7.68881 11.6885 7.13764 12.3664 6.79239C12.8049 6.58227 13.2808 6.46153 13.7664 6.43719C14.2144 6.40039 14.7616 6.40039 15.3936 6.40039ZM23.76 17.6004H20.5216C20.4821 17.1575 20.3472 16.7285 20.1261 16.3427C19.9051 15.9569 19.6031 15.6236 19.241 15.3656C18.8788 15.1076 18.4652 14.9311 18.0283 14.8482C17.5915 14.7653 17.1419 14.7779 16.7104 14.8852L12.8 15.8628V13.6004H26.4V14.9604C26.4 15.6516 26.4 16.0996 26.3712 16.4388C26.344 16.7652 26.2992 16.8868 26.2688 16.946C26.1535 17.1714 25.9698 17.3545 25.744 17.4692C25.6848 17.5012 25.5648 17.5444 25.2384 17.5716C24.8992 17.5988 24.4512 17.6004 23.76 17.6004ZM26.392 10.4004H12.808C12.8112 10.234 12.8176 10.09 12.8288 9.96199C12.856 9.63559 12.9008 9.51399 12.9312 9.45639C13.0463 9.2304 13.2301 9.04667 13.456 8.93159C13.5152 8.89959 13.6352 8.85639 13.9616 8.82919C14.3008 8.80199 14.7488 8.80039 15.44 8.80039H23.76C24.4512 8.80039 24.8992 8.80039 25.2384 8.82919C25.5648 8.85639 25.6864 8.90119 25.744 8.93159C25.97 9.04667 26.1538 9.2304 26.2688 9.45639C26.3008 9.51559 26.344 9.63559 26.3712 9.96199C26.3824 10.09 26.3872 10.234 26.392 10.4004Z" fill="#5C5F62"/>
</svg>
