<svg width="24" height="24" viewBox="0 0 24 24" fill="none" xmlns="http://www.w3.org/2000/svg">
<path fill-rule="evenodd" clip-rule="evenodd" d="M9.76229 1.5C8.11449 1.5 6.77869 2.7934 6.77869 4.38889V6.38889H11.9426V6.94444H4.4836C2.83581 6.94444 1.5 8.23784 1.5 9.83333L1.5 14.1667C1.5 15.7621 2.83581 17.0555 4.4836 17.0555H6.20492V14.6111C6.20492 13.0156 7.54072 11.7222 9.18852 11.7222H14.6967C16.091 11.7222 17.2213 10.6278 17.2213 9.27777V4.38889C17.2213 2.7934 15.8855 1.5 14.2377 1.5H9.76229ZM9.07377 5.05555C9.64416 5.05555 10.1066 4.60784 10.1066 4.05555C10.1066 3.50327 9.64416 3.05555 9.07377 3.05555C8.50337 3.05555 8.04098 3.50327 8.04098 4.05555C8.04098 4.60784 8.50337 5.05555 9.07377 5.05555Z" fill="url(#paint0_linear_14801_5188)"/>
<path fill-rule="evenodd" clip-rule="evenodd" d="M14.2373 22.5009C15.8851 22.5009 17.2209 21.2075 17.2209 19.612V17.612L12.057 17.612L12.057 17.0564L19.516 17.0564C21.1638 17.0564 22.4996 15.763 22.4996 14.1675V9.8342C22.4996 8.23871 21.1638 6.94531 19.516 6.94531L17.7947 6.94531V9.38976C17.7947 10.9852 16.4589 12.2786 14.8111 12.2786L9.30291 12.2786C7.90862 12.2786 6.77832 13.3731 6.77832 14.7231L6.77832 19.612C6.77832 21.2075 8.11413 22.5009 9.76192 22.5009H14.2373ZM14.9259 18.9453C14.3555 18.9453 13.8931 19.393 13.8931 19.9453C13.8931 20.4976 14.3555 20.9453 14.9259 20.9453C15.4962 20.9453 15.9586 20.4976 15.9586 19.9453C15.9586 19.393 15.4962 18.9453 14.9259 18.9453Z" fill="url(#paint1_linear_14801_5188)"/>
<defs>
<linearGradient id="paint0_linear_14801_5188" x1="9.36065" y1="1.5" x2="9.36065" y2="17.0555" gradientUnits="userSpaceOnUse">
<stop stop-color="#327EBD"/>
<stop offset="1" stop-color="#1565A7"/>
</linearGradient>
<linearGradient id="paint1_linear_14801_5188" x1="14.639" y1="6.94531" x2="14.639" y2="22.5009" gradientUnits="userSpaceOnUse">
<stop stop-color="#FFDA4B"/>
<stop offset="1" stop-color="#F9C600"/>
</linearGradient>
</defs>
</svg>
