<?xml version="1.0" encoding="UTF-8"?>
<svg version="1.1" xmlns="http://www.w3.org/2000/svg" width="224" height="224">
<path d="M0 0 C73.92 0 147.84 0 224 0 C224 73.92 224 147.84 224 224 C150.08 224 76.16 224 0 224 C0 150.08 0 76.16 0 0 Z " fill="#FEFEFE" transform="translate(0,0)"/>
<path d="M0 0 C1.28796537 0.6573711 2.57164538 1.32318683 3.8515625 1.99609375 C5.2759318 2.7267767 6.70041415 3.45723933 8.125 4.1875 C8.8478418 4.56148926 9.57068359 4.93547852 10.31542969 5.32080078 C13.68672109 7.05671879 17.0819659 8.74384459 20.4765625 10.43359375 C21.79960965 11.09479105 23.12252577 11.75625061 24.4453125 12.41796875 C25.10402344 12.74732422 25.76273437 13.07667969 26.44140625 13.41601562 C35.11979167 17.75520833 43.79817708 22.09440104 52.4765625 26.43359375 C52.4765625 36.33359375 52.4765625 46.23359375 52.4765625 56.43359375 C47.78879836 54.8710057 44.28206663 53.35549836 40.0390625 50.99609375 C32.46794026 46.85765368 24.7187994 43.13405562 16.91430664 39.45825195 C12.61101548 37.42785854 8.32911855 35.39270767 4.13671875 33.140625 C3.50644775 32.80554932 2.87617676 32.47047363 2.22680664 32.12524414 C0.61478054 31.25795656 -0.98615731 30.37014242 -2.5859375 29.48046875 C-7.65556693 27.67373911 -11.32336862 28.9144701 -16.14453125 31 C-17.42185637 31.65534654 -18.69381681 32.32122806 -19.9609375 32.99609375 C-21.37616334 33.72683127 -22.79153197 34.4572923 -24.20703125 35.1875 C-24.92358887 35.56148926 -25.64014648 35.93547852 -26.37841797 36.32080078 C-29.74029781 38.06487639 -33.13234082 39.7472558 -36.5234375 41.43359375 C-37.84257787 42.09349029 -39.16158767 42.7536479 -40.48046875 43.4140625 C-43.28765859 44.81800102 -46.09799877 46.21541495 -48.91015625 47.609375 C-49.63009766 47.96708984 -50.35003906 48.32480469 -51.09179688 48.69335938 C-52.46336363 49.37471835 -53.83571036 50.05451046 -55.20898438 50.73242188 C-57.99438824 52.11792266 -60.69975388 53.54132914 -63.35546875 55.1640625 C-65.5234375 56.43359375 -65.5234375 56.43359375 -67.5234375 56.43359375 C-67.5234375 46.53359375 -67.5234375 36.63359375 -67.5234375 26.43359375 C-53.28926672 19.15607312 -53.28926672 19.15607312 -47.19921875 16.07617188 C-43.04682664 13.97608228 -38.89639817 11.87262967 -34.75634766 9.74829102 C-31.41766841 8.03542771 -28.07136955 6.33840889 -24.71925735 4.65199471 C-23.44302366 4.00649813 -22.16961547 3.35538294 -20.89918137 2.69854546 C-19.11667759 1.77817838 -17.3229228 0.87970182 -15.52880859 -0.01782227 C-14.51176849 -0.53522476 -13.49472839 -1.05262726 -12.4468689 -1.58570862 C-7.68087195 -3.18451539 -4.47977006 -1.99156075 0 0 Z " fill="#5E03F1" transform="translate(119.5234375,40.56640625)"/>
<path d="M0 0 C4.23089545 1.69235818 8.25619295 3.57107326 12.3125 5.625 C13.74606677 6.34640779 15.17966129 7.06776043 16.61328125 7.7890625 C17.34240723 8.15676758 18.0715332 8.52447266 18.82275391 8.90332031 C22.21123185 10.61009794 25.60573957 12.30475992 29 14 C30.31774098 14.65878887 31.63544913 15.31764342 32.953125 15.9765625 C33.94022461 16.4701123 33.94022461 16.4701123 34.94726562 16.97363281 C53 26 53 26 55.015625 27.2890625 C59.74243902 28.98252736 64.25721945 27.01347011 68.609375 25.06640625 C70.32814114 24.24258328 72.04146687 23.40734072 73.75 22.5625 C74.66595947 22.11801514 75.58191895 21.67353027 76.52563477 21.21557617 C84.2965435 17.41603437 91.95114498 13.40421699 99.5859375 9.33984375 C103.72231664 7.13962284 107.87980958 4.98580341 112.0625 2.875 C113.16722656 2.31554687 114.27195312 1.75609375 115.41015625 1.1796875 C118 0 118 0 120 0 C120 9.9 120 19.8 120 30 C117.195 31.32 114.39 32.64 111.5 34 C100.73775777 39.09072311 90.04329919 44.28863275 79.546875 49.91015625 C78.6069873 50.41111816 77.66709961 50.91208008 76.69873047 51.42822266 C74.85506123 52.41365956 73.01533002 53.40651002 71.18017578 54.40771484 C62.25804594 59.17558952 62.25804594 59.17558952 58 59 C54.37714715 57.65482715 51.02750349 55.88549968 47.625 54.0625 C45.64588003 53.03636826 43.66671307 52.01032715 41.6875 50.984375 C40.718125 50.47455078 39.74875 49.96472656 38.75 49.43945312 C35.06703382 47.51165052 31.34972386 45.65788421 27.625 43.8125 C26.36171967 43.18150884 25.09869699 42.55000159 23.8359375 41.91796875 C23.21557617 41.60778809 22.59521484 41.29760742 21.95605469 40.97802734 C14.63736979 37.3186849 7.3186849 33.65934245 0 30 C0 20.1 0 10.2 0 0 Z " fill="#5E03F1" transform="translate(52,127)"/>
<path d="M0 0 C0.24847658 4.01920424 0.42917736 8.03540822 0.54931641 12.06054688 C0.59940736 13.42689885 0.6675146 14.7927198 0.75439453 16.15722656 C1.02968864 20.59431986 1.07324718 24.67199614 0 29 C-2.89484938 32.11336221 -6.08027096 33.47738485 -10 35 C-11.3928627 35.67766804 -12.78253006 36.36196815 -14.16796875 37.0546875 C-15.50582453 37.66582907 -16.84571051 38.27254412 -18.1875 38.875 C-23.73880615 41.42681505 -29.19068959 44.08877918 -34.5625 47 C-39.9411197 49.91154892 -45.35063358 52.74725373 -50.8125 55.5 C-51.50093994 55.850625 -52.18937988 56.20125 -52.89868164 56.5625 C-57.76323872 59 -57.76323872 59 -60 59 C-60 49.1 -60 39.2 -60 29 C-45.60539398 21.76258818 -45.60539398 21.76258818 -39.48046875 18.69140625 C-35.29620081 16.59328748 -31.11238917 14.49429098 -26.93115234 12.39013672 C-23.56128176 10.69436018 -20.18948914 9.0024651 -16.81631088 7.3132782 C-15.52777317 6.66715733 -14.23994203 6.01962542 -12.95282364 5.37068176 C-11.15416499 4.46412571 -9.35278126 3.56298244 -7.55126953 2.66210938 C-6.52534698 2.14692749 -5.49942444 1.63174561 -4.44241333 1.10095215 C-2 0 -2 0 0 0 Z " fill="#4704B6" transform="translate(112,38)"/>
<path d="M0 0 C1.27097952 0.65090732 2.5390478 1.30751976 3.8046875 1.96875 C9.8567799 5.06839607 15.95494366 8.03213259 22.1171875 10.90625 C29.9545562 14.57788947 37.61854359 18.51887771 45.23828125 22.62109375 C47.70339141 23.94458649 50.16639445 25.24102884 52.6796875 26.46875 C51.28147565 29.2651737 49.57050361 29.66409952 46.76171875 31 C45.75431641 31.48082031 44.74691406 31.96164063 43.70898438 32.45703125 C42.64744141 32.95589844 41.58589844 33.45476562 40.4921875 33.96875 C39.44998047 34.46761719 38.40777344 34.96648437 37.33398438 35.48046875 C23.99515467 41.80644902 23.99515467 41.80644902 20.12524414 40.81298828 C19.28856201 40.39259277 18.45187988 39.97219727 17.58984375 39.5390625 C16.64850586 39.07741699 15.70716797 38.61577148 14.73730469 38.14013672 C13.25472168 37.37467529 13.25472168 37.37467529 11.7421875 36.59375 C10.71383789 36.08215332 9.68548828 35.57055664 8.62597656 35.04345703 C1.83856924 31.64549661 -4.8619504 28.09112913 -11.52734375 24.4609375 C-18.96361101 20.48438902 -26.67396413 17.01861898 -34.3203125 13.46875 C-34.3203125 12.47875 -34.3203125 11.48875 -34.3203125 10.46875 C-33.28132813 9.94925781 -32.24234375 9.42976563 -31.171875 8.89453125 C-30.50067627 8.5586499 -29.82947754 8.22276855 -29.13793945 7.87670898 C-27.67123776 7.14392973 -26.20361873 6.41298384 -24.73510742 5.68383789 C-21.53428779 4.09209998 -18.35350631 2.48665883 -15.20703125 0.7890625 C-14.35753906 0.33273438 -13.50804688 -0.12359375 -12.6328125 -0.59375 C-11.90707031 -0.99722656 -11.18132812 -1.40070313 -10.43359375 -1.81640625 C-6.45238935 -3.16309831 -3.69833099 -1.70558323 0 0 Z " fill="#5C03EE" transform="translate(103.3203125,92.53125)"/>
<path d="M0 0 C4.23088717 1.69235487 8.25620905 3.57103093 12.3125 5.625 C13.72522955 6.33599884 15.13799097 7.04693435 16.55078125 7.7578125 C17.2773291 8.12422852 18.00387695 8.49064453 18.75244141 8.86816406 C22.49733163 10.75403318 26.24896672 12.6263883 30 14.5 C31.35419782 15.17702102 32.70836741 15.85409851 34.0625 16.53125 C35.5165625 17.25828125 35.5165625 17.25828125 37 18 C35.66024242 21.60703964 34.0043025 24.72249293 32 28 C30.91736467 30.05200225 29.85522135 32.11493041 28.8125 34.1875 C28.28269531 35.23292969 27.75289062 36.27835938 27.20703125 37.35546875 C25.86159339 39.8187455 25.86159339 39.8187455 26 42 C20.99018924 40.49234535 16.51180806 38.37432101 11.875 36 C11.17246094 35.64421875 10.46992187 35.2884375 9.74609375 34.921875 C8.43899491 34.25967748 7.1327315 33.59582604 5.82763672 32.9296875 C3.88974782 31.94391661 1.94466606 30.97233303 0 30 C0 20.1 0 10.2 0 0 Z " fill="#6107F2" transform="translate(52,127)"/>
<path d="M0 0 C0 9.9 0 19.8 0 30 C-9 34.25 -9 34.25 -11.78515625 35.56347656 C-12.53667969 35.91893555 -13.28820312 36.27439453 -14.0625 36.640625 C-14.89007813 37.03185547 -15.71765625 37.42308594 -16.5703125 37.82617188 C-18.88220407 38.94309055 -21.15896961 40.11379191 -23.4375 41.296875 C-27 43 -27 43 -30 43 C-30.17406637 38.41714498 -30.28078485 33.83513707 -30.375 29.25 C-30.42527344 27.94804687 -30.47554687 26.64609375 -30.52734375 25.3046875 C-30.67577533 15.70611199 -30.67577533 15.70611199 -27.4765625 12.36328125 C-26.32929688 11.91339844 -25.18203125 11.46351563 -24 11 C-22.70268671 10.33247638 -21.41121342 9.65351245 -20.125 8.96484375 C-18.75204531 8.28491676 -17.37700821 7.60917976 -16 6.9375 C-15.31421875 6.59912109 -14.6284375 6.26074219 -13.921875 5.91210938 C-12.57940466 5.24984109 -11.23569223 4.59008343 -9.890625 3.93310547 C-8.12465107 3.06152071 -6.37412245 2.15883418 -4.625 1.25390625 C-2 0 -2 0 0 0 Z " fill="#4F06C8" transform="translate(172,127)"/>
<path d="M0 0 C3.5565419 0.50641586 6.60780689 1.05164459 9.8046875 2.70703125 C10.80435547 3.2165332 10.80435547 3.2165332 11.82421875 3.73632812 C12.50097656 4.09146484 13.17773438 4.44660156 13.875 4.8125 C14.54402344 5.15603516 15.21304688 5.49957031 15.90234375 5.85351562 C17.17627946 6.50766566 18.44852055 7.16513746 19.71826172 7.82739258 C23.13055435 9.58100284 26.5685117 11.28425585 30 13 C30 22.9 30 32.8 30 43 C23.25343721 40.75114574 23.25343721 40.75114574 20.4140625 39.1953125 C19.7967627 38.86088135 19.17946289 38.5264502 18.54345703 38.18188477 C17.5938208 37.65872681 17.5938208 37.65872681 16.625 37.125 C15.30252909 36.40673076 13.97961595 35.6892751 12.65625 34.97265625 C12.0271875 34.63121582 11.398125 34.28977539 10.75 33.93798828 C8.56399246 32.76630288 6.35127928 31.65547407 4.125 30.5625 C1 29 1 29 0 28 C-0.08767112 25.92737924 -0.10695873 23.85179706 -0.09765625 21.77734375 C-0.09443359 20.51728516 -0.09121094 19.25722656 -0.08789062 17.95898438 C-0.07953403 16.61848891 -0.07106907 15.27799412 -0.0625 13.9375 C-0.0574866 12.59310058 -0.05292342 11.2486994 -0.04882812 9.90429688 C-0.03699488 6.60282059 -0.02050971 3.30143197 0 0 Z " fill="#4F06C8" transform="translate(142,54)"/>
<path d="M0 0 C0.97582031 0.45503906 1.95164063 0.91007812 2.95703125 1.37890625 C3.69308594 1.72824219 4.42914063 2.07757813 5.1875 2.4375 C7.19519231 24.66552198 7.19519231 24.66552198 5.1875 31.4375 C-0.16743989 30.90615713 -3.90380422 29.02046374 -8.5 26.4375 C-17.75746505 21.37567875 -27.24557117 16.87966344 -36.8125 12.4375 C-36.8125 11.4475 -36.8125 10.4575 -36.8125 9.4375 C-35.77351563 8.91800781 -34.73453125 8.39851563 -33.6640625 7.86328125 C-32.99286377 7.5273999 -32.32166504 7.19151855 -31.63012695 6.84545898 C-30.16342526 6.11267973 -28.69580623 5.38173384 -27.22729492 4.65258789 C-24.02647529 3.06084998 -20.84569381 1.45540883 -17.69921875 -0.2421875 C-16.84972656 -0.69851562 -16.00023438 -1.15484375 -15.125 -1.625 C-14.39925781 -2.02847656 -13.67351562 -2.43195313 -12.92578125 -2.84765625 C-8.29803084 -4.41305057 -4.18666028 -1.96722592 0 0 Z " fill="#5005CD" transform="translate(105.8125,93.5625)"/>
<path d="M0 0 C5.74200061 1.37325113 10.36064396 3.65320769 15.4375 6.625 C17.933125 8.06875 20.42875 9.5125 23 11 C23 20.57 23 30.14 23 40 C19.07557468 38.69185823 16.08439676 37.65864246 12.57421875 35.7578125 C11.37829102 35.11779297 11.37829102 35.11779297 10.15820312 34.46484375 C9.34287109 34.02269531 8.52753906 33.58054688 7.6875 33.125 C2.12280542 30.1172982 -3.38335494 27.30956948 -9.27416992 24.98779297 C-11 24 -11 24 -12 21 C-11.1796875 18.8359375 -11.1796875 18.8359375 -9.875 16.375 C-9.41222656 15.49585938 -8.94945313 14.61671875 -8.47265625 13.7109375 C-7.98667969 12.81632813 -7.50070313 11.92171875 -7 11 C-6.31744141 9.71996094 -6.31744141 9.71996094 -5.62109375 8.4140625 C-2.31492933 2.31492933 -2.31492933 2.31492933 0 0 Z " fill="#4D02C7" transform="translate(89,146)"/>
<path d="M0 0 C4.95 2.31 9.9 4.62 15 7 C15 16.24 15 25.48 15 35 C7.125 33.875 7.125 33.875 3.0625 31.4375 C2.29035156 30.98246094 1.51820312 30.52742188 0.72265625 30.05859375 C0.15417969 29.70925781 -0.41429688 29.35992187 -1 29 C-0.83628906 27.73285156 -0.67257813 26.46570313 -0.50390625 25.16015625 C0.07978908 19.90689827 0.11285949 14.71749915 0.0625 9.4375 C0.05798828 8.52419922 0.05347656 7.61089844 0.04882812 6.66992188 C0.03718762 4.44658548 0.01925847 2.22328346 0 0 Z " fill="#5601DF" transform="translate(111,97)"/>
<path d="M0 0 C2.97 0.99 5.94 1.98 9 3 C9 7.06901106 8.32205628 8.43633513 6.2890625 11.79296875 C4.66179893 14.57904123 3.20525935 17.43301764 1.75 20.3125 C0.96882813 21.85357422 0.96882813 21.85357422 0.171875 23.42578125 C-1.13810772 25.83197524 -1.13810772 25.83197524 -1 28 C-5.23429756 26.68938409 -9.07407404 25.05643741 -13 23 C-12.34 22.67 -11.68 22.34 -11 22 C-10.71125 21.13375 -10.4225 20.2675 -10.125 19.375 C-9.08745555 16.26236665 -7.75665665 13.68485835 -6.08203125 10.875 C-4.52871773 8.18333759 -3.18667686 5.39720562 -1.83203125 2.6015625 C-1 1 -1 1 0 0 Z " fill="#5603DF" transform="translate(79,141)"/>
<path d="M0 0 C0 9.24 0 18.48 0 28 C0.66 28.33 1.32 28.66 2 29 C-1.63 30.65 -5.26 32.3 -9 34 C-9.17367408 29.96198226 -9.30034608 25.92542209 -9.38452148 21.88452148 C-9.41962146 20.51174033 -9.46731822 19.13921903 -9.52807617 17.76733398 C-10.01998327 6.37079719 -10.01998327 6.37079719 -7.48095703 2.95849609 C-5.109064 1.21509014 -3.00036457 0 0 0 Z " fill="#5602DF" transform="translate(142,142)"/>
<path d="M0 0 C3.63 1.65 7.26 3.3 11 5 C10.01 5.495 10.01 5.495 9 6 C9 15.24 9 24.48 9 34 C2.16888339 31.26755336 2.16888339 31.26755336 0 29 C-0.45410156 25.99731445 -0.45410156 25.99731445 -0.390625 22.36328125 C-0.37773437 21.06455078 -0.36484375 19.76582031 -0.3515625 18.42773438 C-0.31814101 17.05597897 -0.28428123 15.68423419 -0.25 14.3125 C-0.22993376 12.92906188 -0.21168319 11.54559616 -0.1953125 10.16210938 C-0.14809207 6.77404351 -0.08224069 3.38736759 0 0 Z " fill="#5602DF" transform="translate(133,48)"/>
</svg>
