<svg xmlns="http://www.w3.org/2000/svg" width="92" height="92" viewBox="0 0 92 92" fill="none"><path d="M80.5 42.168L51.3892 13.0572C49.4003 11.0683 48.4058 10.0738 47.2453 9.36261C46.2163 8.73208 45.0946 8.26743 43.9212 7.98572C42.5977 7.66797 41.1912 7.66797 38.3785 7.66797L23 7.66797M11.5 33.3513L11.5 40.9203C11.5 42.7955 11.5 43.7331 11.7118 44.6154C11.8996 45.3977 12.2094 46.1455 12.6298 46.8315C13.1039 47.6052 13.7669 48.2682 15.0928 49.5941L44.9928 79.4941C48.029 82.5303 49.547 84.0483 51.2975 84.6171C52.8373 85.1174 54.496 85.1174 56.0358 84.6171C57.7863 84.0483 59.3044 82.5303 62.3405 79.4941L71.8262 70.0085C74.8623 66.9724 76.3804 65.4543 76.9491 63.7038C77.4494 62.164 77.4494 60.5053 76.9491 58.9655C76.3804 57.215 74.8623 55.6969 71.8262 52.6608L43.8428 24.6775C42.5169 23.3515 41.8539 22.6885 41.0802 22.2144C40.3942 21.794 39.6464 21.4843 38.8641 21.2965C37.9818 21.0846 37.0442 21.0846 35.169 21.0846H23.7667C19.4729 21.0846 17.3261 21.0846 15.6861 21.9203C14.2435 22.6553 13.0706 23.8281 12.3356 25.2707C11.5 26.9107 11.5 29.0576 11.5 33.3513Z" stroke="#5C5F62" stroke-width="6" stroke-linecap="round" stroke-linejoin="round"/></svg>
