<?xml version="1.0" encoding="iso-8859-1"?>
<!-- Uploaded to: SVG Repo, www.svgrepo.com, Generator: SVG Repo Mixer Tools -->
<svg fill="#000000" height="800px" width="800px" version="1.1" id="Layer_1" xmlns="http://www.w3.org/2000/svg" xmlns:xlink="http://www.w3.org/1999/xlink" 
	 viewBox="0 0 512 512" xml:space="preserve">
<g>
	<g>
		<path d="M508.94,460.663L247.984,199.712l-59.07-59.07c-6.452-6.451-15.027-10.005-24.152-10.005
			c-9.116,0-17.685,3.555-24.125,10.003c-6.45,6.447-10.003,15.02-10.003,24.139c-0.001,9.119,3.551,17.693,10,24.141l59.07,59.069
			l260.956,260.95c2.041,2.041,4.715,3.06,7.388,3.06s5.348-1.021,7.388-3.06l33.503-33.5c1.959-1.959,3.06-4.617,3.06-7.388
			C512,465.279,510.899,462.623,508.94,460.663z M155.411,174.144c-2.501-2.501-3.879-5.827-3.879-9.363s1.377-6.86,3.886-9.366
			c2.498-2.501,5.816-3.879,9.352-3.879s6.862,1.379,9.366,3.884l51.681,51.68l-18.728,18.721L155.411,174.144z M468.049,486.775
			L221.866,240.598l14.51-14.506l4.217-4.215l246.18,246.175L468.049,486.775z"/>
	</g>
</g>
<g>
	<g>
		<path d="M120.778,106.011L96.609,81.842c-4.081-4.08-10.696-4.08-14.778,0c-4.08,4.08-4.08,10.697,0,14.777l24.17,24.168
			c2.041,2.041,4.715,3.061,7.388,3.061s5.348-1.021,7.388-3.061C124.858,116.707,124.858,110.091,120.778,106.011z"/>
	</g>
</g>
<g>
	<g>
		<path d="M77.471,62.706L65.067,50.302c-4.081-4.08-10.696-4.08-14.778,0c-4.08,4.08-4.08,10.697,0,14.777l12.405,12.404
			c2.041,2.041,4.715,3.061,7.388,3.061s5.348-1.021,7.388-3.061C81.551,73.402,81.551,66.786,77.471,62.706z"/>
	</g>
</g>
<g>
	<g>
		<path d="M89.233,161.26l-78.784-0.001C4.679,161.259,0,165.938,0,171.708c0,5.771,4.678,10.449,10.449,10.449l78.784,0.001
			c5.771,0,10.449-4.679,10.449-10.449C99.682,165.938,95.004,161.26,89.233,161.26z"/>
	</g>
</g>
<g>
	<g>
		<path d="M74.689,268.718c-4.08-4.08-10.695-4.08-14.777,0l-9.627,9.626c-4.08,4.08-4.08,10.697,0,14.777
			c2.041,2.041,4.715,3.06,7.388,3.06s5.348-1.021,7.388-3.06l9.627-9.626C78.77,279.415,78.77,272.798,74.689,268.718z"/>
	</g>
</g>
<g>
	<g>
		<path d="M120.77,222.637c-4.081-4.079-10.696-4.079-14.778,0.001l-27.489,27.489c-4.08,4.08-4.08,10.697,0,14.778
			c2.041,2.041,4.715,3.061,7.388,3.061s5.348-1.02,7.388-3.061l27.49-27.49C124.851,233.335,124.851,226.718,120.77,222.637z"/>
	</g>
</g>
<g>
	<g>
		<path d="M171.71,243.728c-5.77,0-10.449,4.678-10.449,10.449v78.787c0,5.771,4.679,10.449,10.449,10.449
			c5.77,0,10.449-4.678,10.449-10.449v-78.787C182.159,248.406,177.48,243.728,171.71,243.728z"/>
	</g>
</g>
<g>
	<g>
		<path d="M332.972,161.26h-78.789c-5.771,0-10.449,4.678-10.449,10.449c0,5.771,4.679,10.449,10.449,10.449h78.789
			c5.77,0,10.449-4.678,10.449-10.449C343.421,165.938,338.742,161.26,332.972,161.26z"/>
	</g>
</g>
<g>
	<g>
		<path d="M261.571,81.848c-4.08-4.08-10.695-4.08-14.778,0l-24.163,24.162c-4.08,4.08-4.08,10.697,0,14.777
			c2.042,2.041,4.715,3.06,7.39,3.06c2.674,0,5.348-1.021,7.388-3.06l24.163-24.162C265.652,92.545,265.652,85.929,261.571,81.848z"
			/>
	</g>
</g>
<g>
	<g>
		<path d="M293.119,50.302c-4.08-4.08-10.695-4.08-14.778,0l-12.403,12.403c-4.08,4.08-4.08,10.697,0,14.777
			c2.041,2.041,4.714,3.062,7.388,3.062c2.674,0,5.348-1.021,7.388-3.061l12.404-12.404
			C297.199,60.999,297.199,54.382,293.119,50.302z"/>
	</g>
</g>
<g>
	<g>
		<path d="M182.159,10.449c0-5.771-4.679-10.449-10.449-10.449c-5.771,0-10.449,4.679-10.449,10.449l0.001,78.782
			c0,5.771,4.679,10.449,10.449,10.449c5.771,0,10.449-4.679,10.449-10.449L182.159,10.449z"/>
	</g>
</g>
</svg>