<svg width="66" height="21" viewBox="0 0 66 21" fill="none" xmlns="http://www.w3.org/2000/svg">
<path d="M18.5494 0.207031C18.3485 0.207031 18.1075 0.287445 17.8665 0.367858L1.15554 8.08753C-0.772651 8.97208 -0.129922 11.8268 1.91878 11.8268H8.9888V18.9031C8.9888 20.1093 9.99306 20.7928 10.9572 20.7928C11.6401 20.7928 12.3631 20.4712 12.7247 19.667L20.4374 2.94108C20.9998 1.61426 19.875 0.207031 18.5494 0.207031ZM19.2725 2.4184L15.1041 11.1432L11.5597 19.1042C11.4392 19.3856 11.2384 19.5464 10.9572 19.5464C10.7161 19.5464 10.2743 19.3856 10.2743 18.9031V10.4999H1.92819C1.60682 10.4999 1.28546 10.1783 1.28546 9.85663C1.28546 9.53497 1.60682 9.21332 1.92819 9.21332L15.1041 11.1432L18.3485 1.57406C18.4289 1.53385 18.5092 1.49364 18.5494 1.49364C18.7904 1.49364 19.0314 1.65447 19.1921 1.89571C19.2725 2.01633 19.3528 2.21736 19.2725 2.4184Z" fill="white"/>
<path d="M28.6886 17.1853C27.9887 17.1853 27.3574 17.048 26.7947 16.7736C26.2458 16.4991 25.8135 16.1285 25.4978 15.6619C25.1822 15.1953 25.0243 14.6669 25.0243 14.0768C25.0243 13.3357 25.2096 12.7525 25.5801 12.327C25.9644 11.8879 26.5888 11.5791 27.4535 11.4007C28.3318 11.2085 29.512 11.1125 30.9942 11.1125H31.9617V12.3888H31.0148C30.0267 12.3888 29.2444 12.4368 28.668 12.5329C28.0916 12.629 27.6799 12.7936 27.4329 13.0269C27.1996 13.2465 27.0829 13.5553 27.0829 13.9533C27.0829 14.4748 27.2613 14.9002 27.6181 15.2296C27.975 15.5453 28.469 15.7031 29.1003 15.7031C29.6081 15.7031 30.0541 15.5864 30.4384 15.3531C30.8227 15.1061 31.1246 14.7767 31.3442 14.365C31.5775 13.9533 31.6941 13.4798 31.6941 12.9446V10.5772C31.6941 9.79497 31.5294 9.2323 31.2001 8.8892C30.8707 8.5461 30.3286 8.37456 29.5738 8.37456C29.1346 8.37456 28.6749 8.42945 28.1945 8.53924C27.7279 8.64903 27.2407 8.8343 26.7329 9.09506C26.4996 9.20485 26.3006 9.23916 26.136 9.19799C25.9713 9.15682 25.8409 9.06761 25.7448 8.93037C25.6488 8.77941 25.5939 8.62159 25.5801 8.4569C25.5801 8.27849 25.6213 8.10694 25.7037 7.94225C25.7997 7.77757 25.9576 7.65405 26.1771 7.57171C26.781 7.28351 27.378 7.07765 27.9681 6.95414C28.5582 6.83062 29.114 6.76886 29.6355 6.76886C30.555 6.76886 31.3099 6.91297 31.9 7.20117C32.5038 7.48937 32.9499 7.92853 33.2381 8.51866C33.5263 9.10878 33.6704 9.87046 33.6704 10.8037V16.0942C33.6704 16.4236 33.588 16.6844 33.4233 16.8765C33.2586 17.0549 33.0185 17.1441 32.7028 17.1441C32.4009 17.1441 32.1607 17.0549 31.9823 16.8765C31.8039 16.6844 31.7147 16.4236 31.7147 16.0942V14.7561H31.9C31.7902 15.2639 31.5843 15.7031 31.2824 16.0736C30.9942 16.4305 30.6305 16.7049 30.1914 16.8971C29.7522 17.0892 29.2513 17.1853 28.6886 17.1853ZM37.5633 17.1441C37.234 17.1441 36.9801 17.0549 36.8016 16.8765C36.6232 16.6844 36.534 16.4236 36.534 16.0942V3.3928C36.534 3.0497 36.6232 2.78895 36.8016 2.61054C36.9801 2.43213 37.234 2.34292 37.5633 2.34292C37.8927 2.34292 38.1466 2.43213 38.325 2.61054C38.5171 2.78895 38.6132 3.0497 38.6132 3.3928V11.3389H38.6544L42.5039 7.50995C42.7235 7.29037 42.9225 7.11882 43.1009 6.99531C43.2793 6.87179 43.5126 6.81004 43.8008 6.81004C44.089 6.81004 44.3086 6.88552 44.4596 7.03648C44.6105 7.18744 44.686 7.37271 44.686 7.5923C44.686 7.79815 44.5831 8.01087 44.3772 8.23046L40.3012 12.2653V11.2977L44.7478 15.7237C44.9673 15.9433 45.0703 16.1628 45.0565 16.3824C45.0428 16.602 44.9536 16.7873 44.7889 16.9382C44.6242 17.0755 44.4184 17.1441 44.1714 17.1441C43.8557 17.1441 43.6018 17.0823 43.4097 16.9588C43.2313 16.8353 43.0186 16.65 42.7715 16.403L38.6544 12.4094H38.6132V16.0942C38.6132 16.7941 38.2632 17.1441 37.5633 17.1441ZM51.149 17.1853C50.3255 17.1853 49.6325 17.0412 49.0698 16.753C48.5071 16.4648 48.0886 16.0393 47.8141 15.4767C47.5396 14.914 47.4024 14.2278 47.4024 13.4181V8.55983H46.1672C45.8927 8.55983 45.68 8.49121 45.5291 8.35397C45.3781 8.20301 45.3026 8.00401 45.3026 7.75698C45.3026 7.49623 45.3781 7.29723 45.5291 7.15999C45.68 7.02276 45.8927 6.95414 46.1672 6.95414H47.4024V4.8338C47.4024 4.4907 47.4916 4.22995 47.67 4.05154C47.8621 3.87313 48.1229 3.78393 48.4522 3.78393C48.7816 3.78393 49.0355 3.87313 49.2139 4.05154C49.3923 4.22995 49.4815 4.4907 49.4815 4.8338V6.95414H51.8901C52.1645 6.95414 52.3773 7.02276 52.5282 7.15999C52.6792 7.29723 52.7547 7.49623 52.7547 7.75698C52.7547 8.00401 52.6792 8.20301 52.5282 8.35397C52.3773 8.49121 52.1645 8.55983 51.8901 8.55983H49.4815V13.2534C49.4815 13.9808 49.6325 14.5297 49.9344 14.9002C50.2501 15.2708 50.7578 15.4561 51.4578 15.4561C51.7048 15.4561 51.9175 15.4355 52.0959 15.3943C52.2881 15.3394 52.4459 15.3051 52.5694 15.2914C52.7204 15.2914 52.8439 15.3463 52.9399 15.4561C53.036 15.5521 53.084 15.7443 53.084 16.0325C53.084 16.2383 53.0429 16.4305 52.9605 16.6089C52.8919 16.7873 52.7615 16.9039 52.5694 16.9588C52.4047 17.0137 52.1783 17.0618 51.8901 17.1029C51.6156 17.1578 51.3686 17.1853 51.149 17.1853ZM58.6494 17.1853C57.6339 17.1853 56.7555 16.9726 56.0145 16.5471C55.2871 16.1217 54.7176 15.5178 54.3058 14.7356C53.8941 13.9533 53.6883 13.0338 53.6883 11.9771C53.6883 11.1674 53.8049 10.4469 54.0382 9.81556C54.2715 9.18426 54.6009 8.64217 55.0263 8.18928C55.4655 7.72267 55.987 7.37271 56.5909 7.13941C57.2084 6.89238 57.8946 6.76886 58.6494 6.76886C59.6513 6.76886 60.5159 6.98158 61.2432 7.40702C61.9843 7.83246 62.5607 8.43631 62.9725 9.21857C63.3842 9.98711 63.59 10.9066 63.59 11.9771C63.59 12.7731 63.4734 13.4936 63.2401 14.1386C63.0068 14.7836 62.6705 15.3326 62.2314 15.7854C61.8059 16.2383 61.2844 16.5883 60.6668 16.8353C60.063 17.0686 59.3905 17.1853 58.6494 17.1853ZM58.6494 15.5796C59.2121 15.5796 59.7062 15.4423 60.1316 15.1679C60.5571 14.8934 60.8864 14.4885 61.1197 13.9533C61.3668 13.4181 61.4903 12.7593 61.4903 11.9771C61.4903 10.7968 61.2295 9.90477 60.708 9.30092C60.1865 8.69707 59.5003 8.39514 58.6494 8.39514C58.073 8.39514 57.5721 8.53238 57.1467 8.80686C56.7212 9.06761 56.385 9.4656 56.138 10.0008C55.9047 10.5361 55.788 11.1948 55.788 11.9771C55.788 13.1436 56.0488 14.0356 56.5703 14.6532C57.0918 15.2708 57.7848 15.5796 58.6494 15.5796Z" fill="white"/>
</svg>
