<?xml version="1.0" standalone="no"?>
<!DOCTYPE svg PUBLIC "-//W3C//DTD SVG 20010904//EN"
 "http://www.w3.org/TR/2001/REC-SVG-20010904/DTD/svg10.dtd">
<svg version="1.0" xmlns="http://www.w3.org/2000/svg"
 width="1024.000000pt" height="1024.000000pt" viewBox="0 0 1024.000000 1024.000000"
 preserveAspectRatio="xMidYMid meet">

<g transform="translate(0.000000,1024.000000) scale(0.100000,-0.100000)"
fill="#000000" stroke="none">
<path d="M6220 9886 c-170 -36 -402 -142 -600 -275 -187 -125 -299 -217 -470
-390 -361 -363 -616 -766 -975 -1536 -142 -305 -173 -335 -604 -579 -459 -261
-571 -363 -571 -520 0 -77 26 -132 91 -190 126 -113 456 -227 912 -316 46 -9
57 -15 57 -31 0 -31 -43 -144 -108 -285 -86 -184 -147 -336 -177 -438 -30
-107 -34 -269 -9 -381 9 -38 18 -97 21 -129 7 -78 -11 -111 -94 -172 -147
-108 -281 -286 -303 -405 -10 -49 -17 -60 -103 -144 -101 -99 -196 -220 -307
-392 -69 -108 -86 -128 -87 -100 0 6 -6 40 -13 73 -12 54 -11 77 5 178 36 230
-2 417 -103 508 -79 71 -176 76 -296 13 -45 -24 -72 -33 -79 -26 -6 6 -9 221
-8 593 1 321 -3 678 -9 793 -24 496 -24 487 -6 542 10 29 49 100 87 160 136
208 199 377 199 528 0 63 4 86 16 96 23 19 44 64 44 96 0 15 -14 112 -31 215
-17 104 -28 199 -25 214 4 14 63 85 133 157 137 144 163 179 163 218 0 60 -32
70 -365 124 -139 23 -163 30 -182 51 -13 14 -40 81 -63 152 -22 70 -49 142
-60 160 -24 38 -62 56 -109 48 -74 -12 -92 -38 -156 -236 -21 -63 -44 -115
-58 -128 -17 -16 -61 -27 -202 -51 -99 -17 -199 -36 -223 -42 -53 -15 -82 -49
-82 -100 0 -44 28 -84 154 -224 116 -128 126 -142 126 -184 0 -21 -14 -119
-30 -219 -16 -101 -30 -193 -30 -206 0 -37 30 -67 75 -73 35 -4 54 2 140 47
55 29 119 66 142 82 24 16 43 24 43 18 0 -27 -64 -173 -99 -226 -50 -76 -73
-100 -182 -185 -102 -81 -149 -137 -181 -217 -19 -50 -22 -75 -22 -197 0 -173
11 -219 104 -415 56 -116 72 -160 80 -220 10 -78 30 -822 30 -1113 l0 -169
-28 -27 c-21 -22 -50 -33 -120 -49 -123 -29 -246 -77 -288 -115 -51 -44 -70
-89 -88 -212 -22 -150 -29 -171 -81 -245 -55 -78 -58 -115 -19 -241 22 -73 24
-95 19 -169 -8 -106 2 -154 95 -435 74 -224 90 -296 71 -319 -22 -26 -69 -171
-90 -276 -83 -421 -117 -847 -108 -1393 7 -443 19 -508 100 -557 32 -20 85
-20 4073 -20 l4041 0 34 23 c53 35 64 68 63 177 -3 171 -88 752 -175 1200
-135 690 -315 1347 -463 1689 -83 192 -218 363 -358 454 -55 36 -56 38 -47 69
24 85 3 145 -80 231 -100 104 -409 302 -591 377 -83 35 -86 40 -93 133 -15
187 -67 311 -222 527 -103 144 -130 191 -169 294 -20 52 -76 274 -76 299 0 3
33 11 73 17 230 38 460 95 596 149 193 77 222 209 91 403 -133 195 -379 454
-632 666 -81 67 -155 135 -166 150 -38 56 -384 1148 -441 1392 -11 47 -23 93
-26 103 -15 38 -9 34 424 -216 273 -158 282 -162 327 -147 46 16 68 59 60 118
-11 79 -191 419 -353 666 -159 243 -282 394 -452 558 -144 140 -221 181 -349
185 -48 1 -116 -4 -152 -11z m215 -225 c60 -31 253 -220 349 -341 124 -158
375 -526 364 -535 -5 -4 -244 128 -278 154 -18 12 -93 116 -168 230 l-137 206
-5 -102 c-3 -56 -8 -104 -11 -108 -4 -3 -36 39 -72 93 -88 132 -144 202 -162
202 -23 0 -29 -48 -16 -115 7 -33 44 -172 83 -310 83 -297 153 -571 163 -640
l7 -50 -34 31 c-41 39 -157 124 -169 124 -17 0 -9 -22 80 -229 128 -297 301
-746 301 -781 0 -8 -6 -9 -17 -5 -165 71 -315 98 -387 71 -47 -18 -82 -49 -72
-65 3 -5 36 -19 73 -32 100 -33 444 -208 558 -284 153 -102 317 -239 455 -381
125 -129 187 -203 159 -191 -7 3 -63 28 -124 55 -390 176 -970 319 -1540 381
-709 78 -1273 62 -1979 -55 -82 -13 -151 -23 -153 -21 -9 10 183 125 336 202
236 118 400 174 676 230 130 27 396 59 565 70 135 8 180 20 180 45 0 104 -460
131 -910 54 -52 -9 -117 -22 -145 -29 -27 -7 -51 -12 -53 -10 -6 6 117 282
188 425 227 453 557 912 877 1220 272 263 600 466 828 514 76 16 127 10 190
-23z m-4209 -1583 c27 -84 52 -126 84 -143 16 -8 87 -25 157 -36 71 -11 135
-23 143 -25 9 -3 -23 -41 -99 -114 l-114 -109 6 -50 c3 -27 19 -81 36 -120 28
-66 59 -187 50 -196 -2 -2 -46 25 -97 60 -102 69 -166 91 -235 81 -45 -7 -58
-14 -161 -90 -37 -26 -69 -46 -72 -43 -9 8 26 127 63 216 44 109 41 132 -30
197 -110 100 -178 167 -174 170 2 2 57 11 121 20 65 8 139 23 164 32 50 18 61
34 109 150 12 28 24 52 27 52 2 0 12 -24 22 -52z m134 -939 c75 -75 94 -118
95 -210 0 -67 -4 -83 -38 -153 -21 -42 -81 -133 -132 -201 -51 -69 -96 -134
-100 -145 -3 -11 -10 -20 -14 -20 -7 0 4 156 14 197 3 12 1 31 -3 43 -8 20
-13 16 -71 -51 -87 -103 -121 -175 -121 -255 0 -76 28 -171 85 -284 83 -166
78 -114 83 -855 4 -676 1 -725 -35 -739 -23 -9 -51 2 -65 27 -9 16 -14 184
-19 617 -7 658 -7 650 -74 780 -106 207 -128 257 -143 330 -13 65 -14 90 -5
145 21 123 75 205 211 321 150 128 228 260 253 429 6 41 15 75 20 75 4 0 31
-23 59 -51z m2990 -269 c344 -19 597 -51 795 -99 97 -24 123 -34 140 -56 54
-66 90 -266 81 -442 -9 -179 -55 -324 -141 -443 -54 -75 -82 -139 -139 -326
-30 -97 -59 -181 -64 -186 -5 -5 -44 28 -93 78 -118 121 -240 217 -336 264
-67 33 -86 48 -106 83 -27 44 -113 117 -140 117 -12 0 -17 -13 -19 -57 l-3
-58 -63 -7 c-40 -4 -82 -17 -116 -36 l-54 -29 -69 33 c-37 19 -81 34 -97 34
-23 0 -27 3 -21 18 85 195 124 358 132 547 5 125 -8 340 -22 354 -3 2 -20 -9
-38 -26 -68 -65 -88 -66 -269 -17 -164 45 -216 42 -380 -21 -15 -6 -16 -2 -12
32 10 74 44 169 66 190 20 18 47 23 198 37 291 27 499 31 770 16z m1298 -357
c111 -52 184 -144 217 -270 22 -84 19 -233 -5 -233 -14 0 -71 84 -77 113 -3
15 -9 27 -13 27 -4 0 -20 -42 -35 -92 -25 -79 -29 -109 -28 -201 l0 -108 -28
27 c-16 15 -32 25 -35 21 -4 -3 -13 -32 -22 -64 -12 -46 -16 -152 -22 -518 -3
-253 -7 -462 -9 -465 -1 -3 -20 54 -42 125 -112 361 -121 386 -133 375 -2 -3
-16 -118 -30 -255 -41 -394 -84 -560 -212 -811 -113 -223 -109 -222 -109 -25
0 172 -10 281 -25 281 -5 0 -15 -19 -21 -42 -98 -356 -208 -573 -378 -750 -77
-82 -97 -94 -81 -54 16 43 40 288 39 406 0 113 -1 114 -16 80 -66 -148 -142
-296 -187 -364 -112 -172 -260 -333 -383 -416 l-74 -50 -19 46 c-11 25 -20 48
-20 51 0 2 -38 96 -85 209 -100 240 -154 393 -199 564 l-33 125 -13 -45 c-25
-92 -40 -230 -40 -380 l0 -155 -24 35 c-33 50 -111 248 -140 360 -32 122 -63
302 -72 418 -4 50 -10 89 -14 87 -16 -10 -73 -144 -93 -218 -24 -89 -30 -89
-66 9 -60 158 -63 283 -16 664 34 277 39 330 31 330 -4 0 -21 -17 -39 -37 -61
-72 -130 -143 -134 -139 -14 13 76 306 157 511 77 194 100 242 109 225 16 -31
32 -199 41 -434 6 -132 16 -288 24 -346 17 -121 72 -370 84 -382 5 -5 12 25
16 69 16 190 92 383 206 520 93 112 248 213 327 213 54 0 133 -74 133 -125 0
-15 -34 -113 -46 -133 -1 -2 -35 -10 -76 -18 -153 -31 -295 -127 -357 -243
-38 -71 -71 -195 -71 -264 0 -76 21 -187 31 -162 151 386 305 518 605 518 163
-1 267 -40 379 -144 75 -70 142 -166 187 -268 17 -39 35 -68 41 -64 15 9 1
196 -21 279 -26 98 -66 166 -134 229 -93 86 -184 121 -388 150 -30 4 -37 11
-49 42 -7 21 -15 57 -18 79 -4 35 -1 46 24 73 60 67 231 69 359 3 79 -40 193
-141 256 -225 101 -136 148 -261 200 -538 19 -99 37 -168 43 -166 19 5 54 91
70 170 8 43 18 142 22 220 6 137 8 144 41 207 19 36 66 146 104 245 76 197
102 250 175 346 111 147 138 258 138 562 0 119 4 217 8 217 5 0 34 -12 65 -27z
m-2085 -59 c20 -4 37 -10 37 -14 0 -4 -29 -20 -65 -35 -80 -35 -116 -65 -108
-94 3 -11 15 -23 27 -27 78 -25 145 -103 151 -175 1 -24 8 -45 14 -47 12 -4
127 36 157 55 35 22 72 84 84 141 13 59 33 71 25 15 -21 -162 -30 -208 -52
-278 -32 -102 -110 -254 -169 -328 -43 -55 -98 -92 -118 -80 -16 11 -115 228
-146 323 -90 273 -114 491 -59 520 44 24 151 35 222 24z m2394 -926 c6 -13 46
-72 90 -133 44 -60 113 -157 155 -215 41 -58 98 -145 126 -195 48 -86 100
-220 89 -231 -10 -11 -98 9 -121 27 -26 20 -151 242 -220 390 -37 79 -146 359
-146 374 0 14 18 2 27 -17z m635 -1158 c96 -21 290 -98 282 -112 -3 -4 -21 -8
-40 -8 -75 0 -310 -59 -531 -133 -203 -69 -399 -156 -743 -331 -393 -199 -492
-248 -496 -244 -2 2 44 39 102 82 58 43 145 110 192 150 523 434 677 546 809
590 43 14 92 27 108 30 57 9 230 -4 317 -24z m-5381 -168 c71 -37 99 -78 92
-135 -3 -23 -9 -45 -12 -49 -4 -4 -46 -3 -95 3 -197 24 -463 -38 -572 -133
-35 -31 -44 -57 -21 -60 6 0 113 -2 237 -4 319 -3 432 -30 532 -125 36 -34 40
-42 34 -71 -12 -61 -19 -62 -162 -38 -262 45 -549 -3 -599 -100 -15 -29 -15
-30 15 -45 21 -11 84 -18 212 -25 101 -6 219 -15 262 -21 160 -21 247 -77 261
-165 3 -25 4 -49 0 -52 -3 -3 -18 2 -34 11 -16 9 -62 24 -102 32 -62 13 -95
14 -201 5 -187 -16 -307 -50 -352 -99 -18 -20 -18 -23 -3 -38 20 -20 135 -39
326 -53 155 -12 261 -31 298 -56 17 -10 23 -24 23 -49 0 -42 -20 -55 -87 -55
-78 0 -415 -38 -457 -52 -59 -19 -63 -40 -22 -131 20 -42 33 -77 30 -77 -14 0
-94 62 -130 102 -63 68 -90 122 -144 286 -27 83 -61 181 -75 217 -29 79 -31
105 -9 183 16 57 16 58 -15 151 -37 113 -38 137 -7 204 14 29 28 77 31 107 19
168 39 209 119 246 62 28 261 80 376 98 141 22 190 20 251 -12z m443 -4 c21
-33 44 -122 51 -199 l7 -67 -73 -43 c-41 -23 -82 -49 -91 -57 -16 -13 -19 -12
-28 12 -40 105 -38 185 6 273 26 52 78 103 105 103 5 0 15 -10 23 -22z m1281
-253 c29 -33 71 -88 94 -121 39 -59 135 -253 128 -260 -7 -7 -132 103 -198
173 -91 97 -162 209 -209 331 -22 56 -40 106 -40 110 1 8 143 -140 225 -233z
m4065 -20 c90 -24 233 -93 306 -148 141 -107 240 -243 313 -432 53 -135 152
-453 206 -660 147 -566 365 -1735 365 -1960 0 -53 0 -54 -32 -57 -18 -2 -617
-2 -1332 0 -1265 2 -1298 3 -1275 21 27 20 223 144 374 234 160 97 378 204
473 233 146 46 284 34 527 -43 116 -37 315 -127 416 -188 73 -45 94 -41 86 15
-8 59 -43 125 -96 179 -82 84 -267 179 -414 211 -31 7 -55 15 -53 18 16 16
191 35 326 36 128 0 174 -4 260 -23 196 -44 210 -44 210 4 0 33 -54 111 -100
144 -58 42 -170 86 -270 106 -117 24 -317 17 -410 -15 -60 -21 -163 -71 -185
-91 -26 -25 -20 -2 17 59 118 192 207 456 237 702 12 95 14 334 3 395 -8 39
-8 38 -61 -105 -101 -273 -209 -506 -366 -785 -43 -77 -85 -152 -93 -167 -7
-16 -16 -28 -19 -28 -11 0 7 366 27 545 25 220 73 509 140 839 52 260 62 366
35 366 -22 0 -95 -104 -153 -217 -104 -204 -196 -508 -282 -935 -28 -138 -54
-258 -58 -265 -4 -7 -23 97 -41 231 -19 134 -37 249 -41 255 -18 31 -83 -312
-104 -554 -17 -189 -26 -318 -32 -463 l-7 -163 -71 -36 c-195 -98 -432 -241
-636 -383 -207 -145 -118 -130 -780 -130 -313 0 -570 3 -570 8 0 4 7 84 15
177 48 540 127 902 255 1154 48 95 165 263 217 312 32 30 110 77 234 141 306
158 551 330 745 523 132 132 221 235 202 235 -23 0 -265 -122 -584 -295 -621
-338 -695 -385 -857 -547 -49 -49 -86 -80 -83 -71 2 10 12 56 21 101 31 157
91 291 154 344 20 16 115 70 211 119 322 165 506 264 1040 554 589 321 908
458 1181 510 96 19 319 13 409 -10z m-4432 -101 c26 -37 73 -102 105 -145 119
-161 420 -379 633 -461 79 -30 83 -32 105 -82 39 -83 131 -196 229 -281 50
-44 98 -92 106 -107 8 -15 14 -51 14 -80 0 -65 -18 -240 -25 -247 -13 -12
-316 308 -530 559 -49 58 -93 110 -98 115 -18 19 3 -91 34 -186 50 -151 85
-210 264 -454 48 -66 94 -136 103 -155 11 -27 18 -119 28 -395 13 -332 35
-838 50 -1122 l7 -118 -374 2 -374 2 -18 93 c-52 272 -102 519 -133 646 -19
79 -34 155 -34 168 0 13 -4 24 -9 24 -9 0 -55 -278 -72 -440 -15 -144 -15
-353 0 -423 7 -32 11 -60 9 -62 -1 -1 -37 -4 -78 -6 l-75 -4 -7 80 c-31 374
-35 1092 -8 1560 15 263 59 921 66 988 6 62 -5 75 -26 30 -56 -124 -149 -414
-226 -712 -25 -97 -49 -180 -54 -184 -15 -16 -207 261 -261 377 -30 63 -30 63
-13 112 24 72 191 412 263 539 35 61 90 148 122 195 68 99 194 240 215 240 8
0 36 -30 62 -66z m-904 -286 c-21 -107 -54 -203 -87 -259 l-27 -44 0 54 c0 90
45 259 88 326 34 54 37 57 40 32 2 -15 -4 -64 -14 -109z m-504 -1883 l0 -985
-32 -1 c-18 0 -43 -2 -55 -5 l-23 -4 0 983 c0 541 3 987 7 990 3 4 28 7 55 7
l48 0 0 -985z m364 949 c10 -25 7 -339 -4 -480 -6 -71 -17 -167 -26 -214 -15
-87 -69 -299 -84 -335 -5 -11 -9 179 -9 448 -1 326 2 475 10 490 13 25 90 107
100 107 4 0 10 -7 13 -16z m334 -204 c132 -252 173 -497 171 -1025 l-1 -230
-44 175 c-25 96 -48 186 -51 200 -2 14 -7 32 -10 40 -8 24 -21 -20 -44 -149
-32 -182 -107 -557 -132 -655 l-22 -89 -93 -1 c-79 -2 -91 0 -87 14 16 51 111
460 139 599 76 370 99 590 100 968 1 155 4 279 7 275 4 -4 34 -59 67 -122z
m-1279 -814 c21 -275 57 -539 107 -784 13 -67 23 -126 20 -130 -2 -4 -51 -7
-108 -7 l-103 0 -11 70 c-57 343 -40 1021 36 1530 31 203 35 188 41 -180 4
-192 12 -417 18 -499z"/>
<path d="M5752 9093 c-53 -109 -59 -118 -87 -121 -43 -3 -148 -23 -159 -29 -4
-3 24 -38 64 -78 l72 -72 -22 -101 c-30 -138 -28 -140 45 -96 33 20 81 47 106
61 l47 24 97 -56 c53 -31 99 -54 101 -52 2 2 -3 52 -12 111 l-15 107 72 67 72
66 -29 12 c-16 7 -58 18 -94 25 -36 6 -70 16 -76 21 -7 4 -33 58 -59 118 -26
61 -52 110 -57 110 -5 0 -34 -53 -66 -117z"/>
<path d="M5193 8503 c-11 -15 -39 -64 -63 -108 -56 -104 -53 -102 -106 -110
-54 -8 -133 -31 -154 -45 -12 -8 0 -24 64 -83 l79 -73 -17 -139 c-9 -81 -13
-142 -7 -148 5 -5 54 19 119 58 l110 66 112 -56 c62 -31 114 -54 117 -51 3 3
0 54 -6 113 -17 165 -20 154 60 235 82 84 82 85 -38 112 -43 10 -86 21 -96 24
-10 4 -44 57 -75 116 -31 60 -62 111 -68 113 -7 2 -21 -9 -31 -24z"/>
<path d="M6121 8087 c-21 -46 -44 -86 -52 -89 -8 -3 -48 -11 -89 -18 -41 -7
-77 -15 -79 -17 -3 -2 23 -32 56 -66 l61 -62 -15 -93 c-8 -52 -13 -96 -10 -99
3 -2 42 17 87 43 46 26 88 47 95 47 6 0 47 -21 89 -48 42 -26 79 -46 81 -43 2
2 -2 35 -10 73 -23 107 -22 113 42 177 31 32 54 60 51 63 -3 3 -42 12 -88 20
-46 8 -84 16 -84 17 -1 2 -20 42 -41 90 -22 48 -43 87 -48 88 -4 0 -25 -38
-46 -83z"/>
<path d="M5675 6669 c-44 -17 -135 -50 -203 -74 l-122 -44 -15 29 c-22 43 -64
73 -82 58 -48 -40 -64 -174 -27 -225 27 -38 98 -72 170 -81 l59 -7 25 -76 c14
-41 35 -88 47 -105 19 -27 96 -74 121 -74 5 0 28 33 50 73 48 87 63 102 139
132 39 16 59 30 61 43 5 30 -51 86 -123 123 l-65 34 48 17 c96 34 194 17 299
-51 l61 -39 5 27 c3 15 1 46 -4 70 -38 171 -238 247 -444 170z"/>
<path d="M5008 4966 c-55 -15 -101 -43 -95 -59 4 -14 157 -56 208 -56 37 -1
110 18 174 45 49 20 35 37 -52 64 -73 23 -165 25 -235 6z"/>
<path d="M4842 4561 c-60 -99 -31 -414 54 -586 l34 -70 -5 55 c-3 30 -12 108
-20 173 -8 65 -18 187 -21 270 -4 84 -10 161 -14 172 -7 18 -9 17 -28 -14z"/>
<path d="M2161 9181 c-32 -24 -50 -122 -51 -269 0 -155 22 -202 95 -202 67 0
96 48 103 171 2 47 1 126 -3 174 -6 79 -10 92 -35 117 -33 33 -74 36 -109 9z"/>
<path d="M1252 8823 c-34 -29 -36 -64 -8 -106 36 -53 195 -235 249 -284 36
-33 55 -43 80 -43 61 0 89 57 58 117 -21 43 -270 317 -296 327 -29 11 -62 6
-83 -11z"/>
<path d="M3093 8830 c-26 -10 -74 -58 -184 -180 -134 -149 -151 -188 -104
-235 46 -47 96 -30 177 60 204 227 218 246 218 295 0 60 -45 85 -107 60z"/>
<path d="M809 7871 c-44 -44 -39 -100 12 -126 41 -22 368 -21 409 0 66 34 67
109 3 143 -14 8 -86 12 -208 12 l-187 0 -29 -29z"/>
<path d="M3150 7887 c-40 -20 -56 -58 -41 -95 23 -54 56 -62 264 -62 171 0
186 1 211 21 41 33 49 53 32 93 -8 19 -23 39 -34 45 -30 16 -400 14 -432 -2z"/>
</g>
</svg>
