<svg width="131" height="44" viewBox="0 0 131 44" fill="none" xmlns="http://www.w3.org/2000/svg">
<path d="M38.0194 0.904297C37.6077 0.904297 37.1137 1.06911 36.6197 1.23393L2.36842 17.0564C-1.58365 18.8694 -0.266291 24.7204 3.93279 24.7204H18.4237V39.2243C18.4237 41.6966 20.4821 43.0975 22.4581 43.0975C23.8578 43.0975 25.3398 42.4383 26.0809 40.7901L41.8891 6.50809C43.0418 3.7886 40.7365 0.904297 38.0194 0.904297ZM39.5014 5.43678L30.9579 23.3195L23.6931 39.6364C23.4461 40.2132 23.0345 40.5429 22.4581 40.5429C21.9641 40.5429 21.0584 40.2132 21.0584 39.2243V22.0009H3.95207C3.29339 22.0009 2.63472 21.3417 2.63472 20.6824C2.63472 20.0231 3.29339 19.3638 3.95207 19.3638L30.9579 23.3195L37.6077 3.70619C37.7724 3.62378 37.9371 3.54138 38.0194 3.54138C38.5134 3.54138 39.0074 3.87101 39.3368 4.36546C39.5014 4.61269 39.6661 5.02473 39.5014 5.43678Z" fill="url(#paint0_linear_5722_30067)"/>
<path d="M59.7318 35.2787C58.3689 35.2787 57.1397 35.0115 56.0441 34.477C54.9752 33.9426 54.1334 33.2211 53.5188 32.3125C52.9042 31.404 52.5969 30.3752 52.5969 29.2261C52.5969 27.7831 52.9577 26.6474 53.6792 25.819C54.4274 24.9639 55.6433 24.3626 57.3268 24.0152C59.037 23.6411 61.3351 23.4541 64.2211 23.4541H66.1051V25.9392H64.2612C62.3372 25.9392 60.814 26.0328 59.6917 26.2198C58.5694 26.4069 57.7677 26.7276 57.2867 27.1818C56.8324 27.6094 56.6053 28.2106 56.6053 28.9856C56.6053 30.001 56.9527 30.8294 57.6474 31.4708C58.3422 32.0854 59.3042 32.3927 60.5335 32.3927C61.5222 32.3927 62.3907 32.1656 63.1389 31.7113C63.8871 31.2303 64.475 30.5889 64.9026 29.7873C65.3569 28.9856 65.584 28.0637 65.584 27.0215V22.4119C65.584 20.8887 65.2633 19.7931 64.622 19.125C63.9806 18.457 62.9251 18.1229 61.4554 18.1229C60.6003 18.1229 59.7051 18.2298 58.7698 18.4436C57.8612 18.6574 56.9126 19.0181 55.9238 19.5259C55.4696 19.7396 55.0821 19.8065 54.7614 19.7263C54.4408 19.6461 54.1869 19.4724 53.9998 19.2052C53.8128 18.9113 53.7059 18.6039 53.6792 18.2833C53.6792 17.9359 53.7593 17.6019 53.9197 17.2812C54.1067 16.9605 54.414 16.72 54.8416 16.5597C56.0174 15.9985 57.1798 15.5977 58.3289 15.3572C59.4779 15.1167 60.5602 14.9964 61.5756 14.9964C63.366 14.9964 64.8358 15.277 65.9848 15.8382C67.1606 16.3994 68.0291 17.2545 68.5903 18.4035C69.1514 19.5526 69.432 21.0357 69.432 22.8528V33.1543C69.432 33.7956 69.2717 34.3034 68.951 34.6775C68.6303 35.0249 68.1627 35.1986 67.5481 35.1986C66.9602 35.1986 66.4926 35.0249 66.1452 34.6775C65.7978 34.3034 65.6241 33.7956 65.6241 33.1543V30.5489H65.9848C65.771 31.5376 65.3702 32.3927 64.7823 33.1142C64.2211 33.809 63.513 34.3434 62.6579 34.7176C61.8028 35.0917 60.8274 35.2787 59.7318 35.2787ZM77.0122 35.1986C76.3709 35.1986 75.8765 35.0249 75.5291 34.6775C75.1817 34.3034 75.008 33.7956 75.008 33.1543V8.42272C75.008 7.75466 75.1817 7.24693 75.5291 6.89954C75.8765 6.55215 76.3709 6.37845 77.0122 6.37845C77.6535 6.37845 78.1479 6.55215 78.4953 6.89954C78.8694 7.24693 79.0565 7.75466 79.0565 8.42272V23.895H79.1366L86.6323 16.4394C87.0598 16.0119 87.4473 15.6778 87.7947 15.4373C88.1421 15.1968 88.5964 15.0766 89.1575 15.0766C89.7187 15.0766 90.1463 15.2236 90.4402 15.5175C90.7341 15.8115 90.8811 16.1722 90.8811 16.5998C90.8811 17.0006 90.6807 17.4148 90.2799 17.8424L82.3433 25.6987V23.8148L91.0014 32.4328C91.4289 32.8603 91.6293 33.2879 91.6026 33.7155C91.5759 34.143 91.4022 34.5038 91.0815 34.7977C90.7609 35.0649 90.36 35.1986 89.879 35.1986C89.2644 35.1986 88.7701 35.0783 88.3959 34.8378C88.0485 34.5973 87.6343 34.2365 87.1533 33.7555L79.1366 25.9793H79.0565V33.1543C79.0565 34.5171 78.375 35.1986 77.0122 35.1986ZM103.465 35.2787C101.862 35.2787 100.513 34.9981 99.417 34.437C98.3214 33.8758 97.5064 33.0474 96.9719 31.9518C96.4375 30.8562 96.1703 29.52 96.1703 27.9434V18.4837H93.7653C93.2308 18.4837 92.8166 18.3501 92.5227 18.0829C92.2287 17.7889 92.0817 17.4014 92.0817 16.9204C92.0817 16.4127 92.2287 16.0252 92.5227 15.758C92.8166 15.4908 93.2308 15.3572 93.7653 15.3572H96.1703V11.2286C96.1703 10.5605 96.344 10.0528 96.6914 9.70539C97.0655 9.358 97.5732 9.1843 98.2145 9.1843C98.8559 9.1843 99.3502 9.358 99.6976 9.70539C100.045 10.0528 100.219 10.5605 100.219 11.2286V15.3572H104.908C105.443 15.3572 105.857 15.4908 106.151 15.758C106.445 16.0252 106.592 16.4127 106.592 16.9204C106.592 17.4014 106.445 17.7889 106.151 18.0829C105.857 18.3501 105.443 18.4837 104.908 18.4837H100.219V27.6228C100.219 29.039 100.513 30.1079 101.101 30.8294C101.715 31.5509 102.704 31.9117 104.067 31.9117C104.548 31.9117 104.962 31.8716 105.309 31.7914C105.683 31.6846 105.991 31.6178 106.231 31.591C106.525 31.591 106.766 31.6979 106.953 31.9117C107.14 32.0988 107.233 32.4729 107.233 33.034C107.233 33.4349 107.153 33.809 106.993 34.1564C106.859 34.5038 106.605 34.7309 106.231 34.8378C105.911 34.9447 105.47 35.0382 104.908 35.1184C104.374 35.2253 103.893 35.2787 103.465 35.2787ZM118.07 35.2787C116.093 35.2787 114.382 34.8645 112.939 34.0361C111.523 33.2077 110.414 32.032 109.612 30.5088C108.811 28.9856 108.41 27.1952 108.41 25.1376C108.41 23.561 108.637 22.158 109.091 20.9288C109.546 19.6996 110.187 18.644 111.015 17.7622C111.87 16.8536 112.886 16.1722 114.062 15.7179C115.264 15.2369 116.6 14.9964 118.07 14.9964C120.021 14.9964 121.704 15.4106 123.121 16.239C124.564 17.0674 125.686 18.2432 126.488 19.7664C127.289 21.2628 127.69 23.0532 127.69 25.1376C127.69 26.6875 127.463 28.0904 127.009 29.3463C126.554 30.6023 125.9 31.6712 125.045 32.553C124.216 33.4349 123.201 34.1163 121.998 34.5973C120.822 35.0516 119.513 35.2787 118.07 35.2787ZM118.07 32.1522C119.166 32.1522 120.128 31.885 120.956 31.3505C121.784 30.8161 122.426 30.0278 122.88 28.9856C123.361 27.9434 123.602 26.6607 123.602 25.1376C123.602 22.8394 123.094 21.1025 122.078 19.9267C121.063 18.7509 119.727 18.163 118.07 18.163C116.948 18.163 115.972 18.4303 115.144 18.9647C114.316 19.4724 113.661 20.2474 113.18 21.2895C112.726 22.3317 112.498 23.6144 112.498 25.1376C112.498 27.409 113.006 29.1459 114.022 30.3484C115.037 31.5509 116.386 32.1522 118.07 32.1522Z" fill="#6200EA"/>
<defs>
<linearGradient id="paint0_linear_5722_30067" x1="42.1933" y1="0.904299" x2="8.35075" y2="35.1863" gradientUnits="userSpaceOnUse">
<stop stop-color="#D500F9"/>
<stop offset="0.5" stop-color="#6200EA"/>
<stop offset="1" stop-color="#2E006D"/>
</linearGradient>
</defs>
</svg>
