<svg version="1.0" xmlns="http://www.w3.org/2000/svg"
 width="32.000000pt" height="32.000000pt" viewBox="0 0 32.000000 32.000000"
 preserveAspectRatio="xMidYMid meet">

<g transform="translate(0.000000,32.000000) scale(0.100000,-0.100000)"
fill="#000000" stroke="none">
<path d="M108 309 c-31 -18 -20 -30 21 -23 50 8 112 -11 104 -32 -4 -12 1 -15
23 -12 23 2 29 8 29 28 0 14 -5 24 -12 23 -6 -2 -28 4 -47 12 -41 17 -93 19
-118 4z"/>
<path d="M24 271 c3 -5 -1 -25 -9 -45 -17 -41 -19 -89 -5 -117 19 -34 30 -21
23 26 -7 52 11 107 33 98 10 -4 14 3 14 21 0 22 -4 26 -31 26 -16 0 -28 -4
-25 -9z"/>
<path d="M140 229 c0 -6 -6 -9 -14 -6 -18 7 -36 -11 -29 -29 3 -8 0 -14 -6
-14 -6 0 -11 -9 -11 -20 0 -11 5 -20 11 -20 6 0 9 -6 6 -14 -7 -18 11 -36 29
-29 8 3 14 0 14 -6 0 -6 9 -11 20 -11 11 0 20 5 20 11 0 6 6 9 14 6 18 -7 36
11 29 29 -3 8 0 14 6 14 6 0 11 9 11 20 0 11 -5 20 -11 20 -6 0 -9 6 -6 14 7
18 -11 36 -29 29 -8 -3 -14 0 -14 6 0 6 -9 11 -20 11 -11 0 -20 -5 -20 -11z
m50 -44 c26 -32 -13 -81 -47 -59 -23 14 -28 41 -13 59 16 19 44 19 60 0z"/>
<path d="M134 176 c-10 -26 4 -48 28 -44 17 2 23 10 23 28 0 18 -6 26 -23 28
-13 2 -25 -3 -28 -12z"/>
<path d="M286 191 c8 -50 -11 -112 -32 -104 -12 4 -15 -1 -12 -23 2 -23 8 -29
28 -29 14 0 24 5 23 12 -2 6 4 28 12 47 17 41 19 89 5 117 -18 32 -31 22 -24
-20z"/>
<path d="M34 65 c-8 -19 3 -48 15 -41 5 3 25 -1 45 -9 41 -17 89 -19 117 -5
32 18 22 31 -20 24 -49 -8 -112 11 -104 32 4 10 -2 14 -21 14 -15 0 -29 -7
-32 -15z"/>
</g>
</svg>