<svg width="17" height="13" viewBox="0 0 17 13" fill="none" xmlns="http://www.w3.org/2000/svg">
<path d="M9.5 0.25H8V1.75H9.5V0.25Z" fill="#0db7ed"/>
<path d="M3.5 2.5H5V4H3.5V2.5Z" fill="#0db7ed"/>
<path d="M0.50116 7.70606C0.629328 9.88203 1.9252 13 6.49999 13C11.6 13 13.875 9.25002 14.375 7.37502C15 7.37502 16.4 7.00002 17 5.50002C16.625 5.125 15.125 5.125 14.375 5.50002C14.375 4.90002 14 3.625 13.25 3.25C12.75 3.75 11.975 5.05 12.875 6.25C12.5 6.99998 11.5 6.99999 11 7H1.20717C0.810067 7 0.477811 7.30964 0.50116 7.70606Z" fill="#0db7ed"/>
<path d="M2.75 4.75H1.25V6.25H2.75V4.75Z" fill="#0db7ed"/>
<path d="M3.5 4.75H5V6.25H3.5V4.75Z" fill="#0db7ed"/>
<path d="M7.25 4.75H5.75V6.25H7.25V4.75Z" fill="#0db7ed"/>
<path d="M8 4.75H9.5V6.25H8V4.75Z" fill="#0db7ed"/>
<path d="M11.75 4.75H10.25V6.25H11.75V4.75Z" fill="#0db7ed"/>
<path d="M7.25 2.5H5.75V4H7.25V2.5Z" fill="#0db7ed"/>
<path d="M8 2.5H9.5V4H8V2.5Z" fill="#0db7ed"/>
</svg>
