<svg width="144" height="144" viewBox="0 0 64 64" fill="none" xmlns="http://www.w3.org/2000/svg">
    <path d="M57.7207 0C57.0957 0 56.3457 0.25 55.5957 0.5L3.59572 24.5C-2.40428 27.25 -0.404281 36.125 5.97072 36.125H27.9707V58.125C27.9707 61.875 31.0957 64 34.0957 64C36.2207 64 38.4707 63 39.5957 60.5L63.5957 8.5C65.3457 4.375 61.8457 0 57.7207 0ZM59.9707 6.875L47 34L35.9707 58.75C35.5957 59.625 34.9707 60.125 34.0957 60.125C33.3457 60.125 31.9707 59.625 31.9707 58.125V32H6C5 32 4 31 4 30C4 29 5 28 6 28L47 34L57.0957 4.25C57.3457 4.125 57.5957 4 57.7207 4C58.4707 4 59.2207 4.5 59.7207 5.25C59.9707 5.625 60.2207 6.25 59.9707 6.875Z" fill="url(#paint0_linear)"/>
    <defs>
        <linearGradient id="paint0_linear" x1="48" y1="8" x2="9.5" y2="47" gradientUnits="userSpaceOnUse">
            <stop stop-color="#D500F9"/>
            <stop offset="0.5" stop-color="#6200EA"/>
            <stop offset="1" stop-color="#2E006D"/>
        </linearGradient>
    </defs>
</svg>
