<svg width="18" height="18" viewBox="0 0 18 18" fill="none" xmlns="http://www.w3.org/2000/svg">
<path d="M11.4547 5.76237L12.0313 5.77221L13.5978 4.20565L13.6738 3.5419C12.4312 2.4349 10.7907 1.76074 8.99799 1.76074C5.75237 1.76074 3.01299 3.96912 2.20215 6.96049C2.37315 6.84124 2.73877 6.93068 2.73877 6.93068L5.86909 6.41599C5.86909 6.41599 6.02996 6.14965 6.11152 6.16287C6.47755 5.76073 6.92356 5.4395 7.42096 5.21976C7.91836 5.00002 8.45618 4.88663 8.99996 4.88684C9.92809 4.8888 10.7831 5.21674 11.4547 5.75927V5.76237Z" fill="#EA4335"/>
<path d="M15.7977 6.96677C15.434 5.62521 14.6845 4.44059 13.6729 3.54199L11.4546 5.76021C12.3434 6.4774 12.9135 7.57484 12.9135 8.80334V9.19484C13.9926 9.19484 14.8693 10.0735 14.8693 11.1506C14.8693 12.2298 13.9907 13.1065 12.9135 13.1065H9.00185L8.61035 13.5002V15.8475L9.00185 16.2371H12.9135C14.2619 16.2352 15.5545 15.6987 16.508 14.7453C17.4614 13.7919 17.9979 12.4993 17.9999 11.1509C17.9979 9.41984 17.128 7.88815 15.7977 6.96677Z" fill="#4285F4"/>
<path d="M5.0864 16.2397H8.99578V13.1066H5.0864C4.80865 13.1066 4.53414 13.047 4.28146 12.9316L3.717 13.1046L2.15043 14.6712L2.01318 15.1999C2.896 15.8734 3.97574 16.238 5.08612 16.2375L5.0864 16.2397Z" fill="#34A853"/>
<path d="M5.08641 6.06641C3.73803 6.06827 2.4454 6.60471 1.49193 7.55814C0.538452 8.51156 0.00193455 9.80415 0 11.1525C0 12.8043 0.791156 14.273 2.01544 15.2034L4.28344 12.9354C3.94015 12.7806 3.64879 12.53 3.44431 12.2138C3.23983 11.8976 3.13091 11.5291 3.13059 11.1525C3.13059 10.0734 4.00922 9.19672 5.08641 9.19672C5.87953 9.19672 6.56128 9.67484 6.86953 10.3498L9.13753 8.08184C8.20744 6.85756 6.73847 6.06641 5.08669 6.06641H5.08641Z" fill="#FBBC05"/>
</svg>
