<svg width="24" height="24" viewBox="0 0 24 24" fill="none" xmlns="http://www.w3.org/2000/svg">
<path d="M11.9168 0.00205266C11.7046 0.0127406 11.4968 0.0653454 11.3054 0.156781L2.96178 4.14344C2.74583 4.24658 2.55608 4.39664 2.40663 4.58248C2.25718 4.76833 2.15186 4.98519 2.0985 5.21694L0.0400853 14.172C-0.0074466 14.3783 -0.0127661 14.592 0.0244417 14.8004C0.0616495 15.0088 0.140628 15.2077 0.256705 15.3853C0.28485 15.4287 0.315121 15.4707 0.347407 15.5112L6.1225 22.6917C6.27199 22.8775 6.46175 23.0275 6.67771 23.1306C6.89367 23.2337 7.13026 23.2872 7.36993 23.2871L16.6312 23.285C16.8708 23.2852 17.1073 23.2318 17.3233 23.1289C17.5392 23.026 17.729 22.8762 17.8786 22.6906L23.6516 15.5091C23.8012 15.3232 23.9066 15.1062 23.9599 14.8744C24.0133 14.6425 24.0133 14.4017 23.96 14.1699L21.8984 5.21481C21.845 4.98305 21.7397 4.7662 21.5902 4.58035C21.4408 4.3945 21.251 4.24444 21.0351 4.14131L12.6904 0.156781C12.4497 0.0417622 12.1837 -0.0114415 11.9168 0.00205266Z" fill="#326CE5"/>
<path d="M11.9995 3.04883C11.7237 3.04886 11.5001 3.29728 11.5001 3.60372C11.5001 3.60842 11.5011 3.61292 11.5012 3.61759C11.5008 3.65923 11.4988 3.70939 11.5001 3.74564C11.5067 3.92239 11.5452 4.05766 11.5684 4.2205C11.6104 4.56903 11.6456 4.85793 11.6239 5.12646C11.6028 5.22772 11.5282 5.32033 11.4617 5.3847L11.45 5.59598C11.1503 5.62081 10.8486 5.66628 10.5472 5.73471C9.25049 6.02913 8.13404 6.69707 7.28404 7.59892C7.22888 7.56129 7.13239 7.49207 7.1037 7.47087C7.01453 7.48291 6.92442 7.51042 6.80705 7.44206C6.58356 7.29162 6.38001 7.08396 6.13371 6.83381C6.02086 6.71415 5.93913 6.60021 5.80505 6.48487C5.7746 6.45868 5.72813 6.42325 5.69407 6.3963C5.58924 6.31273 5.46561 6.26914 5.3462 6.26505C5.19268 6.25979 5.04489 6.31982 4.94818 6.44112C4.77624 6.65677 4.83129 6.98638 5.07089 7.17742C5.07332 7.17935 5.07591 7.18086 5.07836 7.18275C5.11129 7.20944 5.1516 7.24364 5.18187 7.26598C5.32415 7.37104 5.45413 7.42482 5.5959 7.50822C5.89458 7.69267 6.14219 7.84562 6.33859 8.03002C6.41529 8.11178 6.42869 8.25584 6.4389 8.31814L6.59896 8.46113C5.7421 9.75065 5.34554 11.3435 5.5799 12.9664L5.37075 13.0272C5.31562 13.0984 5.23773 13.2104 5.15626 13.2438C4.8993 13.3248 4.6101 13.3545 4.26097 13.3911C4.09705 13.4047 3.95562 13.3966 3.78185 13.4295C3.7436 13.4368 3.69031 13.4506 3.64846 13.4605C3.64701 13.4608 3.64565 13.4612 3.64419 13.4615C3.64191 13.4621 3.63891 13.4632 3.63672 13.4637C3.34237 13.5348 3.15328 13.8053 3.21415 14.0719C3.27504 14.3385 3.56256 14.5007 3.85868 14.4369C3.86082 14.4364 3.86392 14.4363 3.86615 14.4358C3.86949 14.435 3.87243 14.4334 3.87575 14.4326C3.91703 14.4235 3.96876 14.4134 4.00487 14.4038C4.17572 14.358 4.29945 14.2908 4.45305 14.232C4.78348 14.1135 5.05716 14.0145 5.32379 13.9759C5.43515 13.9672 5.55248 14.0446 5.61084 14.0772L5.82853 14.0399C6.32947 15.593 7.37928 16.8483 8.7086 17.636L8.6179 17.8537C8.65059 17.9382 8.68665 18.0526 8.6623 18.1361C8.56537 18.3874 8.39933 18.6527 8.21027 18.9485C8.11873 19.0852 8.02504 19.1912 7.94243 19.3476C7.92266 19.385 7.89749 19.4425 7.87841 19.4821C7.75005 19.7567 7.8442 20.073 8.09076 20.1917C8.33886 20.3111 8.64682 20.1852 8.7801 19.91C8.78029 19.9096 8.78097 19.9093 8.78116 19.9089C8.78129 19.9086 8.78103 19.9081 8.78116 19.9079C8.80015 19.8688 8.82704 19.8176 8.84305 19.7809C8.91381 19.6188 8.93736 19.4799 8.98711 19.3231C9.11925 18.9912 9.19185 18.6429 9.37374 18.4259C9.42355 18.3665 9.50476 18.3436 9.58895 18.3211L9.70206 18.1162C10.8609 18.561 12.1581 18.6804 13.454 18.3862C13.7496 18.3191 14.0349 18.2322 14.3108 18.1279C14.3426 18.1843 14.4017 18.2927 14.4175 18.32C14.5031 18.3478 14.5965 18.3622 14.6726 18.4747C14.8087 18.7072 14.9017 18.9823 15.0151 19.3145C15.0649 19.4713 15.0895 19.6102 15.1602 19.7723C15.1764 19.8093 15.2031 19.8613 15.2221 19.9004C15.3551 20.1765 15.6641 20.3029 15.9125 20.1832C16.1591 20.0644 16.2533 19.7481 16.1249 19.4735C16.1058 19.434 16.0796 19.3765 16.0598 19.3391C15.9772 19.1827 15.8835 19.0777 15.7919 18.9411C15.6029 18.6453 15.4461 18.3996 15.3491 18.1482C15.3086 18.0186 15.3559 17.9379 15.3875 17.8537C15.3686 17.832 15.3281 17.7096 15.3043 17.652C16.6858 16.8363 17.7048 15.5342 18.1833 14.0303C18.2479 14.0405 18.3602 14.0603 18.3967 14.0676C18.4718 14.0181 18.5409 13.9535 18.6763 13.9641C18.9429 14.0027 19.2166 14.1017 19.547 14.2202C19.7006 14.2791 19.8244 14.3474 19.9952 14.3931C20.0313 14.4028 20.0831 14.4118 20.1243 14.4209C20.1277 14.4217 20.1306 14.4233 20.1339 14.4241C20.1362 14.4246 20.1393 14.4246 20.1414 14.4251C20.4375 14.4889 20.7251 14.3268 20.7859 14.0602C20.8467 13.7936 20.6577 13.523 20.3634 13.4519C20.3205 13.4422 20.2598 13.4257 20.2182 13.4178C20.0445 13.3849 19.903 13.393 19.7391 13.3794C19.39 13.3428 19.1008 13.313 18.8438 13.2321C18.7391 13.1915 18.6645 13.0668 18.6283 13.0155L18.4266 12.9568C18.5312 12.2003 18.503 11.413 18.322 10.6252C18.1394 9.83009 17.8166 9.10289 17.3862 8.4622C17.4379 8.41517 17.5356 8.32865 17.5633 8.3032C17.5714 8.21359 17.5645 8.11964 17.6572 8.02042C17.8536 7.836 18.1012 7.68308 18.3999 7.49861C18.5417 7.41521 18.6727 7.36144 18.815 7.25638C18.8472 7.23262 18.8911 7.195 18.9249 7.16781C19.1645 6.97671 19.2196 6.64712 19.0476 6.43152C18.8756 6.21591 18.5424 6.1956 18.3028 6.3867C18.2687 6.4137 18.2224 6.44893 18.1918 6.47527C18.0578 6.59062 17.975 6.70454 17.8621 6.82421C17.6158 7.07437 17.4122 7.28307 17.1888 7.43352C17.0919 7.4899 16.9501 7.47039 16.8857 7.4666L16.6958 7.60212C15.6127 6.46637 14.138 5.74024 12.5501 5.59918C12.5457 5.53264 12.5399 5.41236 12.5384 5.37616C12.4734 5.31396 12.3949 5.26085 12.3751 5.12646C12.3534 4.85793 12.3897 4.56902 12.4317 4.2205C12.4549 4.05766 12.4934 3.92239 12.5 3.74564C12.5015 3.70546 12.4991 3.64716 12.4989 3.60372C12.4989 3.29728 12.2753 3.0488 11.9995 3.04883ZM11.3742 6.92238L11.2259 9.5421L11.2152 9.54743C11.2053 9.78179 11.0124 9.96893 10.7756 9.96893C10.6786 9.96893 10.589 9.93778 10.5163 9.88463L10.512 9.88677L8.36393 8.36402C9.02412 7.71485 9.86855 7.23511 10.8417 7.01415C11.0195 6.97379 11.1972 6.94384 11.3742 6.92238ZM12.6259 6.92238C13.7621 7.06212 14.8128 7.5766 15.618 8.36509L13.4838 9.87823L13.4764 9.87503C13.2869 10.0134 13.02 9.97906 12.8724 9.79393C12.8119 9.71809 12.7802 9.62892 12.7764 9.5389L12.7742 9.53783L12.6259 6.92238ZM7.58496 9.34255L9.54627 11.0969L9.54414 11.1075C9.72117 11.2614 9.74727 11.5285 9.59963 11.7136C9.53915 11.7895 9.45819 11.8403 9.37127 11.8641L9.36914 11.8726L6.85507 12.5983C6.72711 11.4282 7.00287 10.2908 7.58496 9.34255ZM16.4002 9.34362C16.6916 9.81596 16.9123 10.3435 17.0436 10.9154C17.1734 11.4805 17.206 12.0446 17.1525 12.5897L14.6256 11.862L14.6235 11.8513C14.3972 11.7894 14.2582 11.5593 14.3108 11.3284C14.3324 11.2338 14.3826 11.1538 14.4506 11.0947L14.4496 11.0894L16.4002 9.34362ZM11.5972 11.2324H12.4007L12.9001 11.8566L12.7209 12.6356L11.9995 12.9824L11.276 12.6345L11.0968 11.8556L11.5972 11.2324ZM14.1732 13.3687C14.2073 13.367 14.2413 13.37 14.2745 13.3762L14.2788 13.3708L16.8793 13.8105C16.4987 14.8797 15.7705 15.806 14.7974 16.4259L13.788 13.9876L13.7912 13.9833C13.6984 13.7679 13.7912 13.5152 14.0046 13.4124C14.0592 13.3861 14.1163 13.3716 14.1732 13.3687ZM9.80557 13.3794C10.004 13.3821 10.182 13.5199 10.2281 13.7219C10.2497 13.8165 10.2392 13.9102 10.2036 13.9929L10.2111 14.0025L9.21227 16.4163C8.27845 15.8171 7.53466 14.9199 7.13678 13.819L9.71487 13.3815L9.71914 13.3868C9.74798 13.3815 9.77722 13.379 9.80557 13.3794ZM11.9835 14.4369C12.0526 14.4343 12.1228 14.4485 12.1895 14.4806C12.2769 14.5227 12.3444 14.589 12.3869 14.6684H12.3965L13.6674 16.9648C13.5024 17.0201 13.3329 17.0673 13.1594 17.1067C12.1875 17.3274 11.2186 17.2605 10.3413 16.9616L11.609 14.6695H11.6111C11.6872 14.5273 11.8314 14.4424 11.9835 14.4369Z" fill="white"/>
</svg>
