<svg width="76" height="24" viewBox="0 0 76 24" fill="none" xmlns="http://www.w3.org/2000/svg">
<path d="M21.6259 0C21.3917 0 21.1107 0.0937501 20.8297 0.1875L1.34719 9.18751C-0.900797 10.2188 -0.151469 13.5469 2.23701 13.5469H10.4796V21.7969C10.4796 23.2031 11.6504 24 12.7744 24C13.5706 24 14.4136 23.625 14.8351 22.6875L23.827 3.1875C24.4827 1.64063 23.1714 0 21.6259 0ZM22.4689 2.57813L17.6092 12.75L13.4769 22.0313C13.3364 22.3594 13.1023 22.5469 12.7744 22.5469C12.4934 22.5469 11.9783 22.3594 11.9783 21.7969V12H2.24798C1.87332 12 1.49866 11.625 1.49866 11.25C1.49866 10.875 1.87332 10.5 2.24798 10.5L17.6092 12.75L21.3917 1.59375C21.4854 1.54688 21.579 1.5 21.6259 1.5C21.9069 1.5 22.1879 1.6875 22.3752 1.96875C22.4689 2.10938 22.5625 2.34375 22.4689 2.57813Z" fill="white"/>
<path d="M33.448 20.216C32.632 20.216 31.896 20.056 31.24 19.736C30.6 19.416 30.096 18.984 29.728 18.44C29.36 17.896 29.176 17.28 29.176 16.592C29.176 15.728 29.392 15.048 29.824 14.552C30.272 14.04 31 13.68 32.008 13.472C33.032 13.248 34.408 13.136 36.136 13.136H37.264V14.624H36.16C35.008 14.624 34.096 14.68 33.424 14.792C32.752 14.904 32.272 15.096 31.984 15.368C31.712 15.624 31.576 15.984 31.576 16.448C31.576 17.056 31.784 17.552 32.2 17.936C32.616 18.304 33.192 18.488 33.928 18.488C34.52 18.488 35.04 18.352 35.488 18.08C35.936 17.792 36.288 17.408 36.544 16.928C36.816 16.448 36.952 15.896 36.952 15.272V12.512C36.952 11.6 36.76 10.944 36.376 10.544C35.992 10.144 35.36 9.944 34.48 9.944C33.968 9.944 33.432 10.008 32.872 10.136C32.328 10.264 31.76 10.48 31.168 10.784C30.896 10.912 30.664 10.952 30.472 10.904C30.28 10.856 30.128 10.752 30.016 10.592C29.904 10.416 29.84 10.232 29.824 10.04C29.824 9.832 29.872 9.632 29.968 9.44C30.08 9.248 30.264 9.104 30.52 9.008C31.224 8.672 31.92 8.432 32.608 8.288C33.296 8.144 33.944 8.072 34.552 8.072C35.624 8.072 36.504 8.24 37.192 8.576C37.896 8.912 38.416 9.424 38.752 10.112C39.088 10.8 39.256 11.688 39.256 12.776V18.944C39.256 19.328 39.16 19.632 38.968 19.856C38.776 20.064 38.496 20.168 38.128 20.168C37.776 20.168 37.496 20.064 37.288 19.856C37.08 19.632 36.976 19.328 36.976 18.944V17.384H37.192C37.064 17.976 36.824 18.488 36.472 18.92C36.136 19.336 35.712 19.656 35.2 19.88C34.688 20.104 34.104 20.216 33.448 20.216ZM43.7946 20.168C43.4106 20.168 43.1146 20.064 42.9066 19.856C42.6986 19.632 42.5946 19.328 42.5946 18.944V4.136C42.5946 3.736 42.6986 3.432 42.9066 3.224C43.1146 3.016 43.4106 2.912 43.7946 2.912C44.1786 2.912 44.4746 3.016 44.6826 3.224C44.9066 3.432 45.0186 3.736 45.0186 4.136V13.4H45.0666L49.5546 8.936C49.8106 8.68 50.0426 8.48 50.2506 8.336C50.4586 8.192 50.7306 8.12 51.0666 8.12C51.4026 8.12 51.6586 8.208 51.8346 8.384C52.0106 8.56 52.0986 8.776 52.0986 9.032C52.0986 9.272 51.9786 9.52 51.7386 9.776L46.9866 14.48V13.352L52.1706 18.512C52.4266 18.768 52.5466 19.024 52.5306 19.28C52.5146 19.536 52.4106 19.752 52.2186 19.928C52.0266 20.088 51.7866 20.168 51.4986 20.168C51.1306 20.168 50.8346 20.096 50.6106 19.952C50.4026 19.808 50.1546 19.592 49.8666 19.304L45.0666 14.648H45.0186V18.944C45.0186 19.76 44.6106 20.168 43.7946 20.168ZM59.6335 20.216C58.6735 20.216 57.8655 20.048 57.2095 19.712C56.5535 19.376 56.0655 18.88 55.7455 18.224C55.4255 17.568 55.2655 16.768 55.2655 15.824V10.16H53.8255C53.5055 10.16 53.2575 10.08 53.0815 9.92C52.9055 9.744 52.8175 9.512 52.8175 9.224C52.8175 8.92 52.9055 8.688 53.0815 8.528C53.2575 8.368 53.5055 8.288 53.8255 8.288H55.2655V5.816C55.2655 5.416 55.3695 5.112 55.5775 4.904C55.8015 4.696 56.1055 4.592 56.4895 4.592C56.8735 4.592 57.1695 4.696 57.3775 4.904C57.5855 5.112 57.6895 5.416 57.6895 5.816V8.288H60.4975C60.8175 8.288 61.0655 8.368 61.2415 8.528C61.4175 8.688 61.5055 8.92 61.5055 9.224C61.5055 9.512 61.4175 9.744 61.2415 9.92C61.0655 10.08 60.8175 10.16 60.4975 10.16H57.6895V15.632C57.6895 16.48 57.8655 17.12 58.2175 17.552C58.5855 17.984 59.1775 18.2 59.9935 18.2C60.2815 18.2 60.5295 18.176 60.7375 18.128C60.9615 18.064 61.1455 18.024 61.2895 18.008C61.4655 18.008 61.6095 18.072 61.7215 18.2C61.8335 18.312 61.8895 18.536 61.8895 18.872C61.8895 19.112 61.8415 19.336 61.7455 19.544C61.6655 19.752 61.5135 19.888 61.2895 19.952C61.0975 20.016 60.8335 20.072 60.4975 20.12C60.1775 20.184 59.8895 20.216 59.6335 20.216ZM68.3779 20.216C67.1939 20.216 66.1699 19.968 65.3059 19.472C64.4579 18.976 63.7939 18.272 63.3139 17.36C62.8339 16.448 62.5939 15.376 62.5939 14.144C62.5939 13.2 62.7299 12.36 63.0019 11.624C63.2739 10.888 63.6579 10.256 64.1539 9.728C64.6659 9.184 65.2739 8.776 65.9779 8.504C66.6979 8.216 67.4979 8.072 68.3779 8.072C69.5459 8.072 70.5539 8.32 71.4019 8.816C72.2659 9.312 72.9379 10.016 73.4179 10.928C73.8979 11.824 74.1379 12.896 74.1379 14.144C74.1379 15.072 74.0019 15.912 73.7299 16.664C73.4579 17.416 73.0659 18.056 72.5539 18.584C72.0579 19.112 71.4499 19.52 70.7299 19.808C70.0259 20.08 69.2419 20.216 68.3779 20.216ZM68.3779 18.344C69.0339 18.344 69.6099 18.184 70.1059 17.864C70.6019 17.544 70.9859 17.072 71.2579 16.448C71.5459 15.824 71.6899 15.056 71.6899 14.144C71.6899 12.768 71.3859 11.728 70.7779 11.024C70.1699 10.32 69.3699 9.968 68.3779 9.968C67.7059 9.968 67.1219 10.128 66.6259 10.448C66.1299 10.752 65.7379 11.216 65.4499 11.84C65.1779 12.464 65.0419 13.232 65.0419 14.144C65.0419 15.504 65.3459 16.544 65.9539 17.264C66.5619 17.984 67.3699 18.344 68.3779 18.344Z" fill="white"/>
</svg>
