<svg width="24" height="10" viewBox="0 0 24 10" fill="none" xmlns="http://www.w3.org/2000/svg">
<path d="M6.39478 0.794939V2.12326H4.20833V9H2.56261V2.12326H0.376163V0.794939H6.39478ZM7.66607 4.88571C7.66607 4.07853 7.84632 3.35755 8.20681 2.72277C8.57513 2.08016 9.07277 1.58253 9.6997 1.22988C10.3345 0.869387 11.0437 0.689143 11.8274 0.689143C12.7443 0.689143 13.5475 0.924245 14.2372 1.39445C14.9268 1.86465 15.4088 2.5151 15.6831 3.3458H13.7905C13.6024 2.95396 13.3359 2.66008 12.9911 2.46416C12.6542 2.26824 12.2623 2.17029 11.8156 2.17029C11.3376 2.17029 10.9105 2.28392 10.5343 2.51118C10.166 2.73061 9.87603 3.04408 9.66444 3.45159C9.46068 3.8591 9.35881 4.33714 9.35881 4.88571C9.35881 5.42645 9.46068 5.90449 9.66444 6.31984C9.87603 6.72735 10.166 7.04473 10.5343 7.272C10.9105 7.49143 11.3376 7.60114 11.8156 7.60114C12.2623 7.60114 12.6542 7.50318 12.9911 7.30727C13.3359 7.10351 13.6024 6.80571 13.7905 6.41388H15.6831C15.4088 7.25241 14.9268 7.90678 14.2372 8.37698C13.5554 8.83935 12.7521 9.07053 11.8274 9.07053C11.0437 9.07053 10.3345 8.8942 9.6997 8.54155C9.07277 8.18106 8.57513 7.68343 8.20681 7.04865C7.84632 6.41388 7.66607 5.6929 7.66607 4.88571ZM23.5423 3.33404C23.5423 3.7729 23.4365 4.18433 23.2249 4.56833C23.0211 4.95233 22.6959 5.26188 22.2492 5.49698C21.8103 5.73208 21.2539 5.84963 20.58 5.84963H19.2046V9H17.5589V0.794939H20.58C21.2147 0.794939 21.7555 0.904653 22.2022 1.12408C22.6489 1.34351 22.9819 1.64522 23.2014 2.02922C23.4286 2.41322 23.5423 2.84816 23.5423 3.33404ZM20.5094 4.52131C20.964 4.52131 21.3009 4.41943 21.5204 4.21567C21.7398 4.00408 21.8495 3.7102 21.8495 3.33404C21.8495 2.53469 21.4028 2.13502 20.5094 2.13502H19.2046V4.52131H20.5094Z" fill="#47466A"/>
</svg>
