<svg width="131" height="42" viewBox="0 0 131 42" fill="none" xmlns="http://www.w3.org/2000/svg">
<path d="M37.2762 0C36.8725 0 36.3882 0.161596 35.9038 0.323191L2.32212 15.8364C-1.55269 17.6139 -0.261085 23.3506 3.8559 23.3506H18.0636V37.571C18.0636 39.9949 20.0817 41.3685 22.0191 41.3685C23.3914 41.3685 24.8445 40.7221 25.571 39.1061L41.0703 5.49425C42.2004 2.82792 39.9401 0 37.2762 0ZM38.7292 4.44388L30.3527 21.977L23.23 37.975C22.9878 38.5405 22.5842 38.8637 22.0191 38.8637C21.5347 38.8637 20.6468 38.5405 20.6468 37.571V20.6842H3.87481C3.22901 20.6842 2.58321 20.0379 2.58321 19.3915C2.58321 18.7451 3.22901 18.0987 3.87481 18.0987L30.3527 21.977L36.8726 2.74712C37.034 2.66633 37.1955 2.58553 37.2762 2.58553C37.7605 2.58553 38.2449 2.90872 38.5678 3.39351C38.7292 3.6359 38.8907 4.03989 38.7292 4.44388Z" fill="white"/>
<path d="M57.6563 34.5559C56.2497 34.5559 54.9811 34.2801 53.8504 33.7285C52.7472 33.177 51.8785 32.4323 51.2442 31.4946C50.6098 30.557 50.2927 29.4952 50.2927 28.3093C50.2927 26.82 50.665 25.6479 51.4096 24.793C52.1818 23.9104 53.4367 23.2899 55.1742 22.9314C56.9392 22.5453 59.311 22.3522 62.2895 22.3522H64.2338V24.9171H62.3309C60.3452 24.9171 58.7732 25.0136 57.6149 25.2066C56.4566 25.3997 55.6292 25.7306 55.1328 26.1995C54.6639 26.6408 54.4295 27.2613 54.4295 28.0611C54.4295 29.1091 54.788 29.964 55.5051 30.6259C56.2222 31.2602 57.215 31.5774 58.4836 31.5774C59.504 31.5774 60.4004 31.343 61.1726 30.8741C61.9448 30.3777 62.5515 29.7158 62.9928 28.8884C63.4616 28.0611 63.696 27.1096 63.696 26.034V21.2766C63.696 19.7046 63.3651 18.5739 62.7032 17.8844C62.0413 17.195 60.9519 16.8502 59.4351 16.8502C58.5526 16.8502 57.6287 16.9605 56.6634 17.1812C55.7257 17.4018 54.7467 17.7741 53.7263 18.2981C53.2574 18.5187 52.8575 18.5877 52.5266 18.505C52.1956 18.4222 51.9336 18.243 51.7406 17.9672C51.5475 17.6638 51.4372 17.3466 51.4096 17.0157C51.4096 16.6572 51.4924 16.3124 51.6578 15.9815C51.8509 15.6505 52.168 15.4023 52.6093 15.2369C53.8228 14.6577 55.0225 14.244 56.2084 13.9958C57.3943 13.7476 58.5112 13.6235 59.5592 13.6235C61.407 13.6235 62.9238 13.9131 64.1097 14.4922C65.3232 15.0714 66.2195 15.9539 66.7987 17.1398C67.3778 18.3257 67.6674 19.8563 67.6674 21.7317V32.3634C67.6674 33.0253 67.5019 33.5493 67.171 33.9354C66.84 34.2939 66.3574 34.4732 65.7231 34.4732C65.1164 34.4732 64.6337 34.2939 64.2752 33.9354C63.9167 33.5493 63.7374 33.0253 63.7374 32.3634V29.6744H64.1097C63.8891 30.6949 63.4754 31.5774 62.8687 32.322C62.2895 33.0391 61.5587 33.5906 60.6762 33.9768C59.7936 34.3629 58.787 34.5559 57.6563 34.5559ZM75.4906 34.4732C74.8287 34.4732 74.3185 34.2939 73.9599 33.9354C73.6014 33.5493 73.4222 33.0253 73.4222 32.3634V6.83906C73.4222 6.14959 73.6014 5.62559 73.9599 5.26706C74.3185 4.90854 74.8287 4.72927 75.4906 4.72927C76.1525 4.72927 76.6627 4.90854 77.0212 5.26706C77.4073 5.62559 77.6004 6.14959 77.6004 6.83906V22.8073H77.6831L85.419 15.1127C85.8603 14.6715 86.2602 14.3267 86.6187 14.0785C86.9772 13.8303 87.4461 13.7062 88.0252 13.7062C88.6044 13.7062 89.0456 13.8579 89.349 14.1613C89.6524 14.4646 89.8041 14.837 89.8041 15.2782C89.8041 15.6919 89.5972 16.1194 89.1835 16.5606L80.9926 24.6689V22.7245L89.9282 31.6188C90.3694 32.06 90.5763 32.5013 90.5487 32.9425C90.5211 33.3838 90.3418 33.7561 90.0109 34.0595C89.6799 34.3353 89.2663 34.4732 88.7698 34.4732C88.1355 34.4732 87.6253 34.3491 87.2392 34.1009C86.8807 33.8526 86.4532 33.4803 85.9568 32.9839L77.6831 24.9584H77.6004V32.3634C77.6004 33.7699 76.8971 34.4732 75.4906 34.4732ZM102.792 34.5559C101.137 34.5559 99.7443 34.2663 98.6136 33.6872C97.4829 33.108 96.6417 32.2531 96.0901 31.1223C95.5385 29.9916 95.2627 28.6126 95.2627 26.9855V17.2225H92.7806C92.2291 17.2225 91.8016 17.0846 91.4982 16.8089C91.1948 16.5055 91.0432 16.1056 91.0432 15.6092C91.0432 15.0852 91.1948 14.6853 91.4982 14.4095C91.8016 14.1337 92.2291 13.9958 92.7806 13.9958H95.2627V9.73485C95.2627 9.04538 95.442 8.52138 95.8005 8.16285C96.1866 7.80433 96.7106 7.62506 97.3725 7.62506C98.0344 7.62506 98.5446 7.80433 98.9032 8.16285C99.2617 8.52138 99.441 9.04538 99.441 9.73485V13.9958H104.281C104.833 13.9958 105.26 14.1337 105.563 14.4095C105.867 14.6853 106.019 15.0852 106.019 15.6092C106.019 16.1056 105.867 16.5055 105.563 16.8089C105.26 17.0846 104.833 17.2225 104.281 17.2225H99.441V26.6545C99.441 28.1162 99.7443 29.2194 100.351 29.964C100.985 30.7086 102.006 31.081 103.412 31.081C103.909 31.081 104.336 31.0396 104.695 30.9569C105.081 30.8465 105.398 30.7776 105.646 30.75C105.95 30.75 106.198 30.8603 106.391 31.081C106.584 31.274 106.68 31.6601 106.68 32.2393C106.68 32.653 106.598 33.0391 106.432 33.3976C106.294 33.7561 106.032 33.9905 105.646 34.1009C105.315 34.2112 104.86 34.3077 104.281 34.3904C103.729 34.5008 103.233 34.5559 102.792 34.5559ZM117.864 34.5559C115.824 34.5559 114.059 34.1284 112.569 33.2735C111.108 32.4185 109.963 31.2051 109.136 29.6331C108.308 28.0611 107.895 26.2133 107.895 24.0897C107.895 22.4625 108.129 21.0146 108.598 19.746C109.067 18.4774 109.729 17.388 110.584 16.4779C111.466 15.5402 112.514 14.837 113.728 14.3681C114.969 13.8717 116.348 13.6235 117.864 13.6235C119.878 13.6235 121.615 14.051 123.077 14.9059C124.566 15.7609 125.724 16.9743 126.552 18.5463C127.379 20.0907 127.793 21.9385 127.793 24.0897C127.793 25.6893 127.558 27.1372 127.09 28.4334C126.621 29.7296 125.945 30.8328 125.063 31.7429C124.208 32.653 123.16 33.3562 121.919 33.8526C120.705 34.3215 119.354 34.5559 117.864 34.5559ZM117.864 31.3292C118.995 31.3292 119.988 31.0534 120.843 30.5018C121.698 29.9502 122.36 29.1366 122.829 28.0611C123.325 26.9855 123.573 25.6617 123.573 24.0897C123.573 21.7179 123.049 19.9253 122.001 18.7118C120.953 17.4983 119.574 16.8916 117.864 16.8916C116.706 16.8916 115.699 17.1674 114.845 17.719C113.99 18.243 113.314 19.0427 112.817 20.1183C112.349 21.1939 112.114 22.5177 112.114 24.0897C112.114 26.4339 112.638 28.2265 113.686 29.4676C114.734 30.7086 116.127 31.3292 117.864 31.3292Z" fill="white"/>
</svg>
