 <svg width="32" height="32" viewBox="0 0 32 32" fill="white" xmlns="http://www.w3.org/2000/svg">
        <path d="M21.6259 0C21.3917 0 21.1107 0.09375 20.8297 0.1875L1.34719 9.1875C-0.900797 10.2188 -0.151469 13.5469 2.23701 13.5469H10.4796V21.7969C10.4796 23.2031 11.6504 24 12.7744 24C13.5706 24 14.4136 23.625 14.8351 22.6875L23.827 3.1875C24.4827 1.64062 23.1714 0 21.6259 0ZM22.4689 2.57812L17.6092 12.75L13.4769 22.0312C13.3364 22.3594 13.1023 22.5469 12.7744 22.5469C12.4934 22.5469 11.9783 22.3594 11.9783 21.7969V12H2.24798C1.87332 12 1.49866 11.625 1.49866 11.25C1.49866 10.875 1.87332 10.5 2.24798 10.5L17.6092 12.75L21.3917 1.59375C21.4854 1.54688 21.579 1.5 21.6259 1.5C21.9069 1.5 22.1879 1.6875 22.3752 1.96875C22.4689 2.10938 22.5625 2.34375 22.4689 2.57812Z" fill="white"/>
</svg>