<svg width="18" height="18" viewBox="0 0 18 18" fill="none" xmlns="http://www.w3.org/2000/svg">
<g clip-path="url(#clip0_2431_56150)">
<path d="M5.07263 8.07337C5.07263 8.29725 5.09663 8.47838 5.13863 8.6115C5.18663 8.74463 5.24626 8.88975 5.33026 9.04688C5.36026 9.09525 5.37226 9.14363 5.37226 9.186C5.37226 9.24638 5.33626 9.30675 5.25863 9.3675L4.88138 9.62138C4.82738 9.65775 4.77376 9.67575 4.72576 9.67575C4.66576 9.67575 4.60613 9.64538 4.54613 9.591C4.46213 9.50025 4.39051 9.4035 4.33051 9.30675C4.27051 9.204 4.21088 9.08925 4.14488 8.95013C3.67801 9.50625 3.09113 9.7845 2.38463 9.7845C1.88176 9.7845 1.48051 9.63938 1.18726 9.34913C0.89401 9.05888 0.744385 8.67188 0.744385 8.18813C0.744385 7.67437 0.92401 7.257 1.28926 6.94275C1.65451 6.6285 2.13938 6.471 2.75588 6.471C2.95951 6.471 3.16913 6.489 3.39038 6.51938C3.61163 6.54975 3.83926 6.59813 4.07888 6.6525V6.21113C4.07888 5.75175 3.98326 5.43113 3.79763 5.24363C3.60601 5.05612 3.28276 4.96538 2.82188 4.96538C2.61226 4.96538 2.39701 4.98938 2.17538 5.04413C1.95376 5.0985 1.73851 5.16487 1.52888 5.24962C1.43326 5.292 1.36126 5.316 1.31926 5.32837C1.27726 5.34037 1.24726 5.34638 1.22363 5.34638C1.13963 5.34638 1.09801 5.286 1.09801 5.15888V4.86263C1.09801 4.76588 1.11001 4.6935 1.14001 4.65113C1.17001 4.60875 1.22401 4.56638 1.30763 4.524C1.51726 4.41525 1.76851 4.3245 2.06213 4.25175C2.35538 4.173 2.66663 4.137 2.99588 4.137C3.70838 4.137 4.22926 4.30013 4.56451 4.62675C4.89376 4.95338 5.06138 5.44913 5.06138 6.114V8.073L5.07263 8.07337ZM2.64188 8.99213C2.83951 8.99213 3.04313 8.95575 3.25838 8.88338C3.47401 8.811 3.66563 8.67788 3.82726 8.49638C3.92288 8.38163 3.99488 8.2545 4.03088 8.10938C4.06688 7.96425 4.09088 7.78875 4.09088 7.58325V7.32938C3.91726 7.287 3.73163 7.25063 3.54001 7.22663C3.34838 7.20263 3.16276 7.19025 2.97713 7.19025C2.57588 7.19025 2.28263 7.269 2.08501 7.43213C1.88738 7.59525 1.79176 7.82513 1.79176 8.12738C1.79176 8.41163 1.86376 8.62313 2.01338 8.76825C2.15701 8.91975 2.36663 8.99213 2.64188 8.99213ZM7.44938 9.64538C7.34176 9.64538 7.26976 9.62738 7.22176 9.585C7.17376 9.54862 7.13213 9.46425 7.09613 9.34913L5.68913 4.6755C5.65313 4.55475 5.63513 4.476 5.63513 4.43363C5.63513 4.33688 5.68313 4.2825 5.77876 4.2825H6.36563C6.47926 4.2825 6.55726 4.3005 6.59926 4.34288C6.64726 4.37925 6.68288 4.46363 6.71888 4.57875L7.72463 8.5815L8.65838 4.57875C8.68838 4.458 8.72438 4.37925 8.77201 4.34288C8.82001 4.3065 8.90363 4.2825 9.01163 4.2825H9.49051C9.60413 4.2825 9.68213 4.3005 9.73013 4.34288C9.77813 4.37925 9.81976 4.46363 9.84376 4.57875L10.7895 8.62988L11.8253 4.57875C11.8613 4.458 11.9033 4.37925 11.9449 4.34288C11.9929 4.3065 12.0705 4.2825 12.1785 4.2825H12.7354C12.831 4.2825 12.885 4.33088 12.885 4.43363C12.885 4.464 12.879 4.494 12.873 4.53038C12.867 4.56675 12.855 4.61513 12.831 4.6815L11.3884 9.35513C11.3524 9.47588 11.3104 9.55463 11.2628 9.591C11.2151 9.62738 11.1371 9.65138 11.0351 9.65138H10.5203C10.4066 9.65138 10.3286 9.63338 10.2806 9.591C10.2326 9.54863 10.191 9.47025 10.167 9.34913L9.23926 5.44913L8.31751 9.34313C8.28751 9.46388 8.25151 9.54263 8.20388 9.585C8.15588 9.62738 8.07226 9.64538 7.96426 9.64538H7.44938ZM15.1421 9.8085C14.8309 9.8085 14.5196 9.77213 14.2204 9.69975C13.9211 9.62738 13.6875 9.54863 13.5319 9.45788C13.4363 9.4035 13.3703 9.34313 13.3463 9.28875C13.3223 9.23438 13.3103 9.174 13.3103 9.11963V8.81138C13.3103 8.68425 13.3583 8.62388 13.4479 8.62388C13.4839 8.62388 13.5199 8.62988 13.5555 8.64188C13.5915 8.65388 13.6451 8.67825 13.7051 8.70225C13.9088 8.793 14.13 8.86538 14.3636 8.91375C14.6033 8.96213 14.8365 8.98612 15.0761 8.98612C15.4534 8.98612 15.7466 8.91975 15.9503 8.78663C16.1539 8.6535 16.2615 8.46 16.2615 8.21213C16.2615 8.043 16.2075 7.90388 16.0999 7.78875C15.9923 7.674 15.7886 7.57125 15.4954 7.4745L14.6273 7.20225C14.1904 7.06312 13.8671 6.85763 13.6695 6.58538C13.4719 6.3195 13.3703 6.02325 13.3703 5.70862C13.3703 5.45475 13.4243 5.23087 13.5319 5.03737C13.6395 4.84387 13.7835 4.67475 13.9628 4.54163C14.1424 4.4025 14.346 4.29975 14.5853 4.22737C14.8249 4.15537 15.0761 4.125 15.3398 4.125C15.4714 4.125 15.609 4.131 15.741 4.149C15.8786 4.167 16.0043 4.19138 16.1303 4.21538C16.2499 4.24575 16.3639 4.27575 16.4715 4.31212C16.5791 4.3485 16.6631 4.3845 16.7231 4.42087C16.8071 4.46925 16.8668 4.51763 16.9028 4.572C16.9388 4.62038 16.9568 4.68675 16.9568 4.7715V5.05575C16.9568 5.18288 16.9088 5.24925 16.8191 5.24925C16.7711 5.24925 16.6935 5.22525 16.5915 5.17688C16.2503 5.01975 15.867 4.941 15.4421 4.941C15.1009 4.941 14.8316 4.99538 14.646 5.11013C14.4604 5.22487 14.3648 5.40038 14.3648 5.64825C14.3648 5.81738 14.4248 5.9625 14.5444 6.07763C14.664 6.19238 14.8856 6.3075 15.2029 6.41025L16.053 6.6825C16.4839 6.82162 16.7955 7.01513 16.9808 7.263C17.166 7.51088 17.256 7.79513 17.256 8.10938C17.256 8.36925 17.202 8.60513 17.1004 8.81063C16.9928 9.01613 16.8488 9.19763 16.6635 9.34275C16.4779 9.49388 16.2563 9.60263 15.999 9.68138C15.7286 9.76613 15.4474 9.8085 15.1421 9.8085Z" fill="#252F3E"/>
<path d="M16.2735 12.7472C14.304 14.2164 11.4424 14.9964 8.98165 14.9964C5.53352 14.9964 2.42627 13.7087 0.0795217 11.5682C-0.106103 11.399 0.0615217 11.1692 0.283147 11.3023C2.82152 12.7895 5.9524 13.6907 9.19127 13.6907C11.3764 13.6907 13.7771 13.2313 15.9859 12.2878C16.3155 12.1367 16.5968 12.5053 16.2735 12.7472ZM17.0936 11.804C16.842 11.4774 15.4294 11.6469 14.7889 11.7253C14.5973 11.7493 14.5673 11.5802 14.7409 11.453C15.8663 10.655 17.7161 10.8845 17.9318 11.1508C18.1474 11.423 17.8718 13.2913 16.8184 14.186C16.6568 14.3252 16.5011 14.2524 16.5728 14.0713C16.8124 13.4728 17.3453 12.1243 17.0936 11.804Z" fill="#FF9900"/>
</g>
<defs>
<clipPath id="clip0_2431_56150">
<rect width="18" height="18" fill="white"/>
</clipPath>
</defs>
</svg>
