<svg width="24" height="22" viewBox="0 0 24 22" fill="none" xmlns="http://www.w3.org/2000/svg">
<path fill-rule="evenodd" clip-rule="evenodd" d="M7.88079 17.7793H12.286L14.5732 20.6551L14.1799 21.6349H8.48873L8.62834 20.6551L7.2867 18.5387L7.88079 17.7793ZM11.0329 5.14528L13.3939 5.14173L24.0029 17.7896L23.1786 21.6349H18.6316L18.9147 20.5515L9.00118 8.72991L11.0329 5.14528ZM15.2042 0.000976562L20.136 3.87716L19.5046 4.52871L20.3598 5.71959V6.99294L17.901 8.99729L13.766 4.11209H11.3586L12.3279 2.33541L15.2042 0.000976562ZM4.85239 12.4156L8.29267 9.42574L12.8588 14.9204L11.5624 16.9334H7.35211L4.43932 20.7556L3.77408 21.6349H0V16.945L3.51769 12.4156H4.85239Z" fill="#003459"/>
</svg>
