<svg width="24" height="24" viewBox="0 0 24 24" fill="none" xmlns="http://www.w3.org/2000/svg">
<g clip-path="url(#clip0_19978_6280)">
<path d="M6.78286 22.8093C8.36049 23.5721 10.1303 24 12.0002 24C13.8701 24 15.64 23.5721 17.2176 22.8093L18.2611 12L17.2176 1.19072C15.64 0.427875 13.8701 0 12.0002 0C10.1303 0 8.36049 0.427875 6.78286 1.19072L5.73938 12L6.78286 22.8093Z" fill="#FFDA44"/>
<path d="M17.2169 22.8091C21.2309 20.8682 23.9995 16.7577 23.9995 12.0003C23.9995 7.24278 21.2309 3.13231 17.2169 1.19141V22.8091Z" fill="#D80027"/>
<path d="M6.78238 22.8091V1.19141C2.76843 3.13231 -0.000244141 7.24273 -0.000244141 12.0003C-0.000244141 16.7578 2.76843 20.8682 6.78238 22.8091Z" fill="#0052B4"/>
<path d="M11.9999 16.1739C11.9999 14.259 11.9999 12 11.9999 12H15.1303V13.5652C15.1303 13.8371 14.6086 14.8335 13.3208 15.6522C12.8331 15.9623 12.3282 16.062 11.9999 16.1739Z" fill="#D80027"/>
<path d="M11.9997 8.86914H8.86926V11.9996H11.9997V8.86914Z" fill="#D80027"/>
<path d="M13.5654 7.82669C13.5654 7.25036 13.0982 6.7832 12.5219 6.7832C12.3316 6.7832 12.1537 6.83495 12.0002 6.92392C11.8466 6.83495 11.6688 6.7832 11.4785 6.7832C10.9022 6.7832 10.435 7.25036 10.435 7.82669H7.82629V13.044C7.82629 14.9863 9.36876 16.1096 10.5784 16.6919C10.4879 16.8465 10.435 17.0259 10.435 17.218C10.435 17.7943 10.9022 18.2615 11.4785 18.2615C11.6688 18.2615 11.8466 18.2097 12.0002 18.1208C12.1538 18.2097 12.3316 18.2615 12.5219 18.2615C13.0982 18.2615 13.5654 17.7943 13.5654 17.218C13.5654 17.0259 13.5125 16.8465 13.4219 16.6919C14.6316 16.1096 16.1741 14.9864 16.1741 13.044V7.82669H13.5654ZM14.6089 13.044C14.6089 13.3159 14.6089 14.1433 13.3211 14.9621C12.8333 15.2722 12.3285 15.4733 12.0002 15.5851C11.6719 15.4733 11.167 15.2722 10.6792 14.9621C9.3915 14.1433 9.3915 13.3159 9.3915 13.044V9.39189H14.6089V13.044Z" fill="#FF9811"/>
</g>
<defs>
<clipPath id="clip0_19978_6280">
<rect width="24" height="24" fill="white"/>
</clipPath>
</defs>
</svg>
