<svg width="24" height="24" viewBox="0 0 24 24" fill="none" xmlns="http://www.w3.org/2000/svg">
<g clip-path="url(#clip0_19978_8263)">
<path d="M12 24C18.6274 24 24 18.6274 24 12C24 5.37258 18.6274 0 12 0C5.37258 0 0 5.37258 0 12C0 18.6274 5.37258 24 12 24Z" fill="#F0F0F0"/>
<path d="M6.78271 16.1738L7.8262 23.2536C9.12614 23.736 10.5322 23.9999 12.0001 23.9999C17.1596 23.9999 21.5582 20.7434 23.2537 16.1738H6.78271Z" fill="black"/>
<path d="M6.78271 7.82611L7.8262 0.746297C9.12614 0.263906 10.5322 0 12.0001 0C17.1596 0 21.5582 3.2565 23.2537 7.82611H6.78271Z" fill="#6DA544"/>
<path d="M0.000488281 11.9997C0.000488281 17.1593 3.25704 21.5578 7.8266 23.2533V0.746094C3.25704 2.44161 0.000488281 6.84013 0.000488281 11.9997Z" fill="#A2001D"/>
</g>
<defs>
<clipPath id="clip0_19978_8263">
<rect width="24" height="24" fill="white"/>
</clipPath>
</defs>
</svg>
