<svg width="24" height="24" viewBox="0 0 24 24" fill="none" xmlns="http://www.w3.org/2000/svg">
<g clip-path="url(#clip0_19978_6243)">
<path d="M17.2173 1.19072C15.6396 0.427875 13.8697 0 11.9999 0C10.13 0 8.36012 0.427875 6.7825 1.19072L5.73901 12L6.7825 22.8093C8.36012 23.5721 10.13 24 11.9999 24C13.8697 24 15.6396 23.5721 17.2173 22.8093L18.2607 12L17.2173 1.19072Z" fill="#D80027"/>
<path d="M6.78275 1.19141C2.76884 3.13236 0.00012207 7.24278 0.00012207 12.0003C0.00012207 16.7577 2.76884 20.8682 6.78275 22.8091V1.19141Z" fill="black"/>
<path d="M17.2175 1.19141V22.8091C21.2314 20.8682 24.0002 16.7577 24.0002 12.0003C24.0002 7.24278 21.2314 3.13236 17.2175 1.19141Z" fill="#496E2D"/>
<path d="M11.9997 7.82617C9.69448 7.82617 7.82581 9.69489 7.82581 12.0001C7.82581 14.3052 9.69452 16.174 11.9997 16.174C14.3049 16.174 16.1736 14.3052 16.1736 12.0001C16.1736 9.69489 14.3049 7.82617 11.9997 7.82617ZM11.9997 14.6088C10.5589 14.6088 9.39101 13.4408 9.39101 12.0001C9.39101 10.5594 10.559 9.39138 11.9997 9.39138C13.4404 9.39138 14.6084 10.5594 14.6084 12.0001C14.6084 13.4408 13.4404 14.6088 11.9997 14.6088Z" fill="#FFDA44"/>
<path d="M12 10.4355C11.4237 10.4355 10.9565 10.9027 10.9565 11.479V13.0442H13.0435V11.479C13.0435 10.9027 12.5764 10.4355 12 10.4355Z" fill="#FFDA44"/>
</g>
<defs>
<clipPath id="clip0_19978_6243">
<rect width="24" height="24" fill="white"/>
</clipPath>
</defs>
</svg>
