<svg width="24" height="24" viewBox="0 0 24 24" fill="none" xmlns="http://www.w3.org/2000/svg">
<g clip-path="url(#clip0_19978_6297)">
<path d="M24 12C24 18.6274 18.6274 24 12 24C5.37262 24 0 18.6274 0 12C0 12.0029 12 0.0013125 12 0C18.6274 0 24 5.37262 24 12Z" fill="#0052B4"/>
<path d="M11.9674 12.0009H11.9996C11.9996 11.9901 11.9996 11.9796 11.9996 11.9688C11.9889 11.9795 11.9782 11.9902 11.9674 12.0009Z" fill="#F0F0F0"/>
<path d="M12 6.26086C12 4.14937 12 2.76586 12 0H11.998C5.37145 0.001125 0 5.37323 0 12H6.26086V8.47448L9.78637 12H11.9679C11.9786 11.9893 11.9893 11.9786 12 11.9679C12 11.1594 12 10.4381 12 9.78647L8.47443 6.26086H12Z" fill="#F0F0F0"/>
<path d="M6.07075 1.56445C4.19393 2.63316 2.6336 4.19344 1.56494 6.07027V11.9993H4.6954V4.695V4.69491H11.9997C11.9997 3.70758 11.9997 2.76699 11.9997 1.56445H6.07075Z" fill="#D80027"/>
<path d="M11.9995 10.5251L7.736 6.26172H6.26038V6.26181L11.9994 12.0008H11.9995C11.9995 12.0008 11.9995 10.9833 11.9995 10.5251Z" fill="#D80027"/>
<path d="M20.2941 13.7574C20.6392 13.2826 20.8696 12.7029 20.8696 12.0008V6.78339C20.4336 7.11095 19.8917 7.30511 19.3044 7.30511C18.451 7.30511 17.6934 6.89528 17.2175 6.26172C16.7415 6.89528 15.9839 7.30511 15.1305 7.30511C14.5432 7.30511 14.0013 7.11091 13.5653 6.78348V12.0008C13.5653 12.7029 13.7958 13.2826 14.1408 13.7574H20.2941Z" fill="#F3F3F3"/>
<path d="M19.2085 11.0309C19.3746 10.6256 19.5038 10.0333 19.5038 9.73848C19.5038 9.26481 18.8863 8.88086 18.8863 8.88086C18.8863 8.88086 18.2687 9.26481 18.2687 9.73848C18.2687 10.0333 18.398 10.6257 18.564 11.0309L18.2075 11.8358C18.4171 11.921 18.6461 11.9684 18.8863 11.9684C19.1265 11.9684 19.3555 11.921 19.5651 11.8358L19.2085 11.0309Z" fill="#FF9811"/>
<path d="M16.7953 8.42598C16.3614 8.48477 15.7838 8.66922 15.5285 8.81659C15.1183 9.05345 15.0945 9.78016 15.0945 9.78016C15.0945 9.78016 15.7358 10.123 16.146 9.88614C16.4014 9.73872 16.8497 9.33072 17.1175 8.98422L17.9929 8.89047C17.9619 8.6665 17.8882 8.44445 17.7683 8.23647C17.6481 8.02848 17.4927 7.85373 17.3141 7.71484L16.7953 8.42598Z" fill="#FF9811"/>
<path d="M15.7447 11.8202C16.0125 12.1665 16.4609 12.5745 16.7163 12.7219C17.1265 12.9588 17.7678 12.616 17.7678 12.616C17.7678 12.616 17.7439 11.8893 17.3338 11.6524C17.0783 11.505 16.5008 11.3207 16.0668 11.262L15.5481 10.5508C15.3695 10.6896 15.2141 10.8645 15.0939 11.0723C14.9739 11.2803 14.9004 11.5023 14.8693 11.7264L15.7447 11.8202Z" fill="#FF9811"/>
<path d="M14.0114 13.5664C14.9858 15.1299 17.2171 15.6533 17.2171 15.6533C17.2171 15.6533 19.4483 15.1299 20.4228 13.5664H14.0114Z" fill="#338AF3"/>
</g>
<defs>
<clipPath id="clip0_19978_6297">
<rect width="24" height="24" fill="white"/>
</clipPath>
</defs>
</svg>
