<svg width="24" height="24" viewBox="0 0 24 24" fill="none" xmlns="http://www.w3.org/2000/svg">
<g clip-path="url(#clip0_19978_6260)">
<path d="M12 24C18.6274 24 24 18.6274 24 12C24 5.37258 18.6274 0 12 0C5.37258 0 0 5.37258 0 12C0 18.6274 5.37258 24 12 24Z" fill="#D80027"/>
<path d="M18.7825 8.90749H14.436C14.7043 8.62652 14.8694 8.24613 14.8694 7.82692C14.8694 6.9625 14.1686 6.26172 13.3042 6.26172C12.7596 6.26172 12.2802 6.53997 11.9999 6.96189C11.7195 6.53997 11.2401 6.26172 10.6955 6.26172C9.8311 6.26172 9.13032 6.9625 9.13032 7.82692C9.13032 8.24613 9.29546 8.62656 9.56377 8.90749H5.21729C5.21729 10.0601 6.22121 10.9944 7.37372 10.9944H7.30416C7.30416 12.1471 8.23852 13.0814 9.39118 13.0814C9.39118 13.4547 9.48957 13.8047 9.66132 14.1077L7.93022 15.8388L9.25838 17.1669L11.1424 15.283C11.2162 15.31 11.2925 15.3317 11.3714 15.3465L10.2329 17.9169L11.9999 19.8269L13.7668 17.9168L12.6284 15.3464C12.7073 15.3316 12.7836 15.31 12.8573 15.2829L14.7413 17.1668L16.0695 15.8387L14.3384 14.1076C14.5102 13.8046 14.6086 13.4546 14.6086 13.0813C15.7612 13.0813 16.6955 12.147 16.6955 10.9943H16.626C17.7785 10.9944 18.7825 10.0601 18.7825 8.90749Z" fill="black"/>
</g>
<defs>
<clipPath id="clip0_19978_6260">
<rect width="24" height="24" fill="white"/>
</clipPath>
</defs>
</svg>
