<svg width="24" height="24" viewBox="0 0 24 24" fill="none" xmlns="http://www.w3.org/2000/svg">
<g clip-path="url(#clip0_19978_6289)">
<path d="M0 12C0 5.37262 5.37262 0 12 0C18.6274 0 24 5.37262 24 12C23.4783 12 12 13.5652 12 13.5652L0 12Z" fill="#D80027"/>
<path d="M23.9999 12C23.9999 18.6274 18.6273 24 11.9999 24C5.3725 24 -0.00012207 18.6274 -0.00012207 12" fill="black"/>
<path d="M10.354 9.54414L11.3713 10.2824L10.9836 11.4781L12.0002 10.7386L13.0175 11.4769L12.6284 10.2816L13.6448 9.54217L12.3879 9.54292L11.9987 8.34766L11.611 9.54334L10.354 9.54414Z" fill="#FFDA44"/>
<path d="M14.9998 6.80381C14.0542 6.25785 13.0202 6.00018 11.9998 6.00196V7.56684C12.754 7.56548 13.5182 7.75579 14.2172 8.15938C16.3349 9.38207 17.0631 12.0997 15.8403 14.2174C14.6177 16.3351 11.9001 17.0633 9.78236 15.8406C9.16539 15.4844 8.66734 15.0008 8.30022 14.4426L6.99353 15.3053C7.49026 16.0604 8.16508 16.7142 8.99978 17.1961C11.865 18.8503 15.5417 17.8651 17.1959 14.9999C18.8501 12.1348 17.865 8.45802 14.9998 6.80381Z" fill="#FFDA44"/>
<path d="M8.53959 10.957C8.12475 11.7154 8.40328 12.6666 9.16162 13.0814L14.2452 15.8592C13.8995 16.4911 14.0831 17.2603 14.715 17.606L16.0882 18.3572C16.7201 18.7029 17.5128 18.4708 17.8585 17.8388L18.6097 16.4657L8.53959 10.957Z" fill="#FFDA44"/>
</g>
<defs>
<clipPath id="clip0_19978_6289">
<rect width="24" height="24" fill="white"/>
</clipPath>
</defs>
</svg>
