<svg width="24" height="24" viewBox="0 0 24 24" fill="none" xmlns="http://www.w3.org/2000/svg">
<g clip-path="url(#clip0_19978_6322)">
<path d="M12 24C18.6274 24 24 18.6274 24 12C24 5.37258 18.6274 0 12 0C5.37258 0 0 5.37258 0 12C0 18.6274 5.37258 24 12 24Z" fill="#F0F0F0"/>
<path d="M12.0002 0C7.24267 0 3.13192 2.76867 1.19092 6.78262H22.8094C20.8685 2.76867 16.7577 0 12.0002 0Z" fill="#338AF3"/>
<path d="M12.0004 23.9994C16.7579 23.9994 20.8687 21.2307 22.8097 17.2168H1.19116C3.13216 21.2307 7.24291 23.9994 12.0004 23.9994Z" fill="#338AF3"/>
<path d="M15.5865 11.9998L14.1209 12.6892L14.9014 14.1085L13.31 13.804L13.1083 15.4117L11.9998 14.2293L10.8913 15.4117L10.6897 13.804L9.09833 14.1084L9.87871 12.6891L8.41321 11.9998L9.87875 11.3104L9.09833 9.89111L10.6897 10.1955L10.8914 8.58789L11.9998 9.77026L13.1083 8.58789L13.31 10.1955L14.9014 9.89111L14.121 11.3104L15.5865 11.9998Z" fill="#FFDA44"/>
</g>
<defs>
<clipPath id="clip0_19978_6322">
<rect width="24" height="24" fill="white"/>
</clipPath>
</defs>
</svg>
