<svg width="24" height="24" viewBox="0 0 24 24" fill="none" xmlns="http://www.w3.org/2000/svg">
<g clip-path="url(#clip0_19978_6271)">
<path d="M12 24C18.6274 24 24 18.6274 24 12C24 5.37258 18.6274 0 12 0C5.37258 0 0 5.37258 0 12C0 18.6274 5.37258 24 12 24Z" fill="#F0F0F0"/>
<path d="M17.8217 1.50525C16.0974 0.54675 14.1127 0 12 0C5.37309 0 0.00084375 5.37178 0 11.9986L8.34783 7.82611L17.8217 1.50525Z" fill="#0052B4"/>
<path d="M-0.000366211 12.002C0.000477539 18.6288 5.37273 24.0005 11.9996 24.0005C14.1123 24.0005 16.0971 23.4539 17.8213 22.4953L8.34746 16.1744L-0.000366211 12.002Z" fill="#0052B4"/>
<path d="M18.8214 2.1277C18.499 1.90462 18.1651 1.69716 17.8209 1.50586L-0.000366211 11.999C-0.000366211 11.9995 -0.000366211 12 -0.000366211 12.0004C-0.000366211 12.0009 -0.000366211 12.0014 -0.000366211 12.0018L17.8209 22.4949C18.1651 22.3036 18.499 22.0962 18.8214 21.8731L2.05379 12.0004L18.8214 2.1277Z" fill="#D80027"/>
<path d="M20.8692 11.5535H19.4398C19.8115 11.1073 19.7885 10.4434 19.3698 10.0248C19.8133 9.58127 19.8133 8.86216 19.3698 8.41858L19.3431 8.44539C19.7866 8.00191 19.8133 7.25598 19.3698 6.8125L12.9453 13.237C13.3888 13.6806 14.0953 13.6753 14.5388 13.2318L14.6625 13.1187L17.7388 12.8391V14.1622H18.7823V12.7442L20.3475 12.6019L20.8692 11.5535Z" fill="#A2001D"/>
<path d="M13.0439 14.6079L12 14.0862L13.0439 13.5645H19.8264V14.6079H13.0439Z" fill="#FFDA44"/>
</g>
<defs>
<clipPath id="clip0_19978_6271">
<rect width="24" height="24" fill="white"/>
</clipPath>
</defs>
</svg>
