<svg width="24" height="24" viewBox="0 0 24 24" fill="none" xmlns="http://www.w3.org/2000/svg">
<g clip-path="url(#clip0_19978_6344)">
<path d="M23.2541 16.1725C23.7365 14.8726 24.0005 13.4665 24.0005 11.9986C24.0005 10.5308 23.7365 9.12476 23.2541 7.82473L12.0005 6.78125L0.746879 7.82473C0.264535 9.12476 0.000488281 10.5308 0.000488281 11.9986C0.000488281 13.4665 0.264535 14.8726 0.746879 16.1725L12.0005 17.216L23.2541 16.1725Z" fill="#F0F0F0"/>
<path d="M12.0006 23.9999C17.1601 23.9999 21.5587 20.7434 23.2542 16.1738H0.746948C2.44251 20.7434 6.84098 23.9999 12.0006 23.9999Z" fill="#D80027"/>
<path d="M12.0002 0C6.84061 0 2.44214 3.2565 0.746582 7.82611H23.2538C21.5583 3.2565 17.1598 0 12.0002 0Z" fill="#D80027"/>
</g>
<defs>
<clipPath id="clip0_19978_6344">
<rect width="24" height="24" fill="white"/>
</clipPath>
</defs>
</svg>
