<svg width="24" height="24" viewBox="0 0 24 24" fill="none" xmlns="http://www.w3.org/2000/svg">
<g clip-path="url(#clip0_19978_6343)">
<path d="M24 12C24 18.6274 18.6274 24 12 24C5.37262 24 0 18.6274 0 12C0 12.0028 12 0.00135937 12 0C18.6274 0 24 5.37262 24 12Z" fill="#0052B4"/>
<path d="M11.9678 12.0009H11.9999C11.9999 11.99 11.9999 11.9796 11.9999 11.9688C11.9892 11.9795 11.9785 11.9902 11.9678 12.0009Z" fill="#F0F0F0"/>
<path d="M11.9997 6.26086C11.9997 4.14937 11.9997 2.76577 11.9997 0H11.9977C5.37125 0.00107812 -0.000244141 5.37319 -0.000244141 12H6.26061V8.47439L9.78617 12H11.9677C11.9784 11.9893 11.9891 11.9786 11.9998 11.9678C11.9998 11.1594 11.9998 10.438 11.9998 9.78647L8.47419 6.26086H11.9997Z" fill="#F0F0F0"/>
<path d="M6.07112 1.56641C4.19429 2.63511 2.63401 4.19539 1.56531 6.07222V12.0012H4.69576V4.69691V4.69686H12.0001C12.0001 3.70953 12.0001 2.76894 12.0001 1.56641H6.07112Z" fill="#D80027"/>
<path d="M12.0004 10.5251L7.73702 6.26174H6.26135C6.26135 6.26169 6.26135 6.26174 6.26135 6.26174L12.0004 12.0008H12.0004C12.0004 12.0008 12.0004 10.9834 12.0004 10.5251Z" fill="#D80027"/>
<path d="M7.23753 14.0859L7.89613 15.463L9.38333 15.1193L8.71733 16.4928L9.9133 17.4412L8.42422 17.7769L8.42839 19.3033L7.23753 18.3483L6.04672 19.3033L6.05089 17.7769L4.56177 17.4412L5.75778 16.4928L5.09169 15.1193L6.57899 15.463L7.23753 14.0859Z" fill="#F0F0F0"/>
<path d="M17.9671 16.6953L18.2964 17.3839L19.04 17.212L18.707 17.8987L19.305 18.373L18.5605 18.5408L18.5625 19.304L17.9671 18.8265L17.3717 19.304L17.3738 18.5408L16.6293 18.373L17.2273 17.8987L16.8943 17.212L17.6378 17.3839L17.9671 16.6953Z" fill="#F0F0F0"/>
<path d="M14.9035 9.39062L15.2327 10.0792L15.9763 9.90728L15.6433 10.594L16.2413 11.0683L15.4968 11.2361L15.4988 11.9993L14.9035 11.5218L14.308 11.9993L14.3101 11.2361L13.5656 11.0683L14.1635 10.594L13.8305 9.90728L14.5742 10.0792L14.9035 9.39062Z" fill="#F0F0F0"/>
<path d="M17.9671 5.2168L18.2964 5.90539L19.04 5.7335L18.707 6.42027L19.305 6.89445L18.5605 7.06231L18.5625 7.82553L17.9671 7.34802L17.3717 7.82553L17.3738 7.06231L16.6293 6.89445L17.2272 6.42027L16.8943 5.7335L17.6378 5.90539L17.9671 5.2168Z" fill="#F0F0F0"/>
<path d="M20.6422 8.34766L20.9715 9.03625L21.7151 8.86431L21.3821 9.55108L21.9801 10.0253L21.2355 10.1932L21.2376 10.9563L20.6422 10.4789L20.0468 10.9563L20.0488 10.1932L19.3043 10.0253L19.9023 9.55108L19.5693 8.86431L20.3129 9.03625L20.6422 8.34766Z" fill="#F0F0F0"/>
<path d="M18.7292 12L18.9881 12.7972H19.8264L19.1482 13.2899L19.4073 14.087L18.7292 13.5943L18.0511 14.087L18.3101 13.2899L17.632 12.7972H18.4701L18.7292 12Z" fill="#F0F0F0"/>
</g>
<defs>
<clipPath id="clip0_19978_6343">
<rect width="24" height="24" fill="white"/>
</clipPath>
</defs>
</svg>
