<svg width="24" height="24" viewBox="0 0 24 24" fill="none" xmlns="http://www.w3.org/2000/svg">
<g clip-path="url(#clip0_19978_6251)">
<path d="M23.5864 15.1297C23.8554 14.1316 23.9998 13.0824 23.9998 11.9993C23.9998 10.9161 23.8554 9.86697 23.5864 8.86881L10.9563 0.0449219C8.61154 0.246953 6.45983 1.12305 4.69541 2.47872L0.413146 8.86881C0.144131 9.86697 -0.000244141 10.9161 -0.000244141 11.9993C-0.000244141 13.0761 0.142396 14.1195 0.408412 15.1124L4.69536 21.5198C6.45979 22.8755 8.61149 23.7516 10.9562 23.9536L23.5864 15.1297Z" fill="#FFDA44"/>
<path d="M0.412964 15.1309C1.10728 17.7071 2.63751 19.9399 4.69523 21.521V15.1309H0.412964Z" fill="#0052B4"/>
<path d="M10.9559 23.9548C11.2999 23.9844 11.6478 24.0004 11.9994 24.0004C17.5437 24.0004 22.209 20.2401 23.586 15.1309H10.9559V23.9548Z" fill="#0052B4"/>
<path d="M23.586 8.86955C22.209 3.76036 17.5437 0 11.9994 0C11.6478 0 11.2999 0.0160312 10.9559 0.0456562V8.86955H23.586Z" fill="#0052B4"/>
<path d="M4.69523 2.48047C2.63751 4.06156 1.10728 6.29436 0.412964 8.87056H4.69523V2.48047Z" fill="#0052B4"/>
<path d="M23.8987 10.4347H9.3916H9.39156V0.285156C8.28259 0.531063 7.23123 0.929641 6.2611 1.459V10.4347H0.101822C0.0350254 10.9471 0.000244141 11.4694 0.000244141 11.9999C0.000244141 12.5304 0.0350254 13.0528 0.101822 13.5651H6.26106H6.2611V22.5408C7.23123 23.0701 8.28259 23.4688 9.39156 23.7146V13.5653V13.5652H23.8987C23.9654 13.0528 24.0002 12.5304 24.0002 11.9999C24.0002 11.4694 23.9654 10.9471 23.8987 10.4347Z" fill="#D80027"/>
</g>
<defs>
<clipPath id="clip0_19978_6251">
<rect width="24" height="24" fill="white"/>
</clipPath>
</defs>
</svg>
