<svg width="24" height="24" viewBox="0 0 24 24" fill="none" xmlns="http://www.w3.org/2000/svg">
<g clip-path="url(#clip0_19978_6350)">
<path d="M23.9996 12.0003C23.9996 10.5325 23.7356 9.12639 23.2532 7.82645L11.9996 7.30469L0.746024 7.82641C0.263681 9.12639 -0.000366211 10.5325 -0.000366211 12.0003C-0.000366211 13.4682 0.263681 14.8743 0.746024 16.1742L11.9996 16.696L23.2532 16.1743C23.7356 14.8743 23.9996 13.4682 23.9996 12.0003Z" fill="#D80027"/>
<path d="M12.0003 23.9999C17.1599 23.9999 21.5584 20.7434 23.2539 16.1738H0.746704C2.44222 20.7434 6.84074 23.9999 12.0003 23.9999Z" fill="#6DA544"/>
<path d="M0.746704 7.82611H23.254C21.5584 3.2565 17.1599 0 12.0003 0C6.84074 0 2.44222 3.2565 0.746704 7.82611Z" fill="#338AF3"/>
<path d="M12.2606 15.3914C10.3876 15.3914 8.86927 13.873 8.86927 12.0001C8.86927 10.1272 10.3876 8.6088 12.2606 8.6088C12.8445 8.6088 13.3941 8.75645 13.8738 9.01642C13.1212 8.28044 12.092 7.82617 10.9562 7.82617C8.65102 7.82617 6.78235 9.69489 6.78235 12.0001C6.78235 14.3052 8.65107 16.174 10.9562 16.174C12.092 16.174 13.1212 15.7197 13.8738 14.9837C13.3941 15.2438 12.8445 15.3914 12.2606 15.3914Z" fill="#F0F0F0"/>
<path d="M14.8696 9.65039L15.3188 10.9137L16.5297 10.338L15.9541 11.549L17.2174 11.9982L15.9541 12.4475L16.5297 13.6584L15.3188 13.0827L14.8696 14.346L14.4204 13.0827L13.2094 13.6584L13.7851 12.4475L12.5217 11.9982L13.7851 11.549L13.2094 10.338L14.4204 10.9137L14.8696 9.65039Z" fill="#F0F0F0"/>
</g>
<defs>
<clipPath id="clip0_19978_6350">
<rect width="24" height="24" fill="white"/>
</clipPath>
</defs>
</svg>
