<svg width="24" height="24" viewBox="0 0 24 24" fill="none" xmlns="http://www.w3.org/2000/svg">
<g clip-path="url(#clip0_19978_6547)">
<path d="M12 24C18.6274 24 24 18.6274 24 12C24 5.37258 18.6274 0 12 0C5.37258 0 0 5.37258 0 12C0 18.6274 5.37258 24 12 24Z" fill="#F0F0F0"/>
<path d="M11.9995 0C7.74468 0 4.00734 2.21452 1.87659 5.5537L18.1497 22.3054C21.6532 20.21 23.9995 16.3792 23.9995 12C23.9995 5.37262 18.6269 0 11.9995 0Z" fill="#FFDA44"/>
<path d="M24.0001 11.9986C24.0001 8.88505 22.8142 6.04873 20.8696 3.91602V20.0812C22.8142 17.9484 24.0001 15.1121 24.0001 11.9986Z" fill="#0052B4"/>
<path d="M14.9905 22.5872L16.2474 22.5864L16.6352 21.3907L17.0243 22.5859L17.6548 22.5856C18.0414 22.3786 18.4153 22.1512 18.7751 21.9045L2.09516 5.22461C1.82029 5.62567 1.5696 6.04445 1.34418 6.47852L1.4924 6.93377L2.74935 6.93297L1.73291 7.67242L2.12207 8.86769L1.10469 8.1295L0.497897 8.57088C0.174413 9.65725 0.000366211 10.808 0.000366211 11.9994C0.000366211 18.6268 5.37299 23.9994 12.0004 23.9994C13.4016 23.9994 14.7464 23.7588 15.9965 23.3173L14.9905 22.5872ZM2.67688 11.4777L3.06454 10.282L2.04726 9.54372L3.30421 9.54292L3.69191 8.34719L4.08107 9.54245L5.33802 9.54166L4.32154 10.2811L4.71069 11.4764L3.69332 10.7382L2.67688 11.4777ZM5.26555 14.0864L5.65321 12.8907L4.63593 12.1524L5.89288 12.1516L6.28058 10.9559L6.66974 12.1511L7.92669 12.1503L6.91026 12.8898L7.29941 14.0851L6.28204 13.3469L5.26555 14.0864ZM7.85418 16.6951L8.24183 15.4994L7.22455 14.7611L8.48151 14.7603L8.86921 13.5646L9.25837 14.7598L10.5153 14.759L9.49888 15.4985L9.88804 16.6938L8.87066 15.9555L7.85418 16.6951ZM11.4593 18.5643L10.4428 19.3038L10.8305 18.1081L9.81318 17.3698L11.0701 17.369L11.4579 16.1733L11.847 17.3685L13.104 17.3677L12.0876 18.1072L12.4767 19.3024L11.4593 18.5643ZM13.0315 21.9124L13.4191 20.7168L12.4018 19.9785L13.6588 19.9777L14.0465 18.7819L14.4357 19.9772L15.6926 19.9764L14.6762 20.7159L15.0653 21.9111L14.048 21.1728L13.0315 21.9124Z" fill="#0052B4"/>
</g>
<defs>
<clipPath id="clip0_19978_6547">
<rect width="24" height="24" fill="white"/>
</clipPath>
</defs>
</svg>
