<svg width="24" height="24" viewBox="0 0 24 24" fill="none" xmlns="http://www.w3.org/2000/svg">
<g clip-path="url(#clip0_19978_6373)">
<path d="M17.2173 1.19072C15.6396 0.427875 13.8697 0 11.9999 0C10.13 0 8.36012 0.427875 6.7825 1.19072L5.73901 12L6.7825 22.8093C8.36012 23.5721 10.13 24 11.9999 24C13.8697 24 15.6396 23.5721 17.2173 22.8093L18.2607 12L17.2173 1.19072Z" fill="#FFDA44"/>
<path d="M6.78275 1.19141C2.76884 3.13231 0.00012207 7.24273 0.00012207 12.0003C0.00012207 16.7578 2.76884 20.8682 6.78275 22.8091V1.19141Z" fill="#0052B4"/>
<path d="M17.2177 1.19141V22.8091C21.2316 20.8682 24.0003 16.7577 24.0003 12.0003C24.0003 7.24278 21.2316 3.13231 17.2177 1.19141Z" fill="#0052B4"/>
<path d="M15.6522 7.30325L16.3521 7.65322L15.6522 7.30325L14.9521 6.95328C14.9099 7.0377 13.9959 8.89738 13.8466 11.738H12.7826V7.30325L12 6.25977L11.2174 7.30325V11.738H10.1533C10.004 8.89738 9.09003 7.0377 9.0478 6.95328L7.64783 7.65327C7.65748 7.67248 8.60872 9.60866 8.60872 12.5207V13.3033H11.2174V17.7381H12.7826V13.3033H15.3913V12.5206C15.3913 11.0151 15.6518 9.77366 15.8704 8.99731C16.1086 8.15075 16.3506 7.65636 16.353 7.65144L15.6522 7.30325Z" fill="black"/>
</g>
<defs>
<clipPath id="clip0_19978_6373">
<rect width="24" height="24" fill="white"/>
</clipPath>
</defs>
</svg>
