<svg width="24" height="24" viewBox="0 0 24 24" fill="none" xmlns="http://www.w3.org/2000/svg">
<g clip-path="url(#clip0_19978_6365)">
<path d="M12 24C18.6274 24 24 18.6274 24 12C24 5.37258 18.6274 0 12 0C5.37258 0 0 5.37258 0 12C0 18.6274 5.37258 24 12 24Z" fill="#F0F0F0"/>
<path d="M12.0001 0C9.59189 0 7.34977 0.709922 5.47046 1.93116L8.55666 3.9997L4.6958 5.99967L8.55666 7.99964L4.6958 9.99961L8.55666 11.9993L4.6958 13.9993L8.55666 15.9992L4.6958 17.9993L8.55666 19.9993L5.47008 22.0685C7.34949 23.29 9.59175 24 12.0001 24C18.6275 24 24.0001 18.6274 24.0001 12C24.0001 5.37262 18.6275 0 12.0001 0Z" fill="#D80027"/>
</g>
<defs>
<clipPath id="clip0_19978_6365">
<rect width="24" height="24" fill="white"/>
</clipPath>
</defs>
</svg>
