<svg width="24" height="24" viewBox="0 0 24 24" fill="none" xmlns="http://www.w3.org/2000/svg">
<g clip-path="url(#clip0_19978_6646)">
<path d="M12 24C18.6274 24 24 18.6274 24 12C24 5.37258 18.6274 0 12 0C5.37258 0 0 5.37258 0 12C0 18.6274 5.37258 24 12 24Z" fill="#F0F0F0"/>
<path d="M19.307 2.47944C15.0108 -0.826471 8.98979 -0.826471 4.6936 2.47939L12.0003 9.78608L19.307 2.47944Z" fill="#D80027"/>
<path d="M12.0004 14.213L4.69385 21.5196C8.99004 24.8255 15.011 24.8255 19.3072 21.5196L12.0005 14.2129L12.0004 14.213Z" fill="#D80027"/>
<path d="M9.7868 12L2.48016 4.69336C-0.825744 8.98955 -0.825744 15.0105 2.48016 19.3067L9.7868 12Z" fill="#6DA544"/>
<path d="M14.2142 12L21.5208 19.3067C24.8267 15.0105 24.8267 8.98955 21.5208 4.69336L14.2142 12Z" fill="#6DA544"/>
<path d="M12.0003 17.2179C14.8818 17.2179 17.2177 14.882 17.2177 12.0006C17.2177 9.1191 14.8818 6.7832 12.0003 6.7832C9.11886 6.7832 6.78296 9.1191 6.78296 12.0006C6.78296 14.882 9.11886 17.2179 12.0003 17.2179Z" fill="#F0F0F0"/>
<path d="M11.9999 8.34766L12.4517 9.13028H13.3554L12.9035 9.91286L13.3554 10.6955H12.4517L11.9999 11.4781L11.5481 10.6955H10.6444L11.0962 9.91286L10.6444 9.13028H11.5481L11.9999 8.34766Z" fill="#D80027"/>
<path d="M9.70355 12L10.1554 12.7826H11.059L10.6072 13.5652L11.059 14.3478H10.1554L9.70355 15.1304L9.25168 14.3478H8.34802L8.79985 13.5652L8.34802 12.7826H9.25168L9.70355 12Z" fill="#D80027"/>
<path d="M14.2971 12L14.7489 12.7826H15.6525L15.2007 13.5652L15.6525 14.3478H14.7489L14.2971 15.1304L13.8452 14.3478H12.9415L13.3934 13.5652L12.9415 12.7826H13.8452L14.2971 12Z" fill="#D80027"/>
</g>
<defs>
<clipPath id="clip0_19978_6646">
<rect width="24" height="24" fill="white"/>
</clipPath>
</defs>
</svg>
