<svg width="24" height="24" viewBox="0 0 24 24" fill="none" xmlns="http://www.w3.org/2000/svg">
<g clip-path="url(#clip0_19978_8030)">
<path d="M12 24C18.6274 24 24 18.6274 24 12C24 5.37258 18.6274 0 12 0C5.37258 0 0 5.37258 0 12C0 18.6274 5.37258 24 12 24Z" fill="#F0F0F0"/>
<path d="M21.4265 9.65199H17.4787C17.4787 8.93164 16.8947 8.34766 16.1744 8.34766L15.1309 10.4346C15.1309 10.4346 16.2439 13.565 16.2091 13.565H17.5135C18.2339 13.565 18.8178 12.9811 18.8178 12.2607C19.5382 12.2607 20.1221 11.6768 20.1221 10.9564H20.0787C20.799 10.9563 21.4265 10.3724 21.4265 9.65199Z" fill="#ACABB1"/>
<path d="M2.57422 9.65199H6.52204C6.52204 8.93164 7.10601 8.34766 7.82637 8.34766L8.86987 10.4346C8.86987 10.4346 7.7568 13.565 7.79161 13.565H6.48727C5.76687 13.565 5.18294 12.9811 5.18294 12.2607C4.46253 12.2607 3.8786 11.6768 3.8786 10.9564H3.92204C3.20164 10.9563 2.57422 10.3724 2.57422 9.65199Z" fill="#ACABB1"/>
<path d="M16.1738 16.6953V17.217H7.82596V16.6953H5.73901V18.7823H7.82596V19.304H16.1738V18.7823H18.2607V16.6953H16.1738Z" fill="#FFDA44"/>
<path d="M7.82593 8.3479V13.5652C7.82593 16.7602 11.9998 17.7392 11.9998 17.7392C11.9998 17.7392 16.1737 16.7602 16.1737 13.5652V8.3479L11.9998 7.82617L7.82593 8.3479Z" fill="#0052B4"/>
<path d="M16.1737 10.4336H7.82593V13.564H16.1737V10.4336Z" fill="#D80027"/>
<path d="M14.0868 5.73881V6.52142L13.565 6.78231L13.0433 6.26054V4.69531H10.9564V6.26054L10.4346 6.78231L9.91287 6.52142V5.73881H7.82593V8.34748H16.1738V5.73881H14.0868Z" fill="#FFDA44"/>
</g>
<defs>
<clipPath id="clip0_19978_8030">
<rect width="24" height="24" fill="white"/>
</clipPath>
</defs>
</svg>
