<svg width="24" height="24" viewBox="0 0 24 24" fill="none" xmlns="http://www.w3.org/2000/svg">
<g clip-path="url(#clip0_19978_6413)">
<path d="M24 12C24 18.6274 18.6274 24 12 24C5.37262 24 0 18.6274 0 12C0 12.0029 12 0.0013125 12 0C18.6274 0 24 5.37262 24 12Z" fill="#D80027"/>
<path d="M11.9998 5.73828V9.78561L7.82593 5.73828H11.9998Z" fill="#0052B4"/>
<path d="M6.26073 11.9984H9.78625L6.26073 7.30273L5.73901 10.9549L6.26073 11.9984Z" fill="#0052B4"/>
<path d="M11.9683 12.0009H12.0004C12.0004 11.9901 12.0004 11.9796 12.0004 11.9688C11.9897 11.9795 11.979 11.9902 11.9683 12.0009Z" fill="#F0F0F0"/>
<path d="M11.999 6.26086C11.999 4.14937 11.999 2.76586 11.999 0H11.997C5.37048 0.001125 -0.000976562 5.37323 -0.000976562 12H6.25988V8.47448L9.7854 12H11.967C11.9776 11.9893 11.9883 11.9786 11.9991 11.9679C11.9991 11.1594 11.9991 10.4381 11.9991 9.78647L8.47346 6.26086H11.999Z" fill="#F0F0F0"/>
<path d="M6.07063 1.56445C4.1938 2.63316 2.63348 4.19344 1.56482 6.07027V12.521H4.69527V4.695V4.69491H12.5213C12.5213 3.70758 12.5213 2.76699 12.5213 1.56445H6.07063Z" fill="#D80027"/>
<path d="M12.4763 11.0002L7.73576 6.25977H6.26013V6.25986L12.4762 12.4759H12.4763C12.4763 12.476 12.4763 11.4584 12.4763 11.0002Z" fill="#D80027"/>
<path d="M13.5652 6.25977V11.9989C13.5652 14.7945 20.8695 14.7945 20.8695 11.9989V6.25977H13.5652Z" fill="#F3F3F3"/>
<path d="M13.5652 12V12C13.5652 14.7956 17.2174 15.6522 17.2174 15.6522C17.2174 15.6522 20.8695 14.7956 20.8695 12V12H13.5652Z" fill="#6DA544"/>
<path d="M17.2175 9.70508L15.5219 10.4355V12.0007L17.2175 13.0442L18.9132 12.0007V10.4355L17.2175 9.70508Z" fill="#A2001D"/>
<path d="M18.9132 8.86914H15.5219V10.4343H18.9132V8.86914Z" fill="#338AF3"/>
</g>
<defs>
<clipPath id="clip0_19978_6413">
<rect width="24" height="24" fill="white"/>
</clipPath>
</defs>
</svg>
