<svg width="24" height="24" viewBox="0 0 24 24" fill="none" xmlns="http://www.w3.org/2000/svg">
<g clip-path="url(#clip0_19978_6622)">
<path d="M12.0004 23.9984C18.6269 23.9984 23.9987 18.6266 23.9987 12.0002C23.9987 5.37375 18.6269 0.00195312 12.0004 0.00195312C5.37399 0.00195312 0.00219727 5.37375 0.00219727 12.0002C0.00219727 18.6266 5.37399 23.9984 12.0004 23.9984Z" fill="#F0F0F0"/>
<path d="M1.60952 6.00195C1.06796 6.93985 0.668487 7.9204 0.402466 8.91919L20.4681 20.5042C21.2001 19.7744 21.8496 18.938 22.391 18.0002L1.60952 6.00195Z" fill="black"/>
<path d="M17.9987 1.6092C13.1979 -1.16253 7.2784 -0.238742 3.53174 3.4969L23.5974 15.0818C24.9593 9.9694 22.7995 4.38098 17.9987 1.6092Z" fill="#FFDA44"/>
<path d="M6.00067 22.3907C10.8014 25.1624 16.7211 24.2386 20.4676 20.503L0.40194 8.91797C-0.959855 14.0305 1.19982 19.6189 6.00067 22.3907Z" fill="#FFDA44"/>
<path d="M15.3909 10.695C15.3909 12.5677 13.8728 14.0859 12.0001 14.0859C10.1274 14.0859 8.60928 12.5677 8.60928 10.695C8.60928 10.1111 8.7569 9.56171 9.01687 9.08203C8.28106 9.83453 7.82678 10.8636 7.82678 11.9992C7.82678 14.304 9.69521 16.1725 12.0001 16.1725C14.305 16.1725 16.1734 14.3041 16.1734 11.9992C16.1734 10.8636 15.7192 9.83453 14.9833 9.08203C15.2433 9.56181 15.3909 10.1111 15.3909 10.695Z" fill="#D80027"/>
<path d="M12.7828 6.7832H11.2178V14.6082H12.7828V6.7832Z" fill="#D80027"/>
<path d="M14.6081 8.34766H9.39148C9.39148 8.7078 9.70522 8.99975 10.0653 8.99975H10.0436C10.0436 9.3599 10.3356 9.65184 10.6957 9.65184C10.6957 10.012 10.9877 10.3039 11.3478 10.3039H12.6519C13.012 10.3039 13.304 10.012 13.304 9.65184C13.6641 9.65184 13.9561 9.3599 13.9561 8.99975H13.9344C14.2944 8.9997 14.6081 8.70785 14.6081 8.34766Z" fill="#D80027"/>
<path d="M15.6522 15.1289H8.34888V16.6939H15.6522V15.1289Z" fill="#D80027"/>
<path d="M16.6948 15.6504H13.5648V17.2154H16.6948V15.6504Z" fill="#D80027"/>
<path d="M10.435 15.6504H7.30505V17.2154H10.435V15.6504Z" fill="#D80027"/>
</g>
<defs>
<clipPath id="clip0_19978_6622">
<rect width="24" height="24" fill="white"/>
</clipPath>
</defs>
</svg>
