<svg width="24" height="24" viewBox="0 0 24 24" fill="none" xmlns="http://www.w3.org/2000/svg">
<g clip-path="url(#clip0_19978_6535)">
<path d="M24 12.0003C24 10.5325 23.736 9.12639 23.2536 7.82645L12 7.30469L0.746391 7.82641C0.264 9.12639 0 10.5325 0 12.0003C0 13.4682 0.264 14.8743 0.746391 16.1742L12 16.696L23.2536 16.1743C23.736 14.8743 24 13.4682 24 12.0003Z" fill="#FFDA44"/>
<path d="M11.9999 23.9999C17.1595 23.9999 21.558 20.7434 23.2536 16.1738H0.746338C2.44185 20.7434 6.84037 23.9999 11.9999 23.9999Z" fill="#6DA544"/>
<path d="M0.746216 7.82611H23.2535C21.5579 3.2565 17.1594 0 11.9998 0C6.84025 0 2.44173 3.2565 0.746216 7.82611Z" fill="#D80027"/>
</g>
<defs>
<clipPath id="clip0_19978_6535">
<rect width="24" height="24" fill="white"/>
</clipPath>
</defs>
</svg>
