<svg width="24" height="24" viewBox="0 0 24 24" fill="none" xmlns="http://www.w3.org/2000/svg">
<g clip-path="url(#clip0_19978_7813)">
<path d="M12 24C18.6274 24 24 18.6274 24 12C24 5.37258 18.6274 0 12 0C5.37258 0 0 5.37258 0 12C0 18.6274 5.37258 24 12 24Z" fill="#F0F0F0"/>
<path d="M11.9999 4.44542e-06C11.9887 -0.00843306 -0.00330894 11.9969 -0.000121435 12C-0.000121435 5.37263 5.3725 4.44542e-06 11.9999 4.44542e-06Z" fill="#D80027"/>
<path d="M11.9998 4.44543e-06C12.011 -0.00843305 24.003 11.9968 23.9998 12C23.9998 5.37263 18.6271 4.44543e-06 11.9998 4.44543e-06Z" fill="#D80027"/>
<path d="M11.9995 23.998C11.9883 24.0065 -0.00367515 12.0012 -0.000487646 11.998C-0.000487646 18.6254 5.37214 23.998 11.9995 23.998Z" fill="#0052B4"/>
<path d="M11.9995 23.998C12.0107 24.0065 24.0027 12.0012 23.9995 11.998C23.9995 18.6254 18.6269 23.998 11.9995 23.998Z" fill="#0052B4"/>
<path d="M12 6.25977L13.2951 10.2455H17.4859L14.0954 12.7088L15.3905 16.6946L12 14.2312L8.60956 16.6946L9.90463 12.7088L6.51416 10.2455H10.705L12 6.25977Z" fill="#FFDA44"/>
</g>
<defs>
<clipPath id="clip0_19978_7813">
<rect width="24" height="24" fill="white"/>
</clipPath>
</defs>
</svg>
