<svg width="24" height="24" viewBox="0 0 24 24" fill="none" xmlns="http://www.w3.org/2000/svg">
<g clip-path="url(#clip0_19978_7920)">
<path d="M5.23682 21.9126C7.16272 23.2291 9.49133 23.9996 12.0003 23.9996C14.5092 23.9996 16.8379 23.2291 18.7637 21.9126L12.0003 20.8691L5.23682 21.9126Z" fill="#D80027"/>
<path d="M18.7637 2.08697C16.8379 0.770484 14.5092 0 12.0003 0C9.49133 0 7.16263 0.770484 5.23682 2.08697L12.0003 3.13045L18.7637 2.08697Z" fill="#D80027"/>
<path d="M5.23682 21.9126C7.16272 23.2291 9.49133 23.9996 12.0003 23.9996C14.5092 23.9996 16.8379 23.2291 18.7637 21.9126L12.0003 20.8691L5.23682 21.9126Z" fill="#D80027"/>
<path d="M18.7637 2.08697C16.8379 0.770484 14.5092 0 12.0003 0C9.49133 0 7.16263 0.770484 5.23682 2.08697L12.0003 3.13045L18.7637 2.08697Z" fill="#D80027"/>
<path d="M23.9703 11.2164C23.686 7.5128 21.4357 3.91205 18.7644 2.08594H5.23745C2.27795 4.10911 0.270436 7.42261 0.026123 11.2164L12.0009 11.999L23.9703 11.2164Z" fill="#0052B4"/>
<path d="M0.0251465 12.7826C0.269459 16.5765 2.27693 19.8899 5.23643 21.9131H18.7633C21.723 19.8899 23.7304 16.5765 23.9747 12.7826L11.9999 12L0.0251465 12.7826Z" fill="#0052B4"/>
<path d="M23.9694 11.2166H12.7826V1.56445H11.2174V11.2166H0.0252656C0.008625 11.4753 0 11.7363 0 11.9993C0 12.2622 0.00857813 12.5231 0.0252187 12.7818H11.2174V22.4341H12.7826V12.7818H23.9748C23.9914 12.5231 24 12.2622 24 11.9993C24 11.7382 23.9895 11.4772 23.9694 11.2166Z" fill="#D80027"/>
<path d="M4.6958 11.9992L12.0001 7.4082L19.3045 11.9992L12.0001 16.5903L4.6958 11.9992Z" fill="#F0F0F0"/>
<path d="M7.82593 14.0875H17.2172L15.1303 10.957L14.0868 12.0005L13.0433 11.4788L11.9998 13.044H9.91285L8.86937 12.0005L7.82593 14.0875Z" fill="#6DA544"/>
<path d="M12.0004 8.86914L12.2595 9.66625H13.0975L12.4195 10.159L12.6785 10.9561L12.0004 10.4635L11.3223 10.9561L11.5814 10.159L10.9033 9.66625H11.7414L12.0004 8.86914Z" fill="#FFDA44"/>
<path d="M12.0002 6.0957L2.60889 11.9985L12.0002 17.9013L21.3915 11.9985L12.0002 6.0957ZM5.5502 11.9985L12.0002 7.9444L18.4502 11.9985L12.0002 16.0526L5.5502 11.9985Z" fill="#D80027"/>
</g>
<defs>
<clipPath id="clip0_19978_7920">
<rect width="24" height="24" fill="white"/>
</clipPath>
</defs>
</svg>
