<svg width="24" height="24" viewBox="0 0 24 24" fill="none" xmlns="http://www.w3.org/2000/svg">
<g clip-path="url(#clip0_19978_6540)">
<path d="M12 24C18.6274 24 24 18.6274 24 12C24 5.37258 18.6274 0 12 0C5.37258 0 0 5.37258 0 12C0 18.6274 5.37258 24 12 24Z" fill="#F0F0F0"/>
<path d="M3.51497 3.51432C0.943172 6.08612 -0.216844 9.5349 0.0340778 12.898L12.8986 0.0334789C9.5355 -0.21749 6.08677 0.942526 3.51497 3.51432Z" fill="#FFDA44"/>
<path d="M4.28491 21.1892C8.99965 25.1558 16.0477 24.9212 20.4854 20.4836C24.923 16.046 25.1576 8.99789 21.1909 4.2832L4.28491 21.1892Z" fill="#0052B4"/>
<path d="M11.9569 11.5162L12.991 10.956L11.9569 10.3959C11.7155 8.82739 10.4762 7.58806 8.90771 7.34666L8.34751 6.3125L7.78735 7.34661C6.21892 7.58802 4.97963 8.82734 4.73813 10.3958L3.70398 10.956L4.73809 11.5162C4.97954 13.0847 6.21882 14.324 7.7873 14.5654L8.34751 15.5996L8.90766 14.5655C10.4762 14.324 11.7155 13.0847 11.9569 11.5162ZM8.34755 13.043C7.19495 13.043 6.26059 12.1087 6.26059 10.956C6.26059 9.80338 7.1949 8.86906 8.34755 8.86906C9.50021 8.86906 10.4345 9.80338 10.4345 10.956C10.4345 12.1087 9.50016 13.043 8.34755 13.043Z" fill="black"/>
<path d="M8.34767 9.39062L8.7995 10.1732H9.7032L9.25133 10.9558L9.7032 11.7385H8.7995L8.34767 12.521L7.89584 11.7385H6.99219L7.44402 10.9558L6.99219 10.1732H7.89584L8.34767 9.39062Z" fill="#D80027"/>
</g>
<defs>
<clipPath id="clip0_19978_6540">
<rect width="24" height="24" fill="white"/>
</clipPath>
</defs>
</svg>
