<svg width="24" height="24" viewBox="0 0 24 24" fill="none" xmlns="http://www.w3.org/2000/svg">
<g clip-path="url(#clip0_19978_6561)">
<path d="M12 24C18.6274 24 24 18.6274 24 12C24 5.37258 18.6274 0 12 0C5.37258 0 0 5.37258 0 12C0 18.6274 5.37258 24 12 24Z" fill="#6DA544"/>
<path d="M12.0004 4.69531L21.9135 11.9997L12.0004 19.304L2.0874 11.9997L12.0004 4.69531Z" fill="#FFDA44"/>
<path d="M12.0001 16.174C14.3052 16.174 16.174 14.3052 16.174 12.0001C16.174 9.69489 14.3052 7.82617 12.0001 7.82617C9.69489 7.82617 7.82617 9.69489 7.82617 12.0001C7.82617 14.3052 9.69489 16.174 12.0001 16.174Z" fill="#F0F0F0"/>
<path d="M9.91324 11.7402C9.18743 11.7402 8.48698 11.8506 7.82764 12.0555C7.85684 14.3355 9.71328 16.175 12.0002 16.175C13.4143 16.175 14.6633 15.4711 15.4183 14.3953C14.1266 12.7782 12.139 11.7402 9.91324 11.7402Z" fill="#0052B4"/>
<path d="M16.0966 12.7998C16.1469 12.5408 16.174 12.2737 16.174 12.0001C16.174 9.69485 14.3053 7.82617 12.0001 7.82617C10.2801 7.82617 8.80355 8.86684 8.16455 10.3527C8.72939 10.2356 9.31421 10.174 9.91322 10.174C12.3375 10.174 14.5305 11.1817 16.0966 12.7998Z" fill="#0052B4"/>
</g>
<defs>
<clipPath id="clip0_19978_6561">
<rect width="24" height="24" fill="white"/>
</clipPath>
</defs>
</svg>
