<svg width="24" height="24" viewBox="0 0 24 24" fill="none" xmlns="http://www.w3.org/2000/svg">
<g clip-path="url(#clip0_19978_6430)">
<path d="M3.51422 20.4853C-1.17206 15.799 -1.17206 8.20106 3.51422 3.51473C8.2005 -1.1716 15.7985 -1.17155 20.4848 3.51473C20.4848 3.51637 23.6708 14.2987 18.9845 18.985C14.2983 23.6714 3.5175 20.4886 3.51422 20.4853Z" fill="#FFDA44"/>
<path d="M3.51465 20.4842C8.20093 25.1705 15.7989 25.1705 20.4853 20.4842C25.1716 15.798 25.1716 8.2 20.4853 3.51367L3.51465 20.4842Z" fill="#FF9811"/>
<path d="M18.7885 6.78228V4.69531H14.7884L14.4828 5.00089C13.3958 6.08788 13.5787 7.35594 13.7122 8.28181C13.8359 9.1407 13.8508 9.46972 13.5314 9.78917C13.212 10.1085 12.8829 10.0937 12.0241 9.96983C11.0982 9.83638 9.8302 9.65352 8.74321 10.7405C7.65628 11.8274 7.83923 13.0954 7.97282 14.0212C8.09671 14.88 8.11162 15.209 7.79231 15.5283C7.47295 15.8475 7.14384 15.8327 6.28523 15.7088C5.95045 15.6605 5.60428 15.6106 5.23471 15.6065L5.21179 17.6933C5.44307 17.6959 5.7074 17.734 5.98725 17.7744C6.31856 17.8222 6.69356 17.8763 7.08853 17.8763C7.49784 17.8763 7.92843 17.818 8.35368 17.6344V19.3041H11.4841V17.7389H9.91893V16.6954H10.9624V15.1302H10.1284C10.168 14.6239 10.0984 14.139 10.0384 13.7233C9.91453 12.8645 9.89962 12.5355 10.2189 12.2163C10.5383 11.8969 10.8673 11.9117 11.7262 12.0355C12.4009 12.1328 13.2572 12.2557 14.0929 11.8949V13.565H17.2233V11.9998H15.6581V10.9563H16.7016V9.39106H15.8677C15.9073 8.88467 15.8377 8.39984 15.7777 7.98402C15.6913 7.38397 15.6579 7.04253 15.7546 6.78233H18.7885V6.78228Z" fill="#F0F0F0"/>
</g>
<defs>
<clipPath id="clip0_19978_6430">
<rect width="24" height="24" fill="white"/>
</clipPath>
</defs>
</svg>
