<svg width="24" height="24" viewBox="0 0 24 24" fill="none" xmlns="http://www.w3.org/2000/svg">
<g clip-path="url(#clip0_19978_6554)">
<path d="M0.567113 8.34789C0.19952 9.49956 0.000441415 10.7264 0.00048829 12.0001C0.000441415 13.2736 0.19952 14.5005 0.56716 15.6522L12.0005 16.174L23.4338 15.6522C23.8013 14.5005 24.0004 13.2736 24.0004 12.0001C24.0004 10.7265 23.8014 9.49956 23.4338 8.34789L12.0004 7.82617L0.567113 8.34789Z" fill="#F0F0F0"/>
<path d="M24.0004 12.0011C24.0004 11.2892 23.938 10.5919 23.8191 9.91406H0.181679C0.06271 10.5919 0.000366211 11.2891 0.000366211 12.001C0.000366211 12.713 0.0627568 13.4102 0.181679 14.088H23.8191C23.938 13.4101 24.0004 12.7129 24.0004 12.0011Z" fill="black"/>
<path d="M11.9999 24.0002C17.3537 24.0002 21.888 20.4938 23.4331 15.6523H0.566528C2.11176 20.4938 6.64603 24.0001 11.9999 24.0002Z" fill="#338AF3"/>
<path d="M12.0004 1.87984e-09C6.64656 1.87984e-09 2.11234 3.50639 0.567017 8.34773L23.4336 8.34778C21.8884 3.50639 17.3542 -9.37481e-05 12.0004 1.87984e-09Z" fill="#338AF3"/>
</g>
<defs>
<clipPath id="clip0_19978_6554">
<rect width="24" height="24" fill="white"/>
</clipPath>
</defs>
</svg>
