<svg width="24" height="24" viewBox="0 0 24 24" fill="none" xmlns="http://www.w3.org/2000/svg">
<g clip-path="url(#clip0_19978_6749)">
<path d="M12 24C18.6274 24 24 18.6274 24 12C24 5.37258 18.6274 0 12 0C5.37258 0 0 5.37258 0 12C0 18.6274 5.37258 24 12 24Z" fill="#6DA544"/>
<path d="M18.4212 17.2188L18.7505 17.9073L19.4941 17.7355L19.1612 18.4222L19.7591 18.8964L19.0146 19.0642L19.0167 19.8275L18.4212 19.35L17.8258 19.8275L17.8279 19.0642L17.0834 18.8964L17.6814 18.4222L17.3484 17.7355L18.0919 17.9073L18.4212 17.2188Z" fill="#FFDA44"/>
<path d="M15.3579 9.91211L15.6872 10.6007L16.4308 10.4288L16.0978 11.1156L16.6958 11.5898L15.9513 11.7576L15.9533 12.5208L15.3579 12.0433L14.7625 12.5208L14.7645 11.7576L14.02 11.5898L14.618 11.1156L14.285 10.4288L15.0286 10.6007L15.3579 9.91211Z" fill="#FFDA44"/>
<path d="M18.4213 5.73828L18.7506 6.42683L19.4942 6.25489L19.1613 6.9417L19.7592 7.41594L19.0146 7.5837L19.0167 8.34697L18.4213 7.86945L17.8259 8.34697L17.828 7.5837L17.0835 7.41594L17.6814 6.9417L17.3484 6.25489L18.092 6.42683L18.4213 5.73828Z" fill="#FFDA44"/>
<path d="M21.0971 8.87109L21.4264 9.55964L22.1701 9.38775L21.8371 10.0746L22.4351 10.5487L21.6905 10.7166L21.6926 11.4798L21.0971 11.0023L20.5017 11.4798L20.5037 10.7166L19.7593 10.5487L20.3573 10.0746L20.0242 9.38775L20.7678 9.55964L21.0971 8.87109Z" fill="#FFDA44"/>
<path d="M19.1841 12.5215L19.4432 13.3187H20.2813L19.6032 13.8113L19.8623 14.6085L19.1841 14.1158L18.506 14.6085L18.765 13.8113L18.0869 13.3187H18.9251L19.1841 12.5215Z" fill="#FFDA44"/>
<path d="M13.3045 15.3914C11.4315 15.3914 9.9131 13.873 9.9131 12.0001C9.9131 10.1272 11.4314 8.6088 13.3045 8.6088C13.8884 8.6088 14.4379 8.7565 14.9177 9.01642C14.1651 8.28039 13.1359 7.82617 12 7.82617C9.69489 7.82617 7.82617 9.69489 7.82617 12.0001C7.82617 14.3052 9.69489 16.174 12 16.174C13.1359 16.174 14.1651 15.7197 14.9176 14.9837C14.4379 15.2437 13.8884 15.3914 13.3045 15.3914Z" fill="#FFDA44"/>
<path d="M7.5469 4.69583C7.18596 4.0722 6.51213 3.65234 5.73982 3.65234C4.96751 3.65234 4.29368 4.0722 3.93274 4.69583H7.5469Z" fill="#FFDA44"/>
<path d="M7.55316 4.70703L5.73914 6.52104L3.92513 4.70703C3.75174 5.0113 3.65222 5.36319 3.65222 5.73847C3.65222 6.89108 4.58658 7.82543 5.73919 7.82543C6.8918 7.82543 7.82616 6.89112 7.82616 5.73847C7.82611 5.36319 7.72655 5.0113 7.55316 4.70703Z" fill="#FFDA44"/>
<path d="M5.21729 6V7.76034C5.38402 7.80323 5.55886 7.82606 5.73901 7.82606C5.91915 7.82606 6.09399 7.80319 6.26073 7.76034V6H5.21729Z" fill="#A2001D"/>
</g>
<defs>
<clipPath id="clip0_19978_6749">
<rect width="24" height="24" fill="white"/>
</clipPath>
</defs>
</svg>
