<svg width="24" height="24" viewBox="0 0 24 24" fill="none" xmlns="http://www.w3.org/2000/svg">
<g clip-path="url(#clip0_19978_6861)">
<path d="M22.6672 6.49909C22.1128 5.42477 21.386 4.41639 20.4854 3.51583C19.5848 2.61522 18.5764 1.88842 17.5021 1.33398L9.04823 9.04989L1.33228 17.5037C1.88676 18.5781 2.61356 19.5865 3.51412 20.4871C4.41468 21.3876 5.4231 22.1144 6.49738 22.6689L14.9512 14.953L22.6672 6.49909Z" fill="#FFDA44"/>
<path d="M3.51468 20.4848C4.01807 20.9882 4.55521 21.4372 5.1186 21.8325L21.8335 5.1175C21.4383 4.55411 20.9893 4.01697 20.4859 3.51358C19.9825 3.01019 19.4454 2.56127 18.882 2.16602L2.16711 18.8809C2.56232 19.4442 3.01124 19.9814 3.51468 20.4848Z" fill="#D80027"/>
<path d="M3.51429 3.51431C-0.271664 7.30026 -0.99846 12.9861 1.33245 17.5023L17.5023 1.33251C12.986 -0.998347 7.3002 -0.271457 3.51429 3.51431Z" fill="#338AF3"/>
<path d="M20.4855 20.486C24.2714 16.7001 24.9981 11.0142 22.6674 6.49805L6.49756 22.6678C11.0137 24.9987 16.6996 24.2719 20.4855 20.486Z" fill="#338AF3"/>
<path d="M6.39522 3.65039L7.04276 5.64337H9.13826L7.44297 6.87506L8.09051 8.868L6.39522 7.63627L4.69985 8.868L5.34747 6.87506L3.6521 5.64337H5.7476L6.39522 3.65039Z" fill="#FFDA44"/>
</g>
<defs>
<clipPath id="clip0_19978_6861">
<rect width="24" height="24" fill="white"/>
</clipPath>
</defs>
</svg>
