<svg width="24" height="24" viewBox="0 0 24 24" fill="none" xmlns="http://www.w3.org/2000/svg">
<g clip-path="url(#clip0_19978_6700)">
<path d="M12 24C18.6274 24 24 18.6274 24 12C24 5.37258 18.6274 0 12 0C5.37258 0 0 5.37258 0 12C0 18.6274 5.37258 24 12 24Z" fill="#F0F0F0"/>
<path d="M22.5405 6.26023C20.9898 3.41825 18.3234 1.27283 15.13 0.412109L14.6083 6.26023H22.5405Z" fill="#0052B4"/>
<path d="M1.45898 6.26023H9.39117L8.86945 0.412109C5.676 1.27283 3.00966 3.4183 1.45898 6.26023Z" fill="#0052B4"/>
<path d="M14.6083 12V17.7391H22.5405C23.4707 16.0342 23.9996 14.0789 23.9996 12H14.6083Z" fill="#6DA544"/>
<path d="M9.39119 12H-0.00012207C-0.00012207 14.0789 0.528769 16.0342 1.45896 17.7391H9.39114V12H9.39119Z" fill="#6DA544"/>
<path d="M1.45911 17.7402C3.00978 20.5822 5.67612 22.7276 8.86957 23.5884L9.39129 18.4739L1.45911 17.7402Z" fill="#FFDA44"/>
<path d="M15.1301 23.5884C18.3236 22.7276 20.99 20.5822 22.5406 17.7402L14.6084 18.4738L15.1301 23.5884Z" fill="#FFDA44"/>
<path d="M14.6084 18.4738L22.5406 17.7402H14.6084V18.4738Z" fill="#FFDA44"/>
<path d="M9.39134 17.7402H1.45911L9.39134 18.4738V17.7402Z" fill="#FFDA44"/>
<path d="M12.0001 0C10.9169 0 9.86779 0.144375 8.86963 0.413391V23.5867C9.86779 23.8556 10.9169 24 12.0001 24C13.0832 24 14.1324 23.8556 15.1305 23.5866V0.413391C14.1324 0.144375 13.0832 0 12.0001 0Z" fill="#D80027"/>
<path d="M6.45426 2.60938L6.77798 3.6058H7.82577L6.97818 4.22164L7.30195 5.21806L6.45426 4.60227L5.60662 5.21806L5.93048 4.22164L5.08289 3.6058H6.13059L6.45426 2.60938Z" fill="#FFDA44"/>
</g>
<defs>
<clipPath id="clip0_19978_6700">
<rect width="24" height="24" fill="white"/>
</clipPath>
</defs>
</svg>
