<svg width="24" height="24" viewBox="0 0 24 24" fill="none" xmlns="http://www.w3.org/2000/svg">
<g clip-path="url(#clip0_19978_6780)">
<path d="M24 12C24 18.6274 18.6274 24 12 24C5.37262 24 0 18.6274 0 12C0 12.0029 12 0.0013125 12 0C18.6274 0 24 5.37262 24 12Z" fill="#0052B4"/>
<path d="M11.9679 12.0009H12.0001C12.0001 11.9901 12.0001 11.9796 12.0001 11.9688C11.9894 11.9795 11.9786 11.9902 11.9679 12.0009Z" fill="#F0F0F0"/>
<path d="M11.9997 6.26086C11.9997 4.14937 11.9997 2.76586 11.9997 0H11.9977C5.37121 0.001125 -0.000244141 5.37323 -0.000244141 12H6.26061V8.47448L9.78613 12H11.9677C11.9784 11.9893 11.9891 11.9786 11.9998 11.9679C11.9998 11.1594 11.9998 10.4381 11.9998 9.78647L8.47419 6.26086H11.9997Z" fill="#F0F0F0"/>
<path d="M6.07136 1.56445C4.19454 2.63316 2.63421 4.19344 1.56555 6.07027V11.9993H4.69601V4.695V4.69491H12.0003C12.0003 3.70758 12.0003 2.76699 12.0003 1.56445H6.07136Z" fill="#D80027"/>
<path d="M12.0001 10.5232L7.73661 6.25977H6.26099V6.25986L12 11.9989H12.0001C12.0001 11.9989 12.0001 10.9813 12.0001 10.5232Z" fill="#D80027"/>
<path d="M16.1738 12L16.3958 12.6833H17.1142L16.533 13.1055L16.755 13.7888L16.1738 13.3665L15.5926 13.7888L15.8146 13.1055L15.2334 12.6833H15.9518L16.1738 12Z" fill="#F0F0F0"/>
<path d="M13.2225 13.2229L13.8626 13.549L14.3706 13.041L14.2582 13.7506L14.8984 14.0768L14.1888 14.1891L14.0764 14.8988L13.7502 14.2586L13.0406 14.371L13.5487 13.863L13.2225 13.2229Z" fill="#F0F0F0"/>
<path d="M11.9995 16.1727L12.6828 15.9507L12.6829 15.2324L13.105 15.8135L13.7883 15.5915L13.366 16.1727L13.7883 16.754L13.105 16.532L12.6829 17.1132V16.3948L11.9995 16.1727Z" fill="#F0F0F0"/>
<path d="M13.2225 19.125L13.5486 18.4849L13.0406 17.977L13.7502 18.0893L14.0764 17.4492L14.1888 18.1588L14.8984 18.2711L14.2582 18.5973L14.3706 19.307L13.8626 18.7988L13.2225 19.125Z" fill="#F0F0F0"/>
<path d="M16.1738 20.3474L15.9518 19.6641H15.2334L15.8146 19.2418L15.5926 18.5586L16.1738 18.9808L16.7551 18.5586L16.5331 19.2418L17.1143 19.6641H16.3959L16.1738 20.3474Z" fill="#F0F0F0"/>
<path d="M19.1248 19.125L18.4847 18.799L17.9767 19.307L18.0891 18.5973L17.449 18.2712L18.1586 18.1588L18.271 17.4492L18.5971 18.0893L19.3067 17.977L18.7986 18.485L19.1248 19.125Z" fill="#F0F0F0"/>
<path d="M20.3478 16.1727L19.6645 16.3948V17.1132L19.2422 16.532L18.559 16.754L18.9813 16.1727L18.559 15.5915L19.2422 15.8135L19.6645 15.2324V15.9507L20.3478 16.1727Z" fill="#F0F0F0"/>
<path d="M19.1248 13.2229L18.7987 13.863L19.3067 14.371L18.5971 14.2585L18.271 14.8987L18.1586 14.189L17.449 14.0767L18.0891 13.7506L17.9767 13.041L18.4847 13.549L19.1248 13.2229Z" fill="#F0F0F0"/>
</g>
<defs>
<clipPath id="clip0_19978_6780">
<rect width="24" height="24" fill="white"/>
</clipPath>
</defs>
</svg>
