<svg width="24" height="24" viewBox="0 0 24 24" fill="none" xmlns="http://www.w3.org/2000/svg">
<g clip-path="url(#clip0_19978_6721)">
<path d="M12 24C18.6274 24 24 18.6274 24 12C24 5.37258 18.6274 0 12 0C5.37258 0 0 5.37258 0 12C0 18.6274 5.37258 24 12 24Z" fill="#F0F0F0"/>
<path d="M24.0001 12.0002C24.0001 18.6276 18.6275 24.0002 12.0001 24.0002C5.37275 24.0002 0.00012207 18.6276 0.00012207 12.0002C0.00012207 5.37281 12.0001 12.0002 12.0001 12.0002C12.0001 12.0002 21.0827 12.0002 24.0001 12.0002Z" fill="#D80027"/>
<path d="M0 12C0 5.37262 5.37262 0 12 0C12 4.56352 12 12 12 12C12 12 4.17389 12 0 12Z" fill="#0052B4"/>
<path d="M7.14288 4.17383L7.91993 6.5653H10.4344L8.40016 8.04327L9.17716 10.4347L7.14288 8.95672L5.1086 10.4347L5.8856 8.04327L3.85132 6.5653H6.36583L7.14288 4.17383Z" fill="#F0F0F0"/>
</g>
<defs>
<clipPath id="clip0_19978_6721">
<rect width="24" height="24" fill="white"/>
</clipPath>
</defs>
</svg>
