<svg width="24" height="24" viewBox="0 0 24 24" fill="none" xmlns="http://www.w3.org/2000/svg">
<g clip-path="url(#clip0_19978_6667)">
<path d="M17.2174 1.19072C15.6397 0.427875 13.8698 0 12 0C10.1301 0 8.36024 0.427875 6.78262 1.19072L5.73914 12L6.78262 22.8093C8.36024 23.5721 10.1301 24 12 24C13.8698 24 15.6397 23.5721 17.2174 22.8093L18.2608 12L17.2174 1.19072Z" fill="#D80027"/>
<path d="M12.0002 7.82617L13.0361 11.0146H16.389L13.6766 12.9854L14.7126 16.174L12.0002 14.2033L9.28778 16.174L10.3239 12.9854L7.61157 11.0146H10.9642L12.0002 7.82617Z" fill="#FFDA44"/>
<path d="M6.78299 1.19141C2.76908 3.13231 0.000366211 7.24273 0.000366211 12.0003C0.000366211 16.7578 2.76908 20.8682 6.78299 22.8091V1.19141Z" fill="#496E2D"/>
<path d="M17.2178 1.19141V22.8091C21.2317 20.8682 24.0004 16.7578 24.0004 12.0003C24.0004 7.24278 21.2317 3.13231 17.2178 1.19141Z" fill="#FFDA44"/>
</g>
<defs>
<clipPath id="clip0_19978_6667">
<rect width="24" height="24" fill="white"/>
</clipPath>
</defs>
</svg>
