<svg width="24" height="24" viewBox="0 0 24 24" fill="none" xmlns="http://www.w3.org/2000/svg">
<g clip-path="url(#clip0_19978_6799)">
<path d="M12 24C18.6274 24 24 18.6274 24 12C24 5.37258 18.6274 0 12 0C5.37258 0 0 5.37258 0 12C0 18.6274 5.37258 24 12 24Z" fill="#F0F0F0"/>
<path d="M23.2536 7.82617H0.746391C0.264047 9.12616 0 10.5322 0 12.0001C0 13.4679 0.264047 14.874 0.746391 16.174H23.2537C23.736 14.874 24 13.4679 24 12.0001C24 10.5322 23.736 9.12616 23.2536 7.82617Z" fill="#D80027"/>
<path d="M12.0012 0C8.36407 0 5.10518 1.61831 2.90454 4.17389H21.0977C18.8971 1.61831 15.6382 0 12.0012 0Z" fill="#0052B4"/>
<path d="M21.0963 19.8262H2.90308C5.10372 22.3818 8.36261 24.0001 11.9997 24.0001C15.6368 24.0001 18.8957 22.3818 21.0963 19.8262Z" fill="#0052B4"/>
</g>
<defs>
<clipPath id="clip0_19978_6799">
<rect width="24" height="24" fill="white"/>
</clipPath>
</defs>
</svg>
