<svg width="24" height="24" viewBox="0 0 24 24" fill="none" xmlns="http://www.w3.org/2000/svg">
<g clip-path="url(#clip0_19978_6832)">
<path d="M12 23.9999C18.6273 23.9999 23.9999 18.6273 23.9999 12C23.9999 5.37256 18.6273 0 12 0C5.37256 0 0 5.37256 0 12C0 18.6273 5.37256 23.9999 12 23.9999Z" fill="#F0F0F0"/>
<path d="M11.9996 0C8.07369 0 4.58834 1.88545 2.39905 4.8H21.6C19.4108 1.88541 15.9254 0 11.9996 0Z" fill="#0052B4"/>
<path d="M11.9996 23.9992C15.9254 23.9992 19.4108 22.1138 21.6001 19.1992H2.39905C4.5883 22.1138 8.07369 23.9992 11.9996 23.9992Z" fill="#0052B4"/>
<path d="M0 11.9996C0 12.8216 0.0828749 13.6242 0.240328 14.3996H23.7597C23.9172 13.6242 24 12.8216 24 11.9996C24 11.1777 23.9171 10.3751 23.7597 9.59961H0.240328C0.0828749 10.3751 0 11.1777 0 11.9996Z" fill="#0052B4"/>
<path d="M3.5148 3.51367C-1.17144 8.19991 -1.17144 15.7979 3.5148 20.4843C5.45134 18.5477 7.31378 16.6852 12.0001 11.999L3.5148 3.51367Z" fill="#D80027"/>
<path d="M4.85658 8.86914L5.63349 11.2605H8.14814L6.11391 12.7385L6.89081 15.1299L4.85658 13.6519L2.82225 15.1299L3.59934 12.7385L1.56506 11.2605H4.07953L4.85658 8.86914Z" fill="#F0F0F0"/>
</g>
<defs>
<clipPath id="clip0_19978_6832">
<rect width="24" height="24" fill="white"/>
</clipPath>
</defs>
</svg>
