<svg width="24" height="24" viewBox="0 0 24 24" fill="none" xmlns="http://www.w3.org/2000/svg">
<g clip-path="url(#clip0_19978_6736)">
<path d="M20.4857 20.4862C15.7994 25.1725 8.20141 25.1725 3.51509 20.4862C-1.17123 15.8 -1.17118 8.20195 3.51509 3.51562C3.88399 3.88448 13.1072 10.8941 13.1072 10.8941L20.4857 20.4862Z" fill="#0052B4"/>
<path d="M3.51501 3.5147C8.20129 -1.17157 15.7993 -1.17157 20.4856 3.5147C25.1719 8.20098 25.1719 15.799 20.4856 20.4853" fill="#6DA544"/>
<path d="M12.0003 15.13C13.7292 15.13 15.1308 13.7285 15.1308 11.9996C15.1308 10.2707 13.7292 8.86914 12.0003 8.86914C10.2714 8.86914 8.86987 10.2707 8.86987 11.9996C8.86987 13.7285 10.2714 15.13 12.0003 15.13Z" fill="#FFDA44"/>
<path d="M4.4684 17.2168L4.79769 17.9053L5.54127 17.7335L5.20827 18.4202L5.8063 18.8945L5.06174 19.0622L5.0638 19.8255L4.4684 19.348L3.87299 19.8255L3.87505 19.0622L3.13049 18.8945L3.72852 18.4202L3.39548 17.7335L4.1391 17.9053L4.4684 17.2168Z" fill="#F0F0F0"/>
<path d="M2.31442 11.4766L2.64372 12.1651L3.38729 11.9932L3.05434 12.68L3.65228 13.1542L2.90776 13.322L2.90982 14.0852L2.31442 13.6078L1.71906 14.0852L1.72108 13.322L0.976562 13.1542L1.57455 12.68L1.24155 11.9932L1.98512 12.1651L2.31442 11.4766Z" fill="#F0F0F0"/>
<path d="M4.46835 6.78125L4.79765 7.4698L5.54122 7.29786L5.20827 7.98467L5.80625 8.4589L5.06169 8.62667L5.06376 9.38993L4.46835 8.91246L3.87295 9.38993L3.87501 8.62667L3.13049 8.4589L3.72843 7.98467L3.39543 7.29786L4.13905 7.4698L4.46835 6.78125Z" fill="#F0F0F0"/>
<path d="M7.14425 10.4336L7.47355 11.1221L8.21717 10.9502L7.88413 11.6371L8.48211 12.1112L7.7376 12.2791L7.73961 13.0423L7.14425 12.5648L6.54885 13.0423L6.55091 12.2791L5.8064 12.1112L6.40433 11.6371L6.07138 10.9502L6.81496 11.1221L7.14425 10.4336Z" fill="#F0F0F0"/>
<path d="M5.23131 13.5645L5.49034 14.3616H6.32847L5.65037 14.8543L5.9094 15.6514L5.23131 15.1588L4.55322 15.6514L4.81225 14.8543L4.13416 14.3616H4.97228L5.23131 13.5645Z" fill="#F0F0F0"/>
<path d="M12 14.0877H13.0434C13.0434 14.0877 13.4956 13.2878 13.0434 12.5225L14.0869 11.479L13.5652 10.4355H13.0435C13.0435 10.4355 12.7826 11.2182 11.7391 11.2182C10.6957 11.2182 10.4348 10.4355 10.4348 10.4355H9.91309L10.4348 11.479L9.91309 12.5225L10.4348 13.0442C10.4348 13.0442 10.9565 12.0007 12 12.5225C12 12.5225 12.4434 13.1747 12 14.0877Z" fill="#6DA544"/>
<path d="M19.7888 6.5727C19.8134 6.4445 19.8265 6.31226 19.8265 6.17689C19.8265 5.24876 19.2205 4.46262 18.3828 4.19141C18.6387 4.71172 18.783 5.2969 18.783 5.91603C18.783 6.12481 18.7662 6.32965 18.7347 6.52957C18.6086 6.32647 18.4466 6.14089 18.2488 5.98343C17.5034 5.39037 16.4849 5.37467 15.7318 5.87412C16.3132 6.00106 16.8754 6.25911 17.3726 6.65468C17.7618 6.96443 18.0763 7.3834 18.3172 7.78784L15.1309 8.78557C18.2613 9.30729 20.87 7.22037 20.87 7.22037C20.5809 6.64231 20.132 6.54481 19.7888 6.5727Z" fill="#FFDA44"/>
</g>
<defs>
<clipPath id="clip0_19978_6736">
<rect width="24" height="24" fill="white"/>
</clipPath>
</defs>
</svg>
