<svg width="24" height="24" viewBox="0 0 24 24" fill="none" xmlns="http://www.w3.org/2000/svg">
<g clip-path="url(#clip0_19978_6851)">
<path d="M12 24C18.6274 24 24 18.6274 24 12C24 5.37258 18.6274 0 12 0C5.37258 0 0 5.37258 0 12C0 18.6274 5.37258 24 12 24Z" fill="#FCFCFC"/>
<path d="M18.7826 10.4336C18.4174 10.4336 17.9652 10.4336 17.2174 10.4336C17.2174 13.3151 14.8814 15.651 12 15.651C9.11844 15.651 6.78261 13.3151 6.78261 10.4336C6.27824 10.4336 5.72169 10.4336 5.21741 10.4336C5.21741 13.5374 7.30222 16.1543 10.148 16.9602C9.836 17.5529 9.88353 18.2991 10.3292 18.8553C10.9146 18.3861 11.5206 17.9005 12.0348 17.4885C12.5489 17.9005 13.155 18.3862 13.7403 18.8553C14.1904 18.2936 14.2347 17.5379 13.9123 16.9424C16.727 16.1167 18.7826 13.5153 18.7826 10.4336Z" fill="#6DA544"/>
<path d="M7.82617 9.91194C7.82617 9.91194 7.82617 12.5206 10.4349 12.5206L10.9566 13.0424H12.0001C12.0001 13.0424 12.5218 11.4771 13.5653 11.4771C13.5653 11.4771 13.5653 10.4337 14.6088 10.4337C15.6522 10.4337 16.174 10.4337 16.174 10.4337C16.174 10.4337 15.6522 8.34669 18.2609 6.78149L17.2174 6.25977C17.2174 6.25977 13.5653 8.86846 10.9566 8.34674V9.39022H9.91309L9.39138 8.8685L7.82617 9.91194Z" fill="#FFDA44"/>
</g>
<defs>
<clipPath id="clip0_19978_6851">
<rect width="24" height="24" fill="white"/>
</clipPath>
</defs>
</svg>
