<svg width="24" height="24" viewBox="0 0 24 24" fill="none" xmlns="http://www.w3.org/2000/svg">
<g clip-path="url(#clip0_19978_6856)">
<path d="M12 24C18.6274 24 24 18.6274 24 12C24 5.37258 18.6274 0 12 0C5.37258 0 0 5.37258 0 12C0 18.6274 5.37258 24 12 24Z" fill="#F0F0F0"/>
<path d="M10.957 12C10.957 12 3.52217 20.487 3.51514 20.4853C5.68667 22.6569 8.68671 24 12.0004 24C18.6278 24 24.0004 18.6274 24.0004 12H10.957Z" fill="#D80027"/>
<path d="M3.5152 3.51367C-1.17108 8.19995 -1.17108 15.798 3.5152 20.4843C5.45175 18.5478 7.31423 16.6853 12.0005 11.999L3.5152 3.51367Z" fill="#0052B4"/>
</g>
<defs>
<clipPath id="clip0_19978_6856">
<rect width="24" height="24" fill="white"/>
</clipPath>
</defs>
</svg>
