<svg width="24" height="24" viewBox="0 0 24 24" fill="none" xmlns="http://www.w3.org/2000/svg">
<g clip-path="url(#clip0_19978_6877)">
<path d="M10.9562 13.0435C10.9562 13.0435 3.52144 3.51305 3.5144 3.51474C5.68594 1.34316 8.68598 0 11.9997 0C18.6271 0 23.9997 5.37263 23.9997 12L10.9562 13.0435Z" fill="#338AF3"/>
<path d="M10.9562 12C10.9562 12 3.52144 20.487 3.5144 20.4853C5.68594 22.6569 8.68598 24 11.9997 24C18.6271 24 23.9997 18.6274 23.9997 12H10.9562Z" fill="#6DA544"/>
<path d="M3.51447 3.51367C-1.17181 8.19995 -1.17181 15.798 3.51447 20.4843C5.45101 18.5478 7.3135 16.6853 11.9998 11.999L3.51447 3.51367Z" fill="#F0F0F0"/>
<path d="M4.85633 8.86914L5.63329 11.2605H8.14794L6.11366 12.7386L6.89057 15.13L4.85633 13.652L2.82201 15.13L3.5991 12.7386L1.56482 11.2605H4.07929L4.85633 8.86914Z" fill="#D80027"/>
</g>
<defs>
<clipPath id="clip0_19978_6877">
<rect width="24" height="24" fill="white"/>
</clipPath>
</defs>
</svg>
