<svg width="24" height="24" viewBox="0 0 24 24" fill="none" xmlns="http://www.w3.org/2000/svg">
<g clip-path="url(#clip0_19978_6869)">
<path d="M12 24C18.6274 24 24 18.6274 24 12C24 5.37258 18.6274 0 12 0C5.37258 0 0 5.37258 0 12C0 18.6274 5.37258 24 12 24Z" fill="#F0F0F0"/>
<path d="M9.39189 10.4348H23.899C23.1319 4.54697 18.0974 0 12.0005 0C11.1045 0 10.2318 0.0990469 9.39185 0.285234V10.4348H9.39189Z" fill="#D80027"/>
<path d="M6.26146 10.4347V1.45898C2.96647 3.25683 0.607626 6.55453 0.102173 10.4347H6.26146V10.4347Z" fill="#D80027"/>
<path d="M6.26092 13.5645H0.101685C0.607138 17.4446 2.96598 20.7423 6.26097 22.5401L6.26092 13.5645Z" fill="#D80027"/>
<path d="M9.39185 13.5645V23.714C10.2318 23.9002 11.1045 23.9992 12.0005 23.9992C18.0974 23.9992 23.1319 19.4523 23.899 13.5645H9.39185V13.5645Z" fill="#D80027"/>
</g>
<defs>
<clipPath id="clip0_19978_6869">
<rect width="24" height="24" fill="white"/>
</clipPath>
</defs>
</svg>
