<svg width="24" height="24" viewBox="0 0 24 24" fill="none" xmlns="http://www.w3.org/2000/svg">
<g clip-path="url(#clip0_19978_6883)">
<path d="M12 24C18.6274 24 24 18.6274 24 12C24 5.37258 18.6274 0 12 0C5.37258 0 0 5.37258 0 12C0 18.6274 5.37258 24 12 24Z" fill="#F0F0F0"/>
<path d="M14.348 23.7695C19.0919 22.8285 22.8288 19.0915 23.7699 14.3477H14.348V23.7695Z" fill="#496E2D"/>
<path d="M0.230103 14.3477C1.17112 19.0915 4.90809 22.8285 9.65198 23.7695V14.3477H0.230103Z" fill="#496E2D"/>
<path d="M23.7699 9.65234C22.8288 4.9085 19.0919 1.17153 14.348 0.230469V9.65234H23.7699Z" fill="#496E2D"/>
<path d="M9.65234 0.230469C4.90845 1.17153 1.17148 4.9085 0.230469 9.65234H9.65234V0.230469Z" fill="#496E2D"/>
<path d="M11.2171 14.3496H9.65186V23.7715C10.1627 23.8728 10.6852 23.9414 11.2171 23.9757V14.3496Z" fill="#FFDA44"/>
<path d="M11.2175 9.65341V0.0273438C10.6857 0.0615625 10.1631 0.130234 9.65234 0.231531V9.65341H11.2175Z" fill="#FFDA44"/>
<path d="M12.7823 0.0261094C12.5234 0.009375 12.2627 0 11.9997 0C11.7366 0 11.4759 0.009375 11.217 0.0261094V9.65222H12.7822V0.0261094H12.7823Z" fill="black"/>
<path d="M11.217 23.9737C11.4759 23.9905 11.7366 23.9998 11.9997 23.9998C12.2627 23.9998 12.5234 23.9905 12.7823 23.9737V14.3477H11.2171V23.9737H11.217Z" fill="black"/>
<path d="M9.65206 11.2175V9.65234H0.230188C0.128845 10.1632 0.0602197 10.6857 0.026001 11.2175H9.65206Z" fill="#FFDA44"/>
<path d="M14.3478 11.2175H23.9739C23.9397 10.6857 23.871 10.1632 23.7697 9.65234H14.3478V11.2175H14.3478Z" fill="#FFDA44"/>
<path d="M14.348 12.784H23.9741C23.9908 12.5252 24.0002 12.2644 24.0002 12.0014C24.0002 11.7384 23.9908 11.4775 23.9741 11.2188H14.348V12.784Z" fill="black"/>
<path d="M0.0259873 11.2188C0.0092998 11.4775 -0.00012207 11.7384 -0.00012207 12.0014C-0.00012207 12.2644 0.0092998 12.5252 0.0259873 12.784H9.6521V11.2188H0.0259873V11.2188Z" fill="black"/>
<path d="M11.9999 17.7381C15.1695 17.7381 17.739 15.1686 17.739 11.9989C17.739 8.82927 15.1695 6.25977 11.9999 6.25977C8.83024 6.25977 6.26074 8.82927 6.26074 11.9989C6.26074 15.1686 8.83024 17.7381 11.9999 17.7381Z" fill="#D80027"/>
<path d="M13.3069 12.6404C12.88 11.7867 12.3252 10.9214 12.3252 10.9214C12.3252 10.9214 12.3389 10.5274 12.3389 10.2927C12.3389 9.93903 12.0522 9.65234 11.6986 9.65234C11.3636 9.65234 11.0891 9.90973 11.0611 10.2374C10.7977 10.2546 10.5892 10.4732 10.5892 10.7409C10.5892 10.9356 10.6995 11.1043 10.861 11.1886C10.9412 11.0009 11.0983 10.8544 11.2927 10.7876C11.3244 10.8135 11.3584 10.8367 11.3947 10.8563L11.4768 10.8956C11.4768 10.8956 11.1726 11.753 11.1726 12.2136C11.1726 13.5085 12.0264 13.9078 12.0264 13.9078V13.9212L11.5995 14.348H12.4532V13.4942L12.8801 13.9211C12.8839 13.9131 13.6887 13.4041 13.3069 12.6404Z" fill="#496E2D"/>
<path d="M11.9996 7.30469L12.1938 7.90253H12.8224L12.3139 8.27205L12.5082 8.86989L11.9996 8.50042L11.491 8.86989L11.6853 8.27205L11.1768 7.90253H11.8054L11.9996 7.30469Z" fill="#496E2D"/>
<path d="M9.23988 8.20122L9.74838 8.57074L10.257 8.20117L10.0627 8.79911L10.5713 9.16853L9.94268 9.16858L9.74843 9.76643L9.55413 9.16858L8.92554 9.16853L9.43408 8.79902L9.23988 8.20122Z" fill="#496E2D"/>
<path d="M7.53406 10.549H8.1626L8.3569 9.95117L8.55115 10.549L9.17979 10.549L8.67124 10.9185L8.86554 11.5164L8.3569 11.1469L7.84835 11.5163L8.04256 10.9185L7.53406 10.549Z" fill="#496E2D"/>
<path d="M7.53406 13.4517L8.04256 13.0823L7.84831 12.4844L8.3569 12.8539L8.86549 12.4844L8.67124 13.0822L9.17984 13.4517L8.55115 13.4518L8.3569 14.0496L8.1626 13.4517H7.53406Z" fill="#496E2D"/>
<path d="M9.23993 15.7995L9.43413 15.2018L8.92554 14.8323H9.55418L9.74847 14.2344L9.94272 14.8322H10.5714L10.0628 15.2018L10.257 15.7996L9.74843 15.4301L9.23993 15.7995Z" fill="#496E2D"/>
<path d="M11.9996 16.6961L11.8054 16.0983H11.1768L11.6853 15.7287L11.491 15.1309L11.9996 15.5003L12.5081 15.1309L12.3139 15.7287L12.8224 16.0983L12.1938 16.0983L11.9996 16.6961Z" fill="#496E2D"/>
<path d="M14.7603 15.7995L14.2518 15.4301L13.7432 15.7996L13.9374 15.2018L13.4288 14.8323L14.0575 14.8322L14.2517 14.2344L14.446 14.8323H15.0746L14.5661 15.2018L14.7603 15.7995Z" fill="#496E2D"/>
<path d="M16.466 13.4516H15.8374L15.6431 14.0495L15.4489 13.4517H14.8202L15.3288 13.0822L15.1345 12.4844L15.6431 12.8538L16.1516 12.4844L15.9575 13.0822L16.466 13.4516Z" fill="#496E2D"/>
<path d="M16.466 10.549L15.9575 10.9184L16.1517 11.5163L15.6431 11.1468L15.1345 11.5164L15.3288 10.9185L14.8202 10.549L15.4489 10.5489L15.6431 9.95117L15.8374 10.549H16.466Z" fill="#496E2D"/>
<path d="M14.7603 8.20117L14.5661 8.79897L15.0746 9.16849H14.446L14.2518 9.76638L14.0575 9.16853L13.4288 9.16858L13.9374 8.79897L13.7432 8.20122L14.2518 8.57064L14.7603 8.20117Z" fill="#496E2D"/>
</g>
<defs>
<clipPath id="clip0_19978_6883">
<rect width="24" height="24" fill="white"/>
</clipPath>
</defs>
</svg>
