<svg width="24" height="24" viewBox="0 0 24 24" fill="none" xmlns="http://www.w3.org/2000/svg">
<g clip-path="url(#clip0_19978_6914)">
<path d="M12 24C18.6274 24 24 18.6274 24 12C24 5.37258 18.6274 0 12 0C5.37258 0 0 5.37258 0 12C0 18.6274 5.37258 24 12 24Z" fill="#F0F0F0"/>
<path d="M0.413818 15.1309C1.52185 19.2419 4.7589 22.479 8.87002 23.5871V15.1309H0.413818Z" fill="#D80027"/>
<path d="M8.86949 0.414062C4.75841 1.52205 1.52131 4.75914 0.41333 8.87022H8.86953V0.414062H8.86949Z" fill="#0052B4"/>
<path d="M23.5867 8.87022C22.4787 4.75914 19.2416 1.52205 15.1305 0.414062V8.87027H23.5867V8.87022Z" fill="#D80027"/>
<path d="M15.1305 23.5871C19.2416 22.479 22.4787 19.242 23.5867 15.1309H15.1305V23.5871Z" fill="#0052B4"/>
<path d="M15.1305 11.9996C15.1305 13.7285 13.729 15.13 12.0001 15.13C10.2712 15.13 8.86963 13.7285 8.86963 11.9996C8.86963 10.2707 12.0001 8.86914 12.0001 8.86914C12.0001 8.86914 15.1305 10.2707 15.1305 11.9996Z" fill="#496E2D"/>
<path d="M8.86963 11.9996C8.86963 10.2707 10.2712 8.86914 12.0001 8.86914C13.729 8.86914 15.1305 10.2707 15.1305 11.9996" fill="#0052B4"/>
<path d="M10.2393 10.4336V12.3901C10.2393 13.3626 11.0276 14.151 12.0001 14.151C12.9726 14.151 13.761 13.3626 13.761 12.3901V10.4336H10.2393Z" fill="#D80027"/>
</g>
<defs>
<clipPath id="clip0_19978_6914">
<rect width="24" height="24" fill="white"/>
</clipPath>
</defs>
</svg>
