<svg width="24" height="24" viewBox="0 0 24 24" fill="none" xmlns="http://www.w3.org/2000/svg">
<g clip-path="url(#clip0_19978_8055)">
<path d="M1.19121 6.78177C0.428363 8.35939 0.000488281 10.1293 0.000488281 11.9991C0.000488281 13.869 0.428363 15.6389 1.19121 17.2165L12.0005 18.26L22.8098 17.2165C23.5726 15.6389 24.0005 13.869 24.0005 11.9991C24.0005 10.1293 23.5726 8.35939 22.8098 6.78177L12.0005 5.73828L1.19121 6.78177Z" fill="#F0F0F0"/>
<path d="M1.19092 17.2168C3.13182 21.2307 7.24225 23.9994 11.9998 23.9994C16.7573 23.9994 20.8677 21.2307 22.8086 17.2168H1.19092Z" fill="black"/>
<path d="M1.19092 6.78262H22.8086C20.8677 2.76867 16.7573 0 11.9998 0C7.24225 0 3.13182 2.76867 1.19092 6.78262Z" fill="#D80027"/>
<path d="M3.5152 3.51367C-1.17108 8.19995 -1.17108 15.798 3.5152 20.4843C5.45175 18.5478 7.31423 16.6853 12.0005 11.999L3.5152 3.51367Z" fill="#496E2D"/>
</g>
<defs>
<clipPath id="clip0_19978_8055">
<rect width="24" height="24" fill="white"/>
</clipPath>
</defs>
</svg>
