<svg width="24" height="24" viewBox="0 0 24 24" fill="none" xmlns="http://www.w3.org/2000/svg">
<g clip-path="url(#clip0_19978_6264)">
<path d="M12.0004 0C18.6278 0 24.0004 5.37262 24.0004 12C24.0004 18.6274 18.6278 24 12.0004 24C12.0004 23.4783 10.4352 12 10.4352 12L12.0004 0Z" fill="#F0F0F0"/>
<path d="M12 24C5.37262 24 0 18.6274 0 12C0 5.37262 5.37262 0 12 0" fill="#496E2D"/>
<path d="M14.578 9.69727L13.5934 11.0541L11.9989 10.5369L12.9851 11.8926L12.0006 13.2494L13.5945 12.7304L14.5807 14.086L14.5797 12.4097L16.1736 11.8907L14.5791 11.3737L14.578 9.69727Z" fill="#D80027"/>
<path d="M12.9952 15.3914C11.1223 15.3914 9.60389 13.873 9.60389 12.0001C9.60389 10.1272 11.1223 8.6088 12.9952 8.6088C13.5792 8.6088 14.1287 8.75645 14.6084 9.01642C13.8558 8.28044 12.8266 7.82617 11.6909 7.82617C9.38564 7.82617 7.51697 9.69489 7.51697 12.0001C7.51697 14.3052 9.38569 16.174 11.6909 16.174C12.8266 16.174 13.8558 15.7197 14.6084 14.9837C14.1287 15.2438 13.5792 15.3914 12.9952 15.3914Z" fill="#D80027"/>
</g>
<defs>
<clipPath id="clip0_19978_6264">
<rect width="24" height="24" fill="white"/>
</clipPath>
</defs>
</svg>
