<svg width="24" height="24" viewBox="0 0 24 24" fill="none" xmlns="http://www.w3.org/2000/svg">
<g clip-path="url(#clip0_19978_6530)">
<path fill-rule="evenodd" clip-rule="evenodd" d="M12 0C18.627 0 24 5.37305 24 12C24 18.627 18.627 24 12 24C5.37305 24 0 18.627 0 12C0 5.37305 5.37305 0 12 0Z" fill="#2394E0"/>
<path fill-rule="evenodd" clip-rule="evenodd" d="M2.29712 18.1992C1.59009 17.127 1.06079 15.9258 0.750244 14.6387L2.86353 15.6582L2.87524 16.2891C2.87524 16.5215 2.48071 17.0137 2.35376 17.2012L2.29712 18.1992ZM15.2952 1.26953C19.3225 2.60742 22.344 6.15234 22.926 10.4688L22.5452 10.4277C22.4768 10.7207 22.4143 10.7266 22.4143 11.0781C22.4143 11.3887 22.8049 11.5957 22.8049 12.25C22.8049 12.4258 22.3928 12.7754 22.3752 12.8379L21.7639 12.1211V13.0332L21.6721 13.0293L21.5081 11.3457L21.1663 11.4531L20.76 10.2012L19.4221 11.5996L19.4065 12.623L18.969 12.916L18.5042 10.291L18.2268 10.4941L17.5979 9.64453L16.6584 9.67188L16.2991 9.25977L15.9299 9.36133L15.2053 8.53125L15.0647 8.62695L15.5139 9.77539H16.0354V9.51563H16.2952C16.4827 10.0352 16.6858 9.72656 16.6858 10.0371C16.6858 11.1211 15.3479 11.918 14.4709 12.1211C14.5178 12.3164 14.5002 12.5117 14.7307 12.5117C15.2209 12.5117 14.9768 12.4258 15.512 12.3809C15.4866 13.4883 14.2424 14.8105 13.7112 15.6328L13.9495 17.3301C14.012 17.6992 13.1838 18.0879 12.9026 18.5039L13.0374 19.1543L12.6565 19.3086C12.5901 19.9766 11.9417 20.7168 11.2131 20.7168H10.4319C10.4319 19.8027 9.77954 18.4961 9.77954 17.8496C9.77954 17.3008 10.0393 17.2266 10.0393 16.5469C10.0393 15.918 9.38892 15.0176 9.38892 14.8535V13.8105H8.86743C8.78931 13.5195 8.83813 13.4199 8.47681 13.4199H8.34595C7.77759 13.4199 7.87329 13.6797 7.30298 13.6797H6.78149C6.31079 13.6797 5.47876 12.1719 5.47876 11.9863V10.4238C5.47876 9.75 6.09595 9.01562 6.52173 8.73047V8.08008L7.10767 7.48438L7.43384 7.42969C8.13306 7.42969 8.04907 7.03906 8.47681 7.03906H9.64868V7.95117L10.9377 8.50195L11.0588 7.94531C11.6428 8.08203 11.7952 8.3418 12.5139 8.3418H12.7737C13.2678 8.3418 13.2952 7.68555 13.2952 7.16992L12.2522 7.27344L11.7971 6.28516L11.3459 6.4043C11.428 6.75781 11.4709 6.61133 11.4709 6.91016C11.4709 7.08594 11.3264 7.10547 11.2092 7.16992L10.7581 6.02539L9.78735 5.33203L9.65845 5.45898L10.4846 6.32812C10.3752 6.64062 10.3616 7.54102 9.90649 6.91016L10.3323 6.70508L9.26978 5.5918L8.63306 5.83984L8.00415 6.44141C7.93774 6.92578 7.80688 7.16992 7.29907 7.16992C6.96118 7.16992 7.16431 7.08203 6.64673 7.03906V5.73633H7.8186L7.43774 4.86914L7.29712 4.95508V4.69336L9.20142 3.81641C9.16626 3.54297 9.12134 3.68945 9.12134 3.39062C9.12134 3.37305 9.24829 3.13281 9.2522 3.12891L9.74438 3.43555L9.6272 2.875L8.86743 3.03125L8.72681 2.34961C9.32837 2.0332 10.6545 0.916016 11.0764 0.916016H11.467C11.8792 0.916016 12.9807 1.32227 13.1604 1.56641L12.1155 1.46094L12.8909 2.09961L12.9651 1.82617L13.5432 1.66797L13.551 1.30664H13.8127V1.69727L15.2952 1.26953Z" fill="#A1E367"/>
</g>
<defs>
<clipPath id="clip0_19978_6530">
<rect width="24" height="24" fill="white"/>
</clipPath>
</defs>
</svg>
