<svg width="24" height="24" viewBox="0 0 24 24" fill="none" xmlns="http://www.w3.org/2000/svg">
<g clip-path="url(#clip0_19978_6930)">
<path d="M0 12C0 5.37263 5.37262 0 12 0C18.6274 0 24 5.37263 24 12L12 13.0435L0 12Z" fill="#FFDA44"/>
<path d="M1.60559 18.0014C3.68051 21.5881 7.5582 24.0014 11.9998 24.0014C16.4415 24.0014 20.3192 21.5881 22.3941 18.0014L11.9998 17.2188L1.60559 18.0014Z" fill="#D80027"/>
<path d="M22.3944 18C23.4154 16.235 24.0001 14.1858 24.0001 12H0.00012207C0.00012207 14.1858 0.584841 16.235 1.60587 18H22.3944Z" fill="#0052B4"/>
<path d="M11.9997 16.174C14.3049 16.174 16.1736 14.3052 16.1736 12.0001C16.1736 9.69489 14.3049 7.82617 11.9997 7.82617C9.69452 7.82617 7.82581 9.69489 7.82581 12.0001C7.82581 14.3052 9.69452 16.174 11.9997 16.174Z" fill="#FFDA44"/>
<path d="M12.0003 14.6087C10.5618 14.6087 9.3916 13.4385 9.3916 12.0001V10.4349C9.3916 8.9964 10.5619 7.82617 12.0003 7.82617C13.4387 7.82617 14.609 8.99645 14.609 10.4349V12.0001C14.609 13.4385 13.4387 14.6087 12.0003 14.6087Z" fill="#338AF3"/>
<path d="M16.1737 5.74075H13.0432C13.0432 5.16447 12.576 4.69727 11.9997 4.69727C11.4235 4.69727 10.9563 5.16447 10.9563 5.74075H7.82581C7.82581 6.31708 8.32779 6.78424 8.90403 6.78424H8.86929C8.86929 7.36056 9.33645 7.82772 9.91278 7.82772C9.91278 8.40405 10.3799 8.87121 10.9563 8.87121H13.0432C13.6196 8.87121 14.0867 8.40405 14.0867 7.82772C14.663 7.82772 15.1302 7.36056 15.1302 6.78424H15.0955C15.6718 6.78424 16.1737 6.31703 16.1737 5.74075Z" fill="black"/>
</g>
<defs>
<clipPath id="clip0_19978_6930">
<rect width="24" height="24" fill="white"/>
</clipPath>
</defs>
</svg>
