<svg width="24" height="24" viewBox="0 0 24 24" fill="none" xmlns="http://www.w3.org/2000/svg">
<g clip-path="url(#clip0_19978_6963)">
<path d="M-0.000244141 12.0003C-0.000244141 13.4682 0.263803 14.8742 0.746147 16.1742L11.9998 16.696L23.2534 16.1743C23.7358 14.8742 23.9998 13.4682 23.9998 12.0003C23.9998 10.5325 23.7358 9.12644 23.2534 7.82645L11.9998 7.30469L0.746147 7.82641C0.263803 9.12644 -0.000244141 10.5325 -0.000244141 12.0003Z" fill="black"/>
<path d="M11.9997 0C6.84013 0 2.44161 3.2565 0.746094 7.82611H23.2534C21.5578 3.2565 17.1593 0 11.9997 0Z" fill="#0052B4"/>
<path d="M23.2533 16.1738H0.746094C2.44161 20.7434 6.84012 23.9999 11.9997 23.9999C17.1593 23.9999 21.5578 20.7434 23.2533 16.1738Z" fill="#F0F0F0"/>
</g>
<defs>
<clipPath id="clip0_19978_6963">
<rect width="24" height="24" fill="white"/>
</clipPath>
</defs>
</svg>
