<svg width="24" height="24" viewBox="0 0 24 24" fill="none" xmlns="http://www.w3.org/2000/svg">
<g clip-path="url(#clip0_19978_6938)">
<path d="M12 24C18.6274 24 24 18.6274 24 12C24 5.37258 18.6274 0 12 0C5.37258 0 0 5.37258 0 12C0 18.6274 5.37258 24 12 24Z" fill="#F0F0F0"/>
<path d="M12.0002 0C6.84061 0 2.4421 3.2565 0.746582 7.82611H23.2538C21.5583 3.2565 17.1598 0 12.0002 0Z" fill="#D80027"/>
<path d="M12.0002 23.9999C17.1598 23.9999 21.5583 20.7434 23.2538 16.1738H0.746582C2.4421 20.7434 6.84061 23.9999 12.0002 23.9999Z" fill="black"/>
<path d="M16.1739 10.6958H13.0435C13.0435 10.1195 12.5763 9.65234 12 9.65234C11.4237 9.65234 10.9565 10.1195 10.9565 10.6958H7.82605C7.82605 11.2722 8.32803 11.7393 8.90431 11.7393H8.86953C8.86953 12.3156 9.33669 12.7828 9.91302 12.7828C9.91302 13.3591 10.3802 13.8263 10.9565 13.8263H13.0435C13.6198 13.8263 14.087 13.3591 14.087 12.7828C14.6633 12.7828 15.1304 12.3156 15.1304 11.7393H15.0957C15.672 11.7393 16.1739 11.2722 16.1739 10.6958Z" fill="#FF9811"/>
</g>
<defs>
<clipPath id="clip0_19978_6938">
<rect width="24" height="24" fill="white"/>
</clipPath>
</defs>
</svg>
