<svg width="24" height="24" viewBox="0 0 24 24" fill="none" xmlns="http://www.w3.org/2000/svg">
<g clip-path="url(#clip0_19978_6494)">
<path d="M1.19072 6.78177C0.427875 8.35939 0 10.1293 0 11.9991C0 13.869 0.427875 15.6389 1.19072 17.2165L12 18.26L22.8093 17.2165C23.5721 15.6389 24 13.869 24 11.9991C24 10.1293 23.5721 8.35939 22.8093 6.78177L12 5.73828L1.19072 6.78177Z" fill="#F0F0F0"/>
<path d="M1.19128 17.2168C3.13219 21.2308 7.24266 23.9994 12.0001 23.9994C16.7576 23.9994 20.8681 21.2308 22.809 17.2168H1.19128Z" fill="#496E2D"/>
<path d="M1.19128 6.78262H22.809C20.8681 2.76867 16.7577 0 12.0001 0C7.24261 0 3.13219 2.76867 1.19128 6.78262Z" fill="black"/>
<path d="M3.51471 3.51562C-1.17157 8.20191 -1.17157 15.7999 3.51471 20.4862C5.45126 18.5497 7.31375 16.6872 12 12.0009L3.51471 3.51562Z" fill="#D80027"/>
<path d="M15.1306 11.9998C15.1306 10.2515 16.3593 8.79091 18.0001 8.43259C17.7479 8.37752 17.4863 8.34766 17.2175 8.34766C15.2004 8.34766 13.5653 9.98275 13.5653 11.9998C13.5653 14.0169 15.2004 15.652 17.2175 15.652C17.4862 15.652 17.7479 15.6221 18.0001 15.5671C16.3593 15.2088 15.1306 13.7482 15.1306 11.9998Z" fill="#D80027"/>
<path d="M18.1533 9.65234L18.6714 11.2467H20.3477L18.9915 12.232L19.5096 13.8263L18.1533 12.841L16.7972 13.8263L17.3153 12.232L15.959 11.2467H17.6353L18.1533 9.65234Z" fill="#D80027"/>
</g>
<defs>
<clipPath id="clip0_19978_6494">
<rect width="24" height="24" fill="white"/>
</clipPath>
</defs>
</svg>
