<svg width="24" height="24" viewBox="0 0 24 24" fill="none" xmlns="http://www.w3.org/2000/svg">
<g clip-path="url(#clip0_19978_6957)">
<path d="M10.9568 10.957C10.9568 10.957 3.52205 20.4875 3.51501 20.4858C5.68655 22.6574 8.68659 24.0005 12.0003 24.0005C18.6277 24.0005 24.0003 18.6279 24.0003 12.0005L10.9568 10.957Z" fill="#338AF3"/>
<path d="M10.9568 12C10.9568 12 3.52205 3.51305 3.51501 3.51473C5.68655 1.34316 8.68659 0 12.0003 0C18.6277 0 24.0003 5.37262 24.0003 12H10.9568Z" fill="#6DA544"/>
<path d="M3.51422 3.51562C-1.17206 8.20191 -1.17206 15.7999 3.51422 20.4862C3.51389 20.4882 23.9995 12.0009 23.9995 12.0009L3.51422 3.51562Z" fill="#D80027"/>
<path d="M6.26044 7.04297C3.95892 7.04297 2.08655 8.91539 2.08655 11.2169V12.7821C2.08655 15.0836 3.95897 16.9559 6.26044 16.9559C8.56191 16.9559 10.4343 15.0835 10.4343 12.7821V11.2169C10.4344 8.91539 8.56195 7.04297 6.26044 7.04297ZM8.86913 12.7821C8.86913 13.948 8.10028 14.9375 7.04302 15.2707V13.5647L8.15039 12.4574L7.04363 11.3506L7.04302 10.9567V10.4343H5.47786V11.9995L4.37124 13.1061L5.47786 14.2126V15.2707C4.4206 14.9375 3.65175 13.948 3.65175 12.7822V11.2169C3.65175 9.7785 4.82203 8.60826 6.26044 8.60826C7.69885 8.60826 8.86913 9.77854 8.86913 11.2169V12.7821Z" fill="#FFDA44"/>
</g>
<defs>
<clipPath id="clip0_19978_6957">
<rect width="24" height="24" fill="white"/>
</clipPath>
</defs>
</svg>
