<svg width="24" height="24" viewBox="0 0 24 24" fill="none" xmlns="http://www.w3.org/2000/svg">
<g clip-path="url(#clip0_19978_8016)">
<path d="M0 11.9986C0 13.4665 0.264047 14.8725 0.746391 16.1725L12 17.216L23.2536 16.1725C23.736 14.8725 24 13.4665 24 11.9986C24 10.5308 23.736 9.12472 23.2536 7.82473L12 6.78125L0.746391 7.82473C0.264047 9.12472 0 10.5308 0 11.9986Z" fill="#FFDA44"/>
<path d="M23.255 7.82611C21.5595 3.25655 17.161 0 12.0014 0C6.84183 0 2.44332 3.25655 0.747803 7.82611H23.255Z" fill="#D80027"/>
<path d="M0.746826 16.1738C2.44234 20.7434 6.84086 23.9999 12.0004 23.9999C17.16 23.9999 21.5585 20.7434 23.254 16.1738H0.746826Z" fill="#D80027"/>
</g>
<defs>
<clipPath id="clip0_19978_8016">
<rect width="24" height="24" fill="white"/>
</clipPath>
</defs>
</svg>
