<svg width="24" height="24" viewBox="0 0 24 24" fill="none" xmlns="http://www.w3.org/2000/svg">
<g clip-path="url(#clip0_19978_6968)">
<path d="M-0.00012207 12.0006C-0.00012207 13.4685 0.263925 14.8746 0.746315 16.1746L11.9999 17.2179L23.2534 16.1746C23.7359 14.8746 23.9999 13.4685 23.9999 12.0006C23.9999 10.5528 23.7434 9.16501 23.2736 7.88003L11.9999 6.7832L0.726159 7.88008C0.256331 9.16501 -0.00012207 10.5528 -0.00012207 12.0006Z" fill="#FFDA44"/>
<path d="M11.9998 23.9999C17.1594 23.9999 21.5579 20.7434 23.2534 16.1738H0.746216C2.44173 20.7434 6.84025 23.9999 11.9998 23.9999Z" fill="#D80027"/>
<path d="M11.9999 0C6.84037 0 2.44185 3.2565 0.746338 7.82611H23.2536C21.558 3.2565 17.1595 0 11.9999 0Z" fill="#6DA544"/>
<path d="M11.9998 17.74C15.1694 17.74 17.7389 15.1705 17.7389 12.0009C17.7389 8.83122 15.1694 6.26172 11.9998 6.26172C8.83012 6.26172 6.26062 8.83122 6.26062 12.0009C6.26062 15.1705 8.83012 17.74 11.9998 17.74Z" fill="#0052B4"/>
<path d="M11.9986 7.55664L13.0347 10.7452H16.3927L13.6749 12.7158L14.7191 15.9138L11.9986 13.9338L9.28232 15.9102L10.3223 12.7158L7.60706 10.7452H10.9626L11.9986 7.55664Z" fill="#FFDA44"/>
<path d="M16.1308 12.7934L12.8441 11.7254L14.8753 8.92981L14.0312 8.31641L11.9999 11.1122L9.96872 8.31645L9.1245 8.92977L11.1557 11.7256L7.86914 12.7934L8.19155 13.7859L11.4782 12.718V16.1737H12.5217V12.718L15.8082 13.7859L16.1308 12.7934Z" fill="#FFDA44"/>
</g>
<defs>
<clipPath id="clip0_19978_6968">
<rect width="24" height="24" fill="white"/>
</clipPath>
</defs>
</svg>
