<svg width="24" height="24" viewBox="0 0 24 24" fill="none" xmlns="http://www.w3.org/2000/svg">
<g clip-path="url(#clip0_19978_7012)">
<path d="M12 24C18.6274 24 24 18.6274 24 12C24 5.37258 18.6274 0 12 0C5.37258 0 0 5.37258 0 12C0 18.6274 5.37258 24 12 24Z" fill="#F0F0F0"/>
<path d="M23.8985 10.4347H9.39148H9.39143V0.285156C8.28247 0.531062 7.23111 0.929641 6.26098 1.459V10.4346V10.4347H0.1017C0.0349033 10.9471 0.00012207 11.4694 0.00012207 11.9999C0.00012207 12.5304 0.0349033 13.0528 0.1017 13.5651H6.26093H6.26098V22.5408C7.23111 23.0701 8.28247 23.4688 9.39143 23.7146V13.5653V13.5652H23.8985C23.9652 13.0528 24.0001 12.5304 24.0001 11.9999C24.0001 11.4694 23.9652 10.9471 23.8985 10.4347Z" fill="#0052B4"/>
</g>
<defs>
<clipPath id="clip0_19978_7012">
<rect width="24" height="24" fill="white"/>
</clipPath>
</defs>
</svg>
