<svg width="24" height="24" viewBox="0 0 24 24" fill="none" xmlns="http://www.w3.org/2000/svg">
<g clip-path="url(#clip0_19978_6997)">
<path d="M24 12C24 18.6274 18.6274 24 12 24C5.37262 24 0 18.6274 0 12C0 12.0029 12 0.0013125 12 0C18.6274 0 24 5.37262 24 12Z" fill="#338AF3"/>
<path d="M11.9993 5.74023V9.78756L7.82544 5.74023H11.9993Z" fill="#0052B4"/>
<path d="M6.26049 12.0023H9.78605L6.26049 7.30664L5.73877 10.9588L6.26049 12.0023Z" fill="#0052B4"/>
<path d="M11.9673 11.999H11.9995C11.9995 11.9882 11.9995 11.9776 11.9995 11.9668C11.9887 11.9775 11.978 11.9883 11.9673 11.999Z" fill="#F0F0F0"/>
<path d="M11.9997 6.26086C11.9997 4.14937 11.9997 2.76586 11.9997 0H11.9977C5.37125 0.001125 -0.000244141 5.37323 -0.000244141 12H6.26061V8.47448L9.78617 12H11.9677C11.9784 11.9893 11.9891 11.9786 11.9998 11.9679C11.9998 11.1594 11.9998 10.4381 11.9998 9.78647L8.47419 6.26086H11.9997Z" fill="#F0F0F0"/>
<path d="M6.07075 1.56641C4.19393 2.63511 2.63364 4.19539 1.56494 6.07222V12.0012H4.6954V4.69696V4.69686H11.9997C11.9997 3.70953 11.9997 2.76894 11.9997 1.56641H6.07075Z" fill="#D80027"/>
<path d="M11.9998 10.5251L7.73641 6.26172H6.26074V6.26181L11.9997 12.0008H11.9998C11.9998 12.0008 11.9998 10.9833 11.9998 10.5251Z" fill="#D80027"/>
<path d="M13.5656 7.82669V12.0005C13.5656 14.7962 17.2177 15.6527 17.2177 15.6527C17.2177 15.6527 20.8699 14.7962 20.8699 12.0005V7.82669L17.2177 6.7832L13.5656 7.82669Z" fill="#F3F3F3"/>
<path d="M20.8699 7.82692V6.26172H13.5656V7.82692H16.6959V10.9574H13.5656V12.0008C13.5656 12.0009 13.5656 12.0009 13.5656 12.0009L16.6959 12.0009V15.493C17.0108 15.6044 17.2177 15.653 17.2177 15.653C17.2177 15.653 17.4245 15.6045 17.7394 15.493V12.0009H20.8699V12.0008V10.9574H17.7394V7.82687H20.8699V7.82692Z" fill="#D80027"/>
</g>
<defs>
<clipPath id="clip0_19978_6997">
<rect width="24" height="24" fill="white"/>
</clipPath>
</defs>
</svg>
