<svg width="24" height="24" viewBox="0 0 24 24" fill="none" xmlns="http://www.w3.org/2000/svg">
<g clip-path="url(#clip0_19978_6977)">
<path d="M24 12C24 18.6274 18.6274 24 12 24C5.37262 24 0 18.6274 0 12C0 12.0029 12 0.0013125 12 0C18.6274 0 24 5.37262 24 12Z" fill="#0052B4"/>
<path d="M11.9672 12.0009H11.9993C11.9993 11.9901 11.9993 11.9796 11.9993 11.9688C11.9886 11.9795 11.9779 11.9902 11.9672 12.0009Z" fill="#F0F0F0"/>
<path d="M11.9996 6.26086C11.9996 4.14937 11.9996 2.76586 11.9996 0H11.9976C5.37113 0.001125 -0.000366211 5.37323 -0.000366211 12H6.26049V8.47448L9.78605 12H11.9676C11.9783 11.9893 11.9889 11.9786 11.9997 11.9679C11.9997 11.1594 11.9997 10.4381 11.9997 9.78647L8.47407 6.26086H11.9996Z" fill="#F0F0F0"/>
<path d="M6.07063 1.56445C4.1938 2.63316 2.63352 4.19344 1.56482 6.07027V11.9993H4.69527V4.695V4.69491H11.9996C11.9996 3.70758 11.9996 2.76698 11.9996 1.56445H6.07063Z" fill="#D80027"/>
<path d="M11.9997 10.5232L7.73629 6.25977H6.26062V6.25986L11.9996 11.9989H11.9997C11.9997 11.9989 11.9997 10.9813 11.9997 10.5232Z" fill="#D80027"/>
<path d="M19.3046 14.0859V14.6077H15.1307V14.0859H13.5654V16.1729H14.6089V16.6946H19.8263V16.1729H20.8698V14.0859H19.3046Z" fill="#FFDA44"/>
<path d="M13.5654 6.26172V12.0009C13.5654 14.7964 17.2176 15.653 17.2176 15.653C17.2176 15.653 20.8698 14.7964 20.8698 12.0009V6.26172H13.5654Z" fill="#338AF3"/>
<path d="M17.218 10.541C16.305 10.541 16.305 11.3758 15.392 11.3758C14.479 11.3758 14.479 10.541 13.566 10.541V12.0019C14.479 12.0019 14.479 12.8367 15.392 12.8367C16.305 12.8367 16.305 12.0019 17.218 12.0019C18.1311 12.0019 18.1311 12.8367 19.0442 12.8367C19.9573 12.8367 19.9573 12.0019 20.8704 12.0019V10.541C19.9573 10.541 19.9573 11.3758 19.0442 11.3758C18.1311 11.3758 18.1311 10.541 17.218 10.541Z" fill="#F3F3F3"/>
<path d="M17.2176 7.61719C16.3046 7.61719 16.3046 8.45198 15.3916 8.45198C14.4787 8.45198 14.4787 7.61719 13.5657 7.61719V9.07805C14.4787 9.07805 14.4787 9.91284 15.3916 9.91284C16.3046 9.91284 16.3046 9.07805 17.2176 9.07805C18.1307 9.07805 18.1307 9.91284 19.0438 9.91284C19.9569 9.91284 19.9569 9.07805 20.87 9.07805V7.61719C19.9569 7.61719 19.9569 8.45198 19.0438 8.45198C18.1307 8.45198 18.1307 7.61719 17.2176 7.61719Z" fill="#F3F3F3"/>
</g>
<defs>
<clipPath id="clip0_19978_6977">
<rect width="24" height="24" fill="white"/>
</clipPath>
</defs>
</svg>
