<svg width="24" height="24" viewBox="0 0 24 24" fill="none" xmlns="http://www.w3.org/2000/svg">
<g clip-path="url(#clip0_19978_6992)">
<path d="M12 24C18.6274 24 24 18.6274 24 12C24 5.37258 18.6274 0 12 0C5.37258 0 0 5.37258 0 12C0 18.6274 5.37258 24 12 24Z" fill="#F0F0F0"/>
<path d="M23.4782 11.9993L23.8982 10.4341C23.8284 9.90058 23.7238 9.37802 23.5866 8.86886H10.9564V0.0449219C10.4239 0.0907656 9.90151 0.171813 9.39123 0.284969L7.30426 1.56447L6.26078 1.45914C5.71164 1.75877 5.18847 2.10002 4.69558 2.47872V8.86881H0.41331C0.276106 9.37797 0.171481 9.90053 0.101731 10.434L0.521638 11.9993L0.101685 13.5645C0.171435 14.098 0.27606 14.6205 0.413263 15.1297H4.69553V21.5198C5.18842 21.8985 5.71164 22.2397 6.26073 22.5393L7.82593 22.434L9.39114 23.7135C9.90146 23.8266 10.4239 23.9077 10.9563 23.9536V15.1297H23.5864C23.7236 14.6206 23.8283 14.098 23.898 13.5645L23.4782 11.9993Z" fill="#0052B4"/>
<path d="M23.8984 10.4347H9.39136H9.39131V0.285156C8.28234 0.531062 7.23098 0.929641 6.26086 1.459V10.4347H0.101578C0.034875 10.9471 0 11.4694 0 11.9999C0 12.5304 0.034875 13.0528 0.101578 13.5651H6.26081H6.26086V22.5408C7.23098 23.0701 8.28234 23.4688 9.39131 23.7146V13.5653V13.5652H23.8984C23.9651 13.0528 24 12.5304 24 11.9999C24 11.4694 23.9651 10.9471 23.8984 10.4347Z" fill="#D80027"/>
</g>
<defs>
<clipPath id="clip0_19978_6992">
<rect width="24" height="24" fill="white"/>
</clipPath>
</defs>
</svg>
