<svg width="24" height="24" viewBox="0 0 24 24" fill="none" xmlns="http://www.w3.org/2000/svg">
<g clip-path="url(#clip0_19978_7033)">
<path d="M23.2532 16.1745C23.7356 14.8745 23.9996 13.4684 23.9996 12.0006C23.9996 10.5327 23.7356 9.12672 23.2532 7.82669L11.9996 6.7832L0.746024 7.82669C0.263681 9.12672 -0.000366211 10.5327 -0.000366211 12.0006C-0.000366211 13.4684 0.263681 14.8745 0.746024 16.1745L11.9996 17.2179L23.2532 16.1745Z" fill="#FFDA44"/>
<path d="M12.0004 23.9999C17.1599 23.9999 21.5585 20.7434 23.2539 16.1738H0.746704C2.44227 20.7434 6.84074 23.9999 12.0004 23.9999Z" fill="#0052B4"/>
<path d="M12.0004 0C6.84074 0 2.44227 3.2565 0.746704 7.82611H23.254C21.5585 3.2565 17.1599 0 12.0004 0Z" fill="#6DA544"/>
</g>
<defs>
<clipPath id="clip0_19978_7033">
<rect width="24" height="24" fill="white"/>
</clipPath>
</defs>
</svg>
