<svg width="24" height="24" viewBox="0 0 24 24" fill="none" xmlns="http://www.w3.org/2000/svg">
<g clip-path="url(#clip0_19978_8269)">
<path d="M12 24C18.6274 24 24 18.6274 24 12C24 5.37258 18.6274 0 12 0C5.37258 0 0 5.37258 0 12C0 18.6274 5.37258 24 12 24Z" fill="#F0F0F0"/>
<path d="M2.48056 4.69336C1.53795 5.91975 0.827189 7.33327 0.41333 8.86884H6.65605L2.48056 4.69336Z" fill="#0052B4"/>
<path d="M23.5869 8.8688C23.173 7.33327 22.4622 5.91975 21.5196 4.69336L17.3442 8.8688H23.5869Z" fill="#0052B4"/>
<path d="M0.41333 15.1289C0.827237 16.6644 1.538 18.078 2.48057 19.3043L6.65591 15.1289H0.41333Z" fill="#0052B4"/>
<path d="M19.3053 2.47939C18.0789 1.53678 16.6655 0.826016 15.1299 0.412109V6.65479L19.3053 2.47939Z" fill="#0052B4"/>
<path d="M4.69385 21.5171C5.92024 22.4597 7.33376 23.1705 8.86929 23.5844V17.3418L4.69385 21.5171Z" fill="#0052B4"/>
<path d="M8.86924 0.412109C7.33371 0.826015 5.92019 1.53678 4.69385 2.47934L8.86924 6.65473V0.412109Z" fill="#0052B4"/>
<path d="M15.1299 23.5844C16.6654 23.1705 18.0789 22.4597 19.3053 21.5172L15.1299 17.3418V23.5844Z" fill="#0052B4"/>
<path d="M17.3442 15.1289L21.5196 19.3043C22.4622 18.078 23.173 16.6644 23.5869 15.1289H17.3442Z" fill="#0052B4"/>
<path d="M23.8984 10.4348H13.5653H13.5653V0.101578C13.0529 0.034875 12.5305 0 12 0C11.4694 0 10.9471 0.034875 10.4348 0.101578V10.4347V10.4347H0.101578C0.034875 10.9471 0 11.4695 0 12C0 12.5306 0.034875 13.0529 0.101578 13.5652H10.4347H10.4347V23.8984C10.9471 23.9651 11.4694 24 12 24C12.5305 24 13.0529 23.9652 13.5652 23.8984V13.5653V13.5653H23.8984C23.9651 13.0529 24 12.5306 24 12C24 11.4695 23.9651 10.9471 23.8984 10.4348Z" fill="#D80027"/>
<path d="M15.1304 15.1309L20.4852 20.4857C20.7315 20.2395 20.9664 19.9821 21.1906 19.7153L16.6061 15.1309H15.1304V15.1309Z" fill="#D80027"/>
<path d="M8.86951 15.1309H8.86941L3.51465 20.4856C3.76084 20.7319 4.01823 20.9668 4.28504 21.191L8.86951 16.6064V15.1309Z" fill="#D80027"/>
<path d="M8.86927 8.86862V8.86853L3.51446 3.51367C3.26818 3.75986 3.03324 4.01725 2.80908 4.28406L7.3936 8.86858H8.86927V8.86862Z" fill="#D80027"/>
<path d="M15.1304 8.87078L20.4852 3.51588C20.239 3.26959 19.9817 3.03466 19.7148 2.81055L15.1304 7.39506V8.87078Z" fill="#D80027"/>
</g>
<defs>
<clipPath id="clip0_19978_8269">
<rect width="24" height="24" fill="white"/>
</clipPath>
</defs>
</svg>
