<svg width="24" height="24" viewBox="0 0 24 24" fill="none" xmlns="http://www.w3.org/2000/svg">
<g clip-path="url(#clip0_19978_7086)">
<path d="M12 24C18.6274 24 24 18.6274 24 12C24 5.37258 18.6274 0 12 0C5.37258 0 0 5.37258 0 12C0 18.6274 5.37258 24 12 24Z" fill="#FFDA44"/>
<path d="M5.23633 2.08697C7.16219 0.770438 9.49084 0 11.9998 0C14.5087 0 16.8374 0.770438 18.7632 2.08697L11.9998 2.60869L5.23633 2.08697Z" fill="#A2001D"/>
<path d="M12.0003 12.0002L11.2345 11.2344L11.0311 11.5986L12.0003 12.0002Z" fill="#0052B4"/>
<path d="M3.5152 3.51562C-1.17108 8.20191 -1.17108 15.7999 3.5152 20.4862C5.45175 18.5497 7.31423 16.6872 12.0005 12.0009L3.5152 3.51562Z" fill="#496E2D"/>
<path d="M20.4858 3.51562C25.1721 8.20191 25.1721 15.7999 20.4858 20.4862C18.5493 18.5497 16.6868 16.6872 12.0005 12.0009L20.4858 3.51562Z" fill="#496E2D"/>
<path d="M12.0001 16.174C14.3052 16.174 16.174 14.3052 16.174 12.0001C16.174 9.69489 14.3052 7.82617 12.0001 7.82617C9.69489 7.82617 7.82617 9.69489 7.82617 12.0001C7.82617 14.3052 9.69489 16.174 12.0001 16.174Z" fill="#A2001D"/>
<path d="M11.9996 7.82617L12.9352 10.7057H15.9633L13.5137 12.4856L14.4492 15.3653L11.9996 13.5856L9.54996 15.3653L10.4857 12.4856L8.03613 10.7057H11.064L11.9996 7.82617Z" fill="#FFDA44"/>
<path d="M12.0043 0H11.9963C8.68444 0.00107812 5.68627 1.34372 3.51562 3.51412H20.485C18.3143 1.34372 15.3161 0.00107812 12.0043 0Z" fill="#A2001D"/>
<path d="M3.51611 20.4863C5.68764 22.6575 8.68736 24.0004 12.0007 24.0004C15.3141 24.0004 18.3138 22.6575 20.4853 20.4863H3.51611Z" fill="#A2001D"/>
<path d="M12.0004 1.30469L12.1947 1.90253H12.8233L12.3147 2.27205L12.509 2.86989L12.0004 2.50042L11.4918 2.86989L11.6861 2.27205L11.1775 1.90253H11.8061L12.0004 1.30469Z" fill="#FFDA44"/>
<path d="M9.09084 1.30469L9.28513 1.90253H9.91373L9.40518 2.27205L9.59948 2.86989L9.09084 2.50042L8.58234 2.86989L8.77658 2.27205L8.26794 1.90253H8.89654L9.09084 1.30469Z" fill="#FFDA44"/>
<path d="M14.91 1.30469L15.1043 1.90253H15.7329L15.2244 2.27205L15.4187 2.86989L14.91 2.50042L14.4015 2.86989L14.5958 2.27205L14.0872 1.90253H14.7158L14.91 1.30469Z" fill="#FFDA44"/>
<path d="M12.0004 21.1309L12.1947 21.7287H12.8233L12.3147 22.0982L12.509 22.6961L12.0004 22.3265L11.4918 22.6961L11.6861 22.0982L11.1775 21.7287H11.8061L12.0004 21.1309Z" fill="#FFDA44"/>
<path d="M9.09084 21.1309L9.28513 21.7287H9.91373L9.40518 22.0982L9.59948 22.6961L9.09084 22.3265L8.58234 22.6961L8.77658 22.0982L8.26794 21.7287H8.89654L9.09084 21.1309Z" fill="#FFDA44"/>
<path d="M14.91 21.1309L15.1043 21.7287H15.7329L15.2244 22.0982L15.4187 22.6961L14.91 22.3265L14.4015 22.6961L14.5958 22.0982L14.0872 21.7287H14.7158L14.91 21.1309Z" fill="#FFDA44"/>
<path d="M3.65676 11.8029C3.96496 12.2899 3.82012 12.9345 3.33313 13.2427C2.8462 13.551 2.20157 13.4061 1.89332 12.9191C1.33527 12.0375 1.65885 10.5977 1.65885 10.5977C1.65885 10.5977 3.09866 10.9212 3.65676 11.8029Z" fill="#FFDA44"/>
<path d="M3.05358 13.3227C3.34172 13.3227 3.5753 13.0892 3.5753 12.801C3.5753 12.5129 3.34172 12.2793 3.05358 12.2793C2.76544 12.2793 2.53186 12.5129 2.53186 12.801C2.53186 13.0892 2.76544 13.3227 3.05358 13.3227Z" fill="#A2001D"/>
</g>
<defs>
<clipPath id="clip0_19978_7086">
<rect width="24" height="24" fill="white"/>
</clipPath>
</defs>
</svg>
