<svg width="24" height="24" viewBox="0 0 24 24" fill="none" xmlns="http://www.w3.org/2000/svg">
<g clip-path="url(#clip0_19978_7058)">
<path d="M0 11.9984C0 13.4662 0.264047 14.8723 0.746391 16.1723L12 16.6941L23.2536 16.1723C23.736 14.8723 24 13.4662 24 11.9984C24 10.5305 23.736 9.12449 23.2536 7.8245L12 7.30273L0.746391 7.82445C0.264047 9.12449 0 10.5305 0 11.9984Z" fill="#FFDA44"/>
<path d="M11.9998 0C6.84025 0 2.44173 3.2565 0.746216 7.82611H23.2535C21.5579 3.2565 17.1594 0 11.9998 0Z" fill="#D80027"/>
<path d="M23.2536 16.1738H0.746338C2.44185 20.7434 6.84037 23.9999 11.9999 23.9999C17.1595 23.9999 21.558 20.7434 23.2536 16.1738Z" fill="#496E2D"/>
<path d="M11.9998 7.82617L13.0358 11.0146H16.3886L13.6763 12.9854L14.7123 16.174L11.9998 14.2033L9.28741 16.174L10.3235 12.9854L7.61121 11.0146H10.9639L11.9998 7.82617Z" fill="black"/>
</g>
<defs>
<clipPath id="clip0_19978_7058">
<rect width="24" height="24" fill="white"/>
</clipPath>
</defs>
</svg>
