<svg width="24" height="24" viewBox="0 0 24 24" fill="none" xmlns="http://www.w3.org/2000/svg">
<g clip-path="url(#clip0_19978_7064)">
<path d="M12 24C18.6274 24 24 18.6274 24 12C24 5.37258 18.6274 0 12 0C5.37258 0 0 5.37258 0 12C0 18.6274 5.37258 24 12 24Z" fill="#F9F9F9"/>
<path d="M11.9999 24.0019C17.1594 24.0019 21.558 20.7454 23.2534 16.1758H0.746216C2.44178 20.7454 6.84025 24.0019 11.9999 24.0019Z" fill="#D80027"/>
<path d="M16.6955 9.91427V8.34906H17.2173V7.30558H16.1738V7.82734H15.1303V7.30558H14.0869V8.34906H14.6086V9.91427H13.5651V6.26219H14.0869V5.21875H13.0434V5.74037H12.5216V5.21875H11.4782V5.74037H10.9564V5.21875H9.91292V6.26219H10.4347V9.91427H9.3912V8.34906H9.91292V7.30558H8.86943V7.82734H7.82599V7.30558H6.78251V8.34906H7.30423V9.91427H6.26074V14.0882H17.739V9.91427H16.6955Z" fill="#D80027"/>
<path d="M11.9998 13.5645C11.1353 13.5645 10.4346 14.2652 10.4346 15.1297C10.4346 15.811 10.8702 16.3906 11.478 16.6055V18.7819H9.91284V20.8688H12.5215V16.6055C13.1294 16.3906 13.565 15.8111 13.565 15.1297C13.565 14.2653 12.8642 13.5645 11.9998 13.5645ZM11.9998 15.6514C11.7116 15.6514 11.478 15.4178 11.478 15.1297C11.478 14.8416 11.7116 14.608 11.9998 14.608C12.2879 14.608 12.5215 14.8416 12.5215 15.1297C12.5215 15.4178 12.2879 15.6514 11.9998 15.6514Z" fill="#FFDA44"/>
</g>
<defs>
<clipPath id="clip0_19978_7064">
<rect width="24" height="24" fill="white"/>
</clipPath>
</defs>
</svg>
