<svg width="24" height="24" viewBox="0 0 24 24" fill="none" xmlns="http://www.w3.org/2000/svg">
<g clip-path="url(#clip0_19978_7080)">
<path d="M0 12C0 5.37262 5.37262 0 12 0C18.6274 0 24 5.37262 24 12C23.4783 12 12 13.5652 12 13.5652L0 12Z" fill="#F0F0F0"/>
<path d="M24.0004 12C24.0004 18.6274 18.6277 24 12.0004 24C5.37299 24 0.000366211 18.6274 0.000366211 12" fill="#D80027"/>
<path d="M8.34754 17.74C11.5172 17.74 14.0867 15.1705 14.0867 12.0009C14.0867 8.83122 11.5172 6.26172 8.34754 6.26172C5.1779 6.26172 2.6084 8.83122 2.6084 12.0009C2.6084 15.1705 5.1779 17.74 8.34754 17.74Z" fill="#F0F0F0"/>
<path d="M2.6084 12.0009C2.6084 8.83131 5.1779 6.26172 8.34754 6.26172C11.5172 6.26172 14.0867 8.83127 14.0867 12.0009" fill="#D80027"/>
</g>
<defs>
<clipPath id="clip0_19978_7080">
<rect width="24" height="24" fill="white"/>
</clipPath>
</defs>
</svg>
