<svg width="24" height="24" viewBox="0 0 24 24" fill="none" xmlns="http://www.w3.org/2000/svg">
<g clip-path="url(#clip0_19978_7038)">
<path d="M12 24C18.6274 24 24 18.6274 24 12C24 5.37258 18.6274 0 12 0C5.37258 0 0 5.37258 0 12C0 18.6274 5.37258 24 12 24Z" fill="#F0F0F0"/>
<path d="M12.0004 0C7.0394 0 2.78183 3.01059 0.954224 7.30434H23.0466C21.219 3.01059 16.9614 0 12.0004 0Z" fill="#A2001D"/>
<path d="M12.0004 24.0016C16.9614 24.0016 21.219 20.991 23.0466 16.6973H0.954224C2.78183 20.991 7.0394 24.0016 12.0004 24.0016Z" fill="#496E2D"/>
<path d="M23.5865 8.86914H0.413269C0.144253 9.86725 -0.00012207 10.9165 -0.00012207 11.9996C-0.00012207 13.0827 0.144253 14.1319 0.413269 15.13H23.5865C23.8555 14.1319 23.9999 13.0827 23.9999 11.9996C23.9999 10.9165 23.8555 9.86725 23.5865 8.86914Z" fill="#0052B4"/>
</g>
<defs>
<clipPath id="clip0_19978_7038">
<rect width="24" height="24" fill="white"/>
</clipPath>
</defs>
</svg>
