<svg width="24" height="24" viewBox="0 0 24 24" fill="none" xmlns="http://www.w3.org/2000/svg">
<g clip-path="url(#clip0_19978_7143)">
<path d="M16.1744 0.746437C14.8744 0.264047 13.4683 0 12.0004 0C10.5326 0 9.12651 0.264047 7.82657 0.746344L7.30481 12L7.82653 23.2537C9.12651 23.736 10.5326 24 12.0004 24C13.4683 24 14.8744 23.736 16.1744 23.2536L16.6961 12L16.1744 0.746437Z" fill="#FFDA44"/>
<path d="M0 11.9997C0 17.1593 3.2565 21.5578 7.82611 23.2533V0.746094C3.2565 2.44166 0 6.84012 0 11.9997Z" fill="#D80027"/>
<path d="M23.9996 11.9997C23.9996 6.84012 20.7431 2.44166 16.1735 0.746094V23.2534C20.7431 21.5578 23.9996 17.1593 23.9996 11.9997Z" fill="#6DA544"/>
</g>
<defs>
<clipPath id="clip0_19978_7143">
<rect width="24" height="24" fill="white"/>
</clipPath>
</defs>
</svg>
