<svg width="24" height="24" viewBox="0 0 24 24" fill="none" xmlns="http://www.w3.org/2000/svg">
<g clip-path="url(#clip0_19978_6948)">
<path d="M12 24C18.6274 24 24 18.6274 24 12C24 5.37258 18.6274 0 12 0C5.37258 0 0 5.37258 0 12C0 18.6274 5.37258 24 12 24Z" fill="#F0F0F0"/>
<path d="M7.30462 7.82611H23.2538C21.5584 3.2565 17.1598 0 12.0003 0C8.68649 0 5.68682 1.34339 3.51538 3.51511L7.30462 7.82611Z" fill="#6DA544"/>
<path d="M7.30462 16.1738H23.2538C21.5584 20.7434 17.1598 23.9999 12.0003 23.9999C8.68649 23.9999 5.68682 22.6565 3.51538 20.4848L7.30462 16.1738Z" fill="#D80027"/>
<path d="M3.5152 3.51562C-1.17108 8.20191 -1.17108 15.7999 3.5152 20.4862C5.45175 18.5497 7.31423 16.6872 12.0005 12.0009L3.5152 3.51562Z" fill="#0052B4"/>
<path d="M14.087 9.91211V12.5208C14.087 14.1183 16.174 14.6078 16.174 14.6078C16.174 14.6078 18.261 14.1183 18.261 12.5208V9.91211H14.087Z" fill="#DEDDE0"/>
<path d="M16.6953 12.0527H15.6519V13.5658H16.6953V12.0527Z" fill="#786145"/>
<path d="M17.2176 11.479C17.2176 10.9027 16.7504 10.4355 16.1741 10.4355C15.5978 10.4355 15.1306 10.9027 15.1306 11.479C14.8425 11.479 14.6089 11.7126 14.6089 12.0008C14.6089 12.2889 14.8425 12.5225 15.1306 12.5225C15.3017 12.5225 17.0465 12.5225 17.2176 12.5225C17.5057 12.5225 17.7393 12.2889 17.7393 12.0008C17.7393 11.7126 17.5058 11.479 17.2176 11.479Z" fill="#6DA544"/>
</g>
<defs>
<clipPath id="clip0_19978_6948">
<rect width="24" height="24" fill="white"/>
</clipPath>
</defs>
</svg>
