<svg width="24" height="24" viewBox="0 0 24 24" fill="none" xmlns="http://www.w3.org/2000/svg">
<g clip-path="url(#clip0_19978_7071)">
<path d="M12 24C18.6274 24 24 18.6274 24 12C24 5.37258 18.6274 0 12 0C5.37258 0 0 5.37258 0 12C0 18.6274 5.37258 24 12 24Z" fill="#F0F0F0"/>
<path d="M11.9996 8.86873H23.5862C23.2854 7.75245 22.828 6.70053 22.2384 5.73828H11.9996V8.86873Z" fill="#338AF3"/>
<path d="M4.53058 21.3902H19.4702C20.5654 20.518 21.5046 19.4585 22.2391 18.2598H1.76172C2.4963 19.4585 3.43548 20.518 4.53058 21.3902Z" fill="#338AF3"/>
<path d="M4.17433 2.90234C3.23092 3.71473 2.41534 4.67141 1.76172 5.73809H4.17433V2.90234Z" fill="#338AF3"/>
<path d="M12.0001 11.9996C12.0001 10.7773 12.0001 9.75433 12.0001 8.86914H7.30447V11.9996H4.17401V8.86914H0.413513C0.144497 9.8673 0.00012207 10.9165 0.00012207 11.9996C0.00012207 13.0827 0.144497 14.1319 0.413513 15.13H23.5868C23.8557 14.1319 24.0001 13.0827 24.0001 11.9996H12.0001Z" fill="#338AF3"/>
<path d="M12.0005 0C10.3341 0 8.74715 0.339984 7.30481 0.953812V5.73914H12.0005C12.0005 4.64639 12.0005 3.717 12.0005 2.60869H19.4703C17.4204 0.976125 14.8246 0 12.0005 0Z" fill="#338AF3"/>
</g>
<defs>
<clipPath id="clip0_19978_7071">
<rect width="24" height="24" fill="white"/>
</clipPath>
</defs>
</svg>
