<svg width="24" height="24" viewBox="0 0 24 24" fill="none" xmlns="http://www.w3.org/2000/svg">
<g clip-path="url(#clip0_19978_7122)">
<path d="M12 24C18.6274 24 24 18.6274 24 12C24 5.37258 18.6274 0 12 0C5.37258 0 0 5.37258 0 12C0 18.6274 5.37258 24 12 24Z" fill="#F0F0F0"/>
<path d="M23.9992 12.0007C23.9992 7.24316 21.2305 3.13241 17.2166 1.19141V22.8099C21.2305 20.869 23.9992 16.7582 23.9992 12.0007Z" fill="#338AF3"/>
<path d="M-0.000366211 12.0007C-0.000366211 16.7582 2.76831 20.869 6.78226 22.81V1.19141C2.76831 3.13241 -0.000366211 7.24316 -0.000366211 12.0007Z" fill="#338AF3"/>
<path d="M15.1355 14.0278L13.1065 11.9988L15.0379 10.0673L14.9503 9.04717L14.3974 8.49414L11.9997 10.8919L9.60191 8.49414L9.04897 9.04717L8.96146 10.0673L10.8928 11.9988L8.86377 14.0278L9.97058 15.1345L11.9997 13.1055L14.0287 15.1345L15.1355 14.0278Z" fill="#ACABB1"/>
<path d="M14.9516 9.04883L13.8448 10.1556C14.3169 10.6277 14.6089 11.2798 14.6089 12.0002C14.6089 13.441 13.4409 14.6089 12.0002 14.6089C10.5595 14.6089 9.3915 13.441 9.3915 12.0002C9.3915 11.2798 9.68353 10.6277 10.1556 10.1556L9.04884 9.04883C8.29345 9.80408 7.82629 10.8476 7.82629 12.0002C7.82629 14.3054 9.69501 16.1741 12.0002 16.1741C14.3054 16.1741 16.1741 14.3054 16.1741 12.0002C16.1741 10.8476 15.7069 9.80413 14.9516 9.04883Z" fill="#6DA544"/>
</g>
<defs>
<clipPath id="clip0_19978_7122">
<rect width="24" height="24" fill="white"/>
</clipPath>
</defs>
</svg>
