<svg width="24" height="24" viewBox="0 0 24 24" fill="none" xmlns="http://www.w3.org/2000/svg">
<g clip-path="url(#clip0_19978_7110)">
<path d="M5.23633 21.9126C7.16214 23.2291 9.49089 23.9996 11.9998 23.9996C14.5087 23.9996 16.8374 23.2291 18.7632 21.9126L11.9998 20.8691L5.23633 21.9126Z" fill="#D80027"/>
<path d="M18.7641 2.08697C16.8382 0.770484 14.5095 0 12.0006 0C9.49174 0 7.16299 0.770484 5.23718 2.08697L12.0006 3.13045L18.7641 2.08697Z" fill="#D80027"/>
<path d="M23.9996 12.0009C23.9996 8.03014 21.6223 4.04248 18.7631 2.08789H5.23618C2.07479 4.24902 -0.000366211 7.88248 -0.000366211 12.0009C-0.000366211 16.1195 2.07479 19.7528 5.23618 21.914H18.7631C21.9245 19.7528 23.9996 16.1195 23.9996 12.0009Z" fill="#0052B4"/>
<path d="M11.3208 19.5756C11.1568 19.4349 7.3042 16.0858 7.3042 12.0007C7.3042 7.91559 11.1568 4.56642 11.3208 4.42584L11.9999 3.84375L12.6789 4.4258C12.8429 4.56642 16.6955 7.91555 16.6955 12.0007C16.6955 16.0859 12.843 19.435 12.6789 19.5756L11.9999 20.1577L11.3208 19.5756Z" fill="#D80027"/>
<path d="M15.6524 11.9994C15.6524 8.34725 12.0002 5.2168 12.0002 5.2168C12.0002 5.2168 8.34802 8.34734 8.34802 11.9994C8.34802 13.1167 8.69007 14.1849 9.16454 15.1299H14.8359C15.3103 14.1849 15.6524 13.1167 15.6524 11.9994Z" fill="#338AF3"/>
<path d="M15.6524 12C15.6524 13.1173 15.3103 14.1855 14.8359 15.1305L12.0002 15.6522L9.16454 15.1305C8.69007 14.1855 8.34802 13.1173 8.34802 12H15.6524Z" fill="#0052B4"/>
<path d="M12.0001 18.783C12.0001 18.783 13.7592 17.2747 14.8357 15.1309H9.16443C10.241 17.2747 12.0001 18.783 12.0001 18.783Z" fill="#FFDA44"/>
<path d="M9.65161 9.91211H14.3473L11.9994 12.2599L9.65161 9.91211Z" fill="#6DA544"/>
<path d="M12.7827 11.4766H11.2175V16.1722H12.7827V11.4766Z" fill="#A2001D"/>
</g>
<defs>
<clipPath id="clip0_19978_7110">
<rect width="24" height="24" fill="white"/>
</clipPath>
</defs>
</svg>
