<svg width="24" height="24" viewBox="0 0 24 24" fill="none" xmlns="http://www.w3.org/2000/svg">
<g clip-path="url(#clip0_19978_7135)">
<path d="M11.9996 0C10.9165 0 9.86723 0.144375 8.86912 0.413391L7.82568 12L8.86917 23.5866C9.86723 23.8556 10.9165 24 11.9996 24C18.6269 24 23.9996 18.6274 23.9996 12C23.9996 5.37262 18.6269 0 11.9996 0Z" fill="#FFDA44"/>
<path d="M7.82568 12L8.86917 23.5866C9.86723 23.8556 10.9165 24 11.9996 24C18.6269 24 23.9996 18.6274 23.9996 12H7.82568Z" fill="#6DA544"/>
<path d="M0 11.998C0 16.5465 2.53078 20.5037 6.26086 22.5389V1.45703C2.53078 3.49225 0 7.44944 0 11.998Z" fill="#D80027"/>
<path d="M0.00012207 11.9987C0.00012207 17.543 3.76048 22.2083 8.86967 23.5853V0.412109C3.76048 1.78911 0.00012207 6.45439 0.00012207 11.9987Z" fill="#D80027"/>
<path d="M4.53456 8.86914L5.31151 11.2605H7.82617L5.79189 12.7386L6.56879 15.13L4.53456 13.652L2.50023 15.13L3.27732 12.7386L1.24304 11.2605H3.75756L4.53456 8.86914Z" fill="black"/>
</g>
<defs>
<clipPath id="clip0_19978_7135">
<rect width="24" height="24" fill="white"/>
</clipPath>
</defs>
</svg>
