<svg width="24" height="24" viewBox="0 0 24 24" fill="none" xmlns="http://www.w3.org/2000/svg">
<g clip-path="url(#clip0_19978_7148)">
<path d="M12 24C18.6274 24 24 18.6274 24 12C24 5.37258 18.6274 0 12 0C5.37258 0 0 5.37258 0 12C0 18.6274 5.37258 24 12 24Z" fill="#F0F0F0"/>
<path d="M12 0C9.87837 0 7.88581 0.551344 6.15649 1.51744V22.4826C7.88585 23.4487 9.87837 24 12 24C18.6274 24 24 18.6274 24 12C24 5.37262 18.6274 0 12 0Z" fill="#6DA544"/>
<path d="M6.1919 1.49805C5.43698 1.91641 4.73208 2.41366 4.08806 2.97897C4.15317 2.92188 4.21893 2.86544 4.28522 2.80975L13.4758 12.0003L4.28517 21.1909C4.21884 21.1353 4.15312 21.0788 4.08801 21.0217C4.73203 21.587 5.43698 22.0842 6.19186 22.5026L24.0001 12.0003L6.1919 1.49805Z" fill="#F0F0F0"/>
<path d="M5.17825 2.12695C4.81229 2.38036 4.46082 2.65303 4.1259 2.94445L12 11.9997L4.12585 21.0549C4.46078 21.3463 4.81225 21.619 5.1782 21.8724L21.9458 11.9997L5.17825 2.12695Z" fill="#FFDA44"/>
<path d="M4.28492 2.81055C4.01815 3.0347 3.76071 3.26969 3.51453 3.51583L10.9564 12.0011L3.51453 20.4865C3.76071 20.7326 4.0181 20.9677 4.28492 21.1917L13.4755 12.0011L4.28492 2.81055Z" fill="black"/>
<path d="M3.51471 3.51367C-1.17157 8.19995 -1.17157 15.798 3.51471 20.4843C5.45126 18.5478 7.31375 16.6853 12 11.999L3.51471 3.51367Z" fill="#D80027"/>
</g>
<defs>
<clipPath id="clip0_19978_7148">
<rect width="24" height="24" fill="white"/>
</clipPath>
</defs>
</svg>
