<svg width="24" height="24" viewBox="0 0 24 24" fill="none" xmlns="http://www.w3.org/2000/svg">
<g clip-path="url(#clip0_19978_7177)">
<path d="M12 24C18.6274 24 24 18.6274 24 12C24 5.37258 18.6274 0 12 0C5.37258 0 0 5.37258 0 12C0 18.6274 5.37258 24 12 24Z" fill="#D80027"/>
<path d="M13.2391 9.07837C12.9664 10.2127 12.4818 9.99637 12.244 10.9856C10.8433 10.6488 9.98058 9.24023 10.3174 7.83937C10.654 6.43861 12.0628 5.57592 13.4636 5.91271C12.9879 7.89117 13.4831 8.06386 13.2391 9.07837Z" fill="#F0F0F0"/>
<path d="M9.6042 9.91822C10.5987 10.5281 10.2432 10.9221 11.1105 11.454C10.3573 12.6822 8.75117 13.0673 7.52295 12.3141C6.29478 11.561 5.9096 9.95473 6.66279 8.72656C8.39745 9.79025 8.71456 9.37273 9.6042 9.91822Z" fill="#F0F0F0"/>
<path d="M9.27995 13.6358C10.1673 12.8784 10.4321 13.3382 11.206 12.6777C12.1414 13.7735 12.0113 15.4202 10.9155 16.3555C9.81967 17.2909 8.17304 17.1607 7.23779 16.065C8.78532 14.7439 8.48621 14.3132 9.27995 13.6358Z" fill="#F0F0F0"/>
<path d="M12.7151 15.0924C12.2689 14.0144 12.7881 13.9046 12.399 12.9646C13.7303 12.4136 15.2561 13.0462 15.8071 14.3774C16.358 15.7086 15.7254 17.2344 14.3942 17.7854C13.6162 15.9053 13.1142 16.0566 12.7151 15.0924Z" fill="#F0F0F0"/>
<path d="M15.162 12.2753C13.9989 12.3665 14.0547 11.8387 13.0406 11.9183C12.9279 10.4821 14.0011 9.22629 15.4374 9.11356C16.8736 9.00111 18.1294 10.0742 18.242 11.5105C16.2134 11.6696 16.2022 12.1938 15.162 12.2753Z" fill="#F0F0F0"/>
</g>
<defs>
<clipPath id="clip0_19978_7177">
<rect width="24" height="24" fill="white"/>
</clipPath>
</defs>
</svg>
