<svg width="24" height="24" viewBox="0 0 24 24" fill="none" xmlns="http://www.w3.org/2000/svg">
<g clip-path="url(#clip0_19978_7166)">
<path d="M12 24C18.6274 24 24 18.6274 24 12C24 5.37258 18.6274 0 12 0C5.37258 0 0 5.37258 0 12C0 18.6274 5.37258 24 12 24Z" fill="#F0F0F0"/>
<path d="M12.0002 23.9994C16.7577 23.9994 20.8685 21.2307 22.8095 17.2168H1.19092C3.13192 21.2307 7.24267 23.9994 12.0002 23.9994Z" fill="#338AF3"/>
<path d="M12.0009 0C7.2434 0 3.13265 2.76867 1.19165 6.78262H22.8102C20.8692 2.76867 16.7584 0 12.0009 0Z" fill="#338AF3"/>
<path d="M7.38553 7.82617L7.77403 9.02191H9.03126L8.01417 9.76084L8.40272 10.9566L7.38553 10.2176L6.36834 10.9566L6.75689 9.76084L5.73975 9.02191H6.99698L7.38553 7.82617Z" fill="#338AF3"/>
<path d="M7.38553 13.043L7.77403 14.2388H9.03126L8.01417 14.9777L8.40272 16.1734L7.38553 15.4344L6.36834 16.1734L6.75689 14.9777L5.73975 14.2388H6.99698L7.38553 13.043Z" fill="#338AF3"/>
<path d="M16.6151 7.82617L17.0037 9.02191H18.2609L17.2438 9.76084L17.6323 10.9566L16.6151 10.2176L15.598 10.9566L15.9865 9.76084L14.9694 9.02191H16.2266L16.6151 7.82617Z" fill="#338AF3"/>
<path d="M16.6151 13.043L17.0037 14.2388H18.2609L17.2438 14.9777L17.6323 16.1734L16.6151 15.4344L15.598 16.1734L15.9865 14.9777L14.9694 14.2388H16.2266L16.6151 13.043Z" fill="#338AF3"/>
<path d="M12 10.4336L12.3886 11.6294H13.6458L12.6287 12.3683L13.0172 13.564L12 12.825L10.9828 13.564L11.3714 12.3683L10.3542 11.6294H11.6115L12 10.4336Z" fill="#338AF3"/>
</g>
<defs>
<clipPath id="clip0_19978_7166">
<rect width="24" height="24" fill="white"/>
</clipPath>
</defs>
</svg>
