<svg width="24" height="24" viewBox="0 0 24 24" fill="none" xmlns="http://www.w3.org/2000/svg">
<g clip-path="url(#clip0_19978_6806)">
<path d="M24 12.0003C24 10.5325 23.736 9.12639 23.2536 7.82645L12 7.30469L0.746391 7.82641C0.264047 9.12639 0 10.5325 0 12.0003C0 13.4682 0.264047 14.8743 0.746391 16.1742L12 16.696L23.2536 16.1743C23.736 14.8743 24 13.4682 24 12.0003Z" fill="#F0F0F0"/>
<path d="M11.9999 23.9999C17.1595 23.9999 21.558 20.7434 23.2536 16.1738H0.746338C2.44185 20.7434 6.84037 23.9999 11.9999 23.9999Z" fill="#0052B4"/>
<path d="M0.746216 7.82611H23.2535C21.5579 3.2565 17.1594 0 11.9998 0C6.84025 0 2.44173 3.2565 0.746216 7.82611Z" fill="#D80027"/>
<path d="M15.1302 8.34753H13.0432L13.3911 5.7388L14.7823 4.69531L16.1736 5.7388V7.82576L15.1302 8.34753Z" fill="#338AF3"/>
<path d="M8.86924 8.34753H10.9562L10.6083 5.7388L9.21705 4.69531L7.82581 5.7388V7.82576L8.86924 8.34753Z" fill="#338AF3"/>
<path d="M13.3908 8.34753H10.6082V5.7388L11.9995 4.69531L13.3908 5.7388V8.34753Z" fill="#0052B4"/>
<path d="M7.82581 7.82617V13.5653C7.82581 14.9318 8.4859 16.1471 9.50403 16.9089L10.2345 16.7262L11.1562 17.6535C11.4288 17.7096 11.7109 17.7392 11.9997 17.7392C12.2871 17.7392 12.5677 17.71 12.8389 17.6544L13.8911 16.7783L14.4954 16.9073C15.5131 16.1454 16.1736 14.9314 16.1736 13.5653V7.82617H7.82581Z" fill="#F0F0F0"/>
<path d="M9.4956 7.82617H7.82605V9.49572H9.4956V7.82617Z" fill="#D80027"/>
<path d="M12.8348 7.82617H11.1653V9.49572H12.8348V7.82617Z" fill="#D80027"/>
<path d="M16.1742 7.82617H14.5046V9.49572H16.1742V7.82617Z" fill="#D80027"/>
<path d="M11.1648 9.49609H9.49524V11.1656H11.1648V9.49609Z" fill="#D80027"/>
<path d="M14.504 9.49609H12.8345V11.1656H14.504V9.49609Z" fill="#D80027"/>
<path d="M9.4956 11.1641H7.82605V12.8336H9.4956V11.1641Z" fill="#D80027"/>
<path d="M11.1648 12.834H9.49524V14.5035H11.1648V12.834Z" fill="#D80027"/>
<path d="M12.8348 11.1641H11.1653V12.8336H12.8348V11.1641Z" fill="#D80027"/>
<path d="M16.1742 11.1641H14.5046V12.8336H16.1742V11.1641Z" fill="#D80027"/>
<path d="M14.504 12.834H12.8345V14.5035H14.504V12.834Z" fill="#D80027"/>
<path d="M12.8348 14.5039H11.1653V16.1734H12.8348V14.5039Z" fill="#D80027"/>
<path d="M9.49542 14.5039H7.93359C8.07684 15.1245 8.35847 15.6924 8.74462 16.1734H9.49542V14.5039Z" fill="#D80027"/>
<path d="M14.5046 16.1734H15.2554C15.6416 15.6924 15.9232 15.1245 16.0664 14.5039H14.5046V16.1734Z" fill="#D80027"/>
<path d="M9.49524 16.1738V16.9023C9.98082 17.2677 10.5483 17.5297 11.1648 17.6554V16.1738H9.49524Z" fill="#D80027"/>
<path d="M12.8345 16.1738V17.6554C13.451 17.5298 14.0184 17.2677 14.504 16.9023V16.1738H12.8345Z" fill="#D80027"/>
</g>
<defs>
<clipPath id="clip0_19978_6806">
<rect width="24" height="24" fill="white"/>
</clipPath>
</defs>
</svg>
