<svg width="24" height="24" viewBox="0 0 24 24" fill="none" xmlns="http://www.w3.org/2000/svg">
<g clip-path="url(#clip0_19978_7156)">
<path d="M24 12C24 18.6274 18.6274 24 12 24C5.37262 24 0 18.6274 0 12C0 5.37262 12 0 12 0C12 0 24 5.37262 24 12Z" fill="#A2001D"/>
<path d="M0 12C0 5.37262 5.37262 0 12 0C18.6274 0 24 5.37262 24 12" fill="#0052B4"/>
<path d="M16.1736 15.13L11.9997 14.6083L7.82581 15.13V8.86914H16.1736V15.13Z" fill="#F0F0F0"/>
<path d="M11.9998 14.6075C13.1524 14.6075 14.0868 13.6732 14.0868 12.5206C14.0868 11.368 13.1524 10.4336 11.9998 10.4336C10.8472 10.4336 9.91284 11.368 9.91284 12.5206C9.91284 13.6732 10.8472 14.6075 11.9998 14.6075Z" fill="#0052B4"/>
<path d="M12.0003 13.5655C12.5766 13.5655 13.0438 13.0983 13.0438 12.522C13.0438 11.9457 12.5766 11.4785 12.0003 11.4785C11.424 11.4785 10.9568 11.9457 10.9568 12.522C10.9568 13.0983 11.424 13.5655 12.0003 13.5655Z" fill="#A2001D"/>
<path d="M10.4348 9.91406H13.5652L12 11.4793L10.4348 9.91406Z" fill="#6DA544"/>
<path d="M12.5221 10.9551H11.4786V14.0855H12.5221V10.9551Z" fill="#FFDA44"/>
<path d="M13.6692 13.7754H10.3301L7.82581 15.1319H16.1736L13.6692 13.7754Z" fill="#6DA544"/>
</g>
<defs>
<clipPath id="clip0_19978_7156">
<rect width="24" height="24" fill="white"/>
</clipPath>
</defs>
</svg>
