<svg width="24" height="24" viewBox="0 0 24 24" fill="none" xmlns="http://www.w3.org/2000/svg">
<g clip-path="url(#clip0_19978_7236)">
<path d="M12 24C18.6274 24 24 18.6274 24 12C24 5.37258 18.6274 0 12 0C5.37258 0 0 5.37258 0 12C0 18.6274 5.37258 24 12 24Z" fill="#F0F0F0"/>
<path d="M16.5181 9.39189H13.5057L11.9996 6.7832L10.4936 9.39189H7.4812L8.98748 12.0006L7.4812 14.6093H10.4936L11.9996 17.2179L13.5057 14.6093H16.5181L15.0118 12.0006L16.5181 9.39189ZM13.85 12.0006L12.9249 13.6031H11.0745L10.1492 12.0006L11.0745 10.398H12.9248L13.85 12.0006ZM11.9996 8.79541L12.344 9.39184H11.6554L11.9996 8.79541ZM9.22397 10.398H9.91266L9.56831 10.9945L9.22397 10.398ZM9.22397 13.6031L9.56836 13.0067L9.9127 13.6031H9.22397ZM11.9996 15.2057L11.6553 14.6093H12.344L11.9996 15.2057ZM14.7753 13.6031H14.0866L14.431 13.0067L14.7753 13.6031ZM14.0866 10.398H14.7753L14.4309 10.9945L14.0866 10.398Z" fill="#0052B4"/>
<path d="M19.4697 2.60938H4.52997C3.43483 3.48162 2.49564 4.54109 1.76111 5.73983H22.2385C21.504 4.54114 20.5648 3.48162 19.4697 2.60938Z" fill="#0052B4"/>
<path d="M4.52997 21.3922H19.4696C20.5648 20.5199 21.504 19.4605 22.2385 18.2617H1.76111C2.49569 19.4604 3.43487 20.5199 4.52997 21.3922Z" fill="#0052B4"/>
</g>
<defs>
<clipPath id="clip0_19978_7236">
<rect width="24" height="24" fill="white"/>
</clipPath>
</defs>
</svg>
