<svg width="24" height="24" viewBox="0 0 24 24" fill="none" xmlns="http://www.w3.org/2000/svg">
<g clip-path="url(#clip0_19978_7232)">
<path d="M12 24C18.6274 24 24 18.6274 24 12C24 5.37258 18.6274 0 12 0C5.37258 0 0 5.37258 0 12C0 18.6274 5.37258 24 12 24Z" fill="#D80027"/>
<path d="M16.4434 8.04441L15.5953 11.0712L13.0504 10.6012L11.4123 7.22461L6.98702 8.79497L6.63804 7.81153L5.48022 7.66889L6.35262 10.1274L9.39804 9.34861L10.2635 11.7875L8.15824 14.8944L11.7309 17.9416L11.0538 18.7355L11.5091 19.8096L13.2021 17.8247L11.0049 15.5767L12.6843 13.6079L16.4276 13.8776L17.2803 9.25992L18.3064 9.44944L19.009 8.51803L16.4434 8.04441Z" fill="#F0F0F0"/>
</g>
<defs>
<clipPath id="clip0_19978_7232">
<rect width="24" height="24" fill="white"/>
</clipPath>
</defs>
</svg>
