<svg width="24" height="24" viewBox="0 0 24 24" fill="none" xmlns="http://www.w3.org/2000/svg">
<g clip-path="url(#clip0_19978_7200)">
<path d="M12 24C18.6274 24 24 18.6274 24 12C24 5.37258 18.6274 0 12 0C5.37258 0 0 5.37258 0 12C0 18.6274 5.37258 24 12 24Z" fill="#F0F0F0"/>
<path d="M12.0001 0C7.24255 0 3.1318 2.76867 1.1908 6.78262H22.8093C20.8684 2.76867 16.7576 0 12.0001 0Z" fill="#FF9811"/>
<path d="M12.0001 23.9994C16.7576 23.9994 20.8684 21.2307 22.8094 17.2168H1.1908C3.1318 21.2307 7.24254 23.9994 12.0001 23.9994Z" fill="#6DA544"/>
<path d="M12.0003 16.174C14.3055 16.174 16.1742 14.3052 16.1742 12.0001C16.1742 9.69489 14.3055 7.82617 12.0003 7.82617C9.69513 7.82617 7.82642 9.69489 7.82642 12.0001C7.82642 14.3052 9.69513 16.174 12.0003 16.174Z" fill="#0052B4"/>
<path d="M12.0002 14.608C13.4409 14.608 14.6088 13.44 14.6088 11.9993C14.6088 10.5586 13.4409 9.39062 12.0002 9.39062C10.5594 9.39062 9.39148 10.5586 9.39148 11.9993C9.39148 13.44 10.5594 14.608 12.0002 14.608Z" fill="#F0F0F0"/>
<path d="M12.0003 8.78125L12.8051 10.6065L14.7881 10.3908L13.6099 12.0003L14.7881 13.6099L12.8051 13.3942L12.0003 15.2194L11.1955 13.3942L9.21252 13.6098L10.3908 12.0003L9.21252 10.3908L11.1955 10.6065L12.0003 8.78125Z" fill="#0052B4"/>
</g>
<defs>
<clipPath id="clip0_19978_7200">
<rect width="24" height="24" fill="white"/>
</clipPath>
</defs>
</svg>
