<svg width="24" height="24" viewBox="0 0 24 24" fill="none" xmlns="http://www.w3.org/2000/svg">
<g clip-path="url(#clip0_19978_6569)">
<path d="M12 24C18.6274 24 24 18.6274 24 12C24 5.37258 18.6274 0 12 0C5.37258 0 0 5.37258 0 12C0 18.6274 5.37258 24 12 24Z" fill="#F0F0F0"/>
<path d="M21.9999 13.4358C20.9999 13.4358 20.9999 12.5215 19.9998 12.5215C18.9999 12.5215 18.9999 13.4358 17.9999 13.4358C17 13.4358 16.9999 12.5215 16 12.5215C15 12.5215 15 13.4358 14 13.4358C13 13.4358 12.9999 12.5215 11.9998 12.5215C10.9998 12.5215 10.9998 13.4358 9.99991 13.4358C9.00006 13.4358 9.00006 12.5215 8.00008 12.5215C7 12.5215 7 13.4358 5.99992 13.4358C4.99984 13.4358 4.99984 12.5215 3.99977 12.5215C2.99992 12.5215 2.99992 13.4358 1.99994 13.4358C1.00534 13.4358 0.999578 12.5316 0.015625 12.5219C0.0433281 13.0708 0.108859 13.6097 0.207953 14.1367C1.00502 14.2538 1.07481 15.0358 2.00003 15.0358C3.00002 15.0358 3.00002 14.1215 3.99986 14.1215C4.99994 14.1215 4.99994 15.0358 6.00002 15.0358C7.00009 15.0358 7.00009 14.1215 8.00017 14.1215C9.00016 14.1215 9.00016 15.0358 10 15.0358C11 15.0358 11 14.1215 11.9999 14.1215C13 14.1215 13 15.0358 14.0001 15.0358C15.0002 15.0358 15.0002 14.1215 16.0001 14.1215C17.0001 14.1215 17.0001 15.0358 18 15.0358C19 15.0358 19 14.1215 19.9999 14.1215C21 14.1215 21 15.0358 22 15.0358C22.9252 15.0358 22.995 14.2538 23.7921 14.1367C23.8913 13.6096 23.9567 13.0708 23.9845 12.5219C23.0004 12.5316 22.9945 13.4358 21.9999 13.4358Z" fill="#0052B4"/>
<path d="M19.9999 15.6504C18.9999 15.6504 18.9999 16.5647 18 16.5647C17 16.5647 17 15.6504 16.0001 15.6504C15.0001 15.6504 15.0001 16.5647 14 16.5647C13 16.5647 13 15.6504 11.9999 15.6504C10.9999 15.6504 10.9999 16.5647 9.99997 16.5647C9.00012 16.5647 9.00013 15.6504 8.00014 15.6504C7.00006 15.6504 7.00006 16.5647 5.99998 16.5647C4.99991 16.5647 4.99991 15.6504 3.99983 15.6504C2.99999 15.6504 2.99999 16.5647 2 16.5647C1.26336 16.5647 1.06888 16.0689 0.617798 15.8077C0.890985 16.6242 1.24981 17.4014 1.68317 18.1291C1.77702 18.1517 1.88136 18.1647 1.99995 18.1647C2.99994 18.1647 2.99994 17.2505 3.99978 17.2505C4.99986 17.2505 4.99986 18.1647 5.99994 18.1647C7.00002 18.1647 7.00002 17.2505 8.00009 17.2505C9.00008 17.2505 9.00008 18.1647 9.99992 18.1647C10.9999 18.1647 10.9999 17.2505 11.9998 17.2505C12.9999 17.2505 12.9999 18.1647 14 18.1647C15.0001 18.1647 15.0001 17.2505 16 17.2505C17 17.2505 17 18.1647 17.9999 18.1647C18.9999 18.1647 18.9999 17.2505 19.9999 17.2505C20.9999 17.2505 20.9999 18.1647 21.9999 18.1647C22.1186 18.1647 22.223 18.1517 22.3169 18.129C22.7503 17.4014 23.1091 16.6242 23.3822 15.8078C22.9311 16.0689 22.7366 16.5648 21.9999 16.5648C21 16.5647 21 15.6504 19.9999 15.6504Z" fill="#0052B4"/>
<path d="M23.7209 9.42037C22.9899 9.57211 22.8967 10.3069 21.9999 10.3069C20.9999 10.3069 20.9999 9.39258 19.9999 9.39258C18.9999 9.39258 18.9999 10.3069 18 10.3069C17.0001 10.3069 17 9.39258 16.0001 9.39258C15.0001 9.39258 15.0001 10.3069 14.0001 10.3069C13 10.3069 13 9.39258 11.9999 9.39258C11.4596 9.39258 11.2111 9.65948 10.9392 9.90492V11.5049C11.2111 11.2595 11.4595 10.9927 11.9999 10.9927C13 10.9927 13 11.9069 14.0001 11.9069C15.0001 11.9069 15.0001 10.9927 16.0001 10.9927C17.0001 10.9927 17.0001 11.9069 18 11.9069C18.9999 11.9069 19 10.9927 19.9999 10.9927C21 10.9927 21 11.9069 21.9999 11.9069C22.9252 11.9069 22.995 11.1249 23.7921 11.0078C23.8432 11.0078 23.9003 11.0073 23.9587 11.0066C23.9144 10.467 23.8343 9.93745 23.7209 9.42037Z" fill="#0052B4"/>
<path d="M22.8443 6.85745C22.6371 7.0315 22.3975 7.17606 21.9999 7.17606C20.9999 7.17606 20.9999 6.26172 19.9999 6.26172C18.9999 6.26172 18.9999 7.17606 18 7.17606C17.0001 7.17606 17 6.26172 16.0001 6.26172C15.0001 6.26172 15.0001 7.17606 14.0001 7.17606C13 7.17606 13 6.26172 11.9999 6.26172C11.4596 6.26172 11.2111 6.52862 10.9392 6.77406V8.37405C11.2111 8.12866 11.4595 7.8618 11.9999 7.8618C13 7.8618 13 8.77604 14.0001 8.77604C15 8.77604 15 7.8618 16 7.8618C17 7.8618 17 8.77604 17.9999 8.77604C18.9999 8.77604 18.9999 7.8618 19.9999 7.8618C20.9999 7.8618 20.9999 8.77604 21.9999 8.77604C22.7094 8.77604 22.9161 8.31644 23.3333 8.04916C23.1911 7.64148 23.0279 7.24375 22.8443 6.85745Z" fill="#0052B4"/>
<path d="M20.0854 3.1333C20.0576 3.1318 20.0294 3.13086 20 3.13086C19 3.13086 19 4.0452 18 4.0452C17.0001 4.0452 17.0001 3.13086 16.0001 3.13086C15.0001 3.13086 15.0001 4.0452 14.0001 4.0452C13 4.0452 13 3.13086 11.9999 3.13086C11.4596 3.13086 11.2111 3.39777 10.9392 3.6432V5.24319C11.2111 4.9978 11.4595 4.73094 11.9999 4.73094C13 4.73094 13 5.64519 14.0001 5.64519C15.0001 5.64519 15.0001 4.73094 16.0001 4.73094C17.0001 4.73094 17.0001 5.64519 18 5.64519C18.9999 5.64519 19 4.73094 19.9999 4.73094C21 4.73094 21 5.64519 21.9999 5.64519C22.0615 5.64519 22.119 5.64153 22.1735 5.63502C21.5927 4.70858 20.8894 3.86684 20.0854 3.1333Z" fill="#0052B4"/>
<path d="M15.0671 0.396188C14.7926 0.643125 14.5445 0.914344 13.9999 0.914344C12.9998 0.914344 12.9998 9.375e-05 11.9998 0H11.9996C11.4825 4.6875e-05 11.2328 0.244594 10.9739 0.480797V2.08083C11.2328 1.84463 11.4825 1.60003 11.9998 1.60003C12.9999 1.60003 12.9999 2.51428 13.9999 2.51428C15 2.51428 15 1.60003 16 1.60003C16.9999 1.60003 16.9999 2.51428 17.9999 2.51428C18.4194 2.51428 18.6628 2.35322 18.8781 2.16637C17.7373 1.36692 16.4512 0.761016 15.0671 0.396188Z" fill="#0052B4"/>
<path d="M14.0004 22.8265C13.0003 22.8265 13.0003 21.9122 12.0003 21.9122C11.0003 21.9122 11.0003 22.8265 10.0003 22.8265C9.00049 22.8265 9.00049 21.9122 8.00051 21.9122C7.23452 21.9122 7.05485 22.4481 6.5636 22.6993C7.91829 23.389 9.42143 23.8286 11.0124 23.9583C11.2584 23.7335 11.5084 23.5122 12.0003 23.5122C12.4923 23.5122 12.7422 23.7335 12.9883 23.9584C14.5793 23.8287 16.0826 23.389 17.4373 22.6993C16.9459 22.4482 16.7663 21.9121 16.0004 21.9121C15.0005 21.9122 15.0005 22.8265 14.0004 22.8265Z" fill="#0052B4"/>
<path d="M18.0001 19.6975C17.0002 19.6975 17.0002 18.7832 16.0002 18.7832C15.0002 18.7832 15.0002 19.6975 14.0002 19.6975C13.0001 19.6975 13.0001 18.7832 12.0001 18.7832C11.0001 18.7832 11.0001 19.6975 10.0001 19.6975C9.00028 19.6975 9.00028 18.7832 8.0003 18.7832C7.00022 18.7832 7.00022 19.6975 6.00014 19.6975C5.00007 19.6975 5.00007 18.7832 3.99999 18.7832C3.28088 18.7832 3.07894 19.2562 2.65027 19.5217C2.91896 19.8554 3.20461 20.1748 3.50691 20.4776C3.64233 20.4197 3.80124 20.3832 3.99994 20.3832C5.00002 20.3832 5.00002 21.2975 6.0001 21.2975C7.00017 21.2975 7.00018 20.3832 8.00025 20.3832C9.00024 20.3832 9.00024 21.2975 10.0001 21.2975C11.0001 21.2975 11.0001 20.3832 12 20.3832C13.0001 20.3832 13.0001 21.2975 14.0002 21.2975C15.0002 21.2975 15.0002 20.3832 16.0002 20.3832C17.0001 20.3832 17.0002 21.2975 18.0001 21.2975C19 21.2975 19.0001 20.3832 20 20.3832C20.199 20.3832 20.3579 20.4197 20.4934 20.4777C20.7957 20.1748 21.0814 19.8554 21.3501 19.5218C20.9213 19.2563 20.7194 18.7832 20.0001 18.7832C19.0001 18.7832 19.0001 19.6975 18.0001 19.6975Z" fill="#0052B4"/>
<path d="M11.9675 11.999H11.9997C11.9997 11.9882 11.9997 11.9776 11.9997 11.9668C11.989 11.9776 11.9783 11.9883 11.9675 11.999Z" fill="#F0F0F0"/>
<path d="M11.9996 6.26195V9.78756L7.82568 5.74023L11.9996 6.26195Z" fill="#0052B4"/>
<path d="M6.26053 12.0003H9.786L6.26049 7.30469L5.73877 10.9569L6.26053 12.0003Z" fill="#0052B4"/>
<path d="M12 6.26086C12 4.14937 12 2.76586 12 0H11.998C5.3715 0.001125 0 5.37323 0 12H6.2609V8.47448L9.78637 12H11.9679C11.9786 11.9893 11.9893 11.9786 12 11.9679C12 11.1594 12 10.4381 12 9.78647L8.47443 6.26086H12Z" fill="#F0F0F0"/>
<path d="M6.07124 1.56445C4.19441 2.63316 2.63413 4.19344 1.56543 6.07027V11.9993H4.69588V4.695V4.69491H12.0002C12.0002 3.70758 12.0002 2.76698 12.0002 1.56445H6.07124Z" fill="#D80027"/>
<path d="M11.9999 10.5232L7.73637 6.25977H6.26074V6.25986L11.9998 11.9989H11.9999C11.9999 11.9989 11.9999 10.9813 11.9999 10.5232Z" fill="#D80027"/>
<path d="M15.652 6.26172H20.3476L17.9998 8.60955L15.652 6.26172Z" fill="#6DA544"/>
<path d="M18.5223 8.08594H17.4788V10.9555H18.5223V8.08594Z" fill="#A2001D"/>
<path d="M18.5213 15.6523H17.4778V18.5219H18.5213V15.6523Z" fill="#A2001D"/>
<path d="M21.1305 14.0877C21.1305 13.2233 20.4297 12.5225 19.5653 12.5225C19.1643 12.5225 18.7988 12.6735 18.5218 12.9214V12.0008H19.0435V10.9573H18.5218V10.4355H17.4783V10.9573H16.9566V12.0008H17.4783V12.9214C17.2013 12.6735 16.8358 12.5225 16.4348 12.5225C15.5704 12.5225 14.8696 13.2233 14.8696 14.0877C14.8696 14.5512 15.0712 14.9674 15.3913 15.2541V16.1747H20.6087V15.2541C20.9289 14.9674 21.1305 14.5512 21.1305 14.0877Z" fill="#FFDA44"/>
<path d="M19.5647 13.5645C19.4001 13.5645 19.2849 13.6367 19.2172 13.6973L18.5212 14.3203H17.4778L16.7818 13.6973C16.7141 13.6367 16.5989 13.5645 16.4343 13.5645C16.1466 13.5645 15.9126 13.7985 15.9126 14.0862C15.9126 14.2888 16.0219 14.4168 16.087 14.4752L16.4344 14.7862V15.1297H19.5648V14.7862L19.9122 14.4752C19.9773 14.4169 20.0866 14.2888 20.0866 14.0862C20.0865 13.7985 19.8524 13.5645 19.5647 13.5645Z" fill="#D80027"/>
</g>
<defs>
<clipPath id="clip0_19978_6569">
<rect width="24" height="24" fill="white"/>
</clipPath>
</defs>
</svg>
