<svg width="24" height="24" viewBox="0 0 24 24" fill="none" xmlns="http://www.w3.org/2000/svg">
<g clip-path="url(#clip0_19978_7218)">
<path d="M12 24C18.6274 24 24 18.6274 24 12C24 5.37258 18.6274 0 12 0C5.37258 0 0 5.37258 0 12C0 18.6274 5.37258 24 12 24Z" fill="#F0F0F0"/>
<path d="M11.9998 0C6.84025 0 2.44173 3.2565 0.746216 7.82611H23.2535C21.5579 3.2565 17.1594 0 11.9998 0Z" fill="#A2001D"/>
<path d="M11.9999 23.9999C17.1595 23.9999 21.558 20.7434 23.2536 16.1738H0.746338C2.44185 20.7434 6.84037 23.9999 11.9999 23.9999Z" fill="black"/>
<path d="M9.13051 11.217C9.12395 11.217 9.11753 11.2174 9.11096 11.2175V11.217H6.81704C6.93334 10.7676 7.34106 10.4343 7.82617 10.4343V8.86914C6.38772 8.86914 5.21748 10.0394 5.21748 11.4778V12.7561V12.7822H9.11096C9.11978 12.7822 9.12671 12.7822 9.13051 12.7822C9.27437 12.7822 9.39137 12.8993 9.39137 13.0431V13.5648H4.17395V15.13H10.9566V13.043C10.9566 12.0362 10.1374 11.217 9.13051 11.217Z" fill="#496E2D"/>
<path d="M13.0438 13.5648V8.86914H11.4786V15.13H14.0873V13.5648H13.0438Z" fill="#496E2D"/>
<path d="M18.2607 13.5648V8.86914H16.6955V13.5648H16.1737V11.9996H14.6085V15.1301H19.3042V13.5648H18.2607Z" fill="#496E2D"/>
</g>
<defs>
<clipPath id="clip0_19978_7218">
<rect width="24" height="24" fill="white"/>
</clipPath>
</defs>
</svg>
