<svg width="24" height="24" viewBox="0 0 24 24" fill="none" xmlns="http://www.w3.org/2000/svg">
<g clip-path="url(#clip0_19978_7212)">
<path d="M12 24C18.6274 24 24 18.6274 24 12C24 5.37258 18.6274 0 12 0C5.37258 0 0 5.37258 0 12C0 18.6274 5.37258 24 12 24Z" fill="#F0F0F0"/>
<path d="M15.8978 8.86919H14.3278C14.3408 9.04173 14.3481 9.21583 14.3481 9.39091C14.3481 10.5517 14.058 11.6769 13.5521 12.4778C13.3961 12.7248 13.1339 13.0736 12.7829 13.309V8.86914H11.2177V13.309C10.8667 13.0736 10.6044 12.7248 10.4484 12.4778C9.94252 11.6769 9.65241 10.5517 9.65241 9.39091C9.65241 9.21583 9.65981 9.04169 9.67275 8.86919H8.10272C8.09264 9.04089 8.08716 9.2148 8.08716 9.39091C8.08716 12.6092 9.80597 15.1301 12.0002 15.1301C14.1944 15.1301 15.9132 12.6092 15.9132 9.39091C15.9133 9.2148 15.9078 9.04089 15.8978 8.86919Z" fill="#D80027"/>
<path d="M4.95684 5.73914H6.52204V6.78262H8.08724V5.73914H9.65245V6.78262H11.2176V5.73914H12.7829V6.78262H14.3481V5.73914H15.9133V6.78262H17.4785V5.73914H19.0437V6.78262H22.8095C20.8686 2.76867 16.7578 0 12.0003 0C7.24284 0 3.13204 2.76867 1.19104 6.78262H4.95684V5.73914Z" fill="#6DA544"/>
<path d="M19.0438 17.2168V18.2603H17.4786V17.2168H15.9134V18.2603H14.3482V17.2168H12.783V18.2603H11.2178V17.2168H9.65259V18.2603H8.08738V17.2168H6.52204V18.2603H4.95684V17.2168H1.19104C3.13204 21.2307 7.24279 23.9994 12.0003 23.9994C16.7579 23.9994 20.8686 21.2307 22.8096 17.2168H19.0438Z" fill="#D80027"/>
</g>
<defs>
<clipPath id="clip0_19978_7212">
<rect width="24" height="24" fill="white"/>
</clipPath>
</defs>
</svg>
