<svg width="24" height="24" viewBox="0 0 24 24" fill="none" xmlns="http://www.w3.org/2000/svg">
<g clip-path="url(#clip0_19978_7243)">
<path d="M12 24C18.6274 24 24 18.6274 24 12C24 5.37258 18.6274 0 12 0C5.37258 0 0 5.37258 0 12C0 18.6274 5.37258 24 12 24Z" fill="#F0F0F0"/>
<path d="M23.9999 11.9997C23.9999 6.84013 20.7434 2.44161 16.1738 0.746094V23.2534C20.7434 21.5578 23.9999 17.1593 23.9999 11.9997Z" fill="#D80027"/>
<path d="M-0.00012207 11.9997C-0.00012207 17.1593 3.25638 21.5578 7.82599 23.2533V0.746094C3.25638 2.44161 -0.00012207 6.84013 -0.00012207 11.9997Z" fill="#6DA544"/>
</g>
<defs>
<clipPath id="clip0_19978_7243">
<rect width="24" height="24" fill="white"/>
</clipPath>
</defs>
</svg>
