<svg width="24" height="24" viewBox="0 0 24 24" fill="none" xmlns="http://www.w3.org/2000/svg">
<g clip-path="url(#clip0_19978_7259)">
<path d="M12 24C18.6274 24 24 18.6274 24 12C24 5.37258 18.6274 0 12 0C5.37258 0 0 5.37258 0 12C0 18.6274 5.37258 24 12 24Z" fill="#F0F0F0"/>
<path d="M21.5204 19.3073L14.2138 12.0007H14.2137L21.5204 4.694C21.2053 4.2845 20.8606 3.89052 20.4855 3.51538C20.1104 3.14028 19.7164 2.79552 19.3069 2.48047L12.0002 9.78711L12.0002 9.78716L4.69356 2.48047C4.28411 2.79556 3.89007 3.14023 3.51493 3.51538C3.13979 3.89052 2.79507 4.2845 2.48003 4.694L9.78667 12.0006L9.78672 12.0006L2.47998 19.3074C2.79512 19.7169 3.13984 20.1109 3.51489 20.486C3.89003 20.8611 4.28396 21.2059 4.69351 21.5209L12.0002 14.2143L12.0002 14.2142L19.3069 21.5209C19.7163 21.2058 20.1104 20.861 20.4855 20.486C20.8607 20.1108 21.2053 19.7168 21.5204 19.3073Z" fill="#D80027"/>
<path d="M9.9126 3.65361L11.9996 4.17533L14.0865 3.65361V1.87972L13.2517 2.29709L11.9996 1.04492L10.7474 2.29709L9.9126 1.87972V3.65361Z" fill="#FFDA44"/>
<path d="M9.9126 3.65234V4.95678C9.9126 6.55428 11.9996 7.04375 11.9996 7.04375C11.9996 7.04375 14.0865 6.55423 14.0865 4.95678V3.65234H9.9126Z" fill="#D80027"/>
</g>
<defs>
<clipPath id="clip0_19978_7259">
<rect width="24" height="24" fill="white"/>
</clipPath>
</defs>
</svg>
