<svg width="24" height="24" viewBox="0 0 24 24" fill="none" xmlns="http://www.w3.org/2000/svg">
<g clip-path="url(#clip0_19978_7248)">
<path d="M12 24C18.6274 24 24 18.6274 24 12C24 5.37258 18.6274 0 12 0C5.37258 0 0 5.37258 0 12C0 18.6274 5.37258 24 12 24Z" fill="#FFDA44"/>
<path d="M19.3056 2.48062C17.2822 0.925266 14.7493 0 11.9999 0C9.25048 0 6.71754 0.925312 4.69409 2.48062L11.9999 9.78638L19.3056 2.48062Z" fill="#6DA544"/>
<path d="M2.48033 4.69336C0.925068 6.71681 -0.000244141 9.2497 -0.000244141 11.9991C-0.000244141 14.7485 0.925068 17.2815 2.48038 19.305L9.78618 11.9991L2.48033 4.69336Z" fill="black"/>
<path d="M4.69409 21.5186C6.71759 23.074 9.25048 23.9993 11.9999 23.9993C14.7493 23.9993 17.2822 23.0739 19.3057 21.5186L11.9999 14.2129L4.69409 21.5186Z" fill="#6DA544"/>
<path d="M21.5192 19.3049C23.0746 17.2814 23.9999 14.7485 23.9999 11.9991C23.9999 9.2497 23.0746 6.71681 21.5192 4.69336L14.2135 11.9991L21.5192 19.3049Z" fill="black"/>
</g>
<defs>
<clipPath id="clip0_19978_7248">
<rect width="24" height="24" fill="white"/>
</clipPath>
</defs>
</svg>
