<svg width="24" height="24" viewBox="0 0 24 24" fill="none" xmlns="http://www.w3.org/2000/svg">
<g clip-path="url(#clip0_19978_7265)">
<path d="M12 24C18.6274 24 24 18.6274 24 12C24 5.37258 18.6274 0 12 0C5.37258 0 0 5.37258 0 12C0 18.6274 5.37258 24 12 24Z" fill="#F0F0F0"/>
<path d="M7.30437 7.82611H23.2536C21.5581 3.2565 17.1596 0 12 0C8.68625 0 5.68657 1.34339 3.51514 3.51511L7.30437 7.82611Z" fill="black"/>
<path d="M7.30437 16.1738H23.2536C21.5581 20.7434 17.1596 23.9999 12 23.9999C8.68625 23.9999 5.68657 22.6566 3.51514 20.4848L7.30437 16.1738Z" fill="#6DA544"/>
<path d="M3.51471 3.51367C-1.17157 8.19995 -1.17157 15.798 3.51471 20.4843C5.45126 18.5478 7.31375 16.6853 12 11.999L3.51471 3.51367Z" fill="#D80027"/>
<path d="M4.7628 9.39258L5.42135 10.7697L6.90865 10.426L6.24255 11.7995L7.43857 12.7479L5.94949 13.0835L5.95361 14.6099L4.7628 13.655L3.57194 14.6099L3.57611 13.0835L2.08704 12.7479L3.28301 11.7995L2.617 10.426L4.10421 10.7697L4.7628 9.39258Z" fill="#F0F0F0"/>
</g>
<defs>
<clipPath id="clip0_19978_7265">
<rect width="24" height="24" fill="white"/>
</clipPath>
</defs>
</svg>
