<svg width="24" height="24" viewBox="0 0 24 24" fill="none" xmlns="http://www.w3.org/2000/svg">
<g clip-path="url(#clip0_19978_7278)">
<path d="M12 24C18.6274 24 24 18.6274 24 12C24 5.37258 18.6274 0 12 0C5.37258 0 0 5.37258 0 12C0 18.6274 5.37258 24 12 24Z" fill="#F0F0F0"/>
<path d="M12.0003 0C7.24279 0 3.13204 2.76867 1.19104 6.78262H22.8096C20.8686 2.76867 16.7578 0 12.0003 0Z" fill="black"/>
<path d="M12.0003 23.9994C7.24279 23.9994 3.13204 21.2308 1.19104 17.2168H22.8096C20.8686 21.2308 16.7578 23.9994 12.0003 23.9994Z" fill="#496E2D"/>
<path d="M23.4335 8.34766H0.566794C0.1992 9.49933 0.00012207 10.7263 0.00012207 11.9998C0.00012207 13.2734 0.1992 14.5003 0.566794 15.652H23.4334C23.801 14.5003 24.0001 13.2734 24.0001 11.9998C24.0001 10.7263 23.801 9.49933 23.4335 8.34766Z" fill="#A2001D"/>
<path d="M15.7368 5.54459L14.3157 4.88867L12.0002 10.1317L9.68466 4.88867L8.26355 5.54459L11.1383 11.9992L8.26355 18.4539L9.68466 19.1098L12.0002 13.8668L14.3157 19.1098L15.7368 18.4539L12.8621 11.9992L15.7368 5.54459Z" fill="#F0F0F0"/>
<path d="M12.9653 6.16297C12.4152 5.56217 12.0001 5.2168 12.0001 5.2168C12.0001 5.2168 11.585 5.56212 11.0349 6.16297V17.8358C11.585 18.4367 12.0001 18.782 12.0001 18.782C12.0001 18.782 12.4152 18.4367 12.9653 17.8358V6.16297Z" fill="#F0F0F0"/>
<path d="M9.3916 8.40287V15.5987C9.97294 16.6288 10.6845 17.4731 11.2177 18.0329V5.96875C10.6845 6.52848 9.9729 7.37284 9.3916 8.40287Z" fill="#A2001D"/>
<path d="M14.6087 8.40287C14.0273 7.3728 13.3158 6.52848 12.7826 5.96875V18.0329C13.3158 17.4731 14.0273 16.6288 14.6087 15.5987V8.40287Z" fill="#A2001D"/>
<path d="M14.6086 8.40039V15.5963C15.1972 14.5533 15.6521 13.3201 15.6521 11.9984C15.6521 10.6766 15.1972 9.44336 14.6086 8.40039Z" fill="black"/>
<path d="M9.39126 8.40039V15.5963C8.80275 14.5533 8.34778 13.3201 8.34778 11.9984C8.34778 10.6766 8.80275 9.44336 9.39126 8.40039Z" fill="black"/>
</g>
<defs>
<clipPath id="clip0_19978_7278">
<rect width="24" height="24" fill="white"/>
</clipPath>
</defs>
</svg>
