<svg width="24" height="24" viewBox="0 0 24 24" fill="none" xmlns="http://www.w3.org/2000/svg">
<g clip-path="url(#clip0_19978_7310)">
<path d="M12 24C18.6274 24 24 18.6274 24 12C24 5.37258 18.6274 0 12 0C5.37258 0 0 5.37258 0 12C0 18.6274 5.37258 24 12 24Z" fill="#D80027"/>
<path d="M17.8682 12.0006L15.4703 13.1285L16.7472 15.451L14.1432 14.9528L13.8134 17.5832L11.9995 15.6487L10.1859 17.5832L9.8559 14.9528L7.25209 15.4509L8.52897 13.1284L6.13098 12.0006L8.52897 10.8727L7.25209 8.55017L9.85581 9.04845L10.186 6.41797L11.9995 8.35255L13.8135 6.41797L14.1432 9.04845L16.7473 8.55017L15.4704 10.8729L17.8682 12.0006Z" fill="#FFDA44"/>
<path d="M12.0002 15.652C14.0172 15.652 15.6524 14.0169 15.6524 11.9998C15.6524 9.98279 14.0172 8.34766 12.0002 8.34766C9.98316 8.34766 8.34802 9.98279 8.34802 11.9998C8.34802 14.0169 9.98316 15.652 12.0002 15.652Z" fill="#D80027"/>
<path d="M10.1742 12.002C10.0862 12.002 9.99931 12.0065 9.91357 12.015C9.91671 12.5208 10.0997 12.9838 10.402 13.3435C10.5632 12.9095 10.804 12.5139 11.1076 12.1752C10.8176 12.0637 10.503 12.002 10.1742 12.002Z" fill="#FFDA44"/>
<path d="M11.2985 13.9675C11.5178 14.0459 11.754 14.0889 12.0004 14.0889C12.2468 14.0889 12.483 14.0459 12.7024 13.9675C12.5828 13.4982 12.3359 13.0793 12.0004 12.75C11.6649 13.0792 11.418 13.4982 11.2985 13.9675Z" fill="#FFDA44"/>
<path d="M13.8078 10.9579C13.4469 10.3342 12.773 9.91406 12.0005 9.91406C11.228 9.91406 10.5541 10.3341 10.1932 10.9579C10.8511 10.9612 11.468 11.1401 12.0005 11.4489C12.5331 11.1401 13.1498 10.9612 13.8078 10.9579Z" fill="#FFDA44"/>
<path d="M12.8927 12.1752C13.1963 12.5138 13.4371 12.9095 13.5983 13.3435C13.9006 12.9838 14.0836 12.5208 14.0867 12.015C14.0009 12.0064 13.9141 12.002 13.8261 12.002C13.4973 12.0019 13.1828 12.0637 12.8927 12.1752Z" fill="#FFDA44"/>
</g>
<defs>
<clipPath id="clip0_19978_7310">
<rect width="24" height="24" fill="white"/>
</clipPath>
</defs>
</svg>
