<svg width="24" height="24" viewBox="0 0 24 24" fill="none" xmlns="http://www.w3.org/2000/svg">
<g clip-path="url(#clip0_19978_6660)">
<path d="M0.000244141 12.0014C0.000244141 14.0803 0.529135 16.0356 1.45932 17.7405L12.0002 18.784L22.5412 17.7405C23.4714 16.0356 24.0002 14.0803 24.0002 12.0014C24.0002 9.92247 23.4714 7.96712 22.5412 6.26223L12.0002 5.21875L1.45932 6.26223C0.529135 7.96712 0.000244141 9.92247 0.000244141 12.0014Z" fill="#D80027"/>
<path d="M1.45911 6.26086H22.5409C20.5057 2.53073 16.5485 0 12 0C7.45151 0 3.49437 2.53073 1.45911 6.26086Z" fill="#0052B4"/>
<path d="M12 24.0011C16.5485 24.0011 20.5057 21.4704 22.5409 17.7402H1.45911C3.49437 21.4704 7.45151 24.0011 12 24.0011Z" fill="#0052B4"/>
<path d="M16.1744 14.3471V12.7819H15.1309V10.6949L14.0874 9.65142L13.0439 10.6949V8.60794L12.0005 7.56445L10.957 8.60794V10.6949L9.91349 9.65142L8.87 10.6949V12.7819H7.82657V14.3471H6.78308V15.9123H17.2178V14.3471H16.1744Z" fill="#F0F0F0"/>
</g>
<defs>
<clipPath id="clip0_19978_6660">
<rect width="24" height="24" fill="white"/>
</clipPath>
</defs>
</svg>
