<svg width="24" height="24" viewBox="0 0 24 24" fill="none" xmlns="http://www.w3.org/2000/svg">
<g clip-path="url(#clip0_19978_7292)">
<path d="M0 12C0 5.37262 5.37262 0 12 0C18.6274 0 24 5.37262 24 12" fill="#D80027"/>
<path d="M16.1735 11.16L14.4679 11.9622L15.3762 13.614L13.5242 13.2597L13.2895 15.1305L11.9996 13.7545L10.7096 15.1305L10.475 13.2597L8.62298 13.6139L9.53118 11.9622L7.82568 11.16L9.53118 10.3577L8.62298 8.70605L10.4749 9.06023L10.7096 7.18945L11.9996 8.56537L13.2896 7.18945L13.5242 9.06023L15.3762 8.70605L14.4681 10.3578L16.1735 11.16Z" fill="#FFDA44"/>
<path d="M15.1305 3.91348H12.7827C12.7827 3.48134 12.4323 3.13086 12.0001 3.13086C11.5679 3.13086 11.2175 3.4813 11.2175 3.91348H8.86963C8.86963 4.34567 9.24613 4.69611 9.67832 4.69611H9.65221C9.65221 5.1283 10.0026 5.47873 10.4348 5.47873C10.4348 5.91092 10.7852 6.26136 11.2175 6.26136H12.7827C13.2148 6.26136 13.5653 5.91097 13.5653 5.47873C13.9974 5.47873 14.3479 5.12834 14.3479 4.69611H14.3218C14.754 4.69611 15.1305 4.34572 15.1305 3.91348Z" fill="#FFDA44"/>
<path d="M24.0002 12C24.0002 18.6274 18.6276 24 12.0002 24C5.37287 24 0.000244141 18.6274 0.000244141 12C0.521963 12 24.0002 12 24.0002 12Z" fill="#F0F0F0"/>
<path d="M12.0006 24C15.7516 24 19.1001 22.2785 21.3006 19.583C20.9048 19.3132 20.6911 18.877 20.0004 18.877C19.0004 18.877 19.0004 19.7913 18.0005 19.7913C17.0005 19.7913 17.0005 18.877 16.0005 18.877C15.0006 18.877 15.0006 19.7913 14.0005 19.7913C13.0005 19.7913 13.0004 18.877 12.0004 18.877C11.0004 18.877 11.0004 19.7913 10.0004 19.7913C9.0006 19.7913 9.0006 18.877 8.00061 18.877C7.00054 18.877 7.00054 19.7913 6.00046 19.7913C5.00038 19.7913 5.00038 18.877 4.0003 18.877C3.30965 18.877 3.09594 19.3131 2.70032 19.5829C4.90082 22.2785 8.24947 24 12.0006 24Z" fill="#0052B4"/>
<path d="M22 13.5315C21 13.5315 21 12.6172 20 12.6172C19 12.6172 19 13.5315 18 13.5315C17.0001 13.5315 17.0001 12.6172 16.0001 12.6172C15.0001 12.6172 15.0001 13.5315 14.0001 13.5315C13.0001 13.5315 13 12.6172 11.9999 12.6172C11 12.6172 11 13.5315 10 13.5315C9.00018 13.5315 9.00018 12.6172 8.0002 12.6172C7.00012 12.6172 7.00012 13.5315 6.00004 13.5315C4.99997 13.5315 4.99997 12.6172 3.99989 12.6172C3.00004 12.6172 3.00004 13.5315 2.00006 13.5315C1.00547 13.5315 0.9997 12.6273 0.0157471 12.6176C0.0434502 13.1665 0.108981 13.7054 0.208075 14.2324C1.00514 14.3495 1.07493 15.1315 2.00011 15.1315C3.00009 15.1315 3.00009 14.2173 3.99993 14.2173C5.00001 14.2173 5.00001 15.1315 6.00009 15.1315C7.00017 15.1315 7.00017 14.2173 8.00025 14.2173C9.00023 14.2173 9.00023 15.1315 10.0001 15.1315C11.0001 15.1315 11.0001 14.2173 12 14.2173C13.0001 14.2173 13.0001 15.1315 14.0002 15.1315C15.0002 15.1315 15.0002 14.2173 16.0002 14.2173C17.0002 14.2173 17.0002 15.1315 18.0001 15.1315C19 15.1315 19.0001 14.2173 20 14.2173C21.0001 14.2173 21.0001 15.1315 22 15.1315C22.9253 15.1315 22.9951 14.3495 23.7922 14.2324C23.8913 13.7054 23.9568 13.1666 23.9846 12.6177C23.0005 12.6274 22.9946 13.5315 22 13.5315Z" fill="#0052B4"/>
<path d="M20.0001 15.748C19.0001 15.748 19.0001 16.6624 18.0002 16.6624C17.0003 16.6624 17.0002 15.748 16.0003 15.748C15.0003 15.748 15.0003 16.6624 14.0003 16.6624C13.0002 16.6624 13.0002 15.748 12.0001 15.748C11.0001 15.748 11.0001 16.6624 10.0002 16.6624C9.00035 16.6624 9.00035 15.748 8.00037 15.748C7.00029 15.748 7.00029 16.6624 6.00021 16.6624C5.00013 16.6624 5.00013 15.748 4.00005 15.748C3.00021 15.748 3.00021 16.6624 2.00023 16.6624C1.28571 16.6624 1.08162 16.1957 0.658569 15.9291C0.940194 16.7428 1.30657 17.5168 1.7478 18.2404C1.82454 18.2545 1.90807 18.2624 2.00023 18.2624C3.00021 18.2624 3.00021 17.3481 4.00005 17.3481C5.00013 17.3481 5.00013 18.2624 6.00021 18.2624C7.00029 18.2624 7.00029 17.3481 8.00037 17.3481C9.00035 17.3481 9.00035 18.2624 10.0002 18.2624C11.0002 18.2624 11.0002 17.3481 12.0001 17.3481C13.0002 17.3481 13.0002 18.2624 14.0003 18.2624C15.0003 18.2624 15.0004 17.3481 16.0003 17.3481C17.0003 17.3481 17.0003 18.2624 18.0002 18.2624C19.0001 18.2624 19.0002 17.3481 20.0001 17.3481C21.0002 17.3481 21.0002 18.2624 22.0001 18.2624C22.0924 18.2624 22.1759 18.2545 22.2527 18.2403C22.6939 17.5168 23.0602 16.7428 23.342 15.9291C22.9189 16.1956 22.7148 16.6624 22.0001 16.6624C21.0002 16.6624 21.0002 15.748 20.0001 15.748Z" fill="#0052B4"/>
<path d="M23.963 11.0518C23.0007 11.0745 22.9874 11.9651 22.0001 11.9651C21.0001 11.9651 21.0001 11.0508 20.0001 11.0508C19.0001 11.0508 19.0001 11.9651 18.0001 11.9651C17.0002 11.9651 17.0002 11.0508 16.0002 11.0508C15.0002 11.0508 15.0002 11.9651 14.0002 11.9651C13.0002 11.9651 13.0001 11.0508 12.0001 11.0508C11.0001 11.0508 11.0001 11.9651 10.0001 11.9651C9.00029 11.9651 9.00029 11.0508 8.00031 11.0508C7.00023 11.0508 7.00023 11.9651 6.00015 11.9651C5.00007 11.9651 5.00007 11.0508 3.99999 11.0508C3.00015 11.0508 3.00015 11.9651 2.00017 11.9651C1.01303 11.9651 0.999666 11.0746 0.037416 11.0518C0.0129941 11.3647 0.000244141 11.6808 0.000244141 11.9999C0.000244141 12.2184 0.00643164 12.4356 0.0181035 12.6513C0.999807 12.6623 1.00632 13.5651 2.00021 13.5651C3.0002 13.5651 3.0002 12.6508 4.00004 12.6508C5.00012 12.6508 5.00012 13.5651 6.0002 13.5651C7.00028 13.5651 7.00028 12.6508 8.00035 12.6508C9.00034 12.6508 9.00034 13.5651 10.0002 13.5651C11.0002 13.5651 11.0002 12.6508 12.0001 12.6508C13.0002 12.6508 13.0002 13.5651 14.0003 13.5651C15.0003 13.5651 15.0003 12.6508 16.0003 12.6508C17.0003 12.6508 17.0003 13.5651 18.0002 13.5651C19.0001 13.5651 19.0002 12.6508 20.0001 12.6508C21.0002 12.6508 21.0002 13.5651 22.0001 13.5651C22.9941 13.5651 23.0006 12.6623 23.9825 12.6513C23.9941 12.4356 24.0002 12.2184 24.0002 11.9999C24.0002 11.6808 23.9875 11.3647 23.963 11.0518Z" fill="#F0F0F0"/>
</g>
<defs>
<clipPath id="clip0_19978_7292">
<rect width="24" height="24" fill="white"/>
</clipPath>
</defs>
</svg>
