<svg width="24" height="24" viewBox="0 0 24 24" fill="none" xmlns="http://www.w3.org/2000/svg">
<g clip-path="url(#clip0_19978_6767)">
<path d="M12 24C18.6274 24 24 18.6274 24 12C24 5.37258 18.6274 0 12 0C5.37258 0 0 5.37258 0 12C0 18.6274 5.37258 24 12 24Z" fill="#F0F0F0"/>
<path d="M23.9994 11.9648H10.9911C8.40842 14.5476 6.84664 16.5415 5.25195 18.1362L12.0346 18.7474L22.5596 17.7039C23.4781 16.0073 23.9998 14.0644 23.9998 11.9996C23.9998 11.988 23.9994 11.9765 23.9994 11.9648Z" fill="#D80027"/>
<path d="M5.2526 6.22613H22.5219C20.4811 2.51513 16.5347 0 12.0004 0C8.69547 0 5.70316 1.33645 3.53308 3.498L5.2526 6.22613Z" fill="#FFDA44"/>
<path d="M5.7734 17.7031C4.69461 18.7819 4.27771 19.6858 3.49719 20.4662C5.67008 22.6481 8.67688 23.9988 11.9995 23.9988C16.5621 23.9988 20.5298 21.4523 22.5593 17.7031H5.7734Z" fill="#0052B4"/>
<path d="M3.51422 3.48047C-1.17206 8.16675 -1.17206 15.7648 3.51422 20.4511C5.45077 18.5145 7.31325 16.6521 11.9995 11.9658L3.51422 3.48047Z" fill="#6DA544"/>
<path d="M3.16535 11.9647C3.16535 10.2163 4.39408 8.75575 6.03489 8.39744C5.78271 8.34236 5.52105 8.3125 5.25227 8.3125C3.23519 8.3125 1.6001 9.9476 1.6001 11.9647C1.6001 13.9818 3.23519 15.6169 5.25227 15.6169C5.521 15.6169 5.78266 15.587 6.03489 15.5319C4.39408 15.1736 3.16535 13.713 3.16535 11.9647Z" fill="#F0F0F0"/>
<path d="M5.99477 8.83398L6.18906 9.43183H6.81766L6.30906 9.80134L6.50336 10.3992L5.99477 10.0297L5.48617 10.3992L5.68047 9.80134L5.17188 9.43183H5.80047L5.99477 8.83398Z" fill="#F0F0F0"/>
<path d="M5.99477 10.4004L6.18906 10.9983H6.81766L6.30906 11.3677L6.50336 11.9656L5.99477 11.5961L5.48617 11.9656L5.68047 11.3677L5.17188 10.9983H5.80047L5.99477 10.4004Z" fill="#F0F0F0"/>
<path d="M5.99477 11.9648L6.18906 12.5627H6.81766L6.30906 12.9322L6.50336 13.53L5.99477 13.1605L5.48617 13.53L5.68047 12.9322L5.17188 12.5627H5.80047L5.99477 11.9648Z" fill="#F0F0F0"/>
<path d="M5.99477 13.5293L6.18906 14.1271H6.81766L6.30906 14.4967L6.50336 15.0945L5.99477 14.725L5.48617 15.0945L5.68047 14.4967L5.17188 14.1271H5.80047L5.99477 13.5293Z" fill="#F0F0F0"/>
</g>
<defs>
<clipPath id="clip0_19978_6767">
<rect width="24" height="24" fill="white"/>
</clipPath>
</defs>
</svg>
