<svg width="24" height="24" viewBox="0 0 24 24" fill="none" xmlns="http://www.w3.org/2000/svg">
<g clip-path="url(#clip0_19978_7823)">
<path d="M12 24C18.6274 24 24 18.6274 24 12C24 5.37257 18.6274 0 12 0C5.37257 0 0 5.37257 0 12C0 18.6274 5.37257 24 12 24Z" fill="#FFDA44"/>
<path d="M3.51491 20.486C4.0183 20.9894 4.55544 21.4384 5.11883 21.8336L21.833 5.11941C21.4378 4.55597 20.9889 4.01888 20.4854 3.51549C19.982 3.0121 19.4449 2.56327 18.8815 2.16797L2.16748 18.8822C2.56264 19.4456 3.01151 19.9826 3.51491 20.486Z" fill="black"/>
<path d="M3.51439 3.51414C-0.271387 7.29992 -0.998186 12.9855 1.33263 17.5015L17.5017 1.33248C12.9857 -0.998289 7.30002 -0.271491 3.51439 3.51414Z" fill="#6DA544"/>
<path d="M20.4852 20.4854C24.271 16.6998 24.9977 11.0141 22.667 6.49805L6.4978 22.6672C11.0138 24.998 16.6995 24.2712 20.4852 20.4854Z" fill="#D80027"/>
<path d="M7.62971 14.158L8.74993 14.7288L9.63896 13.8398L9.44228 15.0815L10.5624 15.6524L9.32068 15.849L9.12399 17.0908L8.55324 15.9705L7.31152 16.1672L8.20051 15.2782L7.62971 14.158Z" fill="#F0F0F0"/>
<path d="M14.1561 7.63069L15.2763 8.20149L16.1653 7.3125L15.9686 8.55417L17.0888 9.12502L15.8471 9.3217L15.6504 10.5634L15.0796 9.44325L13.8379 9.63989L14.7269 8.75091L14.1561 7.63069Z" fill="#F0F0F0"/>
</g>
<defs>
<clipPath id="clip0_19978_7823">
<rect width="24" height="24" fill="white"/>
</clipPath>
</defs>
</svg>
