<svg width="24" height="24" viewBox="0 0 24 24" fill="none" xmlns="http://www.w3.org/2000/svg">
<g clip-path="url(#clip0_19978_7646)">
<path d="M12 24C18.6274 24 24 18.6274 24 12C24 5.37258 18.6274 0 12 0C5.37258 0 0 5.37258 0 12C0 18.6274 5.37258 24 12 24Z" fill="#F0F0F0"/>
<path d="M11.9999 0C8.36285 0 5.10396 1.61831 2.90332 4.17389H21.0965C18.8959 1.61831 15.637 0 11.9999 0Z" fill="#0052B4"/>
<path d="M21.0963 19.8281H2.90308C5.10372 22.3837 8.36261 24.002 11.9997 24.002C15.6368 24.002 18.8957 22.3837 21.0963 19.8281Z" fill="#0052B4"/>
<path d="M22.2387 5.73828H1.76128C0.644297 7.56102 0 9.70475 0 11.9991C0 14.2935 0.644297 16.4373 1.76128 18.26H22.2387C23.3557 16.4373 24 14.2935 24 11.9991C24 9.70475 23.3557 7.56102 22.2387 5.73828Z" fill="#D80027"/>
<path d="M7.38275 16.6176C9.93286 16.6176 12.0001 14.5503 12.0001 12.0002C12.0001 9.45008 9.93286 7.38281 7.38275 7.38281C4.83265 7.38281 2.76538 9.45008 2.76538 12.0002C2.76538 14.5503 4.83265 16.6176 7.38275 16.6176Z" fill="#F0F0F0"/>
<path d="M7.3823 7.38281L8.41828 10.5713H11.7763L9.05864 12.542L10.1027 15.74L7.3823 13.7599L4.66599 15.7363L5.70596 12.542L2.99072 10.5713H6.34627L7.3823 7.38281Z" fill="#D80027"/>
</g>
<defs>
<clipPath id="clip0_19978_7646">
<rect width="24" height="24" fill="white"/>
</clipPath>
</defs>
</svg>
