<svg width="24" height="24" viewBox="0 0 24 24" fill="none" xmlns="http://www.w3.org/2000/svg">
<g clip-path="url(#clip0_19978_7985)">
<path d="M12 24C18.6274 24 24 18.6274 24 12C24 5.37258 18.6274 0 12 0C5.37258 0 0 5.37258 0 12C0 18.6274 5.37258 24 12 24Z" fill="#F0F0F0"/>
<path d="M16.1742 12.0001C16.1742 13.0435 14.3055 15.6522 12.0003 15.6522C9.69513 15.6522 7.82642 13.0435 7.82642 12.0001C7.82642 9.69484 9.69513 7.82617 12.0003 7.82617C14.3055 7.82617 16.1742 9.69484 16.1742 12.0001Z" fill="#D80027"/>
<path d="M16.1742 12C16.1742 14.3052 14.3055 16.1739 12.0003 16.1739C9.69513 16.1739 7.82642 14.3052 7.82642 12" fill="#0052B4"/>
<path d="M17.5335 14.5827L16.4268 15.6895L17.1646 16.4273L18.2714 15.3205L17.5335 14.5827Z" fill="black"/>
<path d="M15.6885 16.4264L14.5818 17.5332L15.3196 18.2711L16.4264 17.1643L15.6885 16.4264Z" fill="black"/>
<path d="M19.7471 16.7956L18.6404 17.9023L19.3782 18.6402L20.485 17.5334L19.7471 16.7956Z" fill="black"/>
<path d="M17.9031 18.6413L16.7964 19.748L17.5342 20.4859L18.641 19.3791L17.9031 18.6413Z" fill="black"/>
<path d="M18.6407 15.6901L17.5339 16.7969L18.2718 17.5347L19.3785 16.428L18.6407 15.6901Z" fill="black"/>
<path d="M16.796 17.5339L15.6892 18.6406L16.4271 19.3785L17.5338 18.2717L16.796 17.5339Z" fill="black"/>
<path d="M15.6893 5.35724L18.6406 8.30859L19.3785 7.57075L16.4271 4.61939L15.6893 5.35724Z" fill="black"/>
<path d="M14.5827 6.46551L15.6895 7.57227L16.4273 6.83445L15.3205 5.72769L14.5827 6.46551Z" fill="black"/>
<path d="M16.4274 8.30926L17.5342 9.41602L18.272 8.6782L17.1652 7.57145L16.4274 8.30926Z" fill="black"/>
<path d="M16.7951 4.25262L17.9019 5.35938L18.6397 4.62153L17.5329 3.51477L16.7951 4.25262Z" fill="black"/>
<path d="M18.6408 6.09832L19.7476 7.20508L20.4854 6.46723L19.3787 5.36048L18.6408 6.09832Z" fill="black"/>
<path d="M7.20331 19.7482L4.25195 16.7969L3.5141 17.5347L6.46546 20.4861L7.20331 19.7482Z" fill="black"/>
<path d="M8.31061 18.64L7.20386 17.5332L6.46604 18.271L7.5728 19.3778L8.31061 18.64Z" fill="black"/>
<path d="M6.46589 16.7962L5.35913 15.6895L4.62128 16.4273L5.72804 17.5341L6.46589 16.7962Z" fill="black"/>
<path d="M9.41742 17.5334L6.46606 14.582L5.72822 15.3199L8.67958 18.2712L9.41742 17.5334Z" fill="black"/>
<path d="M4.25274 7.20526L7.2041 4.25391L6.46625 3.51606L3.5149 6.46742L4.25274 7.20526Z" fill="black"/>
<path d="M5.3587 8.31073L8.31006 5.35938L7.57221 4.62153L4.62085 7.57289L5.3587 8.31073Z" fill="black"/>
<path d="M6.46637 9.4162L9.41772 6.46484L8.67991 5.72703L5.72855 8.67839L6.46637 9.4162Z" fill="black"/>
</g>
<defs>
<clipPath id="clip0_19978_7985">
<rect width="24" height="24" fill="white"/>
</clipPath>
</defs>
</svg>
