<svg width="24" height="24" viewBox="0 0 24 24" fill="none" xmlns="http://www.w3.org/2000/svg">
<g clip-path="url(#clip0_19978_7304)">
<path d="M23.2541 16.1725C23.7364 14.8725 24.0005 13.4665 24.0005 11.9986C24.0005 10.5308 23.7364 9.12472 23.2541 7.82474L12.0005 6.78125L0.746879 7.82474C0.264535 9.12472 0.000488281 10.5308 0.000488281 11.9986C0.000488281 13.4665 0.264535 14.8725 0.746879 16.1725L12.0005 17.216L23.2541 16.1725Z" fill="#F0F0F0"/>
<path d="M12.0002 23.9999C17.1598 23.9999 21.5583 20.7434 23.2538 16.1738H0.746582C2.44214 20.7434 6.84061 23.9999 12.0002 23.9999Z" fill="#D80027"/>
<path d="M12.0002 0C6.84061 0 2.44214 3.2565 0.746582 7.82611H23.2538C21.5583 3.2565 17.1598 0 12.0002 0Z" fill="#6DA544"/>
<path d="M3.5152 3.51367C-1.17108 8.19995 -1.17108 15.798 3.5152 20.4843C4.7384 19.2611 5.93231 18.0672 7.82657 16.1729V7.82509L3.5152 3.51367Z" fill="black"/>
</g>
<defs>
<clipPath id="clip0_19978_7304">
<rect width="24" height="24" fill="white"/>
</clipPath>
</defs>
</svg>
