<svg width="24" height="24" viewBox="0 0 24 24" fill="none" xmlns="http://www.w3.org/2000/svg">
<g clip-path="url(#clip0_19978_6680)">
<path d="M24 12C24 18.6274 18.6274 24 12 24C5.37262 24 0 18.6274 0 12C0 12.0029 12 0.0013125 12 0C18.6274 0 24 5.37262 24 12Z" fill="#0052B4"/>
<path d="M11.9686 12.0009H12.0008C12.0008 11.9901 12.0008 11.9796 12.0008 11.9688C11.9901 11.9795 11.9794 11.9902 11.9686 12.0009Z" fill="#F0F0F0"/>
<path d="M12.0002 6.26086C12.0002 4.14937 12.0002 2.76586 12.0002 0H11.9982C5.3717 0.001125 0.000244141 5.37323 0.000244141 12H6.2611V8.47448L9.78662 12H11.9682C11.9789 11.9893 11.9896 11.9786 12.0003 11.9679C12.0003 11.1594 12.0003 10.4381 12.0003 9.78647L8.47468 6.26086H12.0002Z" fill="#F0F0F0"/>
<path d="M17.2173 8.86925C18.3699 8.86925 19.3043 7.93489 19.3043 6.78228C19.3043 5.62968 18.3699 4.69531 17.2173 4.69531C16.0647 4.69531 15.1304 5.62968 15.1304 6.78228C15.1304 7.93489 16.0647 8.86925 17.2173 8.86925Z" fill="#6DA544"/>
<path d="M6.07063 1.56445C4.1938 2.63316 2.63348 4.19344 1.56482 6.07027V11.9993H4.69527V4.695V4.69491H11.9996C11.9996 3.70758 11.9996 2.76698 11.9996 1.56445H6.07063Z" fill="#D80027"/>
<path d="M11.9993 10.5232L7.73576 6.25977H6.26013V6.25986L11.9992 11.9989H11.9993C11.9993 11.9989 11.9993 10.9813 11.9993 10.5232Z" fill="#D80027"/>
<path d="M20.8692 6.25977H13.5648V9.39021H20.8692V6.25977Z" fill="#D80027"/>
<path d="M13.5652 14.0859V16.1729H14.6632C15.3215 16.8181 16.2227 17.2164 17.2174 17.2164C18.212 17.2164 19.1132 16.8181 19.7715 16.1729H19.826H20.8695V14.0859H13.5652Z" fill="#FFDA44"/>
<path d="M13.5652 8.86914V11.9996C13.5652 14.7952 17.2174 15.6518 17.2174 15.6518C17.2174 15.6518 20.8695 14.7952 20.8695 11.9996V8.86914H13.5652Z" fill="#338AF3"/>
<path d="M17.2172 10.541C16.3043 10.541 16.3043 11.3758 15.3913 11.3758C14.4783 11.3758 14.4783 10.541 13.5653 10.541V12.0019C14.4783 12.0019 14.4783 12.8367 15.3913 12.8367C16.3043 12.8367 16.3043 12.0019 17.2172 12.0019C18.1303 12.0019 18.1303 12.8367 19.0434 12.8367C19.9566 12.8367 19.9565 12.0019 20.8696 12.0019V10.541C19.9566 10.541 19.9566 11.3758 19.0434 11.3758C18.1303 11.3758 18.1303 10.541 17.2172 10.541Z" fill="#F3F3F3"/>
<path d="M17.2171 7.61719C16.3041 7.61719 16.3041 8.45198 15.3912 8.45198C14.4782 8.45198 14.4782 7.61719 13.5652 7.61719V9.07805C14.4782 9.07805 14.4782 9.91284 15.3912 9.91284C16.3041 9.91284 16.3041 9.07805 17.2171 9.07805C18.1302 9.07805 18.1302 9.91284 19.0433 9.91284C19.9565 9.91284 19.9564 9.07805 20.8695 9.07805V7.61719C19.9565 7.61719 19.9565 8.45198 19.0433 8.45198C18.1302 8.45198 18.1302 7.61719 17.2171 7.61719Z" fill="#F3F3F3"/>
</g>
<defs>
<clipPath id="clip0_19978_6680">
<rect width="24" height="24" fill="white"/>
</clipPath>
</defs>
</svg>
