<svg width="24" height="24" viewBox="0 0 24 24" fill="none" xmlns="http://www.w3.org/2000/svg">
<g clip-path="url(#clip0_19978_7272)">
<path d="M12 24C18.6274 24 24 18.6274 24 12C24 5.37258 18.6274 0 12 0C5.37258 0 0 5.37258 0 12C0 18.6274 5.37258 24 12 24Z" fill="#338AF3"/>
<path d="M18.783 12.1309H5.21777C5.21777 13.0674 6.03345 13.8265 6.96987 13.8265H6.91343C6.91343 14.763 7.67257 15.5222 8.60909 15.5222C8.60909 16.4587 9.36823 17.2178 10.3047 17.2178H13.6961C14.6326 17.2178 15.3917 16.4587 15.3917 15.5222C16.3282 15.5222 17.0874 14.763 17.0874 13.8265H17.0309C17.9673 13.8265 18.783 13.0674 18.783 12.1309Z" fill="#FFDA44"/>
<path d="M16.696 9.91406C16.696 12.5074 14.5937 14.6097 12.0003 14.6097C9.40698 14.6097 7.30469 12.5074 7.30469 9.91406" fill="#338AF3"/>
<path d="M15.5865 9.91189L14.1209 10.6013L14.9014 12.0207L13.31 11.7162L13.1083 13.3238L11.9998 12.1414L10.8913 13.3238L10.6897 11.7162L9.09833 12.0206L9.87871 10.6012L8.41321 9.91189L9.87875 9.22255L9.09833 7.80322L10.6897 8.10763L10.8914 6.5L11.9998 7.68242L13.1083 6.5L13.31 8.10763L14.9014 7.80322L14.121 9.2226L15.5865 9.91189Z" fill="#FFDA44"/>
</g>
<defs>
<clipPath id="clip0_19978_7272">
<rect width="24" height="24" fill="white"/>
</clipPath>
</defs>
</svg>
