<svg width="24" height="24" viewBox="0 0 24 24" fill="none" xmlns="http://www.w3.org/2000/svg">
<g clip-path="url(#clip0_19978_7320)">
<path d="M22.8094 6.78263C20.8684 2.76867 16.7576 0 12.0001 0C7.24254 0 3.1318 2.76867 1.1908 6.78263L12.0001 7.82611L22.8094 6.78263Z" fill="#D80027"/>
<path d="M1.19055 17.2173C3.13155 21.2313 7.2423 23.9999 11.9998 23.9999C16.7574 23.9999 20.8681 21.2313 22.8091 17.2173L11.9998 16.1738L1.19055 17.2173Z" fill="#D80027"/>
<path d="M22.809 6.78125H1.19047C0.427631 8.35883 -0.000244141 10.1287 -0.000244141 11.9986C-0.000244141 13.8685 0.427631 15.6384 1.19047 17.216H22.809C23.5719 15.6384 23.9998 13.8685 23.9998 11.9986C23.9998 10.1287 23.5719 8.35883 22.809 6.78125Z" fill="#0052B4"/>
<path d="M12.0002 16.174C14.3054 16.174 16.1741 14.3052 16.1741 12.0001C16.1741 9.69489 14.3054 7.82617 12.0002 7.82617C9.69501 7.82617 7.82629 9.69489 7.82629 12.0001C7.82629 14.3052 9.69501 16.174 12.0002 16.174Z" fill="#F0F0F0"/>
</g>
<defs>
<clipPath id="clip0_19978_7320">
<rect width="24" height="24" fill="white"/>
</clipPath>
</defs>
</svg>
