<svg width="24" height="24" viewBox="0 0 24 24" fill="none" xmlns="http://www.w3.org/2000/svg">
<g clip-path="url(#clip0_19978_7333)">
<path d="M12 24C18.6274 24 24 18.6274 24 12C24 5.37258 18.6274 0 12 0C5.37258 0 0 5.37258 0 12C0 18.6274 5.37258 24 12 24Z" fill="#F0F0F0"/>
<path d="M12.0001 0C7.24255 0 3.1318 2.76867 1.1908 6.78262H22.8093C20.8684 2.76867 16.7576 0 12.0001 0Z" fill="#D80027"/>
<path d="M12.0003 23.9994C16.7578 23.9994 20.8686 21.2308 22.8096 17.2168H1.19104C3.13204 21.2308 7.24279 23.9994 12.0003 23.9994Z" fill="#D80027"/>
<path d="M15.1305 14.0868L12.0001 8.34766L8.86963 14.0868H11.2175V15.652H12.7827V14.0868H15.1305Z" fill="#6DA544"/>
</g>
<defs>
<clipPath id="clip0_19978_7333">
<rect width="24" height="24" fill="white"/>
</clipPath>
</defs>
</svg>
