<svg width="24" height="24" viewBox="0 0 24 24" fill="none" xmlns="http://www.w3.org/2000/svg">
<g clip-path="url(#clip0_19978_7372)">
<path d="M24.0002 11.9988C24.0002 18.6262 18.6276 23.9988 12.0002 23.9988C5.37287 23.9988 0.000244141 18.6262 0.000244141 11.9988C0.521963 11.9988 12.0002 10.4336 12.0002 10.4336L24.0002 11.9988Z" fill="#D80027"/>
<path d="M0 12C0 5.37262 5.37262 0 12 0C18.6274 0 24 5.37262 24 12" fill="#0052B4"/>
<path d="M8.86986 8.34748C8.86986 7.48306 8.16908 6.78228 7.30466 6.78228C6.90365 6.78228 6.53816 6.93322 6.26118 7.18114V6.26052H6.7829V5.21703H6.26118V4.69531H5.21769V5.21703H4.69598V6.26052H5.21769V7.18114C4.94071 6.93322 4.57523 6.78228 4.17421 6.78228C3.30979 6.78228 2.60901 7.48306 2.60901 8.34748C2.60901 8.81094 2.81062 9.22719 3.13073 9.51383V10.4345H8.3481V9.51383C8.6683 9.22719 8.86986 8.81094 8.86986 8.34748Z" fill="#FFDA44"/>
</g>
<defs>
<clipPath id="clip0_19978_7372">
<rect width="24" height="24" fill="white"/>
</clipPath>
</defs>
</svg>
