<svg width="24" height="24" viewBox="0 0 24 24" fill="none" xmlns="http://www.w3.org/2000/svg">
<g clip-path="url(#clip0_19978_8022)">
<path d="M12 24C18.6274 24 24 18.6274 24 12C24 5.37257 18.6274 0 12 0C5.37257 0 0 5.37257 0 12C0 18.6274 5.37257 24 12 24Z" fill="#FFDA44"/>
<path d="M9.391 2.08594H5.23623C5.05211 2.2118 4.87192 2.34281 4.69534 2.47842L3.65186 11.9989L4.69534 21.5195C4.87192 21.6551 5.05211 21.7861 5.23623 21.9119H9.391V2.08594Z" fill="#FF9811"/>
<path d="M0 12.001C0 15.8797 1.84069 19.3279 4.69567 21.5216V2.48047C1.84069 4.67413 0 8.12236 0 12.001Z" fill="#6DA544"/>
<path d="M19.3044 7.31445V7.61496L19.3156 7.61665L19.3044 7.31445Z" fill="#FFDA44"/>
<path d="M23.0435 15.1294H20.7826L19.8261 16.1729V18.2599H17.7391V17.2164H18.7826V15.1294H14.087V16.4337H13.0435V13.9479C12.7233 13.6613 12.5217 13.245 12.5217 12.7816V5.99898C12.5217 5.13455 13.2225 4.43377 14.087 4.43377V14.086H16.1739L16.89 13.4892C16.7649 13.1913 16.6956 12.8642 16.6956 12.5208V10.9555H15.1304V7.82514H18.2608C18.2608 7.30342 19.0435 6.78165 19.0435 6.78165C19.0435 6.78165 19.8261 7.30337 19.8261 7.82514V8.60776V10.9556C20.4066 10.9625 21.3288 10.9474 22.3251 10.9556C22.0634 10.4981 21.913 9.95524 21.913 9.39039C21.913 8.46972 22.3105 7.642 22.9432 7.06918C22.0312 5.04816 20.576 3.32494 18.7634 2.08594H10.9565V21.912H18.7635C20.9675 20.4054 22.6432 18.183 23.4562 15.5797L23.0435 15.1294Z" fill="#A2001D"/>
</g>
<defs>
<clipPath id="clip0_19978_8022">
<rect width="24" height="24" fill="white"/>
</clipPath>
</defs>
</svg>
