<svg width="24" height="24" viewBox="0 0 24 24" fill="none" xmlns="http://www.w3.org/2000/svg">
<g clip-path="url(#clip0_19978_7340)">
<path d="M0 12.0009C0 13.8707 0.427828 15.6406 1.19072 17.2182L12 17.74L22.8093 17.2183C23.5722 15.6406 24 13.8707 24 12.0009C24 10.131 23.5722 8.36111 22.8093 6.78348L12 6.26172L1.19072 6.78344C0.427828 8.36111 0 10.131 0 12.0009Z" fill="#F0F0F0"/>
<path d="M12.0003 23.9994C16.7578 23.9994 20.8686 21.2308 22.8096 17.2168H1.19104C3.13204 21.2308 7.24279 23.9994 12.0003 23.9994Z" fill="#6DA544"/>
<path d="M12.0003 0C7.24279 0 3.13204 2.76867 1.19104 6.78262H22.8096C20.8686 2.76867 16.7578 0 12.0003 0Z" fill="#0052B4"/>
<path d="M12.7831 11.7387V8.86914H11.2179V11.7387L9.32739 13.6292C9.87719 14.5292 10.8686 15.13 12.0005 15.13C13.1323 15.13 14.1237 14.5292 14.6736 13.6292L12.7831 11.7387Z" fill="black"/>
</g>
<defs>
<clipPath id="clip0_19978_7340">
<rect width="24" height="24" fill="white"/>
</clipPath>
</defs>
</svg>
