<svg width="24" height="24" viewBox="0 0 24 24" fill="none" xmlns="http://www.w3.org/2000/svg">
<g clip-path="url(#clip0_19978_7377)">
<path d="M23.254 16.1745C23.7364 14.8745 24.0004 13.4684 24.0004 12.0006C24.0004 10.5327 23.7364 9.12662 23.254 7.82669L12.0004 6.7832L0.746757 7.82669C0.264366 9.12662 0.000366211 10.5327 0.000366211 12.0006C0.000366211 13.4684 0.264366 14.8745 0.746757 16.1745L12.0004 17.2179L23.254 16.1745Z" fill="#6DA544"/>
<path d="M23.2538 7.82611C21.5583 3.2565 17.1598 0 12.0002 0C6.84061 0 2.4421 3.2565 0.746582 7.82611H23.2538Z" fill="#FFDA44"/>
<path d="M12.0003 23.9999C17.1599 23.9999 21.5584 20.7434 23.2539 16.1738H0.746704C2.44222 20.7434 6.84073 23.9999 12.0003 23.9999Z" fill="#D80027"/>
</g>
<defs>
<clipPath id="clip0_19978_7377">
<rect width="24" height="24" fill="white"/>
</clipPath>
</defs>
</svg>
