<svg width="24" height="24" viewBox="0 0 24 24" fill="none" xmlns="http://www.w3.org/2000/svg">
<g clip-path="url(#clip0_19978_7364)">
<path d="M1.19084 6.78177C0.427997 8.35939 0.00012207 10.1293 0.00012207 11.9991C0.00012207 13.869 0.427997 15.6389 1.19084 17.2165L12.0001 18.26L22.8094 17.2165C23.5722 15.6389 24.0001 13.869 24.0001 11.9991C24.0001 10.1293 23.5722 8.35939 22.8094 6.78177L12.0001 5.73828L1.19084 6.78177Z" fill="black"/>
<path d="M1.19141 17.2168C3.13231 21.2307 7.24273 23.9994 12.0003 23.9994C16.7577 23.9994 20.8682 21.2307 22.8091 17.2168H1.19141Z" fill="#496E2D"/>
<path d="M1.19141 6.78262H22.8091C20.8682 2.76867 16.7577 0 12.0003 0C7.24273 0 3.13231 2.76867 1.19141 6.78262Z" fill="#D80027"/>
<path d="M14.7933 9.80469L15.7779 11.1615L17.3724 10.6445L16.3863 12.0001L17.3707 13.3568L15.7768 12.8378L14.7906 14.1935L14.7917 12.5172L13.1976 11.9982L14.7922 11.4811L14.7933 9.80469Z" fill="#F0F0F0"/>
<path d="M12.1064 15.3895C10.2335 15.3895 8.7151 13.8711 8.7151 11.9982C8.7151 10.1252 10.2335 8.60684 12.1064 8.60684C12.6904 8.60684 13.2399 8.7545 13.7196 9.01447C12.967 8.27849 11.9378 7.82422 10.8021 7.82422C8.49685 7.82422 6.62817 9.69294 6.62817 11.9981C6.62817 14.3033 8.49689 16.172 10.8021 16.172C11.9378 16.172 12.967 15.7177 13.7196 14.9818C13.2398 15.2418 12.6904 15.3895 12.1064 15.3895Z" fill="#F0F0F0"/>
</g>
<defs>
<clipPath id="clip0_19978_7364">
<rect width="24" height="24" fill="white"/>
</clipPath>
</defs>
</svg>
