<svg width="24" height="24" viewBox="0 0 24 24" fill="none" xmlns="http://www.w3.org/2000/svg">
<g clip-path="url(#clip0_19978_7533)">
<path d="M12 24C18.6274 24 24 18.6274 24 12C24 5.37258 18.6274 0 12 0C5.37258 0 0 5.37258 0 12C0 18.6274 5.37258 24 12 24Z" fill="#D80027"/>
<path d="M19.0919 9.84763H13.6744L12.0003 4.69531L10.3262 9.84763H4.90869L9.29155 13.0319L7.61741 18.1844L12.0003 15L16.3832 18.1844L14.7091 13.032L19.0919 9.84763ZM10.5182 12.6334L11.0843 10.8911H12.9163L13.4824 12.6334V12.6334L12.0003 13.7102L10.5183 12.6334L10.5182 12.6334ZM12.5773 9.84763H11.4234L12.0003 8.072L12.5773 9.84763ZM14.37 11.9885L14.0134 10.8911H15.8804L14.37 11.9885ZM9.98718 10.8911L9.6306 11.9885L8.12015 10.8911H9.98718ZM9.60224 15.4525L10.1792 13.6769L11.1127 14.3551L9.60224 15.4525ZM12.8879 14.3552L13.8215 13.677L14.3984 15.4526L12.8879 14.3552Z" fill="#FFDA44"/>
</g>
<defs>
<clipPath id="clip0_19978_7533">
<rect width="24" height="24" fill="white"/>
</clipPath>
</defs>
</svg>
