<svg width="24" height="24" viewBox="0 0 24 24" fill="none" xmlns="http://www.w3.org/2000/svg">
<g clip-path="url(#clip0_19978_7485)">
<path d="M17.2171 1.19072C15.6395 0.427875 13.8696 0 11.9998 0C10.1299 0 8.36 0.427875 6.78238 1.19072L5.73889 12L6.78238 22.8093C8.36 23.5721 10.1299 24 11.9998 24C13.8696 24 15.6395 23.5721 17.2171 22.8093L18.2606 12L17.2171 1.19072Z" fill="#FFDA44"/>
<path d="M6.78262 1.19141C2.76872 3.13236 0 7.24278 0 12.0003C0 16.7578 2.76872 20.8682 6.78262 22.8091V1.19141Z" fill="#0052B4"/>
<path d="M17.2174 1.19141V22.8091C21.2313 20.8682 24 16.7578 24 12.0003C24 7.24278 21.2313 3.13236 17.2174 1.19141Z" fill="#D80027"/>
<path d="M16.1736 9.44302H13.304C13.304 8.72264 12.7201 8.13867 11.9997 8.13867C11.2793 8.13867 10.6954 8.72264 10.6954 9.44302H7.82581C7.82581 10.1523 8.44366 10.7272 9.15284 10.7272H9.11009C9.11009 11.4365 9.68506 12.0115 10.3944 12.0115C10.3944 12.6395 10.8454 13.1613 11.4411 13.2729L10.4291 15.5577C10.914 15.7548 11.4439 15.8643 11.9997 15.8643C12.5554 15.8643 13.0854 15.7548 13.5703 15.5577L12.5583 13.2729C13.154 13.1613 13.605 12.6395 13.605 12.0115C14.3143 12.0115 14.8893 11.4365 14.8893 10.7272H14.8465C15.5558 10.7272 16.1736 10.1522 16.1736 9.44302Z" fill="#FF9811"/>
<path d="M12 11.2168L10.3043 11.9994V13.5646L12 14.6081L13.6956 13.5646V11.9994L12 11.2168Z" fill="#0052B4"/>
<path d="M13.6956 10.4336H10.3043V11.9988H13.6956V10.4336Z" fill="#D80027"/>
</g>
<defs>
<clipPath id="clip0_19978_7485">
<rect width="24" height="24" fill="white"/>
</clipPath>
</defs>
</svg>
