<svg width="24" height="24" viewBox="0 0 24 24" fill="none" xmlns="http://www.w3.org/2000/svg">
<g clip-path="url(#clip0_19978_7511)">
<path d="M12 24C18.6274 24 24 18.6274 24 12C24 5.37258 18.6274 0 12 0C5.37258 0 0 5.37258 0 12C0 18.6274 5.37258 24 12 24Z" fill="#FFDA44"/>
<path d="M24.0004 11.999C24.0004 7.88048 21.9253 4.24702 18.7638 2.08594H5.23691C2.07552 4.24702 0.000366211 7.88048 0.000366211 11.999C0.000366211 16.1175 2.07552 19.7509 5.23691 21.912H18.7638C21.9253 19.7509 24.0004 16.1175 24.0004 11.999Z" fill="#A2001D"/>
<path d="M9.39185 8.87064H14.6092V6.78372L13.5657 7.30544L12.0005 5.74023L10.4353 7.30544L9.39185 6.78372V8.87064Z" fill="#FFDA44"/>
<path d="M16.6962 12H14.0885C14.1908 11.823 14.2502 11.6183 14.2502 11.3993C14.2502 10.7343 13.7111 10.1953 13.0462 10.1953C12.5868 10.1953 12.1878 10.4527 11.9848 10.831C11.7817 10.4527 11.3827 10.1953 10.9233 10.1953C10.2584 10.1953 9.71929 10.7343 9.71929 11.3993C9.71929 11.6184 9.77883 11.8231 9.88101 12H7.30481C7.30481 12.7979 7.99983 13.4447 8.79773 13.4447H8.74964C8.74964 14.0992 9.18497 14.6519 9.78183 14.8294L8.60915 16.0022L9.71592 17.109L11.2859 15.539C11.3474 15.5615 11.411 15.5795 11.4768 15.5919L10.5281 17.7338C10.9827 17.9187 11.4795 18.0213 12.0006 18.0213C12.5215 18.0213 13.0184 17.9187 13.473 17.7338L12.5243 15.5919C12.5901 15.5796 12.6537 15.5615 12.7151 15.539L14.2851 17.109L15.3918 16.0022L14.2191 14.8295C14.8159 14.6519 15.2513 14.0993 15.2513 13.4448H15.2032C16.0012 13.4447 16.6962 12.7979 16.6962 12Z" fill="#FFDA44"/>
<path d="M12.0005 12.7832L10.3048 13.5658V15.131L12.0005 16.1745L13.6961 15.131V13.5658L12.0005 12.7832Z" fill="#6DA544"/>
<path d="M13.6961 12H10.3048V14.087H13.6961V12Z" fill="#0052B4"/>
</g>
<defs>
<clipPath id="clip0_19978_7511">
<rect width="24" height="24" fill="white"/>
</clipPath>
</defs>
</svg>
