<svg width="24" height="24" viewBox="0 0 24 24" fill="none" xmlns="http://www.w3.org/2000/svg">
<g clip-path="url(#clip0_19978_7438)">
<path d="M12 24C18.6274 24 24 18.6274 24 12C24 9.98611 23.5031 8.08847 22.6265 6.42188L11.9859 12.0141L17.5781 1.37353C15.9115 0.496875 14.0139 0 12 0C5.37262 0 0 5.37262 0 12C0 15.3137 1.34316 18.3137 3.51469 20.4853C5.68627 22.6569 8.68627 24 12 24Z" fill="#0052B4"/>
<path d="M22.6141 6.43344C22.0648 5.38794 21.3507 4.40633 20.4716 3.52723C19.5925 2.64814 18.611 1.934 17.5654 1.38477L3.50098 20.4978L22.6141 6.43344Z" fill="#F0F0F0"/>
<path d="M3.50098 20.4999L22.6141 6.4355C22.0648 5.39 21.3507 4.40839 20.4716 3.5293L3.50098 20.4999Z" fill="#FF9811"/>
<path d="M10.4205 7.03694L8.95497 7.72628L9.73539 9.14566L8.14399 8.8412L7.94233 10.4488L6.83383 9.26641L5.72533 10.4488L5.52377 8.8412L3.93236 9.14556L4.71269 7.72623L3.24719 7.03694L4.71274 6.34755L3.93236 4.92827L5.52368 5.23262L5.72538 3.625L6.83383 4.80742L7.94233 3.625L8.14399 5.23262L9.73544 4.92827L8.95502 6.34759L10.4205 7.03694Z" fill="#F0F0F0"/>
</g>
<defs>
<clipPath id="clip0_19978_7438">
<rect width="24" height="24" fill="white"/>
</clipPath>
</defs>
</svg>
