<svg width="24" height="24" viewBox="0 0 24 24" fill="none" xmlns="http://www.w3.org/2000/svg">
<g clip-path="url(#clip0_19978_7774)">
<path d="M12 24C18.6274 24 24 18.6274 24 12C24 5.37258 18.6274 0 12 0C5.37258 0 0 5.37258 0 12C0 18.6274 5.37258 24 12 24Z" fill="#FFDA44"/>
<path d="M13.8252 23.864C15.7769 23.5662 17.5734 22.7977 19.0966 21.6788L12.0002 12.002L13.8252 23.864Z" fill="#D80027"/>
<path d="M10.1755 0.138672C8.22383 0.436422 6.4273 1.20498 4.90405 2.32384L12.0005 12.0007L10.1755 0.138672Z" fill="#D80027"/>
<path d="M4.90405 21.6788C6.42721 22.7976 8.22374 23.5662 10.1754 23.8641L12.0005 12.002L4.90405 21.6788Z" fill="#D80027"/>
<path d="M2.32348 4.9043C1.20457 6.42755 0.436103 8.22403 0.138306 10.1757L12.0004 12.0007L2.32348 4.9043Z" fill="#D80027"/>
<path d="M0.138306 13.8269C0.436056 15.7786 1.20462 17.5751 2.32352 19.0983L12.0004 12.002L0.138306 13.8269Z" fill="#D80027"/>
<path d="M23.8623 10.1757C23.5645 8.22404 22.796 6.4275 21.6771 4.9043L12.0002 12.0007L23.8623 10.1757Z" fill="#D80027"/>
<path d="M19.0966 2.3238C17.5734 1.20494 15.7769 0.436422 13.8252 0.138672L12.0002 12.0007L19.0966 2.3238Z" fill="#D80027"/>
<path d="M21.6772 19.0983C22.796 17.5751 23.5645 15.7785 23.8624 13.8269L12.0002 12.002L21.6772 19.0983Z" fill="#D80027"/>
<path d="M12.0003 16.1759C14.3055 16.1759 16.1742 14.3072 16.1742 12.002C16.1742 9.69684 14.3055 7.82812 12.0003 7.82812C9.69513 7.82812 7.82642 9.69684 7.82642 12.002C7.82642 14.3072 9.69513 16.1759 12.0003 16.1759Z" fill="#D80027"/>
<path d="M12.0001 15.13C13.729 15.13 15.1305 13.7285 15.1305 11.9996C15.1305 10.2707 13.729 8.86914 12.0001 8.86914C10.2712 8.86914 8.86963 10.2707 8.86963 11.9996C8.86963 13.7285 10.2712 15.13 12.0001 15.13Z" fill="#FFDA44"/>
</g>
<defs>
<clipPath id="clip0_19978_7774">
<rect width="24" height="24" fill="white"/>
</clipPath>
</defs>
</svg>
