<svg width="24" height="24" viewBox="0 0 24 24" fill="none" xmlns="http://www.w3.org/2000/svg">
<g clip-path="url(#clip0_19978_7547)">
<path d="M23.2535 16.1745C23.7359 14.8745 23.9999 13.4684 23.9999 12.0006C23.9999 10.5327 23.7359 9.12663 23.2535 7.82669L11.9999 6.7832L0.746269 7.82669C0.263925 9.12663 -0.00012207 10.5327 -0.00012207 12.0006C-0.00012207 13.4684 0.263925 14.8745 0.746269 16.1745L11.9999 17.218L23.2535 16.1745Z" fill="#6DA544"/>
<path d="M23.2536 7.82611C21.558 3.2565 17.1595 0 11.9999 0C6.84037 0 2.44185 3.2565 0.746338 7.82611H23.2536Z" fill="#FFDA44"/>
<path d="M11.9998 23.9999C17.1594 23.9999 21.5579 20.7434 23.2534 16.1738H0.746216C2.44173 20.7434 6.84025 23.9999 11.9998 23.9999Z" fill="#D80027"/>
<path d="M20.2292 10.1524H13.9429L12.0003 4.17383L10.0577 10.1524H3.77148L8.85719 13.8474L6.91459 19.826L12.0003 16.1738L17.0861 19.826L15.1435 13.8473L20.2292 10.1524Z" fill="#F0F0F0"/>
</g>
<defs>
<clipPath id="clip0_19978_7547">
<rect width="24" height="24" fill="white"/>
</clipPath>
</defs>
</svg>
