<svg width="24" height="24" viewBox="0 0 24 24" fill="none" xmlns="http://www.w3.org/2000/svg">
<g clip-path="url(#clip0_19978_7497)">
<path d="M11.9996 24C13.4675 24 14.8736 23.736 16.1735 23.2536L16.6953 12L16.1735 0.746391C14.8736 0.264047 13.4675 0 11.9996 0C10.5318 0 9.12566 0.264047 7.82572 0.746391L7.30396 12L7.82567 23.2536C9.12566 23.736 10.5318 24 11.9996 24Z" fill="#0052B4"/>
<path d="M-0.000244141 11.9997C-0.000244141 17.1593 3.25626 21.5578 7.82587 23.2533V0.746094C3.25626 2.44161 -0.000244141 6.84013 -0.000244141 11.9997Z" fill="#A2001D"/>
<path d="M16.1736 0.746094V23.2534C20.7432 21.5578 23.9997 17.1593 23.9997 11.9997C23.9997 6.84013 20.7432 2.44161 16.1736 0.746094Z" fill="#A2001D"/>
<path d="M6.78262 11.998H5.73914V16.1719H6.78262V11.998Z" fill="#FFDA44"/>
<path d="M2.60867 11.998H1.56519V16.1719H2.60867V11.998Z" fill="#FFDA44"/>
<path d="M4.17361 14.6085C4.74991 14.6085 5.2171 14.1413 5.2171 13.565C5.2171 12.9887 4.74991 12.5215 4.17361 12.5215C3.59731 12.5215 3.13013 12.9887 3.13013 13.565C3.13013 14.1413 3.59731 14.6085 4.17361 14.6085Z" fill="#FFDA44"/>
<path d="M4.17382 10.4341C4.46196 10.4341 4.69554 10.2005 4.69554 9.91234C4.69554 9.62421 4.46196 9.39062 4.17382 9.39062C3.88568 9.39062 3.6521 9.62421 3.6521 9.91234C3.6521 10.2005 3.88568 10.4341 4.17382 10.4341Z" fill="#FFDA44"/>
<path d="M5.21722 15.1289H3.13025V16.1724H5.21722V15.1289Z" fill="#FFDA44"/>
<path d="M5.21722 10.9551H3.13025V11.9986H5.21722V10.9551Z" fill="#FFDA44"/>
<path d="M4.17433 6.25977L4.5439 7.39695H5.73958L4.77232 8.0998L5.1416 9.23699L4.17433 8.53414L3.20711 9.23699L3.5764 8.0998L2.60913 7.39695H3.80482L4.17433 6.25977Z" fill="#FFDA44"/>
</g>
<defs>
<clipPath id="clip0_19978_7497">
<rect width="24" height="24" fill="white"/>
</clipPath>
</defs>
</svg>
