<svg width="24" height="24" viewBox="0 0 24 24" fill="none" xmlns="http://www.w3.org/2000/svg">
<g clip-path="url(#clip0_19978_7387)">
<path d="M12 24C18.6274 24 24 18.6274 24 12C24 5.37258 18.6274 0 12 0C5.37258 0 0 5.37258 0 12C0 18.6274 5.37258 24 12 24Z" fill="#496E2D"/>
<path d="M14.0869 11.5011C13.7923 11.5011 13.5126 11.5598 13.2529 11.6533C13.3952 11.3363 13.4906 10.9835 13.4906 10.6067C13.4906 9.11606 11.9999 7.99805 11.9999 7.99805C11.9999 7.99805 10.5093 9.11606 10.5093 10.6067C10.5093 10.9834 10.6046 11.3363 10.7469 11.6533C10.4872 11.5599 10.2075 11.5011 9.91301 11.5011C8.42234 11.5011 7.30432 12.9918 7.30432 12.9918C7.30432 12.9918 8.42234 14.4825 9.91301 14.4825C10.787 14.4825 11.5324 13.9703 12 13.5462C12.4676 13.9702 13.213 14.4825 14.0869 14.4825C15.5776 14.4825 16.6956 12.9918 16.6956 12.9918C16.6956 12.9918 15.5775 11.5011 14.0869 11.5011Z" fill="#F0F0F0"/>
<path d="M12.0005 4.69531L12.3084 5.64294H13.3048L12.4988 6.22869L12.8065 7.17631L12.0005 6.59056L11.1945 7.17631L11.5022 6.22869L10.6962 5.64294H11.6926L12.0005 4.69531Z" fill="#FFDA44"/>
<path d="M8.2111 6.35156L8.80351 6.88491L9.49384 6.48637L9.16965 7.21458L9.76201 7.74802L8.96926 7.66467L8.64507 8.39288L8.47923 7.6132L7.68652 7.52986L8.3768 7.13123L8.2111 6.35156Z" fill="#FFDA44"/>
<path d="M5.43762 9.12619L6.21734 9.29189L6.61592 8.60156L6.69926 9.39426L7.47889 9.56011L6.75073 9.88434L6.83408 10.677L6.30059 10.0847L5.57243 10.4089L5.97101 9.71854L5.43762 9.12619Z" fill="#FFDA44"/>
<path d="M15.7896 6.35156L15.1973 6.88491L14.5069 6.48637L14.8311 7.21458L14.2388 7.74802L15.0315 7.66467L15.3557 8.39288L15.5216 7.6132L16.3143 7.52986L15.624 7.13123L15.7896 6.35156Z" fill="#FFDA44"/>
<path d="M18.5631 9.12619L17.7834 9.29189L17.3849 8.60156L17.3015 9.39426L16.5219 9.56011L17.25 9.88434L17.1667 10.677L17.7001 10.0847L18.4283 10.4089L18.0297 9.71854L18.5631 9.12619Z" fill="#FFDA44"/>
<path d="M11.9997 18.6555C13.1838 18.6555 14.2752 18.2604 15.1507 17.5957H8.84863C9.72416 18.2604 10.8156 18.6555 11.9997 18.6555Z" fill="#F0F0F0"/>
<path d="M7.21716 15.5234C7.38277 15.9025 7.59277 16.2575 7.83943 16.5832H16.1606C16.4072 16.2575 16.6172 15.9025 16.7829 15.5234H7.21716Z" fill="#F0F0F0"/>
</g>
<defs>
<clipPath id="clip0_19978_7387">
<rect width="24" height="24" fill="white"/>
</clipPath>
</defs>
</svg>
