<svg width="24" height="24" viewBox="0 0 24 24" fill="none" xmlns="http://www.w3.org/2000/svg">
<g clip-path="url(#clip0_19978_7655)">
<path d="M12 24C18.6274 24 24 18.6274 24 12C24 5.37258 18.6274 0 12 0C5.37258 0 0 5.37258 0 12C0 18.6274 5.37258 24 12 24Z" fill="#338AF3"/>
<path d="M11.6213 19.5553C11.2978 19.5396 11.0302 19.3294 10.9253 19.044C10.7401 19.2855 10.4218 19.4071 10.1083 19.3262C9.79418 19.2454 9.57457 18.9856 9.52915 18.684C9.29852 18.8832 8.96252 18.9375 8.67195 18.7951C8.38081 18.6521 8.21806 18.3531 8.23474 18.0489C7.9692 18.1981 7.62902 18.1836 7.37285 17.9853C7.1172 17.787 7.01754 17.462 7.09474 17.1672C6.80463 17.26 6.47492 17.1776 6.2636 16.9319C6.05229 16.6867 6.0199 16.348 6.15457 16.0752C5.85195 16.1075 5.5452 15.9604 5.3876 15.6776C5.22949 15.3948 5.26606 15.0563 5.45332 14.8157C5.15018 14.7864 4.87887 14.5803 4.78184 14.2715C4.68429 13.9626 4.78863 13.6381 5.02081 13.4403C4.72967 13.3505 4.50635 13.0938 4.47349 12.772C4.44063 12.4501 4.6076 12.1543 4.87418 12.0071C4.60756 11.861 4.43956 11.5652 4.47138 11.2438C4.47138 11.2438 4.47138 11.2438 4.4719 11.2438C4.50373 10.9214 4.72704 10.6642 5.01762 10.5734C4.78545 10.3762 4.68007 10.0522 4.77659 9.74326C4.8731 9.43388 5.14385 9.22726 5.44704 9.19698C5.25973 8.95698 5.22218 8.61831 5.37921 8.33509C5.53624 8.05229 5.84304 7.90463 6.14618 7.93646C6.01052 7.6636 6.04235 7.32498 6.25315 7.07874C6.46343 6.83303 6.79315 6.75006 7.08377 6.84188C7.00549 6.5476 7.10463 6.22206 7.36029 6.02331C7.61543 5.82446 7.9556 5.80932 8.22115 5.95749C8.20395 5.65337 8.36618 5.35435 8.65681 5.21087C8.94692 5.0679 9.28343 5.12115 9.51452 5.32042C9.55887 5.01892 9.77852 4.75806 10.0921 4.67659C10.4051 4.59521 10.7234 4.71573 10.9091 4.95676C11.014 4.67138 11.2811 4.46059 11.6046 4.44442C11.9276 4.42777 12.2145 4.60928 12.3481 4.88223C12.5077 4.62343 12.8114 4.47006 13.1312 4.51857C13.4516 4.56657 13.6973 4.80235 13.7735 5.0972C13.9822 4.87487 14.3109 4.78674 14.6145 4.89835C14.9187 5.01053 15.1117 5.29121 15.1264 5.5959C15.3752 5.42063 15.7154 5.40024 15.9904 5.57138C16.2653 5.74201 16.3973 6.05556 16.3504 6.35659C16.6295 6.23504 16.9665 6.28356 17.2013 6.50579C17.4361 6.72859 17.5029 7.06196 17.3965 7.34734C17.6944 7.2842 18.0147 7.39899 18.2005 7.66454C18.3862 7.92957 18.3846 8.26974 18.2234 8.52803C18.5276 8.52592 18.8182 8.70334 18.9471 9.0002C19.0754 9.29757 19.005 9.63099 18.7947 9.85168C19.0937 9.91117 19.3426 10.1433 19.4083 10.4605C19.4735 10.7777 19.3373 11.0892 19.0874 11.263C19.3671 11.3815 19.5643 11.6585 19.5648 11.982C19.5648 11.9856 19.5648 11.9888 19.5648 11.9924C19.5648 11.9945 19.5648 11.9971 19.5648 11.9992C19.5648 12.3227 19.3686 12.6002 19.089 12.7197C19.3394 12.8925 19.4766 13.2039 19.4114 13.5211C19.3467 13.8383 19.0984 14.071 18.7994 14.1316C19.0102 14.3517 19.0817 14.6846 18.9539 14.9825C18.8261 15.2799 18.5354 15.4578 18.2307 15.4562C18.3925 15.7145 18.3951 16.0547 18.2099 16.3202C18.0247 16.5859 17.7049 16.7017 17.4069 16.639C17.5139 16.9239 17.4476 17.2578 17.2134 17.4811C16.9786 17.704 16.6421 17.753 16.3629 17.6325C16.4104 17.933 16.2789 18.2471 16.0045 18.4187C15.73 18.5904 15.3898 18.5705 15.1405 18.3958C15.1264 18.7005 14.9344 18.9817 14.6307 19.0944C14.6307 19.0944 14.6307 19.0944 14.6302 19.0944C14.3266 19.2066 13.9979 19.119 13.7887 18.8972C13.7135 19.1926 13.4683 19.4289 13.148 19.4779C12.8282 19.5264 12.524 19.3741 12.3638 19.1153C12.2365 19.3778 11.9673 19.5562 11.6605 19.5562C11.6474 19.5564 11.6344 19.5558 11.6213 19.5553Z" fill="#F3F3F3"/>
<path d="M12.0003 17.2179C14.8818 17.2179 17.2177 14.882 17.2177 12.0006C17.2177 9.1191 14.8818 6.7832 12.0003 6.7832C9.11886 6.7832 6.78296 9.1191 6.78296 12.0006C6.78296 14.882 9.11886 17.2179 12.0003 17.2179Z" fill="#338AF3"/>
<path d="M13.1418 10.2291C13.3981 10.039 13.565 9.73506 13.565 9.39138V8.86966C13.565 8.29333 13.0978 7.82617 12.5215 7.82617H11.478C10.9017 7.82617 10.4346 8.29333 10.4346 8.86966V9.39138C10.4346 9.73506 10.6014 10.039 10.8577 10.2291L9.91284 19.8261C9.91284 19.8261 10.4346 20.3479 11.9998 20.3479C13.5651 20.3479 14.0868 19.8261 14.0868 19.8261L13.1418 10.2291Z" fill="#BDBCC1"/>
<path d="M12.0002 7.82617L12.9067 10.6161H15.8404L13.4671 12.3405L14.3735 15.1305L12.0002 13.4062L9.62687 15.1305L10.5335 12.3405L8.16016 10.6161H11.0937L12.0002 7.82617Z" fill="#F0F0F0"/>
</g>
<defs>
<clipPath id="clip0_19978_7655">
<rect width="24" height="24" fill="white"/>
</clipPath>
</defs>
</svg>
