<svg width="24" height="24" viewBox="0 0 24 24" fill="none" xmlns="http://www.w3.org/2000/svg">
<g clip-path="url(#clip0_19978_7444)">
<path d="M12 24C18.6274 24 24 18.6274 24 12C24 5.37258 18.6274 0 12 0C5.37258 0 0 5.37258 0 12C0 18.6274 5.37258 24 12 24Z" fill="#F0F0F0"/>
<path d="M23.8969 10.4355C23.5659 7.90488 22.4291 5.45959 20.485 3.51545C18.5409 1.57131 16.0955 0.434547 13.5649 0.103516L13.565 10.4355H23.8969Z" fill="#0052B4"/>
<path d="M10.4346 0.103516C7.90402 0.434547 5.45869 1.57127 3.51455 3.51541C1.57046 5.45959 0.433692 7.90492 0.102661 10.4356L10.4347 10.4355L10.4346 0.103516Z" fill="#0052B4"/>
<path d="M0.103027 13.5664C0.434059 16.097 1.57082 18.5424 3.51492 20.4865C5.45906 22.4306 7.90434 23.5673 10.435 23.8984L10.435 13.5665L0.103027 13.5664Z" fill="#0052B4"/>
<path d="M13.5649 23.8983C16.0955 23.5673 18.5408 22.4306 20.485 20.4864C22.4291 18.5423 23.5658 16.097 23.8968 13.5664H13.5649V23.8983Z" fill="#0052B4"/>
<path d="M16.0963 7.61569C16.0963 7.45613 16.226 7.32642 16.3856 7.32642H17.0055C17.9854 7.32642 18.7826 6.52927 18.7826 5.54944C18.7826 4.56961 17.9854 3.77241 17.0055 3.77241H16.4168C16.2247 3.62808 15.9669 3.53906 15.6826 3.53906C15.0895 3.53906 14.6087 3.92367 14.6087 4.39814C14.6087 4.86802 15.0803 5.2492 15.6655 5.25661L15.6652 5.26003H17.0055C17.1651 5.26003 17.2948 5.38978 17.2948 5.54935C17.2948 5.70891 17.1651 5.83861 17.0055 5.83861H16.3856C15.4058 5.83861 14.6086 6.63577 14.6086 7.6156C14.6086 8.59543 15.4057 9.39263 16.3856 9.39263H18.7825V7.90491H16.3856C16.226 7.90496 16.0963 7.77525 16.0963 7.61569Z" fill="#F0F0F0"/>
<path d="M6.70491 7.61569C6.70491 7.45613 6.83461 7.32642 6.99422 7.32642H7.6141C8.59397 7.32642 9.39118 6.52927 9.39118 5.54944C9.39118 4.56961 8.59402 3.77241 7.6141 3.77241H7.02544C6.8333 3.62808 6.57554 3.53906 6.29119 3.53906C5.69808 3.53906 5.21729 3.92367 5.21729 4.39814C5.21729 4.86802 5.68889 5.2492 6.27408 5.25661L6.2738 5.26003H7.61414C7.77375 5.26003 7.90346 5.38978 7.90346 5.54935C7.90346 5.70891 7.77375 5.83861 7.61414 5.83861H6.99427C6.01439 5.83861 5.21729 6.63577 5.21729 7.6156C5.21729 8.59543 6.01435 9.39263 6.99427 9.39263H9.39113V7.90491H6.99422C6.83461 7.90496 6.70491 7.77525 6.70491 7.61569Z" fill="#F0F0F0"/>
<path d="M16.0964 18.686C16.0964 18.5264 16.2261 18.3967 16.3857 18.3967H17.0056C17.9854 18.3967 18.7826 17.5996 18.7826 16.6197C18.7826 15.6399 17.9855 14.8427 17.0056 14.8427H16.4169C16.2248 14.6984 15.967 14.6094 15.6826 14.6094C15.0895 14.6094 14.6087 14.994 14.6087 15.4685C14.6087 15.9383 15.0803 16.3195 15.6655 16.3269L15.6652 16.3303H17.0055C17.1651 16.3303 17.2948 16.4601 17.2948 16.6197C17.2948 16.7792 17.1651 16.9089 17.0055 16.9089H16.3856C15.4058 16.9089 14.6086 17.7061 14.6086 18.6859C14.6086 19.6657 15.4057 20.4629 16.3856 20.4629H18.7826V18.9753H16.3857C16.2261 18.9753 16.0964 18.8455 16.0964 18.686Z" fill="#F0F0F0"/>
<path d="M6.70483 18.686C6.70483 18.5264 6.83454 18.3967 6.99415 18.3967H7.61402C8.59389 18.3967 9.3911 17.5996 9.3911 16.6197C9.3911 15.6399 8.59394 14.8427 7.61402 14.8427H7.02536C6.83322 14.6984 6.57546 14.6094 6.29112 14.6094C5.69796 14.6094 5.21716 14.994 5.21716 15.4685C5.21716 15.9383 5.68877 16.3195 6.27396 16.3269L6.27368 16.3303H7.61402C7.77363 16.3303 7.90333 16.4601 7.90333 16.6197C7.90333 16.7792 7.77363 16.9089 7.61402 16.9089H6.99415C6.01427 16.9089 5.21716 17.7061 5.21716 18.6859C5.21716 19.6657 6.01423 20.4629 6.99415 20.4629H9.39105V18.9753H6.99415C6.83454 18.9753 6.70483 18.8455 6.70483 18.686Z" fill="#F0F0F0"/>
</g>
<defs>
<clipPath id="clip0_19978_7444">
<rect width="24" height="24" fill="white"/>
</clipPath>
</defs>
</svg>
