<svg width="24" height="24" viewBox="0 0 24 24" fill="none" xmlns="http://www.w3.org/2000/svg">
<g clip-path="url(#clip0_19978_7520)">
<path d="M24 12C24 18.6274 18.6274 24 12 24C5.37262 24 0 18.6274 0 12C0 12.0029 12 0.0013125 12 0C18.6274 0 24 5.37262 24 12Z" fill="#0052B4"/>
<path d="M11.9684 11.999H12.0005C12.0005 11.9882 12.0005 11.9776 12.0005 11.9668C11.9898 11.9776 11.9791 11.9883 11.9684 11.999Z" fill="#F0F0F0"/>
<path d="M12.0005 6.26086C12.0005 4.14937 12.0005 2.76586 12.0005 0H11.9985C5.37194 0.001125 0.000488281 5.37323 0.000488281 12H6.26134V8.47448L9.78686 12H11.9684C11.9791 11.9893 11.9898 11.9786 12.0005 11.9679C12.0005 11.1594 12.0005 10.4381 12.0005 9.78647L8.47492 6.26086H12.0005Z" fill="#F0F0F0"/>
<path d="M6.07124 1.56641C4.19441 2.63511 2.63409 4.19539 1.56543 6.07222V12.0012H4.69588V4.69695V4.69686H12.0002C12.0002 3.70953 12.0002 2.76894 12.0002 1.56641H6.07124Z" fill="#D80027"/>
<path d="M12.0005 10.5251L7.73698 6.26172H6.26135V6.26181L12.0004 12.0008H12.0005C12.0005 12.0008 12.0005 10.9833 12.0005 10.5251Z" fill="#D80027"/>
<path d="M13.5649 6.25977V11.9989C13.5649 14.7945 17.2171 15.6511 17.2171 15.6511C17.2171 15.6511 20.8693 14.7945 20.8693 11.9989V6.25977H13.5649Z" fill="#338AF3"/>
<path d="M13.5649 12C13.5649 14.7956 17.2171 15.6522 17.2171 15.6522C17.2171 15.6522 20.8693 14.7956 20.8693 12H13.5649Z" fill="#A2001D"/>
<path d="M18.7823 8.8697H17.7388V7.82617H16.6953V8.8697H15.6519V9.91314H16.6953V13.0435H17.7388V9.91314H18.7823V8.8697Z" fill="black"/>
</g>
<defs>
<clipPath id="clip0_19978_7520">
<rect width="24" height="24" fill="white"/>
</clipPath>
</defs>
</svg>
