<svg width="24" height="24" viewBox="0 0 24 24" fill="none" xmlns="http://www.w3.org/2000/svg">
<g clip-path="url(#clip0_19978_7463)">
<path d="M1.45862 6.26086L11.9995 7.30434L22.5405 6.26086C20.5052 2.53073 16.5481 0 11.9995 0C7.45102 0 3.49388 2.53073 1.45862 6.26086Z" fill="#D80027"/>
<path d="M1.45883 17.7377L11.9998 18.7812L22.5407 17.7377C23.4709 16.0328 23.9998 14.0775 23.9998 11.9986L11.9998 10.9551L-0.000244141 11.9986C-0.000244141 14.0775 0.528647 16.0328 1.45883 17.7377Z" fill="#FFDA44"/>
<path d="M1.45883 6.26172C0.528647 7.96661 -0.000244141 9.92195 -0.000244141 12.0009H23.9998C23.9998 9.92195 23.4709 7.96661 22.5407 6.26172H11.9998H1.45883Z" fill="#0052B4"/>
<path d="M11.9995 23.9991C16.5481 23.9991 20.5052 21.4684 22.5405 17.7383H1.45862C3.49388 21.4684 7.45102 23.9991 11.9995 23.9991Z" fill="#6DA544"/>
</g>
<defs>
<clipPath id="clip0_19978_7463">
<rect width="24" height="24" fill="white"/>
</clipPath>
</defs>
</svg>
