<svg width="24" height="24" viewBox="0 0 24 24" fill="none" xmlns="http://www.w3.org/2000/svg">
<g clip-path="url(#clip0_19978_7423)">
<path d="M12 24C18.6274 24 24 18.6274 24 12C24 5.37258 18.6274 0 12 0C5.37258 0 0 5.37258 0 12C0 18.6274 5.37258 24 12 24Z" fill="#D80027"/>
<path d="M19.826 6.26172H4.17383V17.74H19.826V6.26172Z" fill="#6DA544"/>
<path d="M13.9322 15.3914C12.0593 15.3914 10.5409 13.873 10.5409 12.0001C10.5409 10.1272 12.0593 8.6088 13.9322 8.6088C14.5162 8.6088 15.0657 8.75645 15.5454 9.01642C14.7928 8.28044 13.7637 7.82617 12.6279 7.82617C10.3227 7.82617 8.45398 9.69489 8.45398 12.0001C8.45398 14.3052 10.3227 16.174 12.6279 16.174C13.7637 16.174 14.7929 15.7197 15.5454 14.9837C15.0657 15.2438 14.5162 15.3914 13.9322 15.3914Z" fill="#F0F0F0"/>
</g>
<defs>
<clipPath id="clip0_19978_7423">
<rect width="24" height="24" fill="white"/>
</clipPath>
</defs>
</svg>
