<svg width="24" height="24" viewBox="0 0 24 24" fill="none" xmlns="http://www.w3.org/2000/svg">
<g clip-path="url(#clip0_19978_7405)">
<path d="M-0.00012207 12.0003C-0.00012207 13.4682 0.263925 14.8742 0.746269 16.1742L11.9999 16.696L23.2535 16.1743C23.7359 14.8742 23.9999 13.4682 23.9999 12.0003C23.9999 10.5325 23.7359 9.12644 23.2535 7.82645L11.9999 7.30469L0.746269 7.82641C0.263925 9.12644 -0.00012207 10.5325 -0.00012207 12.0003Z" fill="#D80027"/>
<path d="M11.9998 0C6.84025 0 2.44173 3.2565 0.746216 7.82611H23.2535C21.5579 3.2565 17.1594 0 11.9998 0Z" fill="black"/>
<path d="M23.2534 16.1738H0.746216C2.44173 20.7434 6.84025 23.9999 11.9998 23.9999C17.1594 23.9999 21.5579 20.7434 23.2534 16.1738Z" fill="#496E2D"/>
<path d="M15.5865 5.74006L14.121 5.05072L14.9014 3.63139L13.31 3.93584L13.1083 2.32812L11.9998 3.51055L10.8914 2.32812L10.6897 3.93584L9.09833 3.63139L9.87875 5.05072L8.41321 5.74006H15.5865Z" fill="#D80027"/>
</g>
<defs>
<clipPath id="clip0_19978_7405">
<rect width="24" height="24" fill="white"/>
</clipPath>
</defs>
</svg>
