<svg width="24" height="24" viewBox="0 0 24 24" fill="none" xmlns="http://www.w3.org/2000/svg">
<g clip-path="url(#clip0_19978_7469)">
<path d="M12 24C18.6274 24 24 18.6274 24 12C24 5.37258 18.6274 0 12 0C5.37258 0 0 5.37258 0 12C0 18.6274 5.37258 24 12 24Z" fill="#F0F0F0"/>
<path d="M23.9999 11.9987C23.9999 7.2412 21.2312 3.13045 17.2173 1.18945V22.808C21.2312 20.867 23.9999 16.7563 23.9999 11.9987Z" fill="#D80027"/>
<path d="M-0.00012207 11.9987C-0.00012207 16.7563 2.76855 20.867 6.7825 22.808V1.18945C2.76855 3.13045 -0.00012207 7.2412 -0.00012207 11.9987Z" fill="#6DA544"/>
<path d="M8.86951 11.9986C8.86951 13.7274 10.2711 15.129 12 15.129C13.7289 15.129 15.1304 13.7274 15.1304 11.9986V10.9551H8.86951V11.9986Z" fill="#6DA544"/>
<path d="M16.1734 9.91262H13.043C13.043 9.33634 12.5758 8.86914 11.9995 8.86914C11.4232 8.86914 10.956 9.33634 10.956 9.91262H7.82556C7.82556 10.489 8.32755 10.9561 8.90378 10.9561H8.86905C8.86905 11.5324 9.3362 11.9996 9.91253 11.9996C9.91253 12.5759 10.3797 13.0431 10.956 13.0431H13.043C13.6193 13.0431 14.0865 12.5759 14.0865 11.9996C14.6628 11.9996 15.13 11.5324 15.13 10.9561H15.0952C15.6715 10.9561 16.1734 10.489 16.1734 9.91262Z" fill="#FF9811"/>
</g>
<defs>
<clipPath id="clip0_19978_7469">
<rect width="24" height="24" fill="white"/>
</clipPath>
</defs>
</svg>
