<svg width="24" height="24" viewBox="0 0 24 24" fill="none" xmlns="http://www.w3.org/2000/svg">
<g clip-path="url(#clip0_19978_7411)">
<path d="M12 24C18.6274 24 24 18.6274 24 12C24 5.37258 18.6274 0 12 0C5.37258 0 0 5.37258 0 12C0 18.6274 5.37258 24 12 24Z" fill="#F0F0F0"/>
<path d="M11.4784 11.9996H24.0001C24.0001 10.9165 23.8557 9.8673 23.5867 8.86914H11.4784V11.9996Z" fill="#D80027"/>
<path d="M11.4784 5.73787H22.2388C21.5043 4.53919 20.5651 3.47967 19.47 2.60742H11.4784V5.73787Z" fill="#D80027"/>
<path d="M12.0001 23.9993C14.8243 23.9993 17.4201 23.0232 19.47 21.3906H4.53027C6.58016 23.0232 9.17596 23.9993 12.0001 23.9993Z" fill="#D80027"/>
<path d="M1.76146 18.2594H22.2389C22.8286 17.2971 23.2859 16.2452 23.5868 15.1289H0.413574C0.714371 16.2452 1.17173 17.2971 1.76146 18.2594Z" fill="#D80027"/>
<path d="M12 12C12 5.37262 12 4.59131 12 0C5.37262 0 0 5.37262 0 12H12Z" fill="#0052B4"/>
<path d="M7.98001 10.2699C6.34117 10.2699 5.01263 8.94131 5.01263 7.30252C5.01263 5.66372 6.34121 4.33514 7.98001 4.33514C8.491 4.33514 8.97179 4.46437 9.39156 4.69181C8.73306 4.04789 7.8325 3.65039 6.8387 3.65039C4.82171 3.65039 3.18652 5.28553 3.18652 7.30256C3.18652 9.31959 4.82171 10.9547 6.8387 10.9547C7.8325 10.9547 8.73306 10.5572 9.39156 9.91331C8.97179 10.1407 8.49104 10.2699 7.98001 10.2699Z" fill="#FFDA44"/>
<path d="M8.81659 5.2168L9.34342 6.31845L10.5332 6.04358L10.0004 7.14228L10.9572 7.90105L9.7659 8.16959L9.76923 9.39073L8.81659 8.62677L7.8639 9.39073L7.86718 8.16959L6.6759 7.90105L7.63272 7.14228L7.09989 6.04358L8.28972 6.31845L8.81659 5.2168Z" fill="#FFDA44"/>
</g>
<defs>
<clipPath id="clip0_19978_7411">
<rect width="24" height="24" fill="white"/>
</clipPath>
</defs>
</svg>
