<svg width="24" height="24" viewBox="0 0 24 24" fill="none" xmlns="http://www.w3.org/2000/svg">
<g clip-path="url(#clip0_19978_7537)">
<path d="M12 24C18.6274 24 24 18.6274 24 12C24 5.37258 18.6274 0 12 0C5.37258 0 0 5.37258 0 12C0 18.6274 5.37258 24 12 24Z" fill="#F0F0F0"/>
<path d="M6.48568 16.6953L3.51465 20.4845C5.68609 22.6563 8.68576 23.9997 11.9995 23.9997C16.9603 23.9997 21.2172 20.9889 23.0447 16.6953H6.48568Z" fill="#FFDA44"/>
<path d="M23.0634 7.3478C21.2461 3.03103 16.9771 0 11.9995 0C8.68576 0 5.68609 1.34339 3.51465 3.51511L6.51981 7.3478H23.0634Z" fill="#496E2D"/>
<path d="M2.60864 8.82617V15.1305H23.5866C23.8558 14.1325 23.9999 13.0832 23.9999 12.0001C23.9999 10.9012 23.8519 9.83717 23.5752 8.82617H2.60864Z" fill="black"/>
<path d="M3.51434 3.51367C-1.17194 8.19995 -1.17194 15.798 3.51434 20.4843C5.45089 18.5478 7.31337 16.6853 11.9997 11.999L3.51434 3.51367Z" fill="#A2001D"/>
<path d="M4.85694 8.86914L5.6339 11.2605H8.14855L6.11427 12.7386L6.89118 15.13L4.85694 13.652L2.82262 15.13L3.59971 12.7386L1.56543 11.2605H4.0799L4.85694 8.86914Z" fill="#FFDA44"/>
<path d="M7.13101 12H2.58301V14.087H7.13101V12Z" fill="#F0F0F0"/>
<path d="M7.99216 9.60705L7.2543 8.86914L4.85674 11.2667L2.45917 8.86914L1.72131 9.60705L4.12099 12.0025L1.72131 14.4022L2.45917 15.13L4.85674 12.7368L7.2543 15.13L7.99216 14.4022L5.59249 12.0025L7.99216 9.60705Z" fill="black"/>
</g>
<defs>
<clipPath id="clip0_19978_7537">
<rect width="24" height="24" fill="white"/>
</clipPath>
</defs>
</svg>
