<svg width="24" height="24" viewBox="0 0 24 24" fill="none" xmlns="http://www.w3.org/2000/svg">
<g clip-path="url(#clip0_19978_7553)">
<path d="M12 24C18.6274 24 24 18.6274 24 12C24 5.37258 18.6274 0 12 0C5.37258 0 0 5.37258 0 12C0 18.6274 5.37258 24 12 24Z" fill="#F0F0F0"/>
<path d="M3.51451 20.4841C4.0179 20.9874 4.55499 21.4364 5.11838 21.8316L21.8326 5.11741C21.4374 4.55402 20.9884 4.01692 20.485 3.51353C19.9816 3.01014 19.4445 2.56127 18.8811 2.16602L2.16699 18.8802C2.5622 19.4435 3.01112 19.9807 3.51451 20.4841Z" fill="#A2001D"/>
<path d="M3.51501 3.51417C-0.270799 7.29998 -0.99755 12.9855 1.33322 17.5016L17.5024 1.33246C12.9863 -0.998302 7.30073 -0.271459 3.51501 3.51417Z" fill="#0052B4"/>
<path d="M20.4858 20.4855C24.2715 16.6997 24.9982 11.0141 22.6676 6.49805L6.49841 22.6672C11.0144 24.998 16.7 24.2712 20.4858 20.4855Z" fill="#496E2D"/>
<path d="M9.9132 6.7828L8.56854 7.41528L9.2846 8.71756L7.82449 8.43828L7.63943 9.91321L6.62243 8.82838L5.60538 9.91321L5.42042 8.43828L3.96026 8.71752L4.67627 7.41524L3.33167 6.7828L4.67632 6.15027L3.96026 4.84808L5.42037 5.12736L5.60543 3.65234L6.62243 4.73722L7.63948 3.65234L7.82449 5.12736L9.2846 4.84808L8.56863 6.15031L9.9132 6.7828Z" fill="#FFDA44"/>
</g>
<defs>
<clipPath id="clip0_19978_7553">
<rect width="24" height="24" fill="white"/>
</clipPath>
</defs>
</svg>
