<svg width="24" height="24" viewBox="0 0 24 24" fill="none" xmlns="http://www.w3.org/2000/svg">
<g clip-path="url(#clip0_19978_7639)">
<path d="M17.217 1.19072C15.6394 0.427875 13.8695 0 11.9996 0C10.1297 0 8.35988 0.427875 6.78225 1.19072L5.73877 12L6.78225 22.8093C8.35988 23.5721 10.1297 24 11.9996 24C13.8695 24 15.6394 23.5721 17.217 22.8093L18.2605 12L17.217 1.19072Z" fill="#F0F0F0"/>
<path d="M6.7825 1.19141C2.76855 3.13231 -0.00012207 7.24273 -0.00012207 12.0003C-0.00012207 16.7578 2.76855 20.8682 6.7825 22.8091V1.19141Z" fill="#6DA544"/>
<path d="M17.217 1.19141V22.8091C21.231 20.8682 23.9997 16.7578 23.9997 12.0003C23.9997 7.24278 21.231 3.13231 17.217 1.19141Z" fill="#6DA544"/>
<path d="M15.1305 15.6513L12.0001 5.73828L8.86963 15.6513H11.2175V18.26H12.7827V15.6513H15.1305Z" fill="#6DA544"/>
</g>
<defs>
<clipPath id="clip0_19978_7639">
<rect width="24" height="24" fill="white"/>
</clipPath>
</defs>
</svg>
