<svg width="24" height="24" viewBox="0 0 24 24" fill="none" xmlns="http://www.w3.org/2000/svg">
<g clip-path="url(#clip0_19978_7598)">
<path d="M12 24C18.6274 24 24 18.6274 24 12C24 5.37258 18.6274 0 12 0C5.37258 0 0 5.37258 0 12C0 18.6274 5.37258 24 12 24Z" fill="#F0F0F0"/>
<path d="M12.0003 0C7.24279 0 3.13204 2.76867 1.19104 6.78262H22.8096C20.8686 2.76867 16.7578 0 12.0003 0Z" fill="#338AF3"/>
<path d="M12.0003 24.0014C16.7578 24.0014 20.8686 21.2327 22.8096 17.2188H1.19104C3.13204 21.2327 7.24279 24.0014 12.0003 24.0014Z" fill="#338AF3"/>
<path d="M12.0003 8.34766C9.98328 8.34766 8.34814 9.9828 8.34814 11.9998C8.34814 14.0169 9.98328 15.652 12.0003 15.652C14.0173 15.652 15.6525 14.0169 15.6525 11.9998C15.6525 9.9828 14.0173 8.34766 12.0003 8.34766ZM12.0003 14.0868C10.8478 14.0868 9.91335 13.1525 9.91335 11.9998C9.91335 10.8472 10.8477 9.91286 12.0003 9.91286C13.1529 9.91286 14.0873 10.8472 14.0873 11.9998C14.0873 13.1525 13.1529 14.0868 12.0003 14.0868Z" fill="#FFDA44"/>
<path d="M13.807 12.5217L11.9996 12L10.1922 12.5217L9.58972 13.5652H14.4094L13.807 12.5217Z" fill="#0052B4"/>
<path d="M11.9997 9.39062L10.7948 11.4776L11.9997 11.9993L13.2046 11.4776L11.9997 9.39062Z" fill="#338AF3"/>
<path d="M10.1923 12.522H13.8071L13.2046 11.4785H10.7947L10.1923 12.522Z" fill="#6DA544"/>
</g>
<defs>
<clipPath id="clip0_19978_7598">
<rect width="24" height="24" fill="white"/>
</clipPath>
</defs>
</svg>
