<svg width="24" height="24" viewBox="0 0 24 24" fill="none" xmlns="http://www.w3.org/2000/svg">
<g clip-path="url(#clip0_19978_7662)">
<path d="M12 24C18.6274 24 24 18.6274 24 12C24 5.37258 18.6274 0 12 0C5.37258 0 0 5.37258 0 12C0 18.6274 5.37258 24 12 24Z" fill="#F0F0F0"/>
<path d="M0.41333 15.1309C1.10764 17.7071 2.63788 19.9399 4.6956 21.521V15.1309H0.41333Z" fill="#D80027"/>
<path d="M10.9563 23.9548C11.3003 23.9844 11.6481 24.0004 11.9998 24.0004C17.5441 24.0004 22.2094 20.2401 23.5864 15.1309H10.9563V23.9548Z" fill="#D80027"/>
<path d="M23.5864 8.86955C22.2094 3.76036 17.5441 0 11.9998 0C11.6481 0 11.3003 0.0160312 10.9563 0.0456562V8.86955H23.5864Z" fill="#D80027"/>
<path d="M4.6956 2.48047C2.63788 4.06156 1.10764 6.29436 0.41333 8.87056H4.6956V2.48047Z" fill="#D80027"/>
<path d="M23.8984 10.4347H9.39136H9.39131V0.285156C8.28234 0.531062 7.23098 0.929641 6.26086 1.459V10.4346V10.4347H0.101578C0.0347813 10.9471 0 11.4694 0 11.9999C0 12.5304 0.0347813 13.0528 0.101578 13.5651H6.26081H6.26086V22.5408C7.23098 23.0701 8.28234 23.4688 9.39131 23.7146V13.5653V13.5652H23.8984C23.9651 13.0528 24 12.5304 24 11.9999C24 11.4694 23.9651 10.9471 23.8984 10.4347Z" fill="#0052B4"/>
</g>
<defs>
<clipPath id="clip0_19978_7662">
<rect width="24" height="24" fill="white"/>
</clipPath>
</defs>
</svg>
