<svg width="24" height="24" viewBox="0 0 24 24" fill="none" xmlns="http://www.w3.org/2000/svg">
<g clip-path="url(#clip0_19978_7568)">
<path d="M12 24C18.6274 24 24 18.6274 24 12C24 5.37258 18.6274 0 12 0C5.37258 0 0 5.37258 0 12C0 18.6274 5.37258 24 12 24Z" fill="#F0F0F0"/>
<path d="M23.9292 13.3045C23.9292 13.3044 23.9293 13.3043 23.9293 13.3041L10.7693 0.0625C10.1757 0.123016 9.59475 0.226797 9.02986 0.370656C3.83897 1.6923 0 12.0001 0 12.0001C0 12.0001 16.7999 23.2424 18.7165 21.9453C19.1 21.6858 19.4677 21.4047 19.8177 21.1038L12.0185 13.3045H23.9292Z" fill="#0052B4"/>
<path d="M20.8697 11.9986L9.19911 0.328125C3.923 1.58986 0.00012207 6.33576 0.00012207 11.9986C0.00012207 18.626 5.37275 23.9986 12.0001 23.9986C14.514 23.9986 16.8469 23.2251 18.7749 21.9038L8.86967 11.9986H20.8697Z" fill="#D80027"/>
<path d="M11.4126 17.7186L9.94704 17.0292L10.7275 15.6099L9.13605 15.9144L8.9344 14.3066L7.82595 15.4891L6.71749 14.3066L6.51579 15.9144L4.92443 15.6099L5.70485 17.0292L4.23926 17.7186L5.70485 18.4079L4.92443 19.8272L6.51588 19.5228L6.71745 21.1305L7.82595 19.948L8.9344 21.1305L9.13605 19.5228L10.7274 19.8273L9.94699 18.408L11.4126 17.7186Z" fill="#F0F0F0"/>
<path d="M10.4343 6.65539L9.3684 6.15406L9.93601 5.12173L8.77853 5.34317L8.63186 4.17383L7.82565 5.03384L7.01945 4.17383L6.87273 5.34317L5.71525 5.12173L6.2829 6.15406L5.21692 6.65539L7.82565 7.1772L10.4343 6.65539Z" fill="#F0F0F0"/>
<path d="M10.9567 6.65625C10.9567 8.38514 9.55514 9.7867 7.82625 9.7867C6.09736 9.7867 4.6958 8.38514 4.6958 6.65625" fill="#F0F0F0"/>
</g>
<defs>
<clipPath id="clip0_19978_7568">
<rect width="24" height="24" fill="white"/>
</clipPath>
</defs>
</svg>
