<svg width="24" height="24" viewBox="0 0 24 24" fill="none" xmlns="http://www.w3.org/2000/svg">
<g clip-path="url(#clip0_19978_7560)">
<path d="M12 24C18.6274 24 24 18.6274 24 12C24 5.37258 18.6274 0 12 0C5.37258 0 0 5.37258 0 12C0 18.6274 5.37258 24 12 24Z" fill="#0052B4"/>
<path d="M12 24C18.6274 24 24 18.6274 24 12C24 5.37258 18.6274 0 12 0C5.37258 0 0 5.37258 0 12C0 18.6274 5.37258 24 12 24Z" fill="#FFDA44"/>
<path d="M12.001 0C5.72524 0 0.575644 4.81786 0.0467529 10.9565H23.9554C23.4265 4.81786 18.2769 0 12.001 0Z" fill="#0052B4"/>
<path d="M11.9998 24.0014C18.2756 24.0014 23.4252 19.1836 23.9542 13.0449H0.0455322C0.574423 19.1836 5.72402 24.0014 11.9998 24.0014Z" fill="#0052B4"/>
<path d="M9.91324 16.1753L8.56859 16.8079L9.2846 18.1101L7.82449 17.8308L7.63948 19.3058L6.62243 18.221L5.60543 19.3058L5.42042 17.8308L3.96026 18.1101L4.67632 16.8078L3.33167 16.1753L4.67637 15.5428L3.96026 14.2407L5.42037 14.5199L5.60548 13.0449L6.62243 14.1298L7.63953 13.0449L7.82449 14.5199L9.28465 14.2407L8.56863 15.5429L9.91324 16.1753Z" fill="#F0F0F0"/>
</g>
<defs>
<clipPath id="clip0_19978_7560">
<rect width="24" height="24" fill="white"/>
</clipPath>
</defs>
</svg>
