<svg width="24" height="24" viewBox="0 0 24 24" fill="none" xmlns="http://www.w3.org/2000/svg">
<g clip-path="url(#clip0_19978_7621)">
<path d="M24 12C24 18.6274 18.6274 24 12 24C5.37262 24 0 18.6274 0 12C0 12.0029 12 0.0013125 12 0C18.6274 0 24 5.37262 24 12Z" fill="#FFDA44"/>
<path d="M12.0003 5.74023V9.78756L7.82642 5.74023H12.0003Z" fill="#0052B4"/>
<path d="M6.26122 12.0003H9.78674L6.26122 7.30469L5.7395 10.9569L6.26122 12.0003Z" fill="#0052B4"/>
<path d="M11.9684 12.0009H12.0006C12.0006 11.9901 12.0006 11.9796 12.0006 11.9688C11.9898 11.9795 11.9791 11.9902 11.9684 12.0009Z" fill="#F0F0F0"/>
<path d="M12 6.26086C12 4.14937 12 2.76586 12 0H11.998C5.37145 0.001125 0 5.37323 0 12H6.26086V8.47448L9.78637 12H11.9679C11.9786 11.9893 11.9893 11.9786 12 11.9679C12 11.1594 12 10.4381 12 9.78647L8.47443 6.26086H12Z" fill="#F0F0F0"/>
<path d="M11.9993 10.5232L7.73576 6.25977H6.26013V6.25986L11.9992 11.9989H11.9993C11.9993 11.9989 11.9993 10.9813 11.9993 10.5232Z" fill="#D80027"/>
<path d="M6.07063 1.56445C5.60802 1.82789 5.16482 2.12147 4.74332 2.44195H5.2357L3.93435 3.38761L4.43132 4.91747L3.12998 3.972L2.99151 4.07264C2.45118 4.68623 1.97212 5.35505 1.56482 6.07027V11.9993H4.69527V4.695V4.69491H11.9996C11.9996 3.70758 11.9996 2.76698 11.9996 1.56445H6.07063Z" fill="#D80027"/>
<path d="M5.12589 2.16406C4.99647 2.25467 4.86887 2.34781 4.7432 2.44339L3.93437 3.38905L3.13 3.97339L2.99035 4.07483C2.6957 4.40952 2.41937 4.7607 2.16296 5.12694C2.45523 5.26878 2.78331 5.34852 3.13 5.34852C4.35465 5.34852 5.34737 4.3558 5.34737 3.13114C5.34747 2.78436 5.26778 2.45638 5.12589 2.16406Z" fill="#0052B4"/>
<path d="M2.99011 4.0748L3.12975 3.97336L4.4311 4.91888L3.93408 3.38902L5.23533 2.44336H4.74286C4.10564 2.928 3.51844 3.47475 2.99011 4.0748Z" fill="#FFDA44"/>
<path d="M8.29415 2.08789L8.55318 2.885H9.3913L8.71326 3.3777L8.97215 4.17481L8.29415 3.68215L7.6161 4.17481L7.87494 3.3777L7.1969 2.885H8.03507L8.29415 2.08789Z" fill="#FFDA44"/>
<path d="M3.13004 7.30664L3.38907 8.10375H4.2272L3.5492 8.5965L3.80809 9.39361L3.13004 8.90091L2.45195 9.39361L2.71084 8.5965L2.03284 8.10375H2.87096L3.13004 7.30664Z" fill="#FFDA44"/>
</g>
<defs>
<clipPath id="clip0_19978_7621">
<rect width="24" height="24" fill="white"/>
</clipPath>
</defs>
</svg>
