<svg width="24" height="24" viewBox="0 0 24 24" fill="none" xmlns="http://www.w3.org/2000/svg">
<g clip-path="url(#clip0_19978_7671)">
<path d="M12 24C18.6274 24 24 18.6274 24 12C24 5.37258 18.6274 0 12 0C5.37258 0 0 5.37258 0 12C0 18.6274 5.37258 24 12 24Z" fill="#F0F0F0"/>
<path d="M0.00012207 11.9999C0.00012207 16.5484 2.5309 20.5056 6.26098 22.5408V1.45898C2.5309 3.4942 0.00012207 7.45139 0.00012207 11.9999Z" fill="#D80027"/>
<path d="M23.2538 16.174C23.7361 14.874 24.0001 13.4679 24.0001 12.0001C24.0001 10.5322 23.7361 9.12611 23.2538 7.82617H0.74656C0.264169 9.12611 0.00012207 10.5322 0.00012207 12.0001C0.00012207 13.4679 0.264169 14.874 0.74656 16.174L12.0001 17.2174L23.2538 16.174Z" fill="#D80027"/>
<path d="M12.0003 23.9999C17.1599 23.9999 21.5584 20.7434 23.2539 16.1738H0.746704C2.44217 20.7434 6.84073 23.9999 12.0003 23.9999Z" fill="#6DA544"/>
<path d="M0.000244141 11.9987C0.000244141 17.543 3.7606 22.2083 8.86979 23.5853V0.412109C3.7606 1.78911 0.000244141 6.45439 0.000244141 11.9987Z" fill="#D80027"/>
<path d="M7.34159 5.28255L6.23483 4.17578L5.49701 4.91369L4.7592 4.17578L3.65244 5.28255L4.3903 6.02041L3.65234 6.75831L4.75911 7.86508L5.49697 7.12717L6.23483 7.86508L7.34159 6.75831L6.60373 6.02041L7.34159 5.28255Z" fill="#F0F0F0"/>
</g>
<defs>
<clipPath id="clip0_19978_7671">
<rect width="24" height="24" fill="white"/>
</clipPath>
</defs>
</svg>
