<svg width="24" height="24" viewBox="0 0 24 24" fill="none" xmlns="http://www.w3.org/2000/svg">
<g clip-path="url(#clip0_19978_7699)">
<path d="M12 24C18.6274 24 24 18.6274 24 12C24 5.37258 18.6274 0 12 0C5.37258 0 0 5.37258 0 12C0 18.6274 5.37258 24 12 24Z" fill="#F0F0F0"/>
<path d="M0 12C0 18.6274 5.37262 24 12 24C12 19.4365 12 12 12 12C12 12 4.17389 12 0 12Z" fill="#0052B4"/>
<path d="M11.9995 0C18.6269 0 23.9995 5.37262 23.9995 12C19.436 12 11.9995 12 11.9995 12C11.9995 12 11.9995 4.17389 11.9995 0Z" fill="#D80027"/>
<path d="M7.14361 4.17578L7.92066 6.56725H10.4352L8.40089 8.04522L9.17789 10.4367L7.14361 8.95867L5.10933 10.4367L5.88633 8.04522L3.85205 6.56725H6.36657L7.14361 4.17578Z" fill="#0052B4"/>
<path d="M16.857 13.5645L17.634 15.9559H20.1486L18.1142 17.4339L18.8913 19.8254L16.857 18.3474L14.8227 19.8254L15.5997 17.4339L13.5654 15.9559H16.0799L16.857 13.5645Z" fill="#D80027"/>
</g>
<defs>
<clipPath id="clip0_19978_7699">
<rect width="24" height="24" fill="white"/>
</clipPath>
</defs>
</svg>
