<svg width="24" height="24" viewBox="0 0 24 24" fill="none" xmlns="http://www.w3.org/2000/svg">
<g clip-path="url(#clip0_19978_7724)">
<path d="M12 24C18.6274 24 24 18.6274 24 12C24 5.37258 18.6274 0 12 0C5.37258 0 0 5.37258 0 12C0 18.6274 5.37258 24 12 24Z" fill="#F0F0F0"/>
<path d="M23.9999 12.0016C23.9999 6.84208 20.7434 2.44352 16.1738 0.748047V23.2553C20.7434 21.5597 23.9999 17.1612 23.9999 12.0016Z" fill="#D80027"/>
<path d="M0.000244141 12.0016C0.000244141 17.1612 3.25674 21.5597 7.82635 23.2553V0.748047C3.25674 2.44352 0.000244141 6.84208 0.000244141 12.0016Z" fill="#D80027"/>
</g>
<defs>
<clipPath id="clip0_19978_7724">
<rect width="24" height="24" fill="white"/>
</clipPath>
</defs>
</svg>
