<svg width="24" height="24" viewBox="0 0 24 24" fill="none" xmlns="http://www.w3.org/2000/svg">
<g clip-path="url(#clip0_19978_7021)">
<path d="M12 24C18.6274 24 24 18.6274 24 12C24 5.37258 18.6274 0 12 0C5.37258 0 0 5.37258 0 12C0 18.6274 5.37258 24 12 24Z" fill="#F0F0F0"/>
<path d="M1.45911 6.26086H22.5409C20.5057 2.53073 16.5485 0 12 0C7.45151 0 3.49437 2.53073 1.45911 6.26086Z" fill="#D80027"/>
<path d="M11.9997 23.9991C16.5482 23.9991 20.5053 21.4684 22.5406 17.7383H1.45874C3.49401 21.4684 7.45115 23.9991 11.9997 23.9991Z" fill="#D80027"/>
<path d="M16.174 12.0001C16.174 14.3053 14.3052 15.6522 12.0001 15.6522C9.69489 15.6522 7.82617 14.3053 7.82617 12.0001C7.82617 9.69484 9.69489 7.82617 12.0001 7.82617C14.3052 7.82617 16.174 9.69484 16.174 12.0001Z" fill="#FFDA44"/>
<path d="M16.174 12C16.174 14.3052 14.3052 16.1739 12.0001 16.1739C9.69489 16.1739 7.82617 14.3052 7.82617 12" fill="#0052B4"/>
<path d="M10.4351 10.9551H9.3916V13.042H10.4351V10.9551Z" fill="#D80027"/>
<path d="M14.6089 10.9551H13.5654V13.042H14.6089V10.9551Z" fill="#D80027"/>
<path d="M12.522 9.39062H11.4785V13.0428H12.522V9.39062Z" fill="#D80027"/>
</g>
<defs>
<clipPath id="clip0_19978_7021">
<rect width="24" height="24" fill="white"/>
</clipPath>
</defs>
</svg>
