<svg width="24" height="24" viewBox="0 0 24 24" fill="none" xmlns="http://www.w3.org/2000/svg">
<g clip-path="url(#clip0_19978_7706)">
<path d="M20.4853 20.4857C15.799 25.172 8.20108 25.172 3.51471 20.4857C-1.17158 15.7995 -1.17158 8.20145 3.51475 3.51512C8.20103 -1.17115 15.0611 -0.433295 19.7474 4.25303C24.4337 8.93931 25.1716 15.7995 20.4853 20.4857Z" fill="black"/>
<path d="M3.51465 3.51467C8.20093 -1.17161 15.7989 -1.17152 20.4852 3.51472C25.1715 8.201 25.1715 15.799 20.4852 20.4853" fill="#A2001D"/>
<path d="M9.17128 16.1738L9.36553 16.7717H9.99417L9.48558 17.1412L9.67987 17.7391L9.17128 17.3696L8.66269 17.7391L8.85694 17.1412L8.34839 16.7717H8.97698L9.17128 16.1738Z" fill="#F0F0F0"/>
<path d="M7.56483 10.4355L7.88869 11.432H8.93635L8.08871 12.0478L8.41247 13.0443L7.56483 12.4284L6.71724 13.0443L7.04105 12.0478L6.19336 11.432H7.24111L7.56483 10.4355Z" fill="#F0F0F0"/>
<path d="M7.56483 17.7402L7.8886 18.7367H8.93635L8.08861 19.3525L8.41247 20.3489L7.56483 19.733L6.71724 20.3489L7.04095 19.3525L6.19336 18.7367H7.24097L7.56483 17.7402Z" fill="#F0F0F0"/>
<path d="M10.6287 13.0449L10.9526 14.0414H12.0003L11.1526 14.6571L11.4764 15.6536L10.6287 15.0377L9.78115 15.6536L10.105 14.6571L9.25732 14.0414H10.305L10.6287 13.0449Z" fill="#F0F0F0"/>
<path d="M4.50209 13.0449L4.82595 14.0414H5.87356L5.02596 14.6571L5.34968 15.6536L4.50209 15.0377L3.65444 15.6536L3.9783 14.6571L3.13062 14.0414H4.17832L4.50209 13.0449Z" fill="#F0F0F0"/>
<path d="M20.0881 8.88575C19.5518 8.34945 18.855 8.03262 18.1062 7.9782L20.3477 6.23478C19.455 5.34205 18.2585 4.93887 17.0909 5.02414C16.9511 4.52183 16.6846 4.04736 16.2896 3.65234L15.4042 5.42319C15.3461 5.31734 15.2726 5.21773 15.1828 5.12806C14.6734 4.61867 13.8476 4.61867 13.3382 5.12806C12.8289 5.63745 12.8288 6.4633 13.3382 6.97269C13.4279 7.06236 13.5275 7.13591 13.6334 7.19403L11.8625 8.07945C12.2577 8.47461 12.7325 8.74128 13.235 8.88097C13.1495 10.0485 13.5523 11.2449 14.445 12.1377L16.4035 9.61962C16.5508 9.47455 16.7454 9.39444 16.9524 9.39444C17.1614 9.39444 17.3579 9.47581 17.5057 9.6237C17.6536 9.7715 17.735 9.96805 17.735 10.1771C17.735 10.3861 17.6536 10.5826 17.5057 10.7305L18.2436 11.4684C18.5885 11.1235 18.7785 10.6649 18.7785 10.1771C18.7785 9.77802 18.6512 9.39861 18.4161 9.08492C18.7586 9.17637 19.0823 9.35553 19.3504 9.6237C20.1642 10.4374 20.1642 11.7614 19.3504 12.5751L20.0883 13.313C20.6795 12.7217 21.0052 11.9356 21.0052 11.0994C21.005 10.2631 20.6794 9.47703 20.0881 8.88575Z" fill="#FFDA44"/>
</g>
<defs>
<clipPath id="clip0_19978_7706">
<rect width="24" height="24" fill="white"/>
</clipPath>
</defs>
</svg>
