<svg width="24" height="24" viewBox="0 0 24 24" fill="none" xmlns="http://www.w3.org/2000/svg">
<g clip-path="url(#clip0_19978_7730)">
<path d="M12 24C18.6274 24 24 18.6274 24 12C24 5.37258 18.6274 0 12 0C5.37258 0 0 5.37258 0 12C0 18.6274 5.37258 24 12 24Z" fill="#F0F0F0"/>
<path d="M12.0004 0V12L3.51514 20.4853C5.68671 22.6568 8.68671 24 12.0004 24C18.6278 24 24.0004 18.6274 24.0004 12C24.0004 5.37262 12.0004 0 12.0004 0Z" fill="#D80027"/>
<path d="M12.0004 0C8.68671 0 5.68671 1.34316 3.51514 3.51469C6.45936 6.45891 7.50453 7.50412 12.0004 12H24.0004C24.0004 5.37262 18.6278 0 12.0004 0Z" fill="#0052B4"/>
<path d="M8.21723 11.9998L6.75173 11.3104L7.53215 9.89111L5.94074 10.1956L5.73909 8.58789L4.63059 9.77027L3.52213 8.58789L3.32043 10.1956L1.72907 9.89106L2.50949 11.3104L1.04395 11.9998L2.50949 12.6891L1.72907 14.1085L3.32057 13.8041L3.52209 15.4117L4.63059 14.2293L5.73909 15.4117L5.94074 13.8041L7.53205 14.1085L6.75168 12.6892L8.21723 11.9998Z" fill="#FFDA44"/>
<path d="M3.20082 4.69531L3.68851 5.37702L4.48749 5.12394L3.98977 5.79837L4.47746 6.48008L3.68218 6.21519L3.18451 6.88958L3.19074 6.05145L2.39551 5.78652L3.19463 5.53344L3.20082 4.69531Z" fill="#FFDA44"/>
<path d="M3.20082 17.1094L3.68851 17.7911L4.48749 17.538L3.98977 18.2124L4.47746 18.8941L3.68218 18.6293L3.18451 19.3036L3.19074 18.4655L2.39551 18.2006L3.19463 17.9475L3.20082 17.1094Z" fill="#FFDA44"/>
<path d="M10.1563 10.9043L9.66866 11.586L8.86963 11.3328L9.36735 12.0073L8.87966 12.6891L9.67494 12.4241L10.1727 13.0985L10.1664 12.2604L10.9616 11.9955L10.1625 11.7424L10.1563 10.9043Z" fill="#FFDA44"/>
</g>
<defs>
<clipPath id="clip0_19978_7730">
<rect width="24" height="24" fill="white"/>
</clipPath>
</defs>
</svg>
