<svg width="24" height="24" viewBox="0 0 24 24" fill="none" xmlns="http://www.w3.org/2000/svg">
<g clip-path="url(#clip0_19978_7680)">
<path d="M12 24C18.6274 24 24 18.6274 24 12C24 5.37258 18.6274 0 12 0C5.37258 0 0 5.37258 0 12C0 18.6274 5.37258 24 12 24Z" fill="#F0F0F0"/>
<path d="M0.000244141 11.9999C0.000244141 16.5484 2.53098 20.5056 6.26111 22.5408V1.45898C2.53098 3.49425 0.000244141 7.45139 0.000244141 11.9999Z" fill="#F0F0F0"/>
<path d="M11.9996 0C9.92073 0 7.96539 0.528891 6.2605 1.45908V22.5409C7.96539 23.4711 9.92073 24 11.9996 24C18.627 24 23.9996 18.6274 23.9996 12C23.9996 5.37262 18.627 0 11.9996 0Z" fill="#496E2D"/>
<path d="M17.1309 13.9864C15.6128 15.0833 13.4928 14.7419 12.396 13.2238C11.299 11.7056 11.6405 9.5857 13.1586 8.48882C13.632 8.14682 14.1638 7.94465 14.7049 7.87439C13.6639 7.71871 12.5635 7.95328 11.6431 8.61839C9.77461 9.96848 9.35428 12.5776 10.7043 14.4461C12.0544 16.3145 14.6635 16.7349 16.5321 15.3847C17.4526 14.7196 18.0208 13.7487 18.1998 12.7114C17.9633 13.2029 17.6043 13.6444 17.1309 13.9864Z" fill="#F0F0F0"/>
<path d="M17.0661 7.82812L17.9213 8.74973L19.0621 8.22136L18.4498 9.31936L19.3049 10.2411L18.0713 9.99801L17.4591 11.0961L17.309 9.84783L16.0754 9.60478L17.2162 9.07641L17.0661 7.82812Z" fill="#F0F0F0"/>
</g>
<defs>
<clipPath id="clip0_19978_7680">
<rect width="24" height="24" fill="white"/>
</clipPath>
</defs>
</svg>
