<svg width="24" height="24" viewBox="0 0 24 24" fill="none" xmlns="http://www.w3.org/2000/svg">
<g clip-path="url(#clip0_19978_7740)">
<path d="M24 12C24 18.6274 18.6274 24 12 24C5.37262 24 0 18.6274 0 12C0 12.0029 12 0.0013125 12 0C18.6274 0 24 5.37262 24 12Z" fill="#0052B4"/>
<path d="M11.9685 12.0009H12.0007C12.0007 11.9901 12.0007 11.9796 12.0007 11.9688C11.99 11.9795 11.9793 11.9902 11.9685 12.0009Z" fill="#F0F0F0"/>
<path d="M12.0005 6.26086C12.0005 4.14937 12.0005 2.76586 12.0005 0H11.9985C5.37194 0.001125 0.000488281 5.37323 0.000488281 12H6.26134V8.47448L9.78686 12H11.9684C11.9791 11.9893 11.9898 11.9786 12.0005 11.9679C12.0005 11.1594 12.0005 10.4381 12.0005 9.78647L8.47492 6.26086H12.0005Z" fill="#F0F0F0"/>
<path d="M6.07124 1.56445C4.19441 2.63316 2.63409 4.19344 1.56543 6.07027V11.9993H4.69588V4.695V4.69491H12.0002C12.0002 3.70758 12.0002 2.76699 12.0002 1.56445H6.07124Z" fill="#D80027"/>
<path d="M12.0004 10.5232L7.73686 6.25977H6.26123V6.25986L12.0003 11.9989H12.0004C12.0004 11.9989 12.0004 10.9813 12.0004 10.5232Z" fill="#D80027"/>
<path d="M18.783 7.304L17.2178 7.82577L15.6526 7.304L15.1309 5.99966L15.6526 4.69531H18.783L18.2613 5.99966L18.783 7.304Z" fill="#ACABB1"/>
<path d="M13.5649 7.30469V13.0438C13.5649 15.8394 17.2171 16.696 17.2171 16.696C17.2171 16.696 20.8693 15.8394 20.8693 13.0438V7.30469H13.5649Z" fill="#338AF3"/>
<path d="M13.8948 14.4026C14.7925 16.1262 17.2177 16.6952 17.2177 16.6952C17.2177 16.6952 19.643 16.1262 20.5407 14.4026L17.2177 8.86914L13.8948 14.4026Z" fill="#6DA544"/>
<path d="M20.8693 12.9858L17.2171 7.30469L13.5649 12.9858V13.0438C13.5649 13.5612 13.6903 14.012 13.8941 14.4034L17.2171 9.2343L20.5401 14.4034C20.7439 14.0119 20.8693 13.5611 20.8693 13.0437V12.9858Z" fill="#FFDA44"/>
</g>
<defs>
<clipPath id="clip0_19978_7740">
<rect width="24" height="24" fill="white"/>
</clipPath>
</defs>
</svg>
