<svg width="24" height="24" viewBox="0 0 24 24" fill="none" xmlns="http://www.w3.org/2000/svg">
<g clip-path="url(#clip0_19978_7761)">
<path d="M12 24C18.6274 24 24 18.6274 24 12C24 5.37258 18.6274 0 12 0C5.37258 0 0 5.37258 0 12C0 18.6274 5.37258 24 12 24Z" fill="#F0F0F0"/>
<path d="M11.999 0C8.07308 0 4.58769 1.88545 2.39844 4.8H21.5995C19.4102 1.88545 15.9248 0 11.999 0Z" fill="#D80027"/>
<path d="M11.999 23.9992C15.9248 23.9992 19.4102 22.1138 21.5995 19.1992H2.39844C4.58769 22.1138 8.07308 23.9992 11.999 23.9992Z" fill="#D80027"/>
<path d="M-0.000610352 11.9996C-0.000610352 12.8216 0.0822646 13.6242 0.239718 14.3996H23.7592C23.9166 13.6242 23.9994 12.8216 23.9994 11.9996C23.9994 11.1777 23.9165 10.3751 23.7591 9.59961H0.239718C0.0822646 10.3751 -0.000610352 11.1777 -0.000610352 11.9996Z" fill="#D80027"/>
<path d="M3.51434 3.51562C-1.17194 8.20191 -1.17194 15.7999 3.51434 20.4862C5.45089 18.5497 7.31337 16.6872 11.9997 12.0009L3.51434 3.51562Z" fill="#0052B4"/>
<path d="M4.85694 8.86914L5.6339 11.2605H8.14855L6.11427 12.7386L6.89118 15.13L4.85694 13.652L2.82262 15.13L3.59971 12.7386L1.56543 11.2605H4.0799L4.85694 8.86914Z" fill="#F0F0F0"/>
</g>
<defs>
<clipPath id="clip0_19978_7761">
<rect width="24" height="24" fill="white"/>
</clipPath>
</defs>
</svg>
