<svg width="24" height="24" viewBox="0 0 24 24" fill="none" xmlns="http://www.w3.org/2000/svg">
<g clip-path="url(#clip0_19978_7693)">
<path d="M12 24C18.6274 24 24 18.6274 24 12C24 5.37258 18.6274 0 12 0C5.37258 0 0 5.37258 0 12C0 18.6274 5.37258 24 12 24Z" fill="#F0F0F0"/>
<path d="M7.30437 7.82611H23.2536C21.5581 3.2565 17.1596 0 12 0C8.68625 0 5.68657 1.34339 3.51514 3.51511L7.30437 7.82611Z" fill="black"/>
<path d="M7.30437 16.1738H23.2536C21.5581 20.7434 17.1596 23.9999 12 23.9999C8.68625 23.9999 5.68657 22.6566 3.51514 20.4848L7.30437 16.1738Z" fill="#6DA544"/>
<path d="M3.51459 3.51562C-1.17169 8.20191 -1.17169 15.7999 3.51459 20.4862C5.45114 18.5497 7.31362 16.6872 11.9999 12.0009L3.51459 3.51562Z" fill="#D80027"/>
</g>
<defs>
<clipPath id="clip0_19978_7693">
<rect width="24" height="24" fill="white"/>
</clipPath>
</defs>
</svg>
