<svg width="24" height="24" viewBox="0 0 24 24" fill="none" xmlns="http://www.w3.org/2000/svg">
<g clip-path="url(#clip0_19978_7754)">
<path d="M-0.000366211 12.0017C-0.000366211 17.1612 3.25613 21.5597 7.82565 23.2552L8.86918 12.0016L7.82565 0.748047C3.25613 2.44361 -0.000366211 6.84208 -0.000366211 12.0017Z" fill="#6DA544"/>
<path d="M24.0002 12C24.0002 5.37262 18.6275 0 12.0002 0C10.5323 0 9.1262 0.264047 7.82617 0.746391V23.2536C9.1262 23.736 10.5323 24 12.0002 24C18.6275 24 24.0002 18.6274 24.0002 12Z" fill="#D80027"/>
<path d="M7.82623 16.174C10.1314 16.174 12.0001 14.3052 12.0001 12.0001C12.0001 9.69489 10.1314 7.82617 7.82623 7.82617C5.52106 7.82617 3.65234 9.69489 3.65234 12.0001C3.65234 14.3052 5.52106 16.174 7.82623 16.174Z" fill="#FFDA44"/>
<path d="M5.47778 9.91211V12.5208C5.47778 13.8175 6.52891 14.8686 7.82561 14.8686C9.12232 14.8686 10.1734 13.8175 10.1734 12.5208V9.91211H5.47778Z" fill="#D80027"/>
<path d="M7.82633 13.3046C7.39479 13.3046 7.0437 12.9535 7.0437 12.522V11.4785H8.6089V12.522C8.6089 12.9535 8.25781 13.3046 7.82633 13.3046Z" fill="#F0F0F0"/>
</g>
<defs>
<clipPath id="clip0_19978_7754">
<rect width="24" height="24" fill="white"/>
</clipPath>
</defs>
</svg>
