<svg width="24" height="24" viewBox="0 0 24 24" fill="none" xmlns="http://www.w3.org/2000/svg">
<g clip-path="url(#clip0_19978_7717)">
<path d="M12 24C18.6274 24 24 18.6274 24 12C24 5.37258 18.6274 0 12 0C5.37258 0 0 5.37258 0 12C0 18.6274 5.37258 24 12 24Z" fill="#F0F0F0"/>
<path d="M12.0002 0C7.24267 0 3.13192 2.76867 1.19092 6.78262H22.8094C20.8685 2.76867 16.7577 0 12.0002 0Z" fill="#D80027"/>
<path d="M12.0002 24.0014C16.7577 24.0014 20.8685 21.2327 22.8095 17.2188H1.19092C3.13192 21.2327 7.24267 24.0014 12.0002 24.0014Z" fill="#0052B4"/>
<path d="M14.9512 8.52734L13.8444 9.63411C14.3165 10.1062 14.6085 10.7584 14.6085 11.4787C14.6085 12.9195 13.4405 14.0874 11.9998 14.0874C10.5591 14.0874 9.39113 12.9194 9.39113 11.4787C9.39113 10.7584 9.68316 10.1062 10.1552 9.63411L9.04848 8.52734C8.29308 9.28259 7.82593 10.3261 7.82593 11.4787C7.82593 13.784 9.69465 15.6526 11.9998 15.6526C14.305 15.6526 16.1737 13.7839 16.1737 11.4787C16.1737 10.3261 15.7065 9.28259 14.9512 8.52734Z" fill="#6DA544"/>
<path d="M12 9.91211L12.3886 11.1079H13.6458L12.6287 11.8468L13.0172 13.0426L12 12.3036L10.9828 13.0426L11.3714 11.8468L10.3542 11.1079H11.6115L12 9.91211Z" fill="#FFDA44"/>
</g>
<defs>
<clipPath id="clip0_19978_7717">
<rect width="24" height="24" fill="white"/>
</clipPath>
</defs>
</svg>
