<svg width="24" height="24" viewBox="0 0 24 24" fill="none" xmlns="http://www.w3.org/2000/svg">
<g clip-path="url(#clip0_19978_7770)">
<path d="M12 24C18.6274 24 24 18.6274 24 12C24 5.37258 18.6274 0 12 0C5.37258 0 0 5.37258 0 12C0 18.6274 5.37258 24 12 24Z" fill="#F0F0F0"/>
<path d="M23.9999 12C23.9999 5.37262 18.6273 0 11.9999 0C9.6524 0 7.46268 0.674766 5.61309 1.83989L8.24338 2.95744L4.69556 4.46484L8.24338 5.9722L4.69556 7.47952L8.24338 8.98678L4.69556 10.4939L8.24338 12.0008L4.69556 13.5082L8.24338 15.0154L4.69556 16.5225L8.24338 18.0297L4.69556 19.537L8.24338 21.0441L5.61426 22.161C7.46362 23.3256 9.65287 24 11.9999 24C18.6273 24 23.9999 18.6274 23.9999 12Z" fill="#751A46"/>
</g>
<defs>
<clipPath id="clip0_19978_7770">
<rect width="24" height="24" fill="white"/>
</clipPath>
</defs>
</svg>
