<svg width="24" height="24" viewBox="0 0 24 24" fill="none" xmlns="http://www.w3.org/2000/svg">
<g clip-path="url(#clip0_19978_7797)">
<path d="M16.1742 0.746344C14.8742 0.264047 13.4682 6.23894e-09 12.0003 6.23894e-09C10.5325 -4.68688e-05 9.12643 0.264047 7.82644 0.746344L6.78296 12L7.82644 23.2536C9.12638 23.736 10.5324 24 12.0003 24C13.4681 24 14.8742 23.736 16.1742 23.2536L17.2177 12L16.1742 0.746344Z" fill="#FFDA44"/>
<path d="M23.9997 11.9997C23.9997 6.84017 20.7432 2.44156 16.1736 0.746094V23.2534C20.7432 21.5578 23.9996 17.1593 23.9997 11.9997Z" fill="#D80027"/>
<path d="M0.00012207 11.9996C0.00012207 17.1593 3.25662 21.5577 7.82614 23.2533L7.82619 0.746094C3.25662 2.44156 0.00012207 6.84003 0.00012207 11.9996Z" fill="#0052B4"/>
</g>
<defs>
<clipPath id="clip0_19978_7797">
<rect width="24" height="24" fill="white"/>
</clipPath>
</defs>
</svg>
