<svg width="24" height="24" viewBox="0 0 24 24" fill="none" xmlns="http://www.w3.org/2000/svg">
<g clip-path="url(#clip0_19978_7802)">
<path d="M12 24C18.6274 24 24 18.6274 24 12C24 5.37258 18.6274 0 12 0C5.37258 0 0 5.37258 0 12C0 18.6274 5.37258 24 12 24Z" fill="#F0F0F0"/>
<path d="M23.2539 16.174C23.7362 14.874 24.0002 13.4679 24.0002 12.0001C24.0002 10.5322 23.7362 9.12616 23.2539 7.82617H0.746635C0.264291 9.12616 0.000244141 10.5322 0.000244141 12.0001C0.000244141 13.4679 0.264291 14.874 0.746635 16.174L12.0002 17.2174L23.2539 16.174Z" fill="#0052B4"/>
<path d="M12.0003 23.9999C17.1599 23.9999 21.5584 20.7434 23.2539 16.1738H0.746704C2.44222 20.7434 6.84073 23.9999 12.0003 23.9999Z" fill="#D80027"/>
</g>
<defs>
<clipPath id="clip0_19978_7802">
<rect width="24" height="24" fill="white"/>
</clipPath>
</defs>
</svg>
