<svg width="24" height="24" viewBox="0 0 24 24" fill="none" xmlns="http://www.w3.org/2000/svg">
<g clip-path="url(#clip0_19978_7807)">
<path d="M0.000366211 11.9986C0.000366211 14.0775 0.529257 16.0328 1.45944 17.7377L12.0004 18.7812L22.5413 17.7377C23.4715 16.0328 24.0004 14.0775 24.0004 11.9986L12.0004 10.9551L0.000366211 11.9986Z" fill="#FFDA44"/>
<path d="M22.5409 6.26086C20.5057 2.53073 16.5485 0 12 0C7.45148 0 3.49434 2.53073 1.45908 6.26086C0.528891 7.96575 0 9.92109 0 12H24C24 9.92109 23.4711 7.96575 22.5409 6.26086Z" fill="#338AF3"/>
<path d="M12.0004 23.9991C16.5489 23.9991 20.5061 21.4684 22.5413 17.7383H1.45947C3.49474 21.4684 7.45188 23.9991 12.0004 23.9991Z" fill="#496E2D"/>
<path d="M13.5649 7.02317L15.0305 7.71256L14.2501 9.13194L15.8415 8.82753L16.0432 10.4351L17.1516 9.25273L18.2601 10.4351L18.4617 8.82753L20.0531 9.13184L19.2727 7.71251L20.7382 7.02317L19.2727 6.33387L20.0531 4.9145L18.4617 5.21891L18.26 3.61133L17.1516 4.7937L16.0431 3.61133L15.8415 5.21891L14.2501 4.9145L15.0305 6.33392L13.5649 7.02317Z" fill="#FFDA44"/>
</g>
<defs>
<clipPath id="clip0_19978_7807">
<rect width="24" height="24" fill="white"/>
</clipPath>
</defs>
</svg>
