<svg width="24" height="24" viewBox="0 0 24 24" fill="none" xmlns="http://www.w3.org/2000/svg">
<g clip-path="url(#clip0_19978_7869)">
<path d="M12 24C18.6274 24 24 18.6274 24 12C24 5.37258 18.6274 0 12 0C5.37258 0 0 5.37258 0 12C0 18.6274 5.37258 24 12 24Z" fill="#6DA544"/>
<path d="M6.78296 14.3477C6.78296 15.2121 7.48374 15.9129 8.34816 15.9129H13.0438C13.0438 16.6332 13.6278 17.2172 14.3482 17.2172H15.9134C16.6337 17.2172 17.2177 16.6332 17.2177 15.9129V14.3477H6.78296Z" fill="#F0F0F0"/>
<path d="M17.3474 6.7832V10.4354C17.3474 11.0108 16.8793 11.4789 16.304 11.4789V13.0441C17.7424 13.0441 18.9126 11.8738 18.9126 10.4354V6.7832H17.3474Z" fill="#F0F0F0"/>
<path d="M6.1304 10.4354C6.1304 11.0108 5.6623 11.4789 5.08691 11.4789V13.0441C6.52537 13.0441 7.6956 11.8738 7.6956 10.4354V6.7832H6.1304V10.4354Z" fill="#F0F0F0"/>
<path d="M16.5654 6.7832H15.0002V10.4354H16.5654V6.7832Z" fill="#F0F0F0"/>
<path d="M12.6522 8.87017C12.6522 9.01403 12.5351 9.13103 12.3913 9.13103C12.2475 9.13103 12.1304 9.01398 12.1304 8.87017V6.7832H10.5652V8.87017C10.5652 9.01403 10.4482 9.13103 10.3044 9.13103C10.1606 9.13103 10.0435 9.01398 10.0435 8.87017V6.7832H8.47827V8.87017C8.47827 9.87709 9.29746 10.6963 10.3044 10.6963C10.6922 10.6963 11.0518 10.5744 11.3479 10.3674C11.6439 10.5744 12.0036 10.6963 12.3914 10.6963C12.4695 10.6963 12.5462 10.6908 12.6217 10.6812C12.5108 11.1382 12.0993 11.4789 11.6087 11.4789V13.0441C13.0472 13.0441 14.2174 11.8738 14.2174 10.4354V8.87017V6.7832H12.6522V8.87017H12.6522Z" fill="#F0F0F0"/>
<path d="M10.8261 11.4785H8.47827V13.0437H10.8261V11.4785Z" fill="#F0F0F0"/>
</g>
<defs>
<clipPath id="clip0_19978_7869">
<rect width="24" height="24" fill="white"/>
</clipPath>
</defs>
</svg>
