<svg width="24" height="24" viewBox="0 0 24 24" fill="none" xmlns="http://www.w3.org/2000/svg">
<g clip-path="url(#clip0_19978_7962)">
<path d="M20.4861 20.4854C24.9866 15.9849 25.1643 8.79963 21.0211 4.08594L12.0005 11.9997L4.08667 21.0203C8.80036 25.1636 15.9855 24.9859 20.4861 20.4854Z" fill="#496E2D"/>
<path d="M3.51487 3.5144C8.01537 -0.986107 15.2006 -1.16381 19.9143 2.97942L12.0004 12.0001L2.97993 19.9138C-1.16334 15.2001 -0.985595 8.01491 3.51487 3.5144Z" fill="#0052B4"/>
<path d="M19.9139 2.98047L2.97949 19.9149C3.15068 20.1096 3.32843 20.3007 3.51448 20.4867C3.70048 20.6727 3.89158 20.8504 4.0864 21.0217L21.0207 4.08728C20.8495 3.89247 20.6717 3.7014 20.4856 3.51536C20.2997 3.32945 20.1086 3.15166 19.9139 2.98047Z" fill="#FFDA44"/>
<path d="M5.05692 4.17383L5.316 4.97103H6.15417L5.47607 5.46364L5.73506 6.26084L5.05692 5.76814L4.37878 6.26084L4.63786 5.46364L3.95972 4.97103H4.79793L5.05692 4.17383Z" fill="#F0F0F0"/>
<path d="M9.33768 4.17383L9.59676 4.97103H10.4349L9.75679 5.46364L10.0158 6.26084L9.33768 5.76814L8.65954 6.26084L8.91862 5.46364L8.24048 4.97103H9.07865L9.33768 4.17383Z" fill="#F0F0F0"/>
<path d="M5.05643 8.34766L5.31551 9.14486H6.15368L5.47559 9.63751L5.73457 10.4347L5.05643 9.94201L4.37829 10.4347L4.63737 9.63751L3.95923 9.14486H4.79745L5.05643 8.34766Z" fill="#F0F0F0"/>
<path d="M9.33768 8.34766L9.59676 9.14486H10.4349L9.75679 9.63751L10.0158 10.4347L9.33768 9.94201L8.65954 10.4347L8.91862 9.63751L8.24048 9.14486H9.07865L9.33768 8.34766Z" fill="#F0F0F0"/>
<path d="M7.1971 6.26172L7.45618 7.05892H8.2943L7.61621 7.55157L7.87524 8.34877L7.1971 7.85607L6.51896 8.34877L6.77799 7.55157L6.09985 7.05892H6.93807L7.1971 6.26172Z" fill="#F0F0F0"/>
</g>
<defs>
<clipPath id="clip0_19978_7962">
<rect width="24" height="24" fill="white"/>
</clipPath>
</defs>
</svg>
