<svg width="24" height="24" viewBox="0 0 24 24" fill="none" xmlns="http://www.w3.org/2000/svg">
<g clip-path="url(#clip0_19978_7897)">
<path d="M12 24C18.6274 24 24 18.6274 24 12C24 5.37258 18.6274 0 12 0C5.37258 0 0 5.37258 0 12C0 18.6274 5.37258 24 12 24Z" fill="#F0F0F0"/>
<path d="M20.1001 3.14705C17.9654 1.19273 15.1219 0 11.9997 0C11.4885 0 10.9849 0.0322031 10.4905 0.0942187L4.69532 6.78263L0.379395 15.0061C0.658207 16.0871 1.08449 17.1087 1.63447 18.0491L11.9997 12L20.1001 3.14705Z" fill="#FFDA44"/>
<path d="M21.9905 18.6484L5.20142 21.8884C7.13403 23.2197 9.47581 23.9998 12 23.9998C16.1682 23.9998 19.8394 21.8743 21.9905 18.6484Z" fill="#6DA544"/>
<path d="M20.1023 3.14844L1.64185 18.0605C2.12471 18.884 2.70281 19.6449 3.36127 20.3278L24.0002 11.9998C24.0002 8.49547 22.4978 5.34228 20.1023 3.14844Z" fill="#D80027"/>
<path d="M-0.000488281 11.9995C-0.000488281 13.0377 0.131418 14.045 0.379246 15.0057L10.4904 0.09375C4.57536 0.835969 -0.000488281 5.88328 -0.000488281 11.9995Z" fill="#0052B4"/>
</g>
<defs>
<clipPath id="clip0_19978_7897">
<rect width="24" height="24" fill="white"/>
</clipPath>
</defs>
</svg>
