<svg width="24" height="24" viewBox="0 0 24 24" fill="none" xmlns="http://www.w3.org/2000/svg">
<g clip-path="url(#clip0_19978_7909)">
<path d="M12 24C18.6274 24 24 18.6274 24 12C24 5.37258 18.6274 0 12 0C5.37258 0 0 5.37258 0 12C0 18.6274 5.37258 24 12 24Z" fill="#F0F0F0"/>
<path d="M0 12C0 5.37262 5.37262 0 12 0C18.6274 0 24 5.37262 24 12" fill="#D80027"/>
<path d="M7.30402 6.2615C7.30402 4.51316 8.53275 3.05263 10.1736 2.69427C9.92138 2.63923 9.65977 2.60938 9.39094 2.60938C7.37386 2.60938 5.73877 4.24447 5.73877 6.26155C5.73877 8.27863 7.37386 9.91372 9.39094 9.91372C9.65967 9.91372 9.92133 9.88386 10.1736 9.82878C8.53275 9.47042 7.30402 8.00989 7.30402 6.2615Z" fill="#F0F0F0"/>
<path d="M11.9997 2.87109L12.2588 3.6682H13.097L12.4188 4.16091L12.6778 4.95802L11.9997 4.46541L11.3217 4.95802L11.5807 4.16091L10.9026 3.6682H11.7407L11.9997 2.87109Z" fill="#F0F0F0"/>
<path d="M9.96663 4.43555L10.2256 5.2327H11.0638L10.3857 5.72536L10.6447 6.52247L9.96663 6.02986L9.28845 6.52247L9.54752 5.72536L8.86938 5.2327H9.70756L9.96663 4.43555Z" fill="#F0F0F0"/>
<path d="M14.033 4.43555L14.292 5.2327H15.1302L14.452 5.72536L14.7111 6.52247L14.033 6.02986L13.3549 6.52247L13.6139 5.72536L12.9358 5.2327H13.7739L14.033 4.43555Z" fill="#F0F0F0"/>
<path d="M13.2507 6.7832L13.5097 7.58036H14.3479L13.6698 8.07302L13.9288 8.87012L13.2507 8.37752L12.5726 8.87012L12.8317 8.07302L12.1536 7.58036H12.9916L13.2507 6.7832Z" fill="#F0F0F0"/>
<path d="M10.7491 6.7832L11.008 7.58036H11.8463L11.1681 8.07302L11.4272 8.87012L10.7491 8.37752L10.0709 8.87012L10.3299 8.07302L9.65186 7.58036H10.49L10.7491 6.7832Z" fill="#F0F0F0"/>
</g>
<defs>
<clipPath id="clip0_19978_7909">
<rect width="24" height="24" fill="white"/>
</clipPath>
</defs>
</svg>
