<svg width="24" height="24" viewBox="0 0 24 24" fill="none" xmlns="http://www.w3.org/2000/svg">
<g clip-path="url(#clip0_19978_7947)">
<path d="M12 24C18.6274 24 24 18.6274 24 12C24 5.37258 18.6274 0 12 0C5.37258 0 0 5.37258 0 12C0 18.6274 5.37258 24 12 24Z" fill="#F0F0F0"/>
<path d="M12 24.0001C18.6274 24.0001 24 18.6274 24 12.0001C24 10.5322 23.736 9.12611 23.2536 7.82617H0.746391C0.264047 9.12611 0 10.5322 0 12.0001C0 18.6274 5.37262 24.0001 12 24.0001Z" fill="#0052B4"/>
<path d="M12.0002 23.9999C17.1598 23.9999 21.5583 20.7434 23.2538 16.1738H0.746582C2.4421 20.7434 6.84061 23.9999 12.0002 23.9999Z" fill="#D80027"/>
<path d="M3.10278 6.78125V12.7675C3.10278 16.1727 7.55127 17.216 7.55127 17.216C7.55127 17.216 11.9997 16.1727 11.9997 12.7675V6.78125H3.10278Z" fill="#F0F0F0"/>
<path d="M4.14648 6.78125V12.7675C4.14648 13.1672 4.23527 13.5448 4.41114 13.8987C6.15648 13.8987 8.76517 13.8987 10.6918 13.8987C10.8677 13.5448 10.9564 13.1672 10.9564 12.7675V6.78125H4.14648Z" fill="#D80027"/>
<path d="M9.63849 10.9566H8.07334V9.91309H9.11682V8.86961H8.07334V7.82617H7.02985V8.86961H5.98641V9.91309H7.02985V10.9566H5.4646V12.0001H7.02985V13.0435H8.07334V12.0001H9.63849V10.9566Z" fill="#F0F0F0"/>
<path d="M5.8344 15.3564C6.50682 15.779 7.19766 16.0244 7.55134 16.1335C7.90501 16.0244 8.59585 15.779 9.26827 15.3564C9.94637 14.9303 10.4217 14.4428 10.6916 13.8998C10.3939 13.6892 10.0307 13.565 9.63831 13.565C9.49543 13.565 9.35663 13.5819 9.22318 13.613C8.94038 12.9704 8.29843 12.5215 7.55138 12.5215C6.80434 12.5215 6.16234 12.9704 5.87959 13.613C5.74613 13.5819 5.60729 13.565 5.46446 13.565C5.07207 13.565 4.70884 13.6892 4.41113 13.8998C4.6809 14.4428 5.15626 14.9302 5.8344 15.3564Z" fill="#0052B4"/>
</g>
<defs>
<clipPath id="clip0_19978_7947">
<rect width="24" height="24" fill="white"/>
</clipPath>
</defs>
</svg>
