<svg width="24" height="24" viewBox="0 0 24 24" fill="none" xmlns="http://www.w3.org/2000/svg">
<g clip-path="url(#clip0_19978_7904)">
<path d="M23.2534 16.1745C23.7358 14.8745 23.9998 13.4684 23.9998 12.0006C23.9998 10.5327 23.7358 9.12667 23.2534 7.82669L11.9998 6.7832L0.746147 7.82669C0.263756 9.12667 -0.000244141 10.5327 -0.000244141 12.0006C-0.000244141 13.4684 0.263756 14.8745 0.746147 16.1745L11.9998 17.2179L23.2534 16.1745Z" fill="#F0F0F0"/>
<path d="M11.9997 23.9999C17.1593 23.9999 21.5578 20.7434 23.2533 16.1738H0.746094C2.44166 20.7434 6.84012 23.9999 11.9997 23.9999Z" fill="#338AF3"/>
<path d="M12 0C6.84037 0 2.4419 3.2565 0.746338 7.82611H23.2536C21.5581 3.2565 17.1595 0 12 0Z" fill="#6DA544"/>
</g>
<defs>
<clipPath id="clip0_19978_7904">
<rect width="24" height="24" fill="white"/>
</clipPath>
</defs>
</svg>
