<svg width="24" height="24" viewBox="0 0 24 24" fill="none" xmlns="http://www.w3.org/2000/svg">
<g clip-path="url(#clip0_19978_7851)">
<path d="M24 11.9988C24 18.6262 18.6274 23.9988 12 23.9988C5.37262 23.9988 0 18.6262 0 11.9988C0.521719 11.9988 12 10.4336 12 10.4336L24 11.9988Z" fill="#338AF3"/>
<path d="M0 12C0 5.37262 5.37262 0 12 0C18.6274 0 24 5.37262 24 12" fill="#F0F0F0"/>
<path d="M16.7633 8.28125L12.0001 13.0445L7.23683 8.28125C6.62085 9.19564 6.26099 10.2962 6.26099 11.4793V13.0445C6.26099 15.5578 7.88497 17.6987 10.1386 18.4736C9.83778 19.0631 9.8885 19.7988 10.3293 20.3489C10.9146 19.8797 11.5207 19.394 12.0348 18.9821C12.5489 19.3941 13.155 19.8797 13.7404 20.3489C14.1863 19.7924 14.2333 19.0456 13.9207 18.4527C16.1435 17.6609 17.7392 15.5357 17.7392 13.0445V11.4793C17.7392 10.2962 17.3793 9.19569 16.7633 8.28125Z" fill="#6DA544"/>
<path d="M11.9996 17.2177C9.69806 17.2177 7.82568 15.3453 7.82568 13.0438V11.4786C7.82568 9.17706 9.69811 7.30469 11.9996 7.30469C14.301 7.30469 16.1735 9.17711 16.1735 11.4786V13.0438C16.1735 15.3453 14.3011 17.2177 11.9996 17.2177Z" fill="#FFDA44"/>
<path d="M14.609 13.043V11.4778C14.609 10.0394 13.4387 8.86914 12.0003 8.86914C10.5619 8.86914 9.3916 10.0394 9.3916 11.4778V13.043L12.0003 13.5647L14.609 13.043Z" fill="#338AF3"/>
<path d="M9.3916 13.043C9.3916 14.4814 10.5619 15.6517 12.0003 15.6517C13.4387 15.6517 14.609 14.4814 14.609 13.043H9.3916Z" fill="#6DA544"/>
<path d="M15.1305 7.30452C15.1305 6.44009 14.4297 5.73931 13.5653 5.73931C13.1643 5.73931 12.7988 5.89025 12.5218 6.13817V5.21755H13.0435V4.17406H12.5218V3.65234H11.4783V4.17406H10.9566V5.21755H11.4783V6.13817C11.2013 5.89025 10.8358 5.73931 10.4348 5.73931C9.57041 5.73931 8.86963 6.44009 8.86963 7.30452C8.86963 7.76797 9.07124 8.18422 9.39135 8.47086V9.39149H14.6087V8.47086C14.9289 8.18422 15.1305 7.76797 15.1305 7.30452Z" fill="#FFDA44"/>
</g>
<defs>
<clipPath id="clip0_19978_7851">
<rect width="24" height="24" fill="white"/>
</clipPath>
</defs>
</svg>
