<svg width="24" height="24" viewBox="0 0 24 24" fill="none" xmlns="http://www.w3.org/2000/svg">
<g clip-path="url(#clip0_19978_8061)">
<path d="M12 24C18.6274 24 24 18.6274 24 12C24 5.37258 18.6274 0 12 0C5.37258 0 0 5.37258 0 12C0 18.6274 5.37258 24 12 24Z" fill="#F0F0F0"/>
<path d="M23.2531 7.82617H0.745855C0.263559 9.1262 -0.000488281 10.5322 -0.000488281 12.0001C-0.000488281 13.4679 0.263559 14.874 0.745855 16.174H23.2531C23.7355 14.874 23.9995 13.4679 23.9995 12.0001C23.9995 10.5322 23.7355 9.1262 23.2531 7.82617Z" fill="#A2001D"/>
<path d="M12.0345 24.0006C16.1446 24.0006 19.7716 21.9338 21.9343 18.7832H2.13477C4.29748 21.9338 7.92439 24.0006 12.0345 24.0006Z" fill="#6DA544"/>
<path d="M12.0343 0C16.1444 0 19.7714 2.06681 21.9341 5.21738H2.13452C4.29724 2.06681 7.92415 0 12.0343 0Z" fill="#6DA544"/>
<path d="M11.9996 7.82617L13.0355 11.0146H16.3883L13.6759 12.9854L14.712 16.174L11.9996 14.2034L9.28714 16.174L10.3233 12.9854L7.61084 11.0146H10.9636L11.9996 7.82617Z" fill="#FFDA44"/>
</g>
<defs>
<clipPath id="clip0_19978_8061">
<rect width="24" height="24" fill="white"/>
</clipPath>
</defs>
</svg>
