<svg width="24" height="24" viewBox="0 0 24 24" fill="none" xmlns="http://www.w3.org/2000/svg">
<g clip-path="url(#clip0_19978_8008)">
<path d="M12 24C18.6274 24 24 18.6274 24 12C24 5.37258 18.6274 0 12 0C5.37258 0 0 5.37258 0 12C0 18.6274 5.37258 24 12 24Z" fill="#F0F0F0"/>
<path d="M23.0636 7.3478C21.2463 3.03103 16.9773 0 11.9998 0C8.686 0 5.68633 1.34339 3.51489 3.51511L6.52005 7.3478H23.0636Z" fill="black"/>
<path d="M6.55413 16.6074L3.51489 20.4836C5.68633 22.6553 8.686 23.9987 11.9998 23.9987C16.9941 23.9987 21.2753 20.9474 23.0822 16.6074H6.55413Z" fill="#496E2D"/>
<path d="M2.60889 8.82617V15.1305H23.5868C23.856 14.1325 24.0002 13.0832 24.0002 12.0001C24.0002 10.9012 23.8522 9.83717 23.5754 8.82617H2.60889Z" fill="#A2001D"/>
<path d="M3.51447 3.51367C-1.17182 8.19995 -1.17182 15.798 3.51447 20.4843C5.45102 18.5478 7.3135 16.6853 11.9998 11.999L3.51447 3.51367Z" fill="#0052B4"/>
<path d="M3.9084 9.01562L5.37301 11.0594L7.76964 10.2979L6.2785 12.3226L7.74311 14.3665L5.3568 13.574L3.86561 15.5986L3.88201 13.0841L1.49561 12.2915L3.89204 11.53L3.9084 9.01562Z" fill="#FFDA44"/>
</g>
<defs>
<clipPath id="clip0_19978_8008">
<rect width="24" height="24" fill="white"/>
</clipPath>
</defs>
</svg>
