<svg width="24" height="24" viewBox="0 0 24 24" fill="none" xmlns="http://www.w3.org/2000/svg">
<g clip-path="url(#clip0_19978_7936)">
<path d="M10.9565 13.0435C10.9565 13.0435 3.52168 3.51305 3.51465 3.51474C5.68618 1.34316 8.68623 0 12 0C18.6273 0 24 5.37263 24 12L10.9565 13.0435Z" fill="#D80027"/>
<path d="M10.9565 12C10.9565 12 3.52168 20.4869 3.51465 20.4853C5.68618 22.6568 8.68623 24 12 24C18.6273 24 24 18.6274 24 12H10.9565Z" fill="#0052B4"/>
<path d="M3.51471 3.51367C-1.17157 8.19995 -1.17157 15.798 3.51471 20.4843C5.45126 18.5478 7.31375 16.6853 12 11.999L3.51471 3.51367Z" fill="#F0F0F0"/>
<path d="M1.3157 12C1.30914 12.0862 1.30469 12.173 1.30469 12.2608C1.30469 14.1337 2.82306 15.6521 4.696 15.6521C6.56894 15.6521 8.08731 14.1337 8.08731 12.2608C8.08731 12.173 8.08286 12.0861 8.0763 12H1.3157Z" fill="#FFDA44"/>
<path d="M4.69558 10.4346C5.27188 10.4346 5.73907 9.96744 5.73907 9.39114C5.73907 8.81484 5.27188 8.34766 4.69558 8.34766C4.11928 8.34766 3.6521 8.81484 3.6521 9.39114C3.6521 9.96744 4.11928 10.4346 4.69558 10.4346Z" fill="#FFDA44"/>
<path d="M2.34741 9.13086V12.5222C2.34741 14.3193 4.69524 14.87 4.69524 14.87C4.69524 14.87 7.04307 14.3193 7.04307 12.5222V9.13086H2.34741Z" fill="#D80027"/>
<path d="M4.69687 13.7774C4.26131 13.6207 3.39136 13.2201 3.39136 12.5217V10.1738H6.00009V12.5217C6.00009 13.2224 5.13023 13.622 4.69687 13.7774Z" fill="#338AF3"/>
<path d="M5.21768 11.4779V10.9562L4.69596 10.6953L4.17419 10.9562V11.4779L3.91333 11.7388V12.7823H5.47858V11.7388L5.21768 11.4779Z" fill="#F3F3F3"/>
</g>
<defs>
<clipPath id="clip0_19978_7936">
<rect width="24" height="24" fill="white"/>
</clipPath>
</defs>
</svg>
