<svg width="24" height="24" viewBox="0 0 24 24" fill="none" xmlns="http://www.w3.org/2000/svg">
<g clip-path="url(#clip0_19978_8097)">
<path d="M12 24C18.6274 24 24 18.6274 24 12C24 5.37258 18.6274 0 12 0C5.37258 0 0 5.37258 0 12C0 18.6274 5.37258 24 12 24Z" fill="#F0F0F0"/>
<path d="M11.9997 0C6.84013 0 2.44161 3.2565 0.746094 7.82611H23.2534C21.5578 3.2565 17.1593 0 11.9997 0Z" fill="#D80027"/>
<path d="M11.9999 23.9999C17.1595 23.9999 21.558 20.7434 23.2536 16.1738H0.746338C2.44185 20.7434 6.84037 23.9999 11.9999 23.9999Z" fill="black"/>
<path d="M7.17018 9.13086L7.81767 11.1236H9.91312L8.21788 12.3554L8.86542 14.3482L7.17018 13.1166L5.47495 14.3482L6.12248 12.3554L4.42725 11.1236H6.5227L7.17018 9.13086Z" fill="#6DA544"/>
<path d="M16.8301 9.13086L17.4776 11.1236H19.5731L17.8778 12.3554L18.5253 14.3482L16.8301 13.1166L15.1349 14.3482L15.7824 12.3554L14.0872 11.1236H16.1826L16.8301 9.13086Z" fill="#6DA544"/>
</g>
<defs>
<clipPath id="clip0_19978_8097">
<rect width="24" height="24" fill="white"/>
</clipPath>
</defs>
</svg>
