<svg width="24" height="24" viewBox="0 0 24 24" fill="none" xmlns="http://www.w3.org/2000/svg">
<g clip-path="url(#clip0_19978_8069)">
<path d="M22.809 17.2163C23.5719 15.6387 23.9998 13.8688 23.9998 11.9989C23.9998 10.1291 23.5719 8.35911 22.809 6.78153L11.9998 6.25977L1.19047 6.78149C0.427631 8.35911 -0.000244141 10.1291 -0.000244141 11.9989C-0.000244141 13.8688 0.427631 15.6387 1.19047 17.2163L11.9998 17.7381L22.809 17.2163Z" fill="#FFDA44"/>
<path d="M12 0C7.24242 0 3.13167 2.76867 1.19067 6.78262H22.8092C20.8682 2.76867 16.7574 0 12 0Z" fill="black"/>
<path d="M12 23.9994C7.24242 23.9994 3.13167 21.2307 1.19067 17.2168H22.8092C20.8682 21.2307 16.7574 23.9994 12 23.9994Z" fill="#0052B4"/>
<path d="M23.4331 8.34766H0.566428C0.198834 9.49933 -0.000244141 10.7263 -0.000244141 11.9998C-0.000244141 13.2734 0.198834 14.5003 0.566428 15.652H23.433C23.8007 14.5003 23.9998 13.2734 23.9998 11.9998C23.9998 10.7263 23.8007 9.49933 23.4331 8.34766Z" fill="#A2001D"/>
<path d="M19.826 11.4785H4.17383V12.522H19.826V11.4785Z" fill="#FFDA44"/>
<path d="M17.739 9.39062H6.26074V10.4341H17.739V9.39062Z" fill="#FFDA44"/>
<path d="M17.8135 11.9996C17.8135 11.9996 15.1302 15.13 11.9998 15.13C8.86943 15.13 8.86938 11.9996 8.86938 11.9996C8.86938 11.9996 8.86939 8.86914 11.9998 8.86914C15.1303 8.86914 17.8135 11.9996 17.8135 11.9996Z" fill="#F0F0F0"/>
<path d="M11.9995 15.13C8.86901 15.13 6.18579 11.9996 6.18579 11.9996C6.18579 11.9996 8.86901 8.86914 11.9995 8.86914" fill="black"/>
<path d="M10.9568 10.957H9.91333V13.044H10.9568V10.957Z" fill="#F0F0F0"/>
<path d="M14.0867 10.957H13.0432V13.044H14.0867V10.957Z" fill="black"/>
<path d="M4.17386 13.044C4.75016 13.044 5.21734 12.5768 5.21734 12.0005C5.21734 11.4242 4.75016 10.957 4.17386 10.957C3.59756 10.957 3.13037 11.4242 3.13037 12.0005C3.13037 12.5768 3.59756 13.044 4.17386 13.044Z" fill="#0052B4"/>
<path d="M19.8264 13.044C20.4027 13.044 20.8699 12.5768 20.8699 12.0005C20.8699 11.4242 20.4027 10.957 19.8264 10.957C19.2501 10.957 18.783 11.4242 18.783 12.0005C18.783 12.5768 19.2501 13.044 19.8264 13.044Z" fill="#0052B4"/>
</g>
<defs>
<clipPath id="clip0_19978_8069">
<rect width="24" height="24" fill="white"/>
</clipPath>
</defs>
</svg>
