<svg width="24" height="24" viewBox="0 0 24 24" fill="none" xmlns="http://www.w3.org/2000/svg">
<g clip-path="url(#clip0_19978_8212)">
<path d="M24 12C24 18.6274 18.6274 24 12 24C5.37262 24 0 18.6274 0 12C0 12.0029 12 0.0013125 12 0C18.6274 0 24 5.37262 24 12Z" fill="#0052B4"/>
<path d="M11.9683 11.999H12.0004C12.0004 11.9882 12.0004 11.9776 12.0004 11.9668C11.9897 11.9776 11.979 11.9883 11.9683 11.999Z" fill="#F0F0F0"/>
<path d="M12.0005 6.26086C12.0005 4.14937 12.0005 2.76586 12.0005 0H11.9985C5.37194 0.001125 0.000488281 5.37323 0.000488281 12H6.26135V8.47448L9.78686 12H11.9684C11.9791 11.9893 11.9898 11.9786 12.0005 11.9679C12.0005 11.1594 12.0005 10.4381 12.0005 9.78647L8.47493 6.26086H12.0005Z" fill="#F0F0F0"/>
<path d="M6.07124 1.56445C4.19441 2.63316 2.63409 4.19344 1.56543 6.07027V11.9993H4.69588V4.695V4.69491H12.0002C12.0002 3.70758 12.0002 2.76698 12.0002 1.56445H6.07124Z" fill="#D80027"/>
<path d="M12.0006 10.5232L7.7371 6.25977H6.26147V6.25986L12.0005 11.9989H12.0006C12.0006 11.9989 12.0006 10.9813 12.0006 10.5232Z" fill="#D80027"/>
<path d="M13.5649 6.25977V11.9989C13.5649 14.7945 17.2171 15.6511 17.2171 15.6511C17.2171 15.6511 20.8693 14.7945 20.8693 11.9989V6.25977H13.5649Z" fill="#FFDA44"/>
<path d="M16.6959 8.34817C16.6959 8.9245 16.2287 10.4351 15.6524 10.4351C15.076 10.4351 14.6089 8.9245 14.6089 8.34817C14.6089 7.77184 15.6524 7.30469 15.6524 7.30469C15.6524 7.30469 16.6959 7.77184 16.6959 8.34817Z" fill="#FF9811"/>
<path d="M19.4642 9.48466C19.6326 9.0738 19.7636 8.47324 19.7636 8.17427C19.7636 7.69398 19.1374 7.30469 19.1374 7.30469C19.1374 7.30469 18.5113 7.69403 18.5113 8.17427C18.5113 8.47324 18.6423 9.0738 18.8107 9.48466L18.4492 10.3008C18.6617 10.3871 18.8939 10.4351 19.1374 10.4351C19.3809 10.4351 19.6131 10.3871 19.8256 10.3008L19.4642 9.48466Z" fill="#A2001D"/>
<path d="M16.435 12.0002C16.435 12.0002 15.9133 13.0437 15.9133 14.0872C15.9133 14.0872 17.4785 14.0872 18.522 14.0872C18.522 13.0437 18.0003 12.0002 18.0003 12.0002L17.2176 11.4785L16.435 12.0002Z" fill="#6DA544"/>
<path d="M18.0006 12.0005V11.7397C18.0006 11.3075 17.6502 10.957 17.2179 10.957C16.7857 10.957 16.4353 11.3074 16.4353 11.7397V12.0005H18.0006Z" fill="#D80027"/>
</g>
<defs>
<clipPath id="clip0_19978_8212">
<rect width="24" height="24" fill="white"/>
</clipPath>
</defs>
</svg>
