<svg width="24" height="24" viewBox="0 0 24 24" fill="none" xmlns="http://www.w3.org/2000/svg">
<g clip-path="url(#clip0_19978_6716)">
<path d="M12.0003 0C10.5325 0 9.12639 0.264047 7.82645 0.746391L7.30469 12L7.82641 23.2536C9.12639 23.736 10.5325 24 12.0003 24C13.4682 24 14.8743 23.736 16.1742 23.2536L16.696 12L16.1743 0.746391C14.8743 0.264047 13.4682 0 12.0003 0Z" fill="#FFDA44"/>
<path d="M24.0004 11.9997C24.0004 6.84013 20.7439 2.44161 16.1743 0.746094V23.2534C20.7439 21.5578 24.0004 17.1593 24.0004 11.9997Z" fill="#D80027"/>
<path d="M7.82611 23.2533V0.746094C3.2565 2.44161 0 6.84012 0 11.9997C0 17.1593 3.2565 21.5578 7.82611 23.2533Z" fill="#0052B4"/>
</g>
<defs>
<clipPath id="clip0_19978_6716">
<rect width="24" height="24" fill="white"/>
</clipPath>
</defs>
</svg>
