<svg width="24" height="24" viewBox="0 0 24 24" fill="none" xmlns="http://www.w3.org/2000/svg">
<g clip-path="url(#clip0_19978_8139)">
<path d="M12 24C18.6274 24 24 18.6274 24 12C24 5.37258 18.6274 0 12 0C5.37258 0 0 5.37258 0 12C0 18.6274 5.37258 24 12 24Z" fill="#FFDA44"/>
<path d="M12 0C11.9913 9.375e-05 11.4783 4.8 11.4783 4.8H21.6005C19.4113 1.88545 15.9259 0 12 0Z" fill="#496E2D"/>
<path d="M12.0002 23.9992C15.926 23.9992 19.4114 22.1138 21.6007 19.1992H2.39966C4.58891 22.1138 8.0743 23.9992 12.0002 23.9992Z" fill="#496E2D"/>
<path d="M23.7597 9.59961H11.4783L12 14.3996H23.7597C23.9172 13.6241 24 12.8216 24 11.9996C24 11.1777 23.9171 10.3751 23.7597 9.59961Z" fill="#496E2D"/>
<path d="M12 14.4C12 11.8957 12 2.81737 12 0C5.37262 0 0 5.37262 0 12C0 12.822 0.082875 13.6245 0.240281 14.4H12Z" fill="#D80027"/>
<path d="M6.62106 5.73828L7.39806 8.12961H9.91267L7.87843 9.60772L8.65534 11.9991L6.62106 10.5212L4.58678 11.9991L5.36382 9.60772L3.32959 8.12961H5.84411L6.62106 5.73828Z" fill="#F0F0F0"/>
</g>
<defs>
<clipPath id="clip0_19978_8139">
<rect width="24" height="24" fill="white"/>
</clipPath>
</defs>
</svg>
