<svg width="24" height="24" viewBox="0 0 24 24" fill="none" xmlns="http://www.w3.org/2000/svg">
<g clip-path="url(#clip0_19978_8132)">
<path d="M12 24C18.6274 24 24 18.6274 24 12C24 5.37258 18.6274 0 12 0C5.37258 0 0 5.37258 0 12C0 18.6274 5.37258 24 12 24Z" fill="#F0F0F0"/>
<path d="M23.2539 7.82617H0.746635C0.264244 9.12616 0.000244141 10.5322 0.000244141 12.0001C0.000244141 13.4679 0.264244 14.874 0.746635 16.174H23.2539C23.7362 14.874 24.0002 13.4679 24.0002 12.0001C24.0002 10.5322 23.7362 9.12616 23.2539 7.82617Z" fill="#0052B4"/>
<path d="M12.0014 0C8.36432 0 5.10543 1.61831 2.90479 4.17389H21.098C18.8974 1.61831 15.6385 0 12.0014 0Z" fill="#D80027"/>
<path d="M21.097 19.8262H2.90381C5.10445 22.3817 8.36334 24 12.0004 24C15.6375 24 18.8964 22.3817 21.097 19.8262Z" fill="#D80027"/>
</g>
<defs>
<clipPath id="clip0_19978_8132">
<rect width="24" height="24" fill="white"/>
</clipPath>
</defs>
</svg>
