<svg width="24" height="24" viewBox="0 0 24 24" fill="none" xmlns="http://www.w3.org/2000/svg">
<g clip-path="url(#clip0_19978_8112)">
<path d="M1.19072 6.78177C0.427875 8.35939 0 10.1293 0 11.9991C0 13.869 0.427875 15.6389 1.19072 17.2165L12 18.26L22.8093 17.2165C23.5721 15.6389 24 13.869 24 11.9991C24 10.1293 23.5721 8.35939 22.8093 6.78177L12 5.73828L1.19072 6.78177Z" fill="#F0F0F0"/>
<path d="M1.19141 17.2168C3.13236 21.2307 7.24278 23.9994 12.0003 23.9994C16.7577 23.9994 20.8682 21.2307 22.8091 17.2168H1.19141Z" fill="#6DA544"/>
<path d="M1.19141 6.78262H22.8091C20.8682 2.76872 16.7577 0 12.0003 0C7.24278 0 3.13236 2.76872 1.19141 6.78262Z" fill="#D80027"/>
<path d="M9.91309 15.1322H14.087V13.3582L13.2522 13.7756L12.0001 12.5234L10.7479 13.7756L9.91309 13.3582V15.1322Z" fill="#FFDA44"/>
<path d="M7.52479 13.043L7.71909 13.6408H8.34768L7.83909 14.0103L8.03339 14.6082L7.52479 14.2387L7.0162 14.6082L7.2105 14.0103L6.7019 13.6408H7.3305L7.52479 13.043Z" fill="#FFDA44"/>
<path d="M8.12709 10.957L8.32139 11.5549H8.94998L8.44139 11.9244L8.63564 12.5222L8.12709 12.1528L7.6185 12.5222L7.81279 11.9244L7.3042 11.5549H7.93279L8.12709 10.957Z" fill="#FFDA44"/>
<path d="M9.84852 9.39258L10.0428 9.99042H10.6714L10.1629 10.3599L10.3571 10.9578L9.84852 10.5883L9.33998 10.9578L9.53423 10.3599L9.02563 9.99042H9.65427L9.84852 9.39258Z" fill="#FFDA44"/>
<path d="M16.475 13.043L16.2807 13.6408H15.6521L16.1607 14.0103L15.9664 14.6082L16.475 14.2387L16.9835 14.6082L16.7893 14.0103L17.2979 13.6408H16.6693L16.475 13.043Z" fill="#FFDA44"/>
<path d="M15.8727 10.957L15.6784 11.5549H15.0498L15.5584 11.9244L15.3641 12.5222L15.8727 12.1528L16.3813 12.5222L16.187 11.9244L16.6956 11.5549H16.067L15.8727 10.957Z" fill="#FFDA44"/>
<path d="M14.1512 9.39258L13.9569 9.99042H13.3284L13.8369 10.3599L13.6426 10.9578L14.1512 10.5883L14.6598 10.9578L14.4655 10.3599L14.9741 9.99042H14.3455L14.1512 9.39258Z" fill="#FFDA44"/>
<path d="M12.0004 8.60938L12.1947 9.20722H12.8233L12.3147 9.57673L12.509 10.1746L12.0004 9.80511L11.4918 10.1746L11.6861 9.57673L11.1775 9.20722H11.8061L12.0004 8.60938Z" fill="#FFDA44"/>
</g>
<defs>
<clipPath id="clip0_19978_8112">
<rect width="24" height="24" fill="white"/>
</clipPath>
</defs>
</svg>
