<svg width="24" height="24" viewBox="0 0 24 24" fill="none" xmlns="http://www.w3.org/2000/svg">
<g clip-path="url(#clip0_19978_6924)">
<path d="M12 24C18.6274 24 24 18.6274 24 12C24 5.37258 18.6274 0 12 0C5.37258 0 0 5.37258 0 12C0 18.6274 5.37258 24 12 24Z" fill="#FFDA44"/>
<path d="M11.9997 0C9.06173 0 6.37082 1.05642 4.28479 2.80941L17.2171 12L4.28479 21.1906C6.37082 22.9436 9.06173 24 11.9997 24C18.6271 24 23.9997 18.6274 23.9997 12C23.9997 5.37262 18.6271 0 11.9997 0Z" fill="#D80027"/>
<path d="M3.51471 3.51562C-1.17157 8.20191 -1.17157 15.7999 3.51471 20.4862C5.45126 18.5497 7.31375 16.6872 12 12.0009L3.51471 3.51562Z" fill="black"/>
<path d="M3.32696 9.25195L5.15321 10.9803L7.3614 9.77733L6.2821 12.0484L8.1084 13.7768L5.61493 13.4521L4.53549 15.7231L4.07391 13.2513L1.58044 12.9265L3.78854 11.7236L3.32696 9.25195Z" fill="#F0F0F0"/>
</g>
<defs>
<clipPath id="clip0_19978_6924">
<rect width="24" height="24" fill="white"/>
</clipPath>
</defs>
</svg>
