<svg width="24" height="24" viewBox="0 0 24 24" fill="none" xmlns="http://www.w3.org/2000/svg">
<g clip-path="url(#clip0_19978_8183)">
<path d="M11.9997 0C11.1038 0 10.231 0.0990469 9.3911 0.285234L8.86938 12L9.3911 23.7147C10.2311 23.9009 11.1038 24 11.9997 24C18.6272 24 23.9997 18.6274 23.9997 12C23.9997 5.37258 18.6272 0 11.9997 0Z" fill="#496E2D"/>
<path d="M3.13016 3.91797C1.1856 6.05059 -0.000244141 8.887 -0.000244141 12.0005C-0.000244141 15.1141 1.18565 17.9505 3.13021 20.0832L3.65193 12.0005L3.13016 3.91797Z" fill="#496E2D"/>
<path d="M17.5514 9.05131C18.1418 7.40572 17.4785 5.61598 16.0551 4.72461C16.3111 4.75794 16.5674 4.81822 16.8204 4.90892C18.7189 5.59011 19.7058 7.6813 19.0247 9.57983C18.3435 11.4785 16.2523 12.4653 14.3537 11.7841C14.1007 11.6934 13.8645 11.5769 13.6458 11.4399C15.3112 11.6568 16.961 10.6969 17.5514 9.05131Z" fill="#F0F0F0"/>
<path d="M14.2771 4.27344L13.7641 4.93634L12.9752 4.65327L13.447 5.34598L12.9341 6.00879L13.7387 5.77414L14.2106 6.46676L14.2359 5.62901L15.0406 5.39431L14.2517 5.11133L14.2771 4.27344Z" fill="#F0F0F0"/>
<path d="M15.6624 6.43359L15.1493 7.09645L14.3604 6.81338L14.8323 7.50609L14.3193 8.16891L15.1239 7.93416L15.5959 8.62692L15.6213 7.78912L16.4259 7.55438L15.637 7.27134L15.6624 6.43359Z" fill="#F0F0F0"/>
<path d="M11.8342 5.05859L11.3212 5.72141L10.5323 5.43842L11.0042 6.13109L10.4912 6.79395L11.2958 6.55925L11.7677 7.25192L11.7931 6.41417L12.5977 6.17947L11.8089 5.89639L11.8342 5.05859Z" fill="#F0F0F0"/>
<path d="M11.7781 7.5332L11.2651 8.19606L10.4762 7.91303L10.9482 8.60575L10.4351 9.26856L11.2398 9.03391L11.7116 9.72653L11.737 8.88878L12.5417 8.65408L11.7527 8.371L11.7781 7.5332Z" fill="#F0F0F0"/>
<path d="M14.1321 8.37891L13.6191 9.04172L12.8302 8.75869L13.3022 9.45141L12.7891 10.1142L13.5938 9.87952L14.0657 10.5722L14.091 9.73439L14.8957 9.49973L14.1067 9.2167L14.1321 8.37891Z" fill="#F0F0F0"/>
<path d="M3.13013 3.91731V20.0825C4.76513 21.8756 6.93684 23.1706 9.39098 23.7146V0.285156C6.9368 0.829188 4.76517 2.12411 3.13013 3.91731Z" fill="#D80027"/>
<path d="M5.51961 6.31822L4.47144 5.53737V4.43314L5.51961 3.65234H7.00203L8.0502 4.43314V5.53737L7.00203 6.31822H5.51961Z" fill="#F0F0F0"/>
<path d="M6.26084 3.65234H5.51961L4.47144 4.43314V4.973H6.26084V3.65234Z" fill="#FF9811"/>
<path d="M6.26099 6.3168H7.00218L8.05035 5.53595V4.97266H6.26099V6.3168Z" fill="#FF9811"/>
<path d="M5.51961 20.3475L4.47144 19.5667V18.4625L5.51961 17.6816H7.00203L8.0502 18.4625V19.5667L7.00203 20.3475H5.51961Z" fill="#F0F0F0"/>
<path d="M6.26084 17.6816H5.51961L4.47144 18.4625V19.0023H6.26084V17.6816Z" fill="#FF9811"/>
<path d="M6.26099 20.348H7.00218L8.05035 19.5672V19.0039H6.26099V20.348Z" fill="#FF9811"/>
<path d="M5.51936 13.3319L4.47119 12.5511V11.4469L5.51936 10.666H7.00178L8.04995 11.4469V12.5511L7.00178 13.3319H5.51936Z" fill="#496E2D"/>
<path d="M8.0867 15.0511H7.63014V14.5946H6.82787L6.26059 14.0273L5.69335 14.5946H4.89109V15.0511H4.43457V15.9642H4.89109V16.4207H5.69331L6.26063 16.988L6.82787 16.4207H7.63014V15.9642H8.0867V15.0511Z" fill="#496E2D"/>
<path d="M8.08694 8.03556H7.63038V7.579H6.82811L6.26083 7.01172L5.6936 7.579H4.89133V8.03556H4.43481V8.94859H4.89133V9.40511H5.69355L6.26088 9.97248L6.82811 9.40511H7.63038V8.94859H8.08694V8.03556Z" fill="#496E2D"/>
<path d="M6.78225 11.4785H5.73877V12.522H6.78225V11.4785Z" fill="#D80027"/>
<path d="M6.26049 9.01414C6.54862 9.01414 6.7822 8.78056 6.7822 8.49242C6.7822 8.20428 6.54862 7.9707 6.26049 7.9707C5.97235 7.9707 5.73877 8.20428 5.73877 8.49242C5.73877 8.78056 5.97235 9.01414 6.26049 9.01414Z" fill="#D80027"/>
<path d="M6.26049 16.0298C6.54862 16.0298 6.7822 15.7962 6.7822 15.508C6.7822 15.2199 6.54862 14.9863 6.26049 14.9863C5.97235 14.9863 5.73877 15.2199 5.73877 15.508C5.73877 15.7962 5.97235 16.0298 6.26049 16.0298Z" fill="#D80027"/>
</g>
<defs>
<clipPath id="clip0_19978_8183">
<rect width="24" height="24" fill="white"/>
</clipPath>
</defs>
</svg>
