<svg width="24" height="24" viewBox="0 0 24 24" fill="none" xmlns="http://www.w3.org/2000/svg">
<g clip-path="url(#clip0_19978_8170)">
<path d="M12 24C18.6274 24 24 18.6274 24 12C24 5.37258 18.6274 0 12 0C5.37258 0 0 5.37258 0 12C0 18.6274 5.37258 24 12 24Z" fill="#D80027"/>
<path d="M11.9999 17.738C15.1695 17.738 17.739 15.1685 17.739 11.9989C17.739 8.82926 15.1695 6.25977 11.9999 6.25977C8.83025 6.25977 6.26074 8.82926 6.26074 11.9989C6.26074 15.1685 8.83025 17.738 11.9999 17.738Z" fill="#F0F0F0"/>
<path d="M12.7065 9.80664L13.691 11.1634L15.2856 10.6464L14.2995 12.002L15.2839 13.3588L13.6899 12.8398L12.7038 14.1954L12.7048 12.5191L11.1108 12.0001L12.7054 11.4831L12.7065 9.80664Z" fill="#D80027"/>
<path d="M13.3039 15.3914C11.431 15.3914 9.91261 13.873 9.91261 12.0001C9.91261 10.1272 11.431 8.6088 13.3039 8.6088C13.8879 8.6088 14.4374 8.75645 14.9171 9.01642C14.1645 8.28044 13.1354 7.82617 11.9996 7.82617C9.69445 7.82617 7.82568 9.69489 7.82568 12.0001C7.82568 14.3052 9.69445 16.174 11.9996 16.174C13.1354 16.174 14.1646 15.7197 14.9171 14.9837C14.4374 15.2438 13.8879 15.3914 13.3039 15.3914Z" fill="#D80027"/>
</g>
<defs>
<clipPath id="clip0_19978_8170">
<rect width="24" height="24" fill="white"/>
</clipPath>
</defs>
</svg>
