<svg width="24" height="24" viewBox="0 0 24 24" fill="none" xmlns="http://www.w3.org/2000/svg">
<g clip-path="url(#clip0_19978_8157)">
<path d="M12 24C18.6274 24 24 18.6274 24 12C24 5.37258 18.6274 0 12 0C5.37258 0 0 5.37258 0 12C0 18.6274 5.37258 24 12 24Z" fill="#F0F0F0"/>
<path d="M7.82601 6.26052V4.69531H6.26076V6.26052H4.69556V7.82577H6.26076V9.39097H7.82601V7.82577H9.39122V6.26052H7.82601Z" fill="#D80027"/>
<path d="M12 0V12C5.37262 12 2.73867 12 0 12C0 18.6274 5.37262 24 12 24C18.6274 24 24 18.6274 24 12C24 5.37262 18.6274 0 12 0Z" fill="#D80027"/>
</g>
<defs>
<clipPath id="clip0_19978_8157">
<rect width="24" height="24" fill="white"/>
</clipPath>
</defs>
</svg>
