<svg width="24" height="24" viewBox="0 0 24 24" fill="none" xmlns="http://www.w3.org/2000/svg">
<g clip-path="url(#clip0_19978_8163)">
<path d="M6.49763 1.33203C5.42335 1.88652 4.41493 2.61331 3.51436 3.51387C2.61375 4.41448 1.88696 5.42291 1.33252 6.49719L9.04847 14.951L17.5023 22.667C18.5767 22.1125 19.5851 21.3857 20.4856 20.4852C21.3863 19.5846 22.113 18.5762 22.6675 17.5019L14.9515 9.04798L6.49763 1.33203Z" fill="#F0F0F0"/>
<path d="M20.4856 20.4869C20.989 19.9835 21.438 19.4463 21.8332 18.8829L5.11828 2.16797C4.55489 2.56317 4.01775 3.01214 3.51436 3.51553C3.01097 4.01892 2.562 4.55606 2.16675 5.1195L18.8817 21.8344C19.445 21.4392 19.9822 20.9903 20.4856 20.4869Z" fill="black"/>
<path d="M3.51407 20.4861C7.30002 24.272 12.9858 24.9988 17.502 22.6678L1.33227 6.49805C-0.998592 11.0143 -0.271701 16.7001 3.51407 20.4861Z" fill="#D80027"/>
<path d="M20.485 3.51437C16.6991 -0.271537 11.0133 -0.998287 6.49707 1.33248L22.6668 17.5024C24.9977 12.9862 24.271 7.30028 20.485 3.51437Z" fill="#D80027"/>
</g>
<defs>
<clipPath id="clip0_19978_8163">
<rect width="24" height="24" fill="white"/>
</clipPath>
</defs>
</svg>
