<svg width="24" height="24" viewBox="0 0 24 24" fill="none" xmlns="http://www.w3.org/2000/svg">
<g clip-path="url(#clip0_19978_8227)">
<path d="M24 12C24 18.6274 18.6274 24 12 24C5.37263 24 0 18.6274 0 12C0 12.0029 12 0.0013125 12 0C18.6274 0 24 5.37262 24 12Z" fill="#338AF3"/>
<path d="M5.73926 12.002H9.78654L6.26098 7.82812L5.73926 9.39333V12.002Z" fill="#0052B4"/>
<path d="M12.0001 9.78756L7.82617 5.74023H12.0001L12.0001 9.78756Z" fill="#0052B4"/>
<path d="M11.9683 11.999H12.0004C12.0004 11.9882 12.0004 11.9776 12.0004 11.9668C11.9897 11.9776 11.979 11.9883 11.9683 11.999Z" fill="#F0F0F0"/>
<path d="M12.0003 6.26086C12.0003 4.14937 12.0003 2.76581 12.0003 0H11.9983C5.37174 0.001125 0.000244141 5.37323 0.000244141 12H6.26115V8.47448L9.78666 12H11.9682C11.9789 11.9893 11.9896 11.9786 12.0003 11.9679C12.0003 11.1594 12.0003 10.4381 12.0003 9.78647L8.47468 6.26086H12.0003Z" fill="#F0F0F0"/>
<path d="M6.07124 1.56445C4.19441 2.63316 2.63413 4.19344 1.56543 6.07027V11.9993H4.69588V4.695V4.69491H12.0002C12.0002 3.70758 12.0002 2.76698 12.0002 1.56445H6.07124Z" fill="#D80027"/>
<path d="M12.0004 10.5232L7.73686 6.25977H6.26123V6.25986L12.0003 11.9989H12.0004C12.0004 11.9989 12.0004 10.9813 12.0004 10.5232Z" fill="#D80027"/>
<path d="M13.0972 19.8262L13.3562 20.6233H14.1944L13.5163 21.116L13.7753 21.9131L13.0972 21.4205L12.4191 21.9131L12.6781 21.116L12 20.6233H12.8381L13.0972 19.8262Z" fill="#FFDA44"/>
<path d="M19.7727 14.6094L20.0317 15.4065H20.8699L20.1918 15.8992L20.4509 16.6963L19.7727 16.2037L19.0947 16.6963L19.3537 15.8992L18.6755 15.4065H19.5137L19.7727 14.6094Z" fill="#FFDA44"/>
<path d="M21.4451 6.7832L21.7041 7.58036H22.5423L21.8642 8.07302L22.1232 8.87012L21.4451 8.37751L20.767 8.87012L21.026 8.07302L20.3479 7.58036H21.1861L21.4451 6.7832Z" fill="#FFDA44"/>
<path d="M21.8594 12.5215L22.1184 13.3187H22.9566L22.2785 13.8113L22.5376 14.6085L21.8594 14.1158L21.1814 14.6085L21.4404 13.8113L20.7622 13.3187H21.6004L21.8594 12.5215Z" fill="#FFDA44"/>
<path d="M14.299 17.9523L15.0459 18.3329L15.6386 17.7402L15.5075 18.568L16.2543 18.9485L15.4264 19.0797L15.2953 19.9075L14.9148 19.1607L14.0869 19.2919L14.6796 18.6992L14.299 17.9523Z" fill="#FFDA44"/>
<path d="M14.299 14.8215L15.0459 15.202L15.6386 14.6094L15.5075 15.4372L16.2543 15.8177L15.4264 15.9488L15.2953 16.7767L14.9148 16.0299L14.0869 16.161L14.6796 15.5684L14.299 14.8215Z" fill="#FFDA44"/>
<path d="M16.9079 16.8273L17.6548 17.2079L18.2475 16.6152L18.1164 17.443L18.8632 17.8235L18.0353 17.9547L17.9041 18.7826L17.5237 18.0356L16.6958 18.1669L17.2884 17.5743L16.9079 16.8273Z" fill="#FFDA44"/>
<path d="M16.9079 10.1262L17.6548 10.5067L18.2475 9.91406L18.1164 10.7419L18.8632 11.1224L18.0353 11.2535L17.9041 12.0814L17.5237 11.3346L16.6958 11.4657L17.2884 10.8731L16.9079 10.1262Z" fill="#FFDA44"/>
<path d="M19.4364 10.0441L20.1834 10.4247L20.776 9.83203L20.6449 10.6598L21.3917 11.0403L20.5638 11.1715L20.4327 11.9993L20.0523 11.2525L19.2244 11.3837L19.817 10.791L19.4364 10.0441Z" fill="#FFDA44"/>
</g>
<defs>
<clipPath id="clip0_19978_8227">
<rect width="24" height="24" fill="white"/>
</clipPath>
</defs>
</svg>
