<svg width="24" height="24" viewBox="0 0 24 24" fill="none" xmlns="http://www.w3.org/2000/svg">
<g clip-path="url(#clip0_19978_8105)">
<path d="M24 12C24 18.6274 18.6274 24 12 24C5.37262 24 0 18.6274 0 12C4.12172 7.87828 7.61737 4.38263 12 0C18.6274 0 24 5.37262 24 12Z" fill="#D80027"/>
<path d="M12 12C12 5.37262 12 4.59131 12 0C5.37262 0 0 5.37262 0 12H12Z" fill="#0052B4"/>
<path d="M10.435 7.02317L8.96945 7.71261L9.74983 9.13194L8.15847 8.82744L7.95677 10.4351L6.84836 9.25273L5.73986 10.4351L5.53825 8.82744L3.94684 9.13184L4.72722 7.71251L3.26172 7.02317L4.72727 6.33387L3.94684 4.9145L5.5382 5.21895L5.73991 3.61133L6.84836 4.7937L7.95681 3.61133L8.15847 5.21895L9.74987 4.9145L8.96945 6.33392L10.435 7.02317Z" fill="#F0F0F0"/>
<path d="M6.84848 9.25653C8.08213 9.25653 9.08221 8.25645 9.08221 7.0228C9.08221 5.78914 8.08213 4.78906 6.84848 4.78906C5.61482 4.78906 4.61475 5.78914 4.61475 7.0228C4.61475 8.25645 5.61482 9.25653 6.84848 9.25653Z" fill="#0052B4"/>
<path d="M6.84792 8.21448C6.19162 8.21448 5.65771 7.68053 5.65771 7.02423C5.65771 6.36794 6.19167 5.83398 6.84792 5.83398C7.50422 5.83398 8.03817 6.36794 8.03817 7.02423C8.03812 7.68053 7.50412 8.21448 6.84792 8.21448Z" fill="#F0F0F0"/>
</g>
<defs>
<clipPath id="clip0_19978_8105">
<rect width="24" height="24" fill="white"/>
</clipPath>
</defs>
</svg>
