<svg width="24" height="24" viewBox="0 0 24 24" fill="none" xmlns="http://www.w3.org/2000/svg">
<g clip-path="url(#clip0_19978_8126)">
<path d="M12 24C18.6274 24 24 18.6274 24 12C24 5.37258 18.6274 0 12 0C5.37258 0 0 5.37258 0 12C0 18.6274 5.37258 24 12 24Z" fill="#FFDA44"/>
<path d="M3.51471 20.4861C4.0181 20.9895 4.55519 21.4384 5.11858 21.8336L21.8328 5.11936C21.4376 4.55597 20.9887 4.01888 20.4853 3.51548C19.9818 3.01209 19.4448 2.56322 18.8814 2.16797L2.16724 18.8822C2.56239 19.4455 3.01136 19.9826 3.51471 20.4861Z" fill="black"/>
<path d="M3.51447 3.51417C-0.271251 7.29998 -0.998048 12.9855 1.33272 17.5016L17.5019 1.33246C12.9858 -0.998302 7.30023 -0.271459 3.51447 3.51417Z" fill="#6DA544"/>
<path d="M20.4849 20.4855C24.2706 16.6997 24.9974 11.0141 22.6667 6.49805L6.49756 22.6672C11.0135 24.998 16.6992 24.2712 20.4849 20.4855Z" fill="#338AF3"/>
</g>
<defs>
<clipPath id="clip0_19978_8126">
<rect width="24" height="24" fill="white"/>
</clipPath>
</defs>
</svg>
