<svg width="24" height="24" viewBox="0 0 24 24" fill="none" xmlns="http://www.w3.org/2000/svg">
<g clip-path="url(#clip0_19978_8296)">
<path d="M12 24C18.6274 24 24 18.6274 24 12C24 5.37258 18.6274 0 12 0C5.37258 0 0 5.37258 0 12C0 18.6274 5.37258 24 12 24Z" fill="#F0F0F0"/>
<path d="M11.9998 8.86873H23.5864C23.2855 7.75245 22.8282 6.70053 22.2385 5.73828H11.9998V8.86873Z" fill="#338AF3"/>
<path d="M4.53009 21.3902H19.4698C20.5649 20.518 21.5041 19.4585 22.2386 18.2598H1.76123C2.49581 19.4585 3.435 20.518 4.53009 21.3902Z" fill="#338AF3"/>
<path d="M12.0002 0C12.0002 1.04348 12.0002 2.60869 12.0002 2.60869H19.4701C17.4203 0.976125 14.8244 0 12.0002 0Z" fill="#338AF3"/>
<path d="M11.9998 8.86873H23.5864C23.2855 7.75245 22.8282 6.70053 22.2385 5.73828H11.9998V8.86873Z" fill="#338AF3"/>
<path d="M0 12C0 13.0831 0.144375 14.1323 0.413391 15.1305H23.5867C23.8556 14.1323 24 13.0831 24 12H0Z" fill="#338AF3"/>
<path d="M10.4352 7.02317L8.96965 7.71256L9.75007 9.13194L8.15867 8.82753L7.95701 10.4351L6.8486 9.25273L5.7401 10.4351L5.53849 8.82753L3.94709 9.13184L4.72746 7.71251L3.26196 7.02317L4.72751 6.33387L3.94709 4.9145L5.53845 5.21891L5.74015 3.61133L6.8486 4.7937L7.95706 3.61133L8.15867 5.21891L9.75012 4.9145L8.9697 6.33392L10.4352 7.02317Z" fill="#FFDA44"/>
</g>
<defs>
<clipPath id="clip0_19978_8296">
<rect width="24" height="24" fill="white"/>
</clipPath>
</defs>
</svg>
