<svg width="24" height="24" viewBox="0 0 24 24" fill="none" xmlns="http://www.w3.org/2000/svg">
<g clip-path="url(#clip0_19978_8307)">
<path d="M0.566869 8.34794C0.199275 9.49956 0.000197274 10.7264 0.000244149 12C0.000197274 13.2736 0.199322 14.5005 0.566916 15.6521L12.0002 16.174L23.4336 15.6522C23.8011 14.5006 24.0003 13.2736 24.0003 12.0001C24.0003 10.7265 23.8012 9.49956 23.4336 8.34789L12.0002 7.82617L0.566869 8.34794Z" fill="#F0F0F0"/>
<path d="M23.4332 8.34789L11.9999 7.82617L0.5665 8.34789C0.457563 8.68933 0.363766 9.03747 0.285156 9.39137H23.7144C23.6359 9.03742 23.5421 8.68923 23.4332 8.34789Z" fill="#D80027"/>
<path d="M0.285156 14.6094C0.363672 14.9633 0.457469 15.3114 0.566406 15.6528L0.567531 15.6529L11.9997 16.1746L23.433 15.6529C23.542 15.3114 23.6358 14.9633 23.7143 14.6094H0.285156Z" fill="#D80027"/>
<path d="M12.0004 24.0002C17.3543 24.0002 21.8885 20.4938 23.4338 15.6523H0.567139C2.11237 20.4937 6.64669 24.0002 12.0004 24.0002Z" fill="#6DA544"/>
<path d="M12 4.69973e-10C6.6462 4.68755e-05 2.11198 3.50644 0.56665 8.34783L23.4333 8.34788C21.8881 3.50639 17.3539 -4.68745e-05 12 4.69973e-10Z" fill="#338AF3"/>
<path d="M5.48351 4.9552C5.48351 3.83128 6.2734 2.89238 7.32823 2.66203C7.16614 2.62659 6.9979 2.60742 6.82512 2.60742C5.52847 2.60742 4.47729 3.65855 4.47729 4.95525C4.47729 6.25196 5.52837 7.30308 6.82512 7.30308C6.9979 7.30308 7.16609 7.28386 7.32823 7.24847C6.27345 7.01803 5.48351 6.07913 5.48351 4.9552Z" fill="#F0F0F0"/>
<path d="M8.71531 6.02148L8.87421 6.51063H9.38853L8.97246 6.81297L9.13137 7.30211L8.71531 6.99982L8.29915 7.30211L8.4581 6.81297L8.04199 6.51063H8.55631L8.71531 6.02148Z" fill="#F0F0F0"/>
<path d="M10.3575 6.02148L10.5165 6.51063H11.0308L10.6147 6.81297L10.7737 7.30211L10.3575 6.99982L9.94144 7.30211L10.1004 6.81297L9.68433 6.51063H10.1986L10.3575 6.02148Z" fill="#F0F0F0"/>
<path d="M11.9988 6.02148L12.1577 6.51063H12.672L12.2559 6.81297L12.4148 7.30211L11.9988 6.99982L11.5826 7.30211L11.7416 6.81297L11.3254 6.51063H11.8398L11.9988 6.02148Z" fill="#F0F0F0"/>
<path d="M13.6408 6.02148L13.7998 6.51063H14.3141L13.898 6.81297L14.0569 7.30211L13.6408 6.99982L13.2247 7.30211L13.3837 6.81297L12.9675 6.51063H13.4818L13.6408 6.02148Z" fill="#F0F0F0"/>
<path d="M15.2823 6.02148L15.4413 6.51063H15.9556L15.5396 6.81297L15.6985 7.30211L15.2823 6.99982L14.8662 7.30211L15.0252 6.81297L14.6091 6.51063H15.1234L15.2823 6.02148Z" fill="#F0F0F0"/>
<path d="M10.3575 4.31445L10.5165 4.80355H11.0308L10.6147 5.10594L10.7737 5.59503L10.3575 5.29274L9.94144 5.59503L10.1004 5.10594L9.68433 4.80355H10.1986L10.3575 4.31445Z" fill="#F0F0F0"/>
<path d="M11.9988 4.31445L12.1577 4.80355H12.672L12.2559 5.10594L12.4148 5.59503L11.9988 5.29274L11.5826 5.59503L11.7416 5.10594L11.3254 4.80355H11.8398L11.9988 4.31445Z" fill="#F0F0F0"/>
<path d="M13.6408 4.31445L13.7998 4.80355H14.3141L13.898 5.10594L14.0569 5.59503L13.6408 5.29274L13.2247 5.59503L13.3837 5.10594L12.9675 4.80355H13.4818L13.6408 4.31445Z" fill="#F0F0F0"/>
<path d="M15.2823 4.31445L15.4413 4.80355H15.9556L15.5396 5.10594L15.6985 5.59503L15.2823 5.29274L14.8662 5.59503L15.0252 5.10594L14.6091 4.80355H15.1234L15.2823 4.31445Z" fill="#F0F0F0"/>
<path d="M11.9988 2.60742L12.1577 3.09661H12.672L12.2559 3.39891L12.4148 3.88809L11.9988 3.5858L11.5826 3.88809L11.7416 3.39891L11.3254 3.09661H11.8398L11.9988 2.60742Z" fill="#F0F0F0"/>
<path d="M13.6408 2.60742L13.7998 3.09661H14.3141L13.898 3.39891L14.0569 3.88809L13.6408 3.5858L13.2247 3.88809L13.3837 3.39891L12.9675 3.09661H13.4818L13.6408 2.60742Z" fill="#F0F0F0"/>
<path d="M15.2823 2.60742L15.4413 3.09661H15.9556L15.5396 3.39891L15.6985 3.88809L15.2823 3.5858L14.8662 3.88809L15.0252 3.39891L14.6091 3.09661H15.1234L15.2823 2.60742Z" fill="#F0F0F0"/>
</g>
<defs>
<clipPath id="clip0_19978_8307">
<rect width="24" height="24" fill="white"/>
</clipPath>
</defs>
</svg>
