<svg width="24" height="24" viewBox="0 0 24 24" fill="none" xmlns="http://www.w3.org/2000/svg">
<g clip-path="url(#clip0_19978_8046)">
<path d="M17.739 1.45908C16.0342 0.528891 14.0788 0 11.9999 0C9.921 0 7.96566 0.528891 6.26077 1.45908L5.21729 12L6.26077 22.5409C7.96566 23.4711 9.921 24 11.9999 24C14.0788 24 16.0342 23.4711 17.739 22.5409L18.7825 12L17.739 1.45908Z" fill="#FFDA44"/>
<path d="M6.2611 22.5408V1.45898C2.53098 3.4943 0.000244141 7.45144 0.000244141 12C0.000244141 16.5485 2.53098 20.5056 6.2611 22.5408Z" fill="#338AF3"/>
<path d="M24.0004 12C24.0004 7.45144 21.4696 3.4943 17.7395 1.45898V22.5408C21.4696 20.5056 24.0004 16.5485 24.0004 12Z" fill="#6DA544"/>
<path d="M9.39195 15.13L7.30493 11.9996L9.3919 8.86914L11.479 11.9996L9.39195 15.13Z" fill="#6DA544"/>
<path d="M14.6097 15.13L12.5227 11.9996L14.6097 8.86914L16.6966 11.9996L14.6097 15.13Z" fill="#6DA544"/>
<path d="M12.0008 19.3038L9.91382 16.1734L12.0008 13.043L14.0878 16.1734L12.0008 19.3038Z" fill="#6DA544"/>
</g>
<defs>
<clipPath id="clip0_19978_8046">
<rect width="24" height="24" fill="white"/>
</clipPath>
</defs>
</svg>
