<svg width="24" height="24" viewBox="0 0 24 24" fill="none" xmlns="http://www.w3.org/2000/svg">
<g clip-path="url(#clip0_19978_6462)">
<path d="M22.8088 17.2165C23.5717 15.6389 23.9995 13.869 23.9995 11.9991C23.9995 10.1293 23.5717 8.35939 22.8088 6.78177L11.9995 5.73828L1.19023 6.78177C0.42734 8.35939 -0.000488281 10.1293 -0.000488281 11.9991C-0.000488281 13.869 0.42734 15.6389 1.19023 17.2165L11.9995 18.26L22.8088 17.2165Z" fill="#0052B4"/>
<path d="M11.9997 23.9994C16.7572 23.9994 20.868 21.2308 22.809 17.2168H1.19043C3.13143 21.2308 7.24218 23.9994 11.9997 23.9994Z" fill="#D80027"/>
<path d="M20.7819 14.3547L20.1481 14.85L20.4232 15.6057L19.7563 15.156L19.1224 15.6512L19.344 14.878L18.6772 14.4282L19.4811 14.4002L19.7029 13.627L19.9781 14.3828L20.7819 14.3547Z" fill="#F0F0F0"/>
<path d="M19.159 11.5435L18.7329 12.2256L19.25 12.8417L18.4694 12.6473L18.0432 13.3293L17.987 12.5269L17.2065 12.3323L17.9524 12.0309L17.8964 11.2285L18.4133 11.8448L19.159 11.5435Z" fill="#F0F0F0"/>
<path d="M16.6725 9.45898L16.5054 10.2458L17.2019 10.648L16.402 10.7323L16.2347 11.5189L15.9076 10.7841L15.1075 10.8681L15.7054 10.3299L15.3782 9.59516L16.0748 9.99725L16.6725 9.45898Z" fill="#F0F0F0"/>
<path d="M13.6222 8.34766L13.7343 9.1442L14.5264 9.2838L13.8035 9.63658L13.9154 10.4331L13.3567 9.85445L12.6336 10.207L13.0113 9.49675L12.4525 8.91822L13.2447 9.05786L13.6222 8.34766Z" fill="#F0F0F0"/>
<path d="M10.3766 8.34766L10.7543 9.05786L11.5463 8.91812L10.9877 9.49689L11.3652 10.2071L10.6423 9.85445L10.0834 10.4329L10.1955 9.63658L9.47253 9.28398L10.2647 9.1442L10.3766 8.34766Z" fill="#F0F0F0"/>
<path d="M7.32626 9.45898L7.92411 9.99725L8.62053 9.59516L8.29348 10.3302L8.89119 10.8683L8.09126 10.7841L7.76398 11.5189L7.59697 10.7322L6.797 10.6482L7.49356 10.2459L7.32626 9.45898Z" fill="#F0F0F0"/>
<path d="M4.83973 11.5433L5.58565 11.8446L6.10249 11.2285L6.04657 12.0311L6.79225 12.3324L6.01183 12.5269L5.95563 13.3292L5.52954 12.6472L4.74902 12.8417L5.26605 12.2255L4.83973 11.5433Z" fill="#F0F0F0"/>
<path d="M3.2168 14.3566L4.0208 14.3846L4.29577 13.6289L4.51772 14.4022L5.32148 14.4302L4.65464 14.88L4.87627 15.6532L4.24252 15.158L3.57562 15.6077L3.85073 14.8519L3.2168 14.3566Z" fill="#F0F0F0"/>
<path d="M22.809 6.78262C20.868 2.76867 16.7572 0 11.9997 0C7.24218 0 3.13143 2.76867 1.19043 6.78262H22.809Z" fill="#FFDA44"/>
</g>
<defs>
<clipPath id="clip0_19978_6462">
<rect width="24" height="24" fill="white"/>
</clipPath>
</defs>
</svg>
