<svg width="24" height="24" viewBox="0 0 24 24" fill="none" xmlns="http://www.w3.org/2000/svg">
<g clip-path="url(#clip0_19978_6599)">
<path d="M24 12C24 18.6274 18.6274 24 12 24C5.37262 24 0 18.6274 0 12C0 12.0029 12 0.0013125 12 0C18.6274 0 24 5.37262 24 12Z" fill="#0052B4"/>
<path d="M11.9683 12.0009H12.0004C12.0004 11.9901 12.0004 11.9796 12.0004 11.9688C11.9897 11.9795 11.979 11.9902 11.9683 12.0009Z" fill="#F0F0F0"/>
<path d="M11.9999 6.26086C11.9999 4.14937 11.9999 2.76586 11.9999 0H11.9979C5.37133 0.001125 -0.00012207 5.37323 -0.00012207 12H6.26073V8.47448L9.78625 12H11.9678C11.9785 11.9893 11.9892 11.9786 11.9999 11.9679C11.9999 11.1594 11.9999 10.4381 11.9999 9.78647L8.47431 6.26086H11.9999Z" fill="#F0F0F0"/>
<path d="M6.07063 1.56445C4.1938 2.63316 2.63348 4.19344 1.56482 6.07027V11.9993H4.69527V4.695V4.69491H11.9996C11.9996 3.70758 11.9996 2.76698 11.9996 1.56445H6.07063Z" fill="#D80027"/>
<path d="M17.2179 12L13.9745 15.2434C14.5824 16.4158 15.8062 17.2174 17.2179 17.2174C18.6296 17.2174 19.8535 16.4158 20.4613 15.2434L17.2179 12Z" fill="#FFDA44"/>
<path d="M11.9998 10.5251L7.73624 6.26172H6.26062V6.26181L11.9997 12.0008H11.9998C11.9998 12.0008 11.9998 10.9833 11.9998 10.5251Z" fill="#D80027"/>
<path d="M13.5652 6.26172V12.0008V12.0009C13.5652 14.7964 17.2174 15.653 17.2174 15.653C17.2174 15.653 20.8695 14.7964 20.8695 12.0009V12.0008V6.26172H13.5652Z" fill="#6DA544"/>
<path d="M18 8.86914H16.4348V13.043H18V8.86914Z" fill="#F0F0F0"/>
<path d="M17.2173 9.65119C17.6495 9.65119 17.9999 9.3008 17.9999 8.86857C17.9999 8.43633 17.6495 8.08594 17.2173 8.08594C16.7851 8.08594 16.4347 8.43633 16.4347 8.86857C16.4347 9.3008 16.7851 9.65119 17.2173 9.65119Z" fill="#A2001D"/>
<path d="M15.6529 7.30469H14.6094V8.34817H15.6529V7.30469Z" fill="#FFDA44"/>
<path d="M15.6522 9.65234H14.6088V10.6958H15.6522V9.65234Z" fill="#FFDA44"/>
<path d="M15.6522 12H14.6088V13.0435H15.6522V12Z" fill="#FFDA44"/>
<path d="M19.8262 7.30469H18.7827V8.34817H19.8262V7.30469Z" fill="#FFDA44"/>
<path d="M19.8262 9.65234H18.7827V10.6958H19.8262V9.65234Z" fill="#FFDA44"/>
<path d="M19.8262 12H18.7827V13.0435H19.8262V12Z" fill="#FFDA44"/>
</g>
<defs>
<clipPath id="clip0_19978_6599">
<rect width="24" height="24" fill="white"/>
</clipPath>
</defs>
</svg>
