<svg width="24" height="24" viewBox="0 0 24 24" fill="none" xmlns="http://www.w3.org/2000/svg">
<g clip-path="url(#clip0_19978_6480)">
<path d="M12 24C18.6274 24 24 18.6274 24 12C24 5.37258 18.6274 0 12 0C5.37258 0 0 5.37258 0 12C0 18.6274 5.37258 24 12 24Z" fill="#FCFCFC"/>
<path d="M14.0378 8.38373C14.0378 7.25817 13.1254 6.3457 11.9997 6.3457C10.8741 6.3457 9.96167 7.25817 9.96167 8.38373H5.47803C5.47803 9.4919 6.44337 10.3904 7.55154 10.3904H7.48479C7.48479 11.4986 8.38311 12.3971 9.49147 12.3971C9.49147 13.3783 10.1962 14.1937 11.1269 14.368L11.1217 14.3797H12.8779L12.8727 14.368C13.8034 14.1936 14.5081 13.3783 14.5081 12.3971C15.6164 12.3971 16.5148 11.4986 16.5148 10.3904H16.4479C17.5561 10.3904 18.5215 9.4919 18.5215 8.38373H14.0378Z" fill="#FFDA44"/>
<path d="M11.1042 14.1719L9.84058 17.0248C10.5073 17.2959 11.2361 17.4465 12.0002 17.4465C12.7643 17.4465 13.4931 17.2959 14.1598 17.0248L12.8962 14.1719H11.1042Z" fill="#FFDA44"/>
<path d="M9.39124 9.38477V12.8953C9.39124 14.8921 11.9999 15.504 11.9999 15.504C11.9999 15.504 14.6086 14.8921 14.6086 12.8953V9.38477H9.39124Z" fill="#F0F0F0"/>
<path d="M2.90988 12.084L4.32077 16.0301L5.71699 12.084H6.78255L4.74695 17.3014H3.89453L1.84436 12.084H2.90988Z" fill="#338AF3"/>
<path d="M19.3041 17.3014V12.084H20.3181V17.3014H19.3041Z" fill="#338AF3"/>
<path d="M10.4343 10.5195V14.7736C10.793 15.0376 11.1788 15.2191 11.4778 15.3354V10.5195H10.4343Z" fill="#D80027"/>
<path d="M13.5642 10.5195V14.7736C13.2056 15.0376 12.8197 15.2191 12.5208 15.3354V10.5195H13.5642Z" fill="#D80027"/>
<path d="M14.6086 9.38477H9.39124V11.0402H14.6086V9.38477Z" fill="#0052B4"/>
</g>
<defs>
<clipPath id="clip0_19978_6480">
<rect width="24" height="24" fill="white"/>
</clipPath>
</defs>
</svg>
