<svg width="24" height="24" viewBox="0 0 24 24" fill="none" xmlns="http://www.w3.org/2000/svg">
<g clip-path="url(#clip0_19978_6435)">
<path d="M24.0003 12.0009C24.0003 11.4704 23.9655 10.9481 23.8988 10.4357H10.435C7.98342 7.98426 3.51488 3.516 3.51507 3.51562C-1.1712 8.2019 -1.1712 15.7999 3.51507 20.4862L10.4352 13.5662H23.8988C23.9655 13.0538 24.0003 12.5314 24.0003 12.0009Z" fill="black"/>
<path d="M23.9967 12.2715C23.9962 12.2947 23.9957 12.3179 23.995 12.3411C23.9956 12.3178 23.9961 12.2947 23.9967 12.2715Z" fill="#F0F0F0"/>
<path d="M23.9851 12.5996C23.984 12.6226 23.9824 12.6454 23.9812 12.6683C23.9824 12.6455 23.9839 12.6226 23.9851 12.5996Z" fill="#F0F0F0"/>
<path d="M23.968 12.8633C23.9656 12.897 23.9633 12.9308 23.9606 12.9644C23.9633 12.9308 23.9656 12.897 23.968 12.8633Z" fill="#F0F0F0"/>
<path d="M23.9285 10.6914C23.9329 10.7316 23.9373 10.7717 23.9413 10.812C23.9373 10.7717 23.9328 10.7316 23.9285 10.6914Z" fill="#F0F0F0"/>
<path d="M23.9805 11.3301C23.9817 11.353 23.9833 11.3758 23.9844 11.3988C23.9832 11.3758 23.9817 11.3529 23.9805 11.3301Z" fill="#F0F0F0"/>
<path d="M23.9945 11.6562C23.9952 11.6794 23.9956 11.7027 23.9962 11.7259C23.9957 11.7026 23.9951 11.6794 23.9945 11.6562Z" fill="#F0F0F0"/>
<path d="M23.9609 11.0352C23.9637 11.0688 23.966 11.1026 23.9684 11.1363C23.966 11.1026 23.9637 11.0688 23.9609 11.0352Z" fill="#F0F0F0"/>
<path d="M23.8987 10.4347C23.9041 10.4758 23.9089 10.5172 23.9138 10.5584C23.2016 4.6108 18.1397 0 12.0003 0C8.68651 0 5.68647 1.3432 3.51489 3.51487L10.4348 10.4348H23.8987V10.4347Z" fill="#D80027"/>
<path d="M23.8987 13.5651H10.4348L3.51489 20.485C5.68647 22.6566 8.68651 23.9998 12.0003 23.9998C18.1397 23.9998 23.2016 19.389 23.9138 13.4414C23.9089 13.4826 23.904 13.524 23.8987 13.5651Z" fill="#6DA544"/>
<path d="M23.9413 13.1875C23.9373 13.2278 23.9329 13.2679 23.9285 13.3081C23.9329 13.2679 23.9373 13.2278 23.9413 13.1875Z" fill="#F0F0F0"/>
<path d="M23.9685 11.1367C23.9731 11.2009 23.9772 11.2653 23.9807 11.3297C23.9771 11.2653 23.9731 11.2009 23.9685 11.1367Z" fill="black"/>
<path d="M23.9132 10.5586C23.9186 10.6031 23.9237 10.6477 23.9285 10.6924C23.9236 10.6477 23.9185 10.6032 23.9132 10.5586Z" fill="black"/>
<path d="M23.9412 10.8125C23.9485 10.887 23.9551 10.9618 23.9611 11.0368C23.9551 10.9618 23.9485 10.887 23.9412 10.8125Z" fill="black"/>
<path d="M24.0005 12C24.0005 12.0913 23.9991 12.1823 23.9971 12.2731C23.9991 12.1823 24.0005 12.0913 24.0005 12Z" fill="black"/>
<path d="M23.9808 12.668C23.9773 12.7325 23.9731 12.7968 23.9686 12.861C23.9731 12.7968 23.9772 12.7325 23.9808 12.668Z" fill="black"/>
<path d="M23.9611 12.9648C23.9551 13.0398 23.9485 13.1145 23.9412 13.189C23.9485 13.1145 23.9551 13.0398 23.9611 12.9648Z" fill="black"/>
<path d="M23.9285 13.3086C23.9237 13.3533 23.9186 13.3978 23.9132 13.4424C23.9185 13.3979 23.9236 13.3533 23.9285 13.3086Z" fill="black"/>
<path d="M23.9971 11.7266C23.9991 11.8174 24.0005 11.9084 24.0005 11.9997C24.0005 11.9084 23.9991 11.8174 23.9971 11.7266Z" fill="black"/>
<path d="M23.9856 11.3984C23.9898 11.4844 23.993 11.5707 23.9954 11.6571C23.993 11.5706 23.9899 11.4844 23.9856 11.3984Z" fill="black"/>
<path d="M23.9953 12.3418C23.9929 12.4282 23.9897 12.5145 23.9855 12.6005C23.9898 12.5145 23.9929 12.4282 23.9953 12.3418Z" fill="black"/>
<path d="M23.989 11.4727H9.99426L2.80566 4.28516C2.5733 4.53022 2.32144 4.87241 2.16568 5.11611L9.04031 11.9943L2.15991 18.8749C2.29613 19.1172 2.5929 19.4759 2.80125 19.7093L9.9944 12.5162H23.9907C23.9981 12.3431 24.0005 12.1693 24.0005 11.9944C24.0004 11.7602 23.994 11.5874 23.989 11.4727Z" fill="#FFDA44"/>
<path d="M2.91539 14.5574V13.5523C3.91842 13.5523 4.73437 12.7362 4.73437 11.7333C4.73437 11.0237 4.15701 10.4464 3.44742 10.4464C2.964 10.4464 2.57067 10.8396 2.57067 11.3232C2.57067 11.6323 2.82216 11.8838 3.13134 11.8838C3.30609 11.8838 3.44826 11.7416 3.44826 11.5668H4.45336C4.45336 12.2959 3.86029 12.8889 3.13139 12.8889C2.268 12.889 1.56567 12.1865 1.56567 11.3232C1.56567 10.2856 2.40989 9.44141 3.44747 9.44141C4.71131 9.44141 5.73956 10.4697 5.73956 11.7335C5.73951 13.2905 4.47262 14.5574 2.91539 14.5574Z" fill="#FFDA44"/>
</g>
<defs>
<clipPath id="clip0_19978_6435">
<rect width="24" height="24" fill="white"/>
</clipPath>
</defs>
</svg>
