<svg width="24" height="24" viewBox="0 0 24 24" fill="none" xmlns="http://www.w3.org/2000/svg">
<g clip-path="url(#clip0_19978_7841)">
<path d="M24 12C24 18.6274 18.6274 24 12 24C5.37262 24 0 18.6274 0 12C4.12172 7.87828 7.61737 4.38263 12 0C18.6274 0 24 5.37262 24 12Z" fill="#D80027"/>
<path d="M12 12C12 5.37262 12 4.59131 12 0C5.37262 0 0 5.37262 0 12H12Z" fill="#0052B4"/>
<path d="M9.61146 7.82617L9.80576 8.42406H10.4344L9.92576 8.79348L10.1201 9.39137L9.61146 9.02186L9.10287 9.39137L9.29717 8.79348L8.78857 8.42406H9.41717L9.61146 7.82617Z" fill="#F0F0F0"/>
<path d="M6.45448 3.13086L6.77824 4.12738H7.826L6.97831 4.74308L7.30217 5.73955L6.45448 5.12366L5.60684 5.73955L5.93065 4.74308L5.08301 4.12738H6.13067L6.45448 3.13086Z" fill="#F0F0F0"/>
<path d="M9.58534 4.17383L9.9091 5.17039H10.9568L10.1092 5.7861L10.4329 6.78256L9.58534 6.16667L8.7377 6.78256L9.06151 5.7861L8.21387 5.17039H9.26153L9.58534 4.17383Z" fill="#F0F0F0"/>
<path d="M7.11048 8.34961L7.43429 9.34612H8.48195L7.63431 9.96183L7.95812 10.9583L7.11048 10.3425L6.26284 10.9583L6.58665 9.96183L5.73901 9.34612H6.78672L7.11048 8.34961Z" fill="#F0F0F0"/>
<path d="M4.36752 5.74023L4.69133 6.73675H5.73903L4.89135 7.35245L5.21516 8.34892L4.36752 7.73308L3.51992 8.34892L3.84369 7.35245L2.99609 6.73675H4.04375L4.36752 5.74023Z" fill="#F0F0F0"/>
</g>
<defs>
<clipPath id="clip0_19978_7841">
<rect width="24" height="24" fill="white"/>
</clipPath>
</defs>
</svg>
