<svg width="24" height="24" viewBox="0 0 24 24" fill="none" xmlns="http://www.w3.org/2000/svg">
<g clip-path="url(#clip0_19978_7977)">
<path d="M12 24C18.6274 24 24 18.6274 24 12C24 5.37258 18.6274 0 12 0C5.37258 0 0 5.37258 0 12C0 18.6274 5.37258 24 12 24Z" fill="#F0F0F0"/>
<path d="M3.51422 20.4843C-1.17206 15.798 -1.17206 8.2 3.51422 3.51367C3.51389 3.51419 10.4343 11.999 10.4343 11.999L3.51422 20.4843Z" fill="black"/>
<path d="M10.4349 11.9994L1.59162 6.02344C1.31745 6.50002 1.07567 6.99745 0.86792 7.51233L5.3449 11.9994L0.868061 16.4868C1.07562 17.0013 1.31717 17.4984 1.59115 17.9746L10.4349 11.9994Z" fill="#FFDA44"/>
<path d="M23.8987 10.4355H10.4347L3.51482 3.51562C2.76914 4.26131 2.12128 5.10464 1.59178 6.02484L7.55611 12.0007L1.59131 17.9759C2.12081 18.8963 2.76895 19.74 3.51482 20.4858L10.4347 13.566H23.8987C23.9654 13.0536 24.0002 12.5312 24.0002 12.0007C24.0002 11.4703 23.9654 10.9479 23.8987 10.4355Z" fill="#6DA544"/>
<path d="M4.6936 21.5177C6.71715 23.0731 9.25014 23.9985 11.9996 23.9985C17.544 23.9985 22.2092 20.2381 23.5862 15.1289H11.0824L4.6936 21.5177Z" fill="#0052B4"/>
<path d="M23.5862 8.86955C22.2092 3.76036 17.544 0 11.9996 0C9.25014 0 6.71715 0.925359 4.6936 2.48077L11.0824 8.86955H23.5862Z" fill="#D80027"/>
</g>
<defs>
<clipPath id="clip0_19978_7977">
<rect width="24" height="24" fill="white"/>
</clipPath>
</defs>
</svg>
