<svg width="24" height="24" viewBox="0 0 24 24" fill="none" xmlns="http://www.w3.org/2000/svg">
<g clip-path="url(#clip0_19978_6508)">
<path d="M12 24C18.6274 24 24 18.6274 24 12C24 5.37258 18.6274 0 12 0C5.37258 0 0 5.37258 0 12C0 18.6274 5.37258 24 12 24Z" fill="#496E2D"/>
<path d="M16.6954 12H11.9998V24C13.4024 24 14.7486 23.7586 15.9997 23.3163L16.6954 12Z" fill="#D80027"/>
<path d="M20.0001 20.9434C22.4548 18.7462 24.0001 15.5537 24.0001 12H19.3044L20.0001 20.9434Z" fill="#FF9811"/>
<path d="M15.9998 12V23.3163C17.4902 22.7894 18.8456 21.9766 19.9998 20.9435V12H15.9998Z" fill="black"/>
<path d="M22.1738 7.82669H19.0434C19.0434 7.25041 18.5761 6.7832 17.9999 6.7832C17.4236 6.7832 16.9564 7.25041 16.9564 7.82669H13.8259C13.8259 8.40302 14.3279 8.87017 14.9041 8.87017H14.8694C14.8694 9.4465 15.3365 9.91366 15.9129 9.91366C15.9129 10.49 16.38 10.9571 16.9564 10.9571H19.0434C19.6196 10.9571 20.0868 10.49 20.0868 9.91366C20.6631 9.91366 21.1303 9.4465 21.1303 8.87017H21.0956C21.6719 8.87013 22.1738 8.40297 22.1738 7.82669Z" fill="#FF9811"/>
</g>
<defs>
<clipPath id="clip0_19978_6508">
<rect width="24" height="24" fill="white"/>
</clipPath>
</defs>
</svg>
