<svg width="24" height="24" viewBox="0 0 24 24" fill="none" xmlns="http://www.w3.org/2000/svg">
<g clip-path="url(#clip0_19978_6515)">
<path d="M12 24C18.6274 24 24 18.6274 24 12C24 5.37258 18.6274 0 12 0C5.37258 0 0 5.37258 0 12C0 18.6274 5.37258 24 12 24Z" fill="#F0F0F0"/>
<path d="M22.852 6.8727C22.2423 5.58486 21.4102 4.42315 20.4052 3.43667L12.0005 2.60938L3.59586 3.43672C3.56904 3.46301 3.54289 3.48992 3.51636 3.5165L6.87261 6.87275L12.0005 7.02936L22.852 6.8727Z" fill="#FFDA44"/>
<path d="M3.51587 20.4859C3.56003 20.5301 3.60409 20.5743 3.6489 20.6178L12.0002 21.3929L20.3514 20.6178C21.3668 19.6334 22.209 18.4716 22.8272 17.1818L7.30449 16.6973C5.96888 18.0329 4.42838 19.5733 3.51587 20.4859Z" fill="#FFDA44"/>
<path d="M23.8805 10.3091L9.91284 9.91406L11.9998 12.001C11.3817 12.6192 10.4589 13.542 9.91284 14.088L23.8732 13.7452C23.9561 13.1757 23.9998 12.5935 23.9998 12.001C23.9998 11.4266 23.9586 10.862 23.8805 10.3091Z" fill="black"/>
<path d="M12.0001 0C8.72696 0 5.76043 1.31109 3.59546 3.43603H20.4048C18.2399 1.31109 15.2733 0 12.0001 0Z" fill="#6DA544"/>
<path d="M10.3076 10.3091H23.8802C23.709 9.096 23.3567 7.94128 22.851 6.87305H6.87158L10.3076 10.3091Z" fill="#D80027"/>
<path d="M6.81934 17.1821H22.8266C23.3382 16.1147 23.6961 14.9598 23.8729 13.7461H10.2554C8.92473 15.0767 7.79701 16.2045 6.81934 17.1821Z" fill="#D80027"/>
<path d="M11.9999 24.001C15.2462 24.001 18.1909 22.7114 20.3511 20.6172H3.64868C5.80887 22.7114 8.75356 24.001 11.9999 24.001Z" fill="#6DA544"/>
<path d="M4.28528 2.81055C4.01852 3.0347 3.76113 3.26969 3.51489 3.51583L12.0002 12.0011L3.51489 20.4865C3.76108 20.7326 4.01852 20.9676 4.28528 21.1917L13.4759 12.0011L4.28528 2.81055Z" fill="black"/>
<path d="M4.82467 8.86914L5.60163 11.2605H8.11624L6.08195 12.7386L6.85895 15.13L4.82467 13.652L2.79034 15.13L3.56744 12.7386L1.5332 11.2605H4.04767L4.82467 8.86914Z" fill="#D80027"/>
<path d="M6.96209 12.195L4.93718 11.4776C4.93718 11.4776 4.78756 10.074 4.77851 10.0264C4.70979 9.66442 4.39165 9.39062 4.00962 9.39062C3.57743 9.39062 3.22699 9.74102 3.22699 10.1732C3.22699 10.2449 3.23745 10.314 3.25549 10.38L2.68774 10.9515C2.68774 10.9515 3.36209 10.9515 3.69724 10.9515C3.69724 11.9993 2.91537 11.9993 2.91537 13.0428L3.3491 14.0863H5.95779L6.3926 13.0428H6.39242C6.43596 12.9427 6.4624 12.8394 6.47332 12.7362C6.84813 12.5846 6.96209 12.195 6.96209 12.195Z" fill="#FFDA44"/>
</g>
<defs>
<clipPath id="clip0_19978_6515">
<rect width="24" height="24" fill="white"/>
</clipPath>
</defs>
</svg>
